%TF.GenerationSoftware,KiCad,Pcbnew,8.0.7*%
%TF.CreationDate,2024-12-15T23:10:09+01:00*%
%TF.ProjectId,leany,6c65616e-792e-46b6-9963-61645f706362,rev?*%
%TF.SameCoordinates,Original*%
%TF.FileFunction,Paste,Top*%
%TF.FilePolarity,Positive*%
%FSLAX46Y46*%
G04 Gerber Fmt 4.6, Leading zero omitted, Abs format (unit mm)*
G04 Created by KiCad (PCBNEW 8.0.7) date 2024-12-15 23:10:09*
%MOMM*%
%LPD*%
G01*
G04 APERTURE LIST*
G04 Aperture macros list*
%AMRoundRect*
0 Rectangle with rounded corners*
0 $1 Rounding radius*
0 $2 $3 $4 $5 $6 $7 $8 $9 X,Y pos of 4 corners*
0 Add a 4 corners polygon primitive as box body*
4,1,4,$2,$3,$4,$5,$6,$7,$8,$9,$2,$3,0*
0 Add four circle primitives for the rounded corners*
1,1,$1+$1,$2,$3*
1,1,$1+$1,$4,$5*
1,1,$1+$1,$6,$7*
1,1,$1+$1,$8,$9*
0 Add four rect primitives between the rounded corners*
20,1,$1+$1,$2,$3,$4,$5,0*
20,1,$1+$1,$4,$5,$6,$7,0*
20,1,$1+$1,$6,$7,$8,$9,0*
20,1,$1+$1,$8,$9,$2,$3,0*%
G04 Aperture macros list end*
%ADD10RoundRect,0.150000X0.587500X0.150000X-0.587500X0.150000X-0.587500X-0.150000X0.587500X-0.150000X0*%
%ADD11RoundRect,0.087500X-0.225000X-0.087500X0.225000X-0.087500X0.225000X0.087500X-0.225000X0.087500X0*%
%ADD12RoundRect,0.087500X-0.087500X-0.225000X0.087500X-0.225000X0.087500X0.225000X-0.087500X0.225000X0*%
%ADD13RoundRect,0.225000X-0.225000X-0.250000X0.225000X-0.250000X0.225000X0.250000X-0.225000X0.250000X0*%
%ADD14RoundRect,0.225000X0.225000X0.250000X-0.225000X0.250000X-0.225000X-0.250000X0.225000X-0.250000X0*%
%ADD15RoundRect,0.075000X-0.662500X-0.075000X0.662500X-0.075000X0.662500X0.075000X-0.662500X0.075000X0*%
%ADD16RoundRect,0.075000X-0.075000X-0.662500X0.075000X-0.662500X0.075000X0.662500X-0.075000X0.662500X0*%
%ADD17RoundRect,0.200000X-0.275000X0.200000X-0.275000X-0.200000X0.275000X-0.200000X0.275000X0.200000X0*%
%ADD18RoundRect,0.200000X0.275000X-0.200000X0.275000X0.200000X-0.275000X0.200000X-0.275000X-0.200000X0*%
%ADD19RoundRect,0.225000X-0.250000X0.225000X-0.250000X-0.225000X0.250000X-0.225000X0.250000X0.225000X0*%
%ADD20R,1.550000X1.300000*%
%ADD21R,2.400000X1.900000*%
%ADD22RoundRect,0.150000X-0.825000X-0.150000X0.825000X-0.150000X0.825000X0.150000X-0.825000X0.150000X0*%
%ADD23R,0.800000X1.000000*%
%ADD24R,1.500000X0.700000*%
%ADD25R,1.500000X1.100000*%
%ADD26RoundRect,0.250000X-0.475000X0.250000X-0.475000X-0.250000X0.475000X-0.250000X0.475000X0.250000X0*%
%ADD27RoundRect,0.225000X0.250000X-0.225000X0.250000X0.225000X-0.250000X0.225000X-0.250000X-0.225000X0*%
G04 APERTURE END LIST*
D10*
%TO.C,Q1*%
X166547500Y-84950000D03*
X166547500Y-83050000D03*
X164672500Y-84000000D03*
%TD*%
D11*
%TO.C,U1*%
X135170000Y-91787500D03*
X135170000Y-92287500D03*
X135170000Y-92787500D03*
X135170000Y-93287500D03*
D12*
X135832500Y-93450000D03*
X136332500Y-93450000D03*
X136832500Y-93450000D03*
D11*
X137495000Y-93287500D03*
X137495000Y-92787500D03*
X137495000Y-92287500D03*
X137495000Y-91787500D03*
D12*
X136832500Y-91625000D03*
X136332500Y-91625000D03*
X135832500Y-91625000D03*
%TD*%
D13*
%TO.C,C8*%
X122420000Y-75762500D03*
X123970000Y-75762500D03*
%TD*%
D14*
%TO.C,C10*%
X170645000Y-62005000D03*
X169095000Y-62005000D03*
%TD*%
D15*
%TO.C,U2*%
X132332500Y-75037500D03*
X132332500Y-75537500D03*
X132332500Y-76037500D03*
X132332500Y-76537500D03*
X132332500Y-77037500D03*
X132332500Y-77537500D03*
X132332500Y-78037500D03*
X132332500Y-78537500D03*
X132332500Y-79037500D03*
X132332500Y-79537500D03*
X132332500Y-80037500D03*
X132332500Y-80537500D03*
D16*
X133745000Y-81950000D03*
X134245000Y-81950000D03*
X134745000Y-81950000D03*
X135245000Y-81950000D03*
X135745000Y-81950000D03*
X136245000Y-81950000D03*
X136745000Y-81950000D03*
X137245000Y-81950000D03*
X137745000Y-81950000D03*
X138245000Y-81950000D03*
X138745000Y-81950000D03*
X139245000Y-81950000D03*
D15*
X140657500Y-80537500D03*
X140657500Y-80037500D03*
X140657500Y-79537500D03*
X140657500Y-79037500D03*
X140657500Y-78537500D03*
X140657500Y-78037500D03*
X140657500Y-77537500D03*
X140657500Y-77037500D03*
X140657500Y-76537500D03*
X140657500Y-76037500D03*
X140657500Y-75537500D03*
X140657500Y-75037500D03*
D16*
X139245000Y-73625000D03*
X138745000Y-73625000D03*
X138245000Y-73625000D03*
X137745000Y-73625000D03*
X137245000Y-73625000D03*
X136745000Y-73625000D03*
X136245000Y-73625000D03*
X135745000Y-73625000D03*
X135245000Y-73625000D03*
X134745000Y-73625000D03*
X134245000Y-73625000D03*
X133745000Y-73625000D03*
%TD*%
D17*
%TO.C,R1*%
X137145000Y-88712500D03*
X137145000Y-90362500D03*
%TD*%
D18*
%TO.C,R7*%
X116145000Y-101175000D03*
X116145000Y-99525000D03*
%TD*%
D19*
%TO.C,C2*%
X135300000Y-95725000D03*
X135300000Y-97275000D03*
%TD*%
D13*
%TO.C,C3*%
X100625000Y-78300000D03*
X102175000Y-78300000D03*
%TD*%
D18*
%TO.C,R6*%
X114645000Y-101150000D03*
X114645000Y-99500000D03*
%TD*%
D13*
%TO.C,C7*%
X142320000Y-73875000D03*
X143870000Y-73875000D03*
%TD*%
%TO.C,C9*%
X122420000Y-77262500D03*
X123970000Y-77262500D03*
%TD*%
D18*
%TO.C,R4*%
X168730000Y-84985000D03*
X168730000Y-83335000D03*
%TD*%
D20*
%TO.C,SW2*%
X139125000Y-117575000D03*
X147075000Y-117575000D03*
X139125000Y-122075000D03*
X147075000Y-122075000D03*
%TD*%
D21*
%TO.C,Y1*%
X126745000Y-78312500D03*
X126745000Y-74212500D03*
%TD*%
D14*
%TO.C,C5*%
X128370000Y-81175000D03*
X126820000Y-81175000D03*
%TD*%
D22*
%TO.C,U3*%
X167345000Y-63735000D03*
X167345000Y-65005000D03*
X167345000Y-66275000D03*
X167345000Y-67545000D03*
X167345000Y-68815000D03*
X167345000Y-70085000D03*
X167345000Y-71355000D03*
X167345000Y-72625000D03*
X172295000Y-72625000D03*
X172295000Y-71355000D03*
X172295000Y-70085000D03*
X172295000Y-68815000D03*
X172295000Y-67545000D03*
X172295000Y-66275000D03*
X172295000Y-65005000D03*
X172295000Y-63735000D03*
%TD*%
D13*
%TO.C,C6*%
X140770000Y-82725000D03*
X142320000Y-82725000D03*
%TD*%
D18*
%TO.C,R12*%
X137995000Y-71300000D03*
X137995000Y-69650000D03*
%TD*%
D23*
%TO.C,SW1*%
X92795000Y-64575000D03*
X90585000Y-64575000D03*
X92795000Y-71875000D03*
X90585000Y-71875000D03*
D24*
X93445000Y-65975000D03*
X93445000Y-68975000D03*
X93445000Y-70475000D03*
%TD*%
D25*
%TO.C,D1*%
X114595000Y-102825000D03*
X117595000Y-102825000D03*
X117595000Y-104325000D03*
X114595000Y-104325000D03*
%TD*%
D26*
%TO.C,C1*%
X137100000Y-95750000D03*
X137100000Y-97650000D03*
%TD*%
D17*
%TO.C,R3*%
X129545000Y-75287500D03*
X129545000Y-76937500D03*
%TD*%
D18*
%TO.C,R11*%
X136517050Y-71300000D03*
X136517050Y-69650000D03*
%TD*%
%TO.C,R8*%
X117645000Y-101150000D03*
X117645000Y-99500000D03*
%TD*%
%TO.C,R5*%
X135045000Y-71300000D03*
X135045000Y-69650000D03*
%TD*%
D27*
%TO.C,C4*%
X132595000Y-72650000D03*
X132595000Y-71100000D03*
%TD*%
D20*
%TO.C,SW3*%
X159500000Y-122025000D03*
X151550000Y-122025000D03*
X159500000Y-117525000D03*
X151550000Y-117525000D03*
%TD*%
D17*
%TO.C,R2*%
X134895000Y-88612500D03*
X134895000Y-90262500D03*
%TD*%
M02*
