M48
; DRILL file {KiCad 8.0.7} date 2024-12-15T23:10:09+0100
; FORMAT={-:-/ absolute / inch / decimal}
; #@! TF.CreationDate,2024-12-15T23:10:09+01:00
; #@! TF.GenerationSoftware,Kicad,Pcbnew,8.0.7
; #@! TF.FileFunction,Plated,1,2,PTH
FMAT,2
INCH
; #@! TA.AperFunction,Plated,PTH,ComponentDrill
T1C0.0079
; #@! TA.AperFunction,Plated,PTH,ViaDrill
T2C0.0118
; #@! TA.AperFunction,Plated,PTH,ComponentDrill
T3C0.0236
; #@! TA.AperFunction,Plated,PTH,ComponentDrill
T4C0.0390
; #@! TA.AperFunction,Plated,PTH,ComponentDrill
T5C0.0394
; #@! TA.AperFunction,Plated,PTH,ComponentDrill
T6C0.0512
%
G90
G05
T1
X6.9978Y-3.6644
X6.9978Y-3.7077
X6.9978Y-3.751
X7.0411Y-3.6644
X7.0411Y-3.7077
X7.0411Y-3.751
X7.0844Y-3.6644
X7.0844Y-3.7077
X7.0844Y-3.751
T2
X3.5823Y-4.1624
X3.5829Y-4.1955
X3.5835Y-4.097
X3.5835Y-4.2547
X3.5839Y-4.1293
X3.5839Y-4.2262
X3.5839Y-4.2854
X3.5848Y-4.0681
X3.7321Y-2.9085
X3.736Y-2.5679
X3.736Y-2.5935
X3.736Y-2.6191
X3.736Y-2.938
X3.7577Y-2.8986
X3.7636Y-2.9281
X4.0492Y-3.4744
X4.0492Y-3.5
X4.0492Y-3.5256
X4.0687Y-3.0837
X4.7656Y-2.9616
X4.7656Y-2.9872
X4.7656Y-3.0128
X4.7656Y-3.0404
X4.7754Y-3.1352
X4.7754Y-3.1852
X5.1219Y-3.0817
X5.1455Y-3.0915
X5.1614Y-2.7657
X5.1614Y-2.7933
X5.1654Y-2.8189
X5.1959Y-2.9014
X5.2232Y-2.9008
X5.2262Y-3.4222
X5.2498Y-3.2805
X5.2518Y-3.5896
X5.2596Y-3.0423
X5.2616Y-3.6703
X5.2695Y-3.6053
X5.2813Y-3.1112
X5.2813Y-3.2864
X5.2833Y-2.8463
X5.2951Y-3.3386
X5.2951Y-3.4419
X5.2986Y-2.95
X5.3187Y-3.0837
X5.3187Y-3.1093
X5.3443Y-3.0837
X5.3443Y-3.1093
X5.3541Y-3.6407
X5.3679Y-3.4121
X5.3719Y-3.3775
X5.3758Y-2.7018
X5.3797Y-3.6407
X5.3974Y-3.4596
X5.4331Y-4.875
X5.4348Y-2.7018
X5.4543Y-3.4265
X5.4553Y-3.3486
X5.4606Y-4.875
X5.4683Y-3.0837
X5.4742Y-3.123
X5.4862Y-4.875
X5.49Y-3.003
X5.5118Y-4.875
X5.5372Y-3.3671
X5.5372Y-3.4045
X5.5785Y-2.94
X5.6022Y-2.5738
X5.6022Y-2.5994
X5.6022Y-2.9833
X5.6031Y-3.0571
X5.6278Y-2.5738
X5.6278Y-2.5994
X5.6297Y-2.9793
X5.6356Y-3.06
X5.6868Y-3.0876
X5.7183Y-3.2234
X5.925Y-2.812
X5.9604Y-2.8159
X6.0303Y-3.0881
X6.0579Y-3.0704
X6.0697Y-3.1265
X6.0982Y-3.1088
X6.1967Y-3.156
X6.2441Y-4.873
X6.2557Y-2.8908
X6.2697Y-4.873
X6.2793Y-2.8672
X6.2813Y-3.3548
X6.2953Y-4.873
X6.3189Y-4.873
X6.4289Y-3.8356
X6.4862Y-3.3957
X6.5181Y-2.5073
X6.5512Y-3.3976
X6.5833Y-2.4565
X6.612Y-2.4413
X6.6161Y-3.3976
X6.6711Y-2.7096
X6.6711Y-2.7589
X6.7813Y-3.1093
X6.7931Y-3.1309
X6.8049Y-3.1093
X6.815Y-2.9055
X6.8187Y-3.1309
X6.8226Y-3.686
X6.8305Y-3.1093
X6.8443Y-3.1309
X6.8443Y-3.7077
X6.864Y-3.1132
X6.864Y-3.7293
X6.9132Y-3.6171
X6.9211Y-3.6407
X6.9321Y-3.238
X6.9417Y-3.6535
X6.9921Y-3.8268
X7.0843Y-3.4541
X7.0965Y-3.8248
X7.1317Y-4.4852
X7.16Y-3.7687
X7.164Y-3.7372
X7.1766Y-3.5388
X7.2441Y-4.5965
X7.2894Y-3.2323
X7.3307Y-4.4685
X7.3896Y-4.564
X7.5333Y-4.0217
X7.5372Y-3.7451
X7.5372Y-3.8639
X7.5963Y-4.0197
X7.6789Y-3.2707
X7.7396Y-3.0421
X7.7411Y-2.9868
X7.7411Y-3.0136
T4
X7.6789Y-3.0108
X7.6789Y-3.188
T5
X3.9596Y-3.1843
X3.9596Y-3.2843
X3.9596Y-3.3843
X3.9596Y-3.4843
X6.3602Y-2.6878
X6.3602Y-2.7878
X6.3602Y-2.8878
X6.3602Y-2.9878
X6.3602Y-3.0878
X6.3602Y-3.1878
X6.3602Y-3.2878
X6.3602Y-3.3878
T6
X7.5809Y-2.9612
X7.5809Y-3.2372
T3
G00X7.5085Y-3.6242
M15
G01X7.4652Y-3.6242
M16
G05
G00X7.5085Y-3.9644
M15
G01X7.4652Y-3.9644
M16
G05
G00X7.6632Y-3.6242
M15
G01X7.6396Y-3.6242
M16
G05
G00X7.6632Y-3.9644
M15
G01X7.6396Y-3.9644
M16
G05
M30
