%TF.GenerationSoftware,KiCad,Pcbnew,8.0.7*%
%TF.CreationDate,2024-12-15T23:10:09+01:00*%
%TF.ProjectId,leany,6c65616e-792e-46b6-9963-61645f706362,rev?*%
%TF.SameCoordinates,Original*%
%TF.FileFunction,Copper,L2,Bot*%
%TF.FilePolarity,Positive*%
%FSLAX46Y46*%
G04 Gerber Fmt 4.6, Leading zero omitted, Abs format (unit mm)*
G04 Created by KiCad (PCBNEW 8.0.7) date 2024-12-15 23:10:09*
%MOMM*%
%LPD*%
G01*
G04 APERTURE LIST*
G04 Aperture macros list*
%AMRoundRect*
0 Rectangle with rounded corners*
0 $1 Rounding radius*
0 $2 $3 $4 $5 $6 $7 $8 $9 X,Y pos of 4 corners*
0 Add a 4 corners polygon primitive as box body*
4,1,4,$2,$3,$4,$5,$6,$7,$8,$9,$2,$3,0*
0 Add four circle primitives for the rounded corners*
1,1,$1+$1,$2,$3*
1,1,$1+$1,$4,$5*
1,1,$1+$1,$6,$7*
1,1,$1+$1,$8,$9*
0 Add four rect primitives between the rounded corners*
20,1,$1+$1,$2,$3,$4,$5,0*
20,1,$1+$1,$4,$5,$6,$7,0*
20,1,$1+$1,$6,$7,$8,$9,0*
20,1,$1+$1,$8,$9,$2,$3,0*%
G04 Aperture macros list end*
%TA.AperFunction,ComponentPad*%
%ADD10R,1.700000X1.700000*%
%TD*%
%TA.AperFunction,ComponentPad*%
%ADD11O,1.700000X1.700000*%
%TD*%
%TA.AperFunction,SMDPad,CuDef*%
%ADD12RoundRect,0.250000X0.850000X-0.375000X0.850000X0.375000X-0.850000X0.375000X-0.850000X-0.375000X0*%
%TD*%
%TA.AperFunction,SMDPad,CuDef*%
%ADD13RoundRect,0.225000X-0.250000X0.225000X-0.250000X-0.225000X0.250000X-0.225000X0.250000X0.225000X0*%
%TD*%
%TA.AperFunction,SMDPad,CuDef*%
%ADD14RoundRect,0.225000X0.250000X-0.225000X0.250000X0.225000X-0.250000X0.225000X-0.250000X-0.225000X0*%
%TD*%
%TA.AperFunction,SMDPad,CuDef*%
%ADD15R,1.000000X1.000000*%
%TD*%
%TA.AperFunction,SMDPad,CuDef*%
%ADD16RoundRect,0.200000X-0.275000X0.200000X-0.275000X-0.200000X0.275000X-0.200000X0.275000X0.200000X0*%
%TD*%
%TA.AperFunction,SMDPad,CuDef*%
%ADD17RoundRect,0.250000X0.250000X0.475000X-0.250000X0.475000X-0.250000X-0.475000X0.250000X-0.475000X0*%
%TD*%
%TA.AperFunction,SMDPad,CuDef*%
%ADD18RoundRect,0.250000X0.475000X-0.250000X0.475000X0.250000X-0.475000X0.250000X-0.475000X-0.250000X0*%
%TD*%
%TA.AperFunction,SMDPad,CuDef*%
%ADD19RoundRect,0.200000X-0.200000X-0.275000X0.200000X-0.275000X0.200000X0.275000X-0.200000X0.275000X0*%
%TD*%
%TA.AperFunction,SMDPad,CuDef*%
%ADD20RoundRect,0.150000X0.150000X-0.512500X0.150000X0.512500X-0.150000X0.512500X-0.150000X-0.512500X0*%
%TD*%
%TA.AperFunction,SMDPad,CuDef*%
%ADD21RoundRect,0.225000X-0.225000X-0.250000X0.225000X-0.250000X0.225000X0.250000X-0.225000X0.250000X0*%
%TD*%
%TA.AperFunction,SMDPad,CuDef*%
%ADD22RoundRect,0.200000X0.200000X0.275000X-0.200000X0.275000X-0.200000X-0.275000X0.200000X-0.275000X0*%
%TD*%
%TA.AperFunction,SMDPad,CuDef*%
%ADD23R,1.450000X0.600000*%
%TD*%
%TA.AperFunction,SMDPad,CuDef*%
%ADD24R,1.450000X0.300000*%
%TD*%
%TA.AperFunction,ComponentPad*%
%ADD25O,1.600000X1.000000*%
%TD*%
%TA.AperFunction,ComponentPad*%
%ADD26O,2.100000X1.000000*%
%TD*%
%TA.AperFunction,SMDPad,CuDef*%
%ADD27RoundRect,0.062500X0.350000X0.062500X-0.350000X0.062500X-0.350000X-0.062500X0.350000X-0.062500X0*%
%TD*%
%TA.AperFunction,SMDPad,CuDef*%
%ADD28RoundRect,0.062500X0.062500X0.350000X-0.062500X0.350000X-0.062500X-0.350000X0.062500X-0.350000X0*%
%TD*%
%TA.AperFunction,HeatsinkPad*%
%ADD29C,0.500000*%
%TD*%
%TA.AperFunction,HeatsinkPad*%
%ADD30R,2.700000X2.700000*%
%TD*%
%TA.AperFunction,ComponentPad*%
%ADD31C,2.100000*%
%TD*%
%TA.AperFunction,ComponentPad*%
%ADD32C,1.750000*%
%TD*%
%TA.AperFunction,SMDPad,CuDef*%
%ADD33R,7.340000X6.350000*%
%TD*%
%TA.AperFunction,SMDPad,CuDef*%
%ADD34RoundRect,0.250000X-0.250000X-0.475000X0.250000X-0.475000X0.250000X0.475000X-0.250000X0.475000X0*%
%TD*%
%TA.AperFunction,SMDPad,CuDef*%
%ADD35RoundRect,0.150000X-0.512500X-0.150000X0.512500X-0.150000X0.512500X0.150000X-0.512500X0.150000X0*%
%TD*%
%TA.AperFunction,ViaPad*%
%ADD36C,0.600000*%
%TD*%
%TA.AperFunction,Conductor*%
%ADD37C,0.300000*%
%TD*%
%TA.AperFunction,Conductor*%
%ADD38C,0.200000*%
%TD*%
%TA.AperFunction,Conductor*%
%ADD39C,0.400000*%
%TD*%
G04 APERTURE END LIST*
D10*
%TO.P,J1,1,Pin_1*%
%TO.N,GND*%
X100575000Y-88500000D03*
D11*
%TO.P,J1,2,Pin_2*%
%TO.N,/DEBUG_SWDCLK*%
X100575000Y-85960000D03*
%TO.P,J1,3,Pin_3*%
%TO.N,/DEBUG_SWDIO*%
X100575000Y-83420000D03*
%TO.P,J1,4,Pin_4*%
%TO.N,+3V3*%
X100575000Y-80880000D03*
%TD*%
%TO.P,J2,8,Pin_8*%
%TO.N,Net-(J2-Pin_8)*%
X161550000Y-86050000D03*
%TO.P,J2,7,Pin_7*%
%TO.N,/ST7735S_CS*%
X161550000Y-83510000D03*
%TO.P,J2,6,Pin_6*%
%TO.N,/ST7735S_DC*%
X161550000Y-80970000D03*
%TO.P,J2,5,Pin_5*%
%TO.N,/ST7735S_RST*%
X161550000Y-78430000D03*
%TO.P,J2,4,Pin_4*%
%TO.N,/ST7735S_MOSI*%
X161550000Y-75890000D03*
%TO.P,J2,3,Pin_3*%
%TO.N,/ST7735S_SCL*%
X161550000Y-73350000D03*
%TO.P,J2,2,Pin_2*%
%TO.N,+3V3*%
X161550000Y-70810000D03*
D10*
%TO.P,J2,1,Pin_1*%
%TO.N,GND*%
X161550000Y-68270000D03*
%TD*%
D12*
%TO.P,L1,1*%
%TO.N,Net-(C11-Pad1)*%
X175845000Y-90600000D03*
%TO.P,L1,2*%
%TO.N,SYS*%
X175845000Y-88450000D03*
%TD*%
D13*
%TO.P,C17,1*%
%TO.N,SYS*%
X167945000Y-83450000D03*
%TO.P,C17,2*%
%TO.N,GND*%
X167945000Y-85000000D03*
%TD*%
D14*
%TO.P,C14,1*%
%TO.N,Net-(U5-PSEL)*%
X182245000Y-92450000D03*
%TO.P,C14,2*%
%TO.N,GND*%
X182245000Y-90900000D03*
%TD*%
D15*
%TO.P,TP2,1,1*%
%TO.N,Net-(U5-PSEL)*%
X186445000Y-93050000D03*
%TD*%
D16*
%TO.P,R10,1*%
%TO.N,Net-(J3-CC2)*%
X191345000Y-102950000D03*
%TO.P,R10,2*%
%TO.N,GND*%
X191345000Y-104600000D03*
%TD*%
D17*
%TO.P,C12,1*%
%TO.N,SYS*%
X173600000Y-92200000D03*
%TO.P,C12,2*%
%TO.N,GND*%
X171700000Y-92200000D03*
%TD*%
D13*
%TO.P,C16,1*%
%TO.N,SYS*%
X166345000Y-83475000D03*
%TO.P,C16,2*%
%TO.N,GND*%
X166345000Y-85025000D03*
%TD*%
D18*
%TO.P,C13,1*%
%TO.N,Net-(U5-PSEL)*%
X184000000Y-92400000D03*
%TO.P,C13,2*%
%TO.N,GND*%
X184000000Y-90500000D03*
%TD*%
D19*
%TO.P,R17,1*%
%TO.N,BATT_EN*%
X182225000Y-115300000D03*
%TO.P,R17,2*%
%TO.N,GND*%
X183875000Y-115300000D03*
%TD*%
D20*
%TO.P,U4,1,VIN*%
%TO.N,SYS*%
X171707500Y-83062500D03*
%TO.P,U4,2,GND*%
%TO.N,GND*%
X170757500Y-83062500D03*
%TO.P,U4,3,EN*%
%TO.N,SYS*%
X169807500Y-83062500D03*
%TO.P,U4,4,NC*%
%TO.N,unconnected-(U4-NC-Pad4)*%
X169807500Y-80787500D03*
%TO.P,U4,5,VOUT*%
%TO.N,+3V3*%
X171707500Y-80787500D03*
%TD*%
D21*
%TO.P,C18,1*%
%TO.N,+3V3*%
X173470000Y-82225000D03*
%TO.P,C18,2*%
%TO.N,GND*%
X175020000Y-82225000D03*
%TD*%
D22*
%TO.P,R15,1*%
%TO.N,BATT_VOLT*%
X188082500Y-110875000D03*
%TO.P,R15,2*%
%TO.N,Net-(Q2B-D)*%
X186432500Y-110875000D03*
%TD*%
D23*
%TO.P,J3,A1,GND*%
%TO.N,GND*%
X189250000Y-93125000D03*
%TO.P,J3,A4,VBUS*%
%TO.N,Net-(U5-PSEL)*%
X189250000Y-93925000D03*
D24*
%TO.P,J3,A5,CC1*%
%TO.N,Net-(J3-CC1)*%
X189250000Y-95125000D03*
%TO.P,J3,A6,D+*%
%TO.N,USB_D+*%
X189250000Y-96125000D03*
%TO.P,J3,A7,D-*%
%TO.N,USB_D-*%
X189250000Y-96625000D03*
%TO.P,J3,A8,SBU1*%
%TO.N,unconnected-(J3-SBU1-PadA8)*%
X189250000Y-97625000D03*
D23*
%TO.P,J3,A9,VBUS*%
%TO.N,Net-(U5-PSEL)*%
X189250000Y-98825000D03*
%TO.P,J3,A12,GND*%
%TO.N,GND*%
X189250000Y-99625000D03*
%TO.P,J3,B1,GND*%
X189250000Y-99625000D03*
%TO.P,J3,B4,VBUS*%
%TO.N,Net-(U5-PSEL)*%
X189250000Y-98825000D03*
D24*
%TO.P,J3,B5,CC2*%
%TO.N,Net-(J3-CC2)*%
X189250000Y-98125000D03*
%TO.P,J3,B6,D+*%
%TO.N,USB_D+*%
X189250000Y-97125000D03*
%TO.P,J3,B7,D-*%
%TO.N,USB_D-*%
X189250000Y-95625000D03*
%TO.P,J3,B8,SBU2*%
%TO.N,unconnected-(J3-SBU2-PadB8)*%
X189250000Y-94625000D03*
D23*
%TO.P,J3,B9,VBUS*%
%TO.N,Net-(U5-PSEL)*%
X189250000Y-93925000D03*
%TO.P,J3,B12,GND*%
%TO.N,GND*%
X189250000Y-93125000D03*
D25*
%TO.P,J3,S1,SHIELD*%
X194345000Y-92055000D03*
D26*
X190165000Y-92055000D03*
D25*
X194345000Y-100695000D03*
D26*
X190165000Y-100695000D03*
%TD*%
D27*
%TO.P,U5,1,VAC*%
%TO.N,Net-(U5-PSEL)*%
X180807500Y-92925000D03*
%TO.P,U5,2,PSEL*%
X180807500Y-93425000D03*
%TO.P,U5,3,PMID_GOOD*%
%TO.N,unconnected-(U5-PMID_GOOD-Pad3)*%
X180807500Y-93925000D03*
%TO.P,U5,4,STAT*%
%TO.N,unconnected-(U5-STAT-Pad4)*%
X180807500Y-94425000D03*
%TO.P,U5,5,SCL*%
%TO.N,CHG_SCL*%
X180807500Y-94925000D03*
%TO.P,U5,6,SDA*%
%TO.N,CHG_SDA*%
X180807500Y-95425000D03*
D28*
%TO.P,U5,7,~{INT}*%
%TO.N,CHG_INT*%
X180095000Y-96137500D03*
%TO.P,U5,8,NC*%
%TO.N,unconnected-(U5-NC-Pad8)*%
X179595000Y-96137500D03*
%TO.P,U5,9,~{CE}*%
%TO.N,GND*%
X179095000Y-96137500D03*
%TO.P,U5,10,BATSNS*%
%TO.N,+BATT*%
X178595000Y-96137500D03*
%TO.P,U5,11,TS*%
%TO.N,unconnected-(U5-TS-Pad11)*%
X178095000Y-96137500D03*
%TO.P,U5,12,~{QON}*%
%TO.N,Net-(U5-~{QON})*%
X177595000Y-96137500D03*
D27*
%TO.P,U5,13,BAT*%
%TO.N,+BATT*%
X176882500Y-95425000D03*
%TO.P,U5,14,BAT*%
X176882500Y-94925000D03*
%TO.P,U5,15,SYS*%
%TO.N,SYS*%
X176882500Y-94425000D03*
%TO.P,U5,16,SYS*%
X176882500Y-93925000D03*
%TO.P,U5,17,PGND*%
%TO.N,GND*%
X176882500Y-93425000D03*
%TO.P,U5,18,PGND*%
X176882500Y-92925000D03*
D28*
%TO.P,U5,19,SW*%
%TO.N,Net-(C11-Pad1)*%
X177595000Y-92212500D03*
%TO.P,U5,20,SW*%
X178095000Y-92212500D03*
%TO.P,U5,21,BTST*%
%TO.N,Net-(U5-BTST)*%
X178595000Y-92212500D03*
%TO.P,U5,22,REGN*%
%TO.N,Net-(U5-REGN)*%
X179095000Y-92212500D03*
%TO.P,U5,23,PMID*%
%TO.N,unconnected-(U5-PMID-Pad23)*%
X179595000Y-92212500D03*
%TO.P,U5,24,VBUS*%
%TO.N,Net-(U5-PSEL)*%
X180095000Y-92212500D03*
D29*
%TO.P,U5,25,PAD*%
%TO.N,GND*%
X179945000Y-95275000D03*
X179945000Y-94175000D03*
X179945000Y-93075000D03*
X178845000Y-95275000D03*
X178845000Y-94175000D03*
D30*
X178845000Y-94175000D03*
D29*
X178845000Y-93075000D03*
X177745000Y-95275000D03*
X177745000Y-94175000D03*
X177745000Y-93075000D03*
%TD*%
D18*
%TO.P,C19,1*%
%TO.N,+3V3*%
X172150000Y-77150000D03*
%TO.P,C19,2*%
%TO.N,GND*%
X172150000Y-75250000D03*
%TD*%
D13*
%TO.P,C15,1*%
%TO.N,SYS*%
X164745000Y-83475000D03*
%TO.P,C15,2*%
%TO.N,GND*%
X164745000Y-85025000D03*
%TD*%
D31*
%TO.P,SW4,*%
%TO.N,*%
X192555000Y-82225000D03*
X192555000Y-75215000D03*
D32*
%TO.P,SW4,1,1*%
%TO.N,Net-(U5-~{QON})*%
X195045000Y-80975000D03*
%TO.P,SW4,2,2*%
%TO.N,GND*%
X195045000Y-76475000D03*
%TD*%
D33*
%TO.P,BT1,1,+*%
%TO.N,+BATT*%
X174295000Y-105775000D03*
%TO.P,BT1,2,-*%
%TO.N,GND*%
X95635000Y-105775000D03*
%TD*%
D13*
%TO.P,C11,1*%
%TO.N,Net-(C11-Pad1)*%
X178045000Y-89200000D03*
%TO.P,C11,2*%
%TO.N,Net-(U5-BTST)*%
X178045000Y-90750000D03*
%TD*%
D19*
%TO.P,R14,1*%
%TO.N,Net-(Q2B-G)*%
X182657500Y-110075000D03*
%TO.P,R14,2*%
%TO.N,Net-(Q2A-D)*%
X184307500Y-110075000D03*
%TD*%
D18*
%TO.P,C21,1*%
%TO.N,Net-(U5-REGN)*%
X179845000Y-90725000D03*
%TO.P,C21,2*%
%TO.N,GND*%
X179845000Y-88825000D03*
%TD*%
D15*
%TO.P,TP3,1,1*%
%TO.N,+3V3*%
X174345000Y-77625000D03*
%TD*%
D34*
%TO.P,C20,1*%
%TO.N,+BATT*%
X178600000Y-98750000D03*
%TO.P,C20,2*%
%TO.N,GND*%
X180500000Y-98750000D03*
%TD*%
D16*
%TO.P,R9,1*%
%TO.N,Net-(J3-CC1)*%
X192945000Y-102925000D03*
%TO.P,R9,2*%
%TO.N,GND*%
X192945000Y-104575000D03*
%TD*%
D19*
%TO.P,R16,1*%
%TO.N,GND*%
X186420000Y-112375000D03*
%TO.P,R16,2*%
%TO.N,BATT_VOLT*%
X188070000Y-112375000D03*
%TD*%
D15*
%TO.P,TP5,1,1*%
%TO.N,BATT_VOLT*%
X187695000Y-114325000D03*
%TD*%
%TO.P,TP1,1,1*%
%TO.N,SYS*%
X174345000Y-84225000D03*
%TD*%
D16*
%TO.P,R13,1*%
%TO.N,Net-(Q2B-G)*%
X180782500Y-110700000D03*
%TO.P,R13,2*%
%TO.N,+BATT*%
X180782500Y-112350000D03*
%TD*%
D35*
%TO.P,Q2,1,G*%
%TO.N,BATT_EN*%
X182495000Y-113525000D03*
%TO.P,Q2,2,S*%
%TO.N,+BATT*%
X182495000Y-112575000D03*
%TO.P,Q2,3,G*%
%TO.N,Net-(Q2B-G)*%
X182495000Y-111625000D03*
%TO.P,Q2,4,D*%
%TO.N,Net-(Q2B-D)*%
X184770000Y-111625000D03*
%TO.P,Q2,5,S*%
%TO.N,GND*%
X184770000Y-112575000D03*
%TO.P,Q2,6,D*%
%TO.N,Net-(Q2A-D)*%
X184770000Y-113525000D03*
%TD*%
D15*
%TO.P,TP4,1,1*%
%TO.N,GND*%
X189545000Y-102775000D03*
%TD*%
D36*
%TO.N,GND*%
X135995000Y-92475000D03*
X91020000Y-108070000D03*
X164750000Y-86250000D03*
X182285000Y-89885000D03*
X94895000Y-65875000D03*
X139350000Y-123825000D03*
X131100000Y-70950000D03*
X142995000Y-75675000D03*
X167215000Y-62395000D03*
X176075000Y-82245000D03*
X196625000Y-75865000D03*
X168050000Y-86300000D03*
X159900000Y-123775000D03*
X184000000Y-116750000D03*
X94895000Y-66525000D03*
X121045000Y-77225000D03*
X91030000Y-107345000D03*
X91020000Y-104065000D03*
X160500000Y-123775000D03*
X173295000Y-93625000D03*
X90990000Y-105725000D03*
X103345000Y-78325000D03*
X175795000Y-92475000D03*
X131100000Y-70250000D03*
X91030000Y-108850000D03*
X133395000Y-91175000D03*
X166400000Y-86300000D03*
X138000000Y-123825000D03*
X165560000Y-63685000D03*
X174345000Y-94725000D03*
X196625000Y-76545000D03*
X130695000Y-78525000D03*
X185150000Y-82100000D03*
X91055000Y-103330000D03*
X176320000Y-92800000D03*
X121045000Y-75225000D03*
X91005000Y-106565000D03*
X175595000Y-91875000D03*
X102850000Y-88900000D03*
X173100000Y-73800000D03*
X173845000Y-94175000D03*
X102850000Y-89550000D03*
X167945000Y-62010000D03*
X158600000Y-123775000D03*
X131200000Y-71600000D03*
X138700000Y-123825000D03*
X133845000Y-91575000D03*
X142295000Y-75775000D03*
X159250000Y-123775000D03*
X179940000Y-87735000D03*
X134195000Y-72295000D03*
X134585000Y-74930000D03*
X136645000Y-92475000D03*
X196585000Y-77270000D03*
X140000000Y-123825000D03*
X186200000Y-113500000D03*
X121045000Y-75875000D03*
X130095000Y-78275000D03*
X121045000Y-76525000D03*
X94895000Y-65225000D03*
X91030000Y-104885000D03*
%TO.N,+3V3*%
X141695000Y-74675000D03*
X172245000Y-78975000D03*
X173845000Y-79525000D03*
X142295000Y-66025000D03*
X132745000Y-86925000D03*
X135745000Y-78325000D03*
X135745000Y-78975000D03*
X134495000Y-87425000D03*
X134145000Y-79025000D03*
X133595000Y-77275000D03*
X142945000Y-66025000D03*
X95595000Y-74375000D03*
X95445000Y-73625000D03*
X135095000Y-78325000D03*
X142295000Y-65375000D03*
X174345000Y-79075000D03*
X131975000Y-73695000D03*
X94895000Y-74625000D03*
X142945000Y-65375000D03*
X172845000Y-78975000D03*
X136545000Y-68625000D03*
X135095000Y-78975000D03*
X137095000Y-87875000D03*
X138045000Y-68625000D03*
X94795000Y-73875000D03*
X173195000Y-79525000D03*
X132670000Y-73680000D03*
X173495000Y-78975000D03*
X172545000Y-79525000D03*
%TO.N,/DEBUG_SWDCLK*%
X121295000Y-80905000D03*
X138895000Y-78325000D03*
%TO.N,/DEBUG_SWDIO*%
X139445000Y-76275000D03*
X121295000Y-79635000D03*
%TO.N,/ST7735S_RST*%
X154895000Y-78962500D03*
X153870735Y-77988235D03*
%TO.N,/ST7735S_SCL*%
X158895000Y-73427500D03*
X157395000Y-80162500D03*
%TO.N,/ST7735S_DC*%
X153170000Y-78437500D03*
X154170000Y-79412500D03*
%TO.N,/ST7735S_BL*%
X159495000Y-72827500D03*
X159545000Y-85212500D03*
%TO.N,USB_D+*%
X169445000Y-68825000D03*
%TO.N,USB_D-*%
X169445000Y-70075000D03*
%TO.N,Net-(J3-CC2)*%
X191445000Y-98144327D03*
X191345000Y-102150000D03*
%TO.N,Net-(J3-CC1)*%
X191445000Y-95125000D03*
X192945000Y-102100000D03*
%TO.N,BATT_EN*%
X144445000Y-78425000D03*
X163295000Y-97425000D03*
X181145000Y-113925000D03*
%TO.N,CHG_SDA*%
X181865000Y-95725000D03*
%TO.N,CHG_SCL*%
X145245000Y-81875000D03*
X139045000Y-79325000D03*
X181965000Y-94925000D03*
%TO.N,BATT_VOLT*%
X133345000Y-83325000D03*
X187695000Y-115925000D03*
X140645000Y-86475000D03*
%TO.N,/LSM6DSO_SCL*%
X136345000Y-86668356D03*
X134495000Y-84799264D03*
%TO.N,/LSM6DSO_CS*%
X136445000Y-85787500D03*
X134145000Y-83475000D03*
%TO.N,/LSM6DSO_INT1*%
X138538015Y-87031985D03*
X133645000Y-93225000D03*
%TO.N,Net-(U5-~{QON})*%
X195045000Y-83075000D03*
X177600000Y-97200000D03*
%TO.N,/FTDI_TX*%
X143145000Y-77725000D03*
X151395000Y-71525000D03*
%TO.N,CHG_INT*%
X180250000Y-97150000D03*
X138564485Y-85055515D03*
X140645000Y-85525000D03*
%TO.N,/FTDI_RX*%
X142320000Y-77650000D03*
X150495000Y-71425000D03*
%TO.N,GND*%
X102850000Y-88250000D03*
%TD*%
D37*
%TO.N,+BATT*%
X180782500Y-112350000D02*
X181470000Y-112350000D01*
X181470000Y-112350000D02*
X181745000Y-112625000D01*
X181745000Y-112625000D02*
X182445000Y-112625000D01*
D38*
X180707500Y-112575000D02*
X180482500Y-112350000D01*
D37*
X182445000Y-112625000D02*
X182495000Y-112575000D01*
D38*
%TO.N,GND*%
X173845000Y-94175000D02*
X173295000Y-93625000D01*
X173845000Y-94175000D02*
X174345000Y-94675000D01*
X175795000Y-92475000D02*
X176245000Y-92925000D01*
X174345000Y-94675000D02*
X174345000Y-94725000D01*
X175795000Y-92475000D02*
X175595000Y-92275000D01*
X173157500Y-93487500D02*
X173295000Y-93625000D01*
X175595000Y-92275000D02*
X175595000Y-91875000D01*
X176245000Y-92925000D02*
X176882500Y-92925000D01*
X176320000Y-92800000D02*
X176320000Y-92862500D01*
X176320000Y-92862500D02*
X176882500Y-93425000D01*
D37*
%TO.N,+3V3*%
X134495000Y-87425000D02*
X135175000Y-87425000D01*
X133445000Y-86925000D02*
X132745000Y-86925000D01*
X135175000Y-87425000D02*
X135625000Y-87875000D01*
X135625000Y-87875000D02*
X137095000Y-87875000D01*
X134495000Y-87425000D02*
X133945000Y-87425000D01*
X133945000Y-87425000D02*
X133445000Y-86925000D01*
D38*
%TO.N,/DEBUG_SWDCLK*%
X138885000Y-78325000D02*
X136305000Y-80905000D01*
X136305000Y-80905000D02*
X121295000Y-80905000D01*
X138895000Y-78325000D02*
X138885000Y-78325000D01*
%TO.N,/DEBUG_SWDIO*%
X136085000Y-79635000D02*
X139445000Y-76275000D01*
X121295000Y-79635000D02*
X136085000Y-79635000D01*
%TO.N,/ST7735S_RST*%
X154845000Y-78962500D02*
X154895000Y-78962500D01*
X153870735Y-77988235D02*
X154845000Y-78962500D01*
%TO.N,/ST7735S_SCL*%
X157395000Y-80162500D02*
X157395000Y-74130000D01*
X158097500Y-73427500D02*
X158895000Y-73427500D01*
X157395000Y-74130000D02*
X158097500Y-73427500D01*
%TO.N,/ST7735S_DC*%
X154145000Y-79412500D02*
X154170000Y-79412500D01*
X153170000Y-78437500D02*
X154145000Y-79412500D01*
%TO.N,/ST7735S_BL*%
X159495000Y-72827500D02*
X159495000Y-85162500D01*
X159495000Y-85162500D02*
X159545000Y-85212500D01*
%TO.N,USB_D+*%
X189250000Y-97125000D02*
X188275000Y-97125000D01*
X188795000Y-96125000D02*
X189750000Y-96125000D01*
X188275000Y-97125000D02*
X188045000Y-96895000D01*
X191293529Y-97125000D02*
X192995000Y-95423529D01*
X189250000Y-97125000D02*
X191293529Y-97125000D01*
X188395000Y-96125000D02*
X189250000Y-96125000D01*
X188045000Y-96475000D02*
X188395000Y-96125000D01*
X188045000Y-96895000D02*
X188045000Y-96475000D01*
X192995000Y-95423529D02*
X192995000Y-86645000D01*
X175175000Y-68825000D02*
X169445000Y-68825000D01*
X192995000Y-86645000D02*
X175175000Y-68825000D01*
%TO.N,USB_D-*%
X191704820Y-95892590D02*
X190972410Y-96625000D01*
X192595000Y-86945000D02*
X175775000Y-70125000D01*
X192595000Y-95002410D02*
X192595000Y-86945000D01*
X175775000Y-70125000D02*
X169495000Y-70125000D01*
X191240000Y-95892590D02*
X191704820Y-95892590D01*
X189250000Y-95625000D02*
X190972410Y-95625000D01*
X190972410Y-96625000D02*
X189250000Y-96625000D01*
X191758705Y-95838705D02*
X192595000Y-95002410D01*
X169495000Y-70125000D02*
X169445000Y-70075000D01*
X190972410Y-95625000D02*
X191240000Y-95892590D01*
%TO.N,Net-(J3-CC2)*%
X189269327Y-98144327D02*
X189250000Y-98125000D01*
X189250000Y-98125000D02*
X189750000Y-98125000D01*
X191445000Y-98144327D02*
X189269327Y-98144327D01*
X191345000Y-102950000D02*
X191345000Y-102150000D01*
%TO.N,Net-(J3-CC1)*%
X191445000Y-95125000D02*
X189250000Y-95125000D01*
X192945000Y-102925000D02*
X192945000Y-102100000D01*
%TO.N,BATT_EN*%
X182007500Y-113525000D02*
X182495000Y-113525000D01*
X144445000Y-78575000D02*
X144445000Y-78425000D01*
X163295000Y-97425000D02*
X144445000Y-78575000D01*
%TO.N,Net-(U5-PSEL)*%
X180332500Y-92450000D02*
X182245000Y-92450000D01*
X180807500Y-92925000D02*
X181770000Y-92925000D01*
X180095000Y-92212500D02*
X180332500Y-92450000D01*
X181770000Y-92925000D02*
X182245000Y-92450000D01*
%TO.N,Net-(U5-REGN)*%
X179095000Y-91475000D02*
X179845000Y-90725000D01*
X179095000Y-92212500D02*
X179095000Y-91475000D01*
D37*
%TO.N,Net-(Q2B-G)*%
X181570000Y-110700000D02*
X182495000Y-111625000D01*
D38*
X182495000Y-110237500D02*
X182657500Y-110075000D01*
D37*
X182495000Y-111625000D02*
X182495000Y-110237500D01*
X180782500Y-110700000D02*
X181570000Y-110700000D01*
D38*
%TO.N,CHG_SDA*%
X181565000Y-95425000D02*
X181865000Y-95725000D01*
X180807500Y-95425000D02*
X181565000Y-95425000D01*
%TO.N,CHG_SCL*%
X145245000Y-81875000D02*
X141545000Y-81875000D01*
X180765000Y-94925000D02*
X180715000Y-94875000D01*
X139045000Y-79375000D02*
X139045000Y-79325000D01*
X180807500Y-94925000D02*
X181965000Y-94925000D01*
X180807500Y-94925000D02*
X180765000Y-94925000D01*
X141545000Y-81875000D02*
X139045000Y-79375000D01*
%TO.N,BATT_VOLT*%
X140601985Y-86431985D02*
X137749045Y-86431985D01*
X135608356Y-87268356D02*
X133345000Y-85005000D01*
X140645000Y-86475000D02*
X140601985Y-86431985D01*
X133345000Y-85005000D02*
X133345000Y-83325000D01*
X136912674Y-87268356D02*
X135608356Y-87268356D01*
X137749045Y-86431985D02*
X136912674Y-87268356D01*
D37*
%TO.N,Net-(Q2B-D)*%
X185682500Y-111625000D02*
X186432500Y-110875000D01*
X184770000Y-111625000D02*
X185682500Y-111625000D01*
%TO.N,Net-(Q2A-D)*%
X183632500Y-110750000D02*
X183632500Y-113049999D01*
D38*
X184107501Y-113525000D02*
X184770000Y-113525000D01*
D37*
X184307500Y-110075000D02*
X183632500Y-110750000D01*
X183632500Y-113049999D02*
X184107501Y-113525000D01*
D38*
%TO.N,/LSM6DSO_SCL*%
X136345000Y-86668356D02*
X135568356Y-86668356D01*
X135568356Y-86668356D02*
X134495000Y-85595000D01*
X134495000Y-85595000D02*
X134495000Y-84799264D01*
%TO.N,/LSM6DSO_CS*%
X134145000Y-83475000D02*
X134800000Y-83475000D01*
X134800000Y-83475000D02*
X135095000Y-83770000D01*
X135552500Y-85787500D02*
X136445000Y-85787500D01*
X135095000Y-83770000D02*
X135095000Y-85330000D01*
X135095000Y-85330000D02*
X135552500Y-85787500D01*
%TO.N,/LSM6DSO_INT1*%
X138538015Y-87794485D02*
X138538015Y-87031985D01*
X133645000Y-92687500D02*
X138538015Y-87794485D01*
X133645000Y-93225000D02*
X133645000Y-92687500D01*
D39*
%TO.N,Net-(U5-~{QON})*%
X195045000Y-80975000D02*
X195045000Y-83075000D01*
D38*
X177595000Y-96137500D02*
X177595000Y-97195000D01*
X177595000Y-97195000D02*
X177600000Y-97200000D01*
%TO.N,/FTDI_TX*%
X151395000Y-71525000D02*
X145195000Y-77725000D01*
X145195000Y-77725000D02*
X143145000Y-77725000D01*
%TO.N,CHG_INT*%
X180095000Y-96995000D02*
X180095000Y-96137500D01*
X139033970Y-85525000D02*
X140645000Y-85525000D01*
X180250000Y-97150000D02*
X180095000Y-96995000D01*
X138564485Y-85055515D02*
X139033970Y-85525000D01*
%TO.N,/FTDI_RX*%
X142845000Y-77125000D02*
X142320000Y-77650000D01*
X150495000Y-71425000D02*
X144795000Y-77125000D01*
X144795000Y-77125000D02*
X142845000Y-77125000D01*
%TD*%
%TA.AperFunction,Conductor*%
%TO.N,Net-(U5-REGN)*%
G36*
X180531684Y-90244685D02*
G01*
X180577439Y-90297489D01*
X180588490Y-90355192D01*
X180548908Y-91146831D01*
X180525900Y-91212804D01*
X180472755Y-91255101D01*
X179669089Y-91589962D01*
X179621398Y-91599500D01*
X179506601Y-91599500D01*
X179429881Y-91614760D01*
X179429879Y-91614761D01*
X179342888Y-91672888D01*
X179284760Y-91759883D01*
X179284758Y-91759887D01*
X179269500Y-91836594D01*
X179269500Y-92397622D01*
X179268742Y-92411314D01*
X179257312Y-92514192D01*
X179230345Y-92578648D01*
X179172811Y-92618293D01*
X179134070Y-92624500D01*
X179074500Y-92624500D01*
X179007461Y-92604815D01*
X178961706Y-92552011D01*
X178950500Y-92500500D01*
X178950500Y-91783814D01*
X178949983Y-91769249D01*
X178948737Y-91751713D01*
X178947189Y-91737216D01*
X178946246Y-91730612D01*
X178945000Y-91713080D01*
X178945000Y-90349000D01*
X178964685Y-90281961D01*
X179017489Y-90236206D01*
X179069000Y-90225000D01*
X180464645Y-90225000D01*
X180531684Y-90244685D01*
G37*
%TD.AperFunction*%
%TD*%
%TA.AperFunction,Conductor*%
%TO.N,Net-(C11-Pad1)*%
G36*
X178488039Y-88744685D02*
G01*
X178533794Y-88797489D01*
X178545000Y-88849000D01*
X178545000Y-89607138D01*
X178525315Y-89674177D01*
X178487843Y-89711580D01*
X177912278Y-90079942D01*
X177845435Y-90099500D01*
X177761507Y-90099500D01*
X177661878Y-90115279D01*
X177661874Y-90115280D01*
X177661874Y-90115281D01*
X177655682Y-90118436D01*
X177541777Y-90176473D01*
X177505150Y-90213100D01*
X177487683Y-90227624D01*
X177482921Y-90230895D01*
X177430104Y-90276660D01*
X177412160Y-90294242D01*
X177412154Y-90294249D01*
X177367511Y-90374059D01*
X177367507Y-90374070D01*
X177360859Y-90396711D01*
X177323083Y-90455488D01*
X177308727Y-90466214D01*
X177295000Y-90474999D01*
X177295000Y-91225000D01*
X177326837Y-91243432D01*
X177372793Y-91289967D01*
X177405182Y-91347566D01*
X177452121Y-91399320D01*
X177497182Y-91436612D01*
X178021507Y-91757033D01*
X178041799Y-91766486D01*
X178063356Y-91776529D01*
X178063360Y-91776531D01*
X178063363Y-91776532D01*
X178105133Y-91790531D01*
X178111002Y-91794624D01*
X178118875Y-91796190D01*
X178134086Y-91800234D01*
X178154900Y-91807209D01*
X178212211Y-91847175D01*
X178238816Y-91911781D01*
X178239500Y-91924783D01*
X178239500Y-92500500D01*
X178219815Y-92567539D01*
X178167011Y-92613294D01*
X178115500Y-92624500D01*
X177529874Y-92624500D01*
X177462835Y-92604815D01*
X177445425Y-92591298D01*
X177397967Y-92547159D01*
X177397963Y-92547155D01*
X176188907Y-91847175D01*
X176140319Y-91819045D01*
X176092164Y-91768420D01*
X176083368Y-91740843D01*
X176082663Y-91741051D01*
X176080164Y-91732540D01*
X176020377Y-91601628D01*
X176020376Y-91601626D01*
X175926128Y-91492857D01*
X175805053Y-91415047D01*
X175805051Y-91415046D01*
X175805049Y-91415045D01*
X175805050Y-91415045D01*
X175666963Y-91374500D01*
X175666961Y-91374500D01*
X175523039Y-91374500D01*
X175523036Y-91374500D01*
X175376437Y-91417545D01*
X175376240Y-91416876D01*
X175358075Y-91421039D01*
X175358394Y-91422304D01*
X175344840Y-91425715D01*
X175294279Y-91451460D01*
X175225606Y-91464336D01*
X175180937Y-91451041D01*
X174811921Y-91259699D01*
X174761467Y-91211364D01*
X174745000Y-91149617D01*
X174745000Y-90167605D01*
X174764685Y-90100566D01*
X174795366Y-90067835D01*
X174864190Y-90017040D01*
X174896869Y-89999768D01*
X174924757Y-89990010D01*
X174933485Y-89986957D01*
X174974436Y-89980000D01*
X175018751Y-89980000D01*
X175054738Y-89976825D01*
X175097495Y-89969220D01*
X175132368Y-89959792D01*
X175644845Y-89771534D01*
X175660053Y-89767033D01*
X176945000Y-89475000D01*
X177507770Y-88771538D01*
X177565021Y-88731486D01*
X177604598Y-88725000D01*
X178421000Y-88725000D01*
X178488039Y-88744685D01*
G37*
%TD.AperFunction*%
%TD*%
%TA.AperFunction,Conductor*%
%TO.N,BATT_EN*%
G36*
X183138039Y-113194685D02*
G01*
X183183794Y-113247489D01*
X183195000Y-113299000D01*
X183195000Y-113819324D01*
X183194481Y-113830655D01*
X183009974Y-115841305D01*
X182984246Y-115906265D01*
X182927482Y-115947004D01*
X182890919Y-115953895D01*
X181683036Y-115997034D01*
X181615336Y-115979755D01*
X181567726Y-115928617D01*
X181565693Y-115924354D01*
X180806071Y-114249411D01*
X180795000Y-114198195D01*
X180795000Y-113658951D01*
X180814685Y-113591912D01*
X180867489Y-113546157D01*
X180872919Y-113543832D01*
X181772828Y-113183869D01*
X181818880Y-113175000D01*
X183071000Y-113175000D01*
X183138039Y-113194685D01*
G37*
%TD.AperFunction*%
%TD*%
%TA.AperFunction,Conductor*%
%TO.N,BATT_VOLT*%
G36*
X188438039Y-110394685D02*
G01*
X188483794Y-110447489D01*
X188495000Y-110499000D01*
X188495000Y-116251000D01*
X188475315Y-116318039D01*
X188422511Y-116363794D01*
X188371000Y-116375000D01*
X187019000Y-116375000D01*
X186951961Y-116355315D01*
X186906206Y-116302511D01*
X186895000Y-116251000D01*
X186895000Y-113540501D01*
X186898815Y-113509978D01*
X187671260Y-110468477D01*
X187706841Y-110408346D01*
X187769283Y-110376996D01*
X187791445Y-110375000D01*
X188371000Y-110375000D01*
X188438039Y-110394685D01*
G37*
%TD.AperFunction*%
%TD*%
%TA.AperFunction,Conductor*%
%TO.N,+3V3*%
G36*
X165818580Y-65423764D02*
G01*
X165885291Y-65444530D01*
X165928236Y-65493826D01*
X171049999Y-76099999D01*
X171050000Y-76100000D01*
X175236047Y-76611682D01*
X175300201Y-76639354D01*
X175339211Y-76697320D01*
X175345000Y-76734765D01*
X175345000Y-78569480D01*
X175325315Y-78636519D01*
X175303586Y-78661976D01*
X173945000Y-79874999D01*
X173945000Y-82601000D01*
X173925315Y-82668039D01*
X173872511Y-82713794D01*
X173821000Y-82725000D01*
X173037695Y-82725000D01*
X172970656Y-82705315D01*
X172961355Y-82698715D01*
X171442660Y-81512234D01*
X171401950Y-81455450D01*
X171395000Y-81414519D01*
X171395000Y-80075000D01*
X166872887Y-79459913D01*
X166809112Y-79431372D01*
X166773758Y-79381281D01*
X166445727Y-78522280D01*
X163749250Y-71461130D01*
X163742948Y-71438265D01*
X162945000Y-66875000D01*
X162944999Y-66874999D01*
X149245001Y-66858810D01*
X149244998Y-66858811D01*
X142795000Y-73124999D01*
X142747882Y-75103952D01*
X142726607Y-75170503D01*
X142672729Y-75214989D01*
X142623917Y-75225000D01*
X139845000Y-75225000D01*
X139325596Y-75771038D01*
X139270689Y-75804551D01*
X139234951Y-75815045D01*
X139234945Y-75815048D01*
X139113873Y-75892856D01*
X139113872Y-75892856D01*
X139113872Y-75892857D01*
X139101290Y-75907377D01*
X139019623Y-76001626D01*
X139019622Y-76001628D01*
X138959835Y-76132542D01*
X138958510Y-76137055D01*
X138929380Y-76187573D01*
X135981658Y-79286462D01*
X135921191Y-79321470D01*
X135891813Y-79325000D01*
X133697958Y-79325000D01*
X133692060Y-79324860D01*
X131701510Y-79230071D01*
X131635483Y-79207220D01*
X131592291Y-79152299D01*
X131584062Y-79118931D01*
X131325509Y-76611681D01*
X130906945Y-72552758D01*
X130919649Y-72484055D01*
X130967481Y-72433125D01*
X131035255Y-72416139D01*
X131075694Y-72424651D01*
X132352282Y-72927000D01*
X133065617Y-73207704D01*
X133120792Y-73250570D01*
X133142569Y-73302982D01*
X133527219Y-75643319D01*
X133527224Y-75643338D01*
X133554525Y-75716953D01*
X133554526Y-75716954D01*
X133554527Y-75716956D01*
X133618311Y-75782499D01*
X133704216Y-75813876D01*
X135404216Y-76028876D01*
X135492461Y-76020778D01*
X135571220Y-75974289D01*
X135622009Y-75898231D01*
X135634768Y-75807669D01*
X135627090Y-75716956D01*
X135405677Y-73100873D01*
X135309768Y-71967669D01*
X135307609Y-71950648D01*
X135272639Y-71866142D01*
X135204467Y-71805176D01*
X133612319Y-70924500D01*
X131299469Y-69645176D01*
X131299466Y-69645175D01*
X131225490Y-69621087D01*
X131225481Y-69621085D01*
X130694367Y-69554696D01*
X130630287Y-69526849D01*
X130591434Y-69468777D01*
X130586404Y-69444389D01*
X130295086Y-66619403D01*
X116694716Y-66392003D01*
X94565333Y-75306384D01*
X94495794Y-75313174D01*
X94433623Y-75281291D01*
X94398558Y-75220857D01*
X94395000Y-75191365D01*
X94395000Y-73708319D01*
X94414685Y-73641280D01*
X94467489Y-73595525D01*
X94472141Y-73593514D01*
X95312358Y-73250570D01*
X116419879Y-64635300D01*
X116468740Y-64626122D01*
X165818580Y-65423764D01*
G37*
%TD.AperFunction*%
%TD*%
%TA.AperFunction,Conductor*%
%TO.N,SYS*%
G36*
X170038039Y-82394685D02*
G01*
X170083794Y-82447489D01*
X170095000Y-82499000D01*
X170095000Y-83975000D01*
X171395000Y-83975000D01*
X171395000Y-82499000D01*
X171414685Y-82431961D01*
X171467489Y-82386206D01*
X171519000Y-82375000D01*
X171982342Y-82375000D01*
X172049381Y-82394685D01*
X172082167Y-82425441D01*
X172745000Y-83325000D01*
X175257484Y-83325000D01*
X175324523Y-83344685D01*
X175370278Y-83397489D01*
X175374317Y-83407454D01*
X175568155Y-83952623D01*
X176937835Y-87804848D01*
X176945000Y-87846389D01*
X176945000Y-88988449D01*
X176925315Y-89055488D01*
X176872511Y-89101243D01*
X176863757Y-89104844D01*
X175061508Y-89766895D01*
X175018751Y-89774500D01*
X174940730Y-89774500D01*
X174910300Y-89777353D01*
X174910298Y-89777353D01*
X174782119Y-89822206D01*
X174782118Y-89822207D01*
X174668709Y-89905906D01*
X174637834Y-89922530D01*
X174495000Y-89974999D01*
X174495000Y-91525002D01*
X174919561Y-92014879D01*
X174948592Y-92078432D01*
X174944029Y-92133656D01*
X174943157Y-92136396D01*
X174946397Y-92227793D01*
X174946398Y-92227797D01*
X174988972Y-92308738D01*
X175789646Y-93242857D01*
X176178458Y-93696471D01*
X176188974Y-93708739D01*
X176255837Y-93760149D01*
X176344995Y-93780499D01*
X176345000Y-93780500D01*
X177170500Y-93780500D01*
X177237539Y-93800185D01*
X177283294Y-93852989D01*
X177294500Y-93904500D01*
X177294500Y-94133906D01*
X177293238Y-94151552D01*
X177289867Y-94174999D01*
X177293238Y-94198445D01*
X177294500Y-94216092D01*
X177294500Y-94451000D01*
X177274815Y-94518039D01*
X177222011Y-94563794D01*
X177170500Y-94575000D01*
X175041035Y-94575000D01*
X174973996Y-94555315D01*
X174960118Y-94544960D01*
X174328105Y-94000681D01*
X174296228Y-93958232D01*
X174270379Y-93901630D01*
X174270376Y-93901626D01*
X174228232Y-93852989D01*
X174176128Y-93792857D01*
X174055053Y-93715047D01*
X174019489Y-93704604D01*
X173991789Y-93696471D01*
X173945808Y-93671454D01*
X173822964Y-93565663D01*
X173785011Y-93507000D01*
X173781144Y-93489354D01*
X173780165Y-93482543D01*
X173767267Y-93454302D01*
X173720379Y-93351630D01*
X173720376Y-93351626D01*
X173626128Y-93242857D01*
X173505053Y-93165047D01*
X173505051Y-93165046D01*
X173505049Y-93165045D01*
X173505050Y-93165045D01*
X173366963Y-93124500D01*
X173366961Y-93124500D01*
X173356723Y-93124500D01*
X173289684Y-93104815D01*
X173275806Y-93094460D01*
X173093083Y-92937102D01*
X173055130Y-92878439D01*
X173050000Y-92843142D01*
X173050000Y-91400000D01*
X173049999Y-91399999D01*
X172202781Y-89975000D01*
X168695000Y-84075000D01*
X164267637Y-84026347D01*
X164200818Y-84005926D01*
X164155646Y-83952623D01*
X164145000Y-83902354D01*
X164145000Y-82499000D01*
X164164685Y-82431961D01*
X164217489Y-82386206D01*
X164269000Y-82375000D01*
X169971000Y-82375000D01*
X170038039Y-82394685D01*
G37*
%TD.AperFunction*%
%TD*%
%TA.AperFunction,Conductor*%
%TO.N,GND*%
G36*
X176307886Y-93531701D02*
G01*
X176307883Y-93531698D01*
X176292197Y-93513398D01*
X175945673Y-93109119D01*
X175180346Y-92216238D01*
X175180345Y-92216235D01*
X176307886Y-93531701D01*
G37*
%TD.AperFunction*%
%TA.AperFunction,Conductor*%
G36*
X175153430Y-92156452D02*
G01*
X175151664Y-92152528D01*
X175150916Y-92125337D01*
X175153394Y-92095354D01*
X175154050Y-92082604D01*
X175135513Y-91993046D01*
X175135511Y-91993041D01*
X175135510Y-91993038D01*
X175106487Y-91929504D01*
X175106482Y-91929493D01*
X175106478Y-91929487D01*
X175106473Y-91929477D01*
X175074859Y-91880297D01*
X175074858Y-91880296D01*
X175074855Y-91880291D01*
X175063459Y-91867142D01*
X175034429Y-91803591D01*
X175044365Y-91734431D01*
X175090115Y-91681623D01*
X175157152Y-91661931D01*
X175164722Y-91662529D01*
X175164725Y-91662458D01*
X175172088Y-91662745D01*
X175172090Y-91662746D01*
X175263477Y-91666316D01*
X175332150Y-91653440D01*
X175342953Y-91649762D01*
X175387517Y-91634590D01*
X175387522Y-91634588D01*
X175387521Y-91634588D01*
X175387525Y-91634587D01*
X175391581Y-91632521D01*
X175153430Y-92156452D01*
G37*
%TD.AperFunction*%
%TA.AperFunction,Conductor*%
G36*
X175654519Y-91585021D02*
G01*
X175701701Y-91598874D01*
X175733794Y-91613530D01*
X175775176Y-91640125D01*
X175801845Y-91663235D01*
X175834044Y-91700396D01*
X175853123Y-91730083D01*
X175886881Y-91803998D01*
X175892223Y-91817830D01*
X175896382Y-91830867D01*
X175896560Y-91831422D01*
X175943267Y-91910053D01*
X175991422Y-91960678D01*
X175991423Y-91960679D01*
X175991424Y-91960680D01*
X176019468Y-91982788D01*
X176037356Y-91996890D01*
X176037367Y-91996896D01*
X176037368Y-91996897D01*
X175400312Y-91628075D01*
X175405886Y-91625237D01*
X175427985Y-91617868D01*
X175427638Y-91616687D01*
X175434331Y-91614721D01*
X175434333Y-91614721D01*
X175435563Y-91614359D01*
X175442909Y-91612445D01*
X175454735Y-91609746D01*
X175466500Y-91605276D01*
X175535476Y-91585023D01*
X175570411Y-91580000D01*
X175619591Y-91580000D01*
X175654519Y-91585021D01*
G37*
%TD.AperFunction*%
%TA.AperFunction,Conductor*%
G36*
X133315000Y-73085000D02*
G01*
X133714996Y-75518710D01*
X133714993Y-75518698D01*
X133345351Y-73269668D01*
X133345348Y-73269655D01*
X133332342Y-73224140D01*
X133332336Y-73224122D01*
X133310560Y-73171714D01*
X133304795Y-73159066D01*
X133304795Y-73159065D01*
X133304794Y-73159064D01*
X133304794Y-73159063D01*
X133246869Y-73088290D01*
X133210852Y-73060308D01*
X133191697Y-73045426D01*
X133191695Y-73045425D01*
X133191694Y-73045424D01*
X133140867Y-73016477D01*
X133315000Y-73085000D01*
G37*
%TD.AperFunction*%
%TA.AperFunction,Conductor*%
G36*
X134995502Y-71924432D02*
G01*
X135047045Y-71952942D01*
X135047047Y-71952944D01*
X134228505Y-71500178D01*
X134995502Y-71924432D01*
G37*
%TD.AperFunction*%
%TA.AperFunction,Conductor*%
G36*
X131227537Y-69840230D02*
G01*
X133233792Y-70949965D01*
X131227522Y-69840223D01*
X131227537Y-69840230D01*
G37*
%TD.AperFunction*%
%TA.AperFunction,Conductor*%
G36*
X197187539Y-56545185D02*
G01*
X197233294Y-56597989D01*
X197244500Y-56649500D01*
X197244500Y-127000500D01*
X197224815Y-127067539D01*
X197172011Y-127113294D01*
X197120500Y-127124500D01*
X90069500Y-127124500D01*
X90002461Y-127104815D01*
X89956706Y-127052011D01*
X89945500Y-127000500D01*
X89945500Y-113645525D01*
X160589500Y-113645525D01*
X160589500Y-113904474D01*
X160589501Y-113904491D01*
X160623299Y-114161217D01*
X160623300Y-114161222D01*
X160623301Y-114161228D01*
X160644838Y-114241604D01*
X160690324Y-114411364D01*
X160789423Y-114650609D01*
X160789427Y-114650619D01*
X160918906Y-114874883D01*
X161076551Y-115080331D01*
X161076557Y-115080338D01*
X161259661Y-115263442D01*
X161259668Y-115263448D01*
X161465116Y-115421093D01*
X161689380Y-115550572D01*
X161689381Y-115550572D01*
X161689384Y-115550574D01*
X161928634Y-115649675D01*
X162178772Y-115716699D01*
X162435519Y-115750500D01*
X162435526Y-115750500D01*
X162694474Y-115750500D01*
X162694481Y-115750500D01*
X162951228Y-115716699D01*
X163201366Y-115649675D01*
X163440616Y-115550574D01*
X163664884Y-115421093D01*
X163870333Y-115263447D01*
X164053447Y-115080333D01*
X164211093Y-114874884D01*
X164340574Y-114650616D01*
X164439675Y-114411366D01*
X164506699Y-114161228D01*
X164540500Y-113904481D01*
X164540500Y-113645519D01*
X164506699Y-113388772D01*
X164439675Y-113138634D01*
X164340574Y-112899384D01*
X164315728Y-112856350D01*
X164211093Y-112675116D01*
X164053448Y-112469668D01*
X164053442Y-112469661D01*
X163870338Y-112286557D01*
X163870331Y-112286551D01*
X163664883Y-112128906D01*
X163440619Y-111999427D01*
X163440609Y-111999423D01*
X163201364Y-111900324D01*
X163076297Y-111866813D01*
X162951228Y-111833301D01*
X162951222Y-111833300D01*
X162951217Y-111833299D01*
X162694491Y-111799501D01*
X162694486Y-111799500D01*
X162694481Y-111799500D01*
X162435519Y-111799500D01*
X162435513Y-111799500D01*
X162435508Y-111799501D01*
X162178782Y-111833299D01*
X162178775Y-111833300D01*
X162178772Y-111833301D01*
X162125908Y-111847465D01*
X161928635Y-111900324D01*
X161689390Y-111999423D01*
X161689380Y-111999427D01*
X161465116Y-112128906D01*
X161259668Y-112286551D01*
X161259661Y-112286557D01*
X161076557Y-112469661D01*
X161076551Y-112469668D01*
X160918906Y-112675116D01*
X160789427Y-112899380D01*
X160789423Y-112899390D01*
X160690324Y-113138635D01*
X160654159Y-113273607D01*
X160632370Y-113354928D01*
X160623302Y-113388769D01*
X160623299Y-113388782D01*
X160589501Y-113645508D01*
X160589500Y-113645525D01*
X89945500Y-113645525D01*
X89945500Y-97645525D01*
X105389500Y-97645525D01*
X105389500Y-97904474D01*
X105389501Y-97904491D01*
X105423299Y-98161217D01*
X105423300Y-98161222D01*
X105423301Y-98161228D01*
X105423302Y-98161230D01*
X105490324Y-98411364D01*
X105589423Y-98650609D01*
X105589427Y-98650619D01*
X105718906Y-98874883D01*
X105876551Y-99080331D01*
X105876557Y-99080338D01*
X106059661Y-99263442D01*
X106059668Y-99263448D01*
X106265116Y-99421093D01*
X106489380Y-99550572D01*
X106489381Y-99550572D01*
X106489384Y-99550574D01*
X106728634Y-99649675D01*
X106978772Y-99716699D01*
X107235519Y-99750500D01*
X107235526Y-99750500D01*
X107494474Y-99750500D01*
X107494481Y-99750500D01*
X107751228Y-99716699D01*
X108001366Y-99649675D01*
X108240616Y-99550574D01*
X108464884Y-99421093D01*
X108670333Y-99263447D01*
X108853447Y-99080333D01*
X109011093Y-98874884D01*
X109140574Y-98650616D01*
X109239675Y-98411366D01*
X109306699Y-98161228D01*
X109340500Y-97904481D01*
X109340500Y-97645519D01*
X109306699Y-97388772D01*
X109239675Y-97138634D01*
X109140574Y-96899384D01*
X109127435Y-96876627D01*
X109011093Y-96675116D01*
X108853448Y-96469668D01*
X108853442Y-96469661D01*
X108670338Y-96286557D01*
X108670331Y-96286551D01*
X108464883Y-96128906D01*
X108240619Y-95999427D01*
X108240609Y-95999423D01*
X108001364Y-95900324D01*
X107876297Y-95866813D01*
X107751228Y-95833301D01*
X107751222Y-95833300D01*
X107751217Y-95833299D01*
X107494491Y-95799501D01*
X107494486Y-95799500D01*
X107494481Y-95799500D01*
X107235519Y-95799500D01*
X107235513Y-95799500D01*
X107235508Y-95799501D01*
X106978782Y-95833299D01*
X106978775Y-95833300D01*
X106978772Y-95833301D01*
X106925908Y-95847465D01*
X106728635Y-95900324D01*
X106489390Y-95999423D01*
X106489380Y-95999427D01*
X106265116Y-96128906D01*
X106059668Y-96286551D01*
X106059661Y-96286557D01*
X105876557Y-96469661D01*
X105876551Y-96469668D01*
X105718906Y-96675116D01*
X105589427Y-96899380D01*
X105589423Y-96899390D01*
X105490324Y-97138635D01*
X105468490Y-97220123D01*
X105429548Y-97365460D01*
X105423302Y-97388769D01*
X105423299Y-97388782D01*
X105389501Y-97645508D01*
X105389500Y-97645525D01*
X89945500Y-97645525D01*
X89945500Y-91963713D01*
X108199500Y-91963713D01*
X108199500Y-92176287D01*
X108232754Y-92386243D01*
X108292949Y-92571504D01*
X108298444Y-92588414D01*
X108394951Y-92777820D01*
X108519890Y-92949786D01*
X108670213Y-93100109D01*
X108842179Y-93225048D01*
X108842181Y-93225049D01*
X108842184Y-93225051D01*
X109031588Y-93321557D01*
X109233757Y-93387246D01*
X109443713Y-93420500D01*
X109443714Y-93420500D01*
X109656286Y-93420500D01*
X109656287Y-93420500D01*
X109866243Y-93387246D01*
X110068412Y-93321557D01*
X110257816Y-93225051D01*
X110322910Y-93177758D01*
X110429786Y-93100109D01*
X110429788Y-93100106D01*
X110429792Y-93100104D01*
X110580104Y-92949792D01*
X110580106Y-92949788D01*
X110580109Y-92949786D01*
X110705048Y-92777820D01*
X110705047Y-92777820D01*
X110705051Y-92777816D01*
X110801557Y-92588412D01*
X110867246Y-92386243D01*
X110900500Y-92176287D01*
X110900500Y-91963713D01*
X110867246Y-91753757D01*
X110801557Y-91551588D01*
X110705051Y-91362184D01*
X110705049Y-91362181D01*
X110705048Y-91362179D01*
X110580109Y-91190213D01*
X110429786Y-91039890D01*
X110257820Y-90914951D01*
X110068414Y-90818444D01*
X110068413Y-90818443D01*
X110068412Y-90818443D01*
X109866243Y-90752754D01*
X109866241Y-90752753D01*
X109866240Y-90752753D01*
X109704957Y-90727208D01*
X109656287Y-90719500D01*
X109443713Y-90719500D01*
X109395042Y-90727208D01*
X109233760Y-90752753D01*
X109031585Y-90818444D01*
X108842179Y-90914951D01*
X108670213Y-91039890D01*
X108519890Y-91190213D01*
X108394951Y-91362179D01*
X108298444Y-91551585D01*
X108232753Y-91753760D01*
X108220541Y-91830867D01*
X108199500Y-91963713D01*
X89945500Y-91963713D01*
X89945500Y-85960000D01*
X99519417Y-85960000D01*
X99539699Y-86165932D01*
X99558543Y-86228053D01*
X99599768Y-86363954D01*
X99697315Y-86546450D01*
X99697317Y-86546452D01*
X99828589Y-86706410D01*
X99897265Y-86762770D01*
X99988550Y-86837685D01*
X100171046Y-86935232D01*
X100369066Y-86995300D01*
X100369065Y-86995300D01*
X100387529Y-86997118D01*
X100575000Y-87015583D01*
X100780934Y-86995300D01*
X100978954Y-86935232D01*
X100998097Y-86925000D01*
X132239353Y-86925000D01*
X132259834Y-87067456D01*
X132308694Y-87174442D01*
X132319623Y-87198373D01*
X132413872Y-87307143D01*
X132534947Y-87384953D01*
X132534950Y-87384954D01*
X132534949Y-87384954D01*
X132673036Y-87425499D01*
X132673038Y-87425500D01*
X132673039Y-87425500D01*
X132816962Y-87425500D01*
X132816962Y-87425499D01*
X132955053Y-87384953D01*
X133076128Y-87307143D01*
X133076136Y-87307133D01*
X133077688Y-87305790D01*
X133079572Y-87304929D01*
X133083589Y-87302348D01*
X133083960Y-87302925D01*
X133141243Y-87276763D01*
X133158895Y-87275500D01*
X133248456Y-87275500D01*
X133315495Y-87295185D01*
X133336137Y-87311819D01*
X133729788Y-87705470D01*
X133729789Y-87705471D01*
X133729791Y-87705472D01*
X133769750Y-87728542D01*
X133809712Y-87751614D01*
X133898856Y-87775500D01*
X133991144Y-87775500D01*
X134081105Y-87775500D01*
X134148144Y-87795185D01*
X134162312Y-87805790D01*
X134163866Y-87807137D01*
X134163872Y-87807143D01*
X134284947Y-87884953D01*
X134284950Y-87884954D01*
X134284949Y-87884954D01*
X134423036Y-87925499D01*
X134423038Y-87925500D01*
X134423039Y-87925500D01*
X134566962Y-87925500D01*
X134566962Y-87925499D01*
X134705053Y-87884953D01*
X134826128Y-87807143D01*
X134826136Y-87807133D01*
X134827688Y-87805790D01*
X134829572Y-87804929D01*
X134833589Y-87802348D01*
X134833960Y-87802925D01*
X134891243Y-87776763D01*
X134908895Y-87775500D01*
X134978456Y-87775500D01*
X135045495Y-87795185D01*
X135066137Y-87811819D01*
X135409788Y-88155470D01*
X135489712Y-88201614D01*
X135578856Y-88225500D01*
X136681105Y-88225500D01*
X136748144Y-88245185D01*
X136762312Y-88255790D01*
X136763866Y-88257137D01*
X136763872Y-88257143D01*
X136884947Y-88334953D01*
X136884950Y-88334954D01*
X136884949Y-88334954D01*
X137023036Y-88375499D01*
X137023038Y-88375500D01*
X137023039Y-88375500D01*
X137166961Y-88375500D01*
X137217635Y-88360621D01*
X137287502Y-88360621D01*
X137346280Y-88398394D01*
X137375306Y-88461950D01*
X137365363Y-88531108D01*
X137340249Y-88567279D01*
X133460489Y-92447040D01*
X133404541Y-92502987D01*
X133404535Y-92502995D01*
X133364982Y-92571504D01*
X133364979Y-92571509D01*
X133344500Y-92647939D01*
X133344500Y-92761260D01*
X133324815Y-92828299D01*
X133314213Y-92842462D01*
X133219625Y-92951622D01*
X133219622Y-92951628D01*
X133159834Y-93082543D01*
X133139353Y-93225000D01*
X133159834Y-93367456D01*
X133197712Y-93450395D01*
X133219623Y-93498373D01*
X133313872Y-93607143D01*
X133434947Y-93684953D01*
X133434950Y-93684954D01*
X133434949Y-93684954D01*
X133573036Y-93725499D01*
X133573038Y-93725500D01*
X133573039Y-93725500D01*
X133716962Y-93725500D01*
X133716962Y-93725499D01*
X133855053Y-93684953D01*
X133976128Y-93607143D01*
X134070377Y-93498373D01*
X134130165Y-93367457D01*
X134150647Y-93225000D01*
X134130165Y-93082543D01*
X134070377Y-92951627D01*
X134023171Y-92897148D01*
X133994147Y-92833594D01*
X134004091Y-92764436D01*
X134029201Y-92728269D01*
X138778475Y-87978996D01*
X138818036Y-87910474D01*
X138838515Y-87834047D01*
X138838515Y-87495723D01*
X138858200Y-87428684D01*
X138868802Y-87414520D01*
X138869139Y-87414129D01*
X138869143Y-87414128D01*
X138963392Y-87305358D01*
X139023180Y-87174442D01*
X139043662Y-87031985D01*
X139023180Y-86889528D01*
X139021918Y-86880750D01*
X139023735Y-86880488D01*
X139023737Y-86821547D01*
X139061513Y-86762770D01*
X139125070Y-86733747D01*
X139142713Y-86732485D01*
X140149227Y-86732485D01*
X140216266Y-86752170D01*
X140242938Y-86775280D01*
X140313872Y-86857143D01*
X140434947Y-86934953D01*
X140434950Y-86934954D01*
X140434949Y-86934954D01*
X140573036Y-86975499D01*
X140573038Y-86975500D01*
X140573039Y-86975500D01*
X140716962Y-86975500D01*
X140716962Y-86975499D01*
X140855053Y-86934953D01*
X140976128Y-86857143D01*
X141070377Y-86748373D01*
X141130165Y-86617457D01*
X141150647Y-86475000D01*
X141130165Y-86332543D01*
X141070377Y-86201627D01*
X140976128Y-86092857D01*
X140976126Y-86092855D01*
X140970320Y-86086155D01*
X140971564Y-86085076D01*
X140939341Y-86034936D01*
X140939341Y-85965066D01*
X140971565Y-85914923D01*
X140970320Y-85913845D01*
X140976126Y-85907144D01*
X140976128Y-85907143D01*
X141070377Y-85798373D01*
X141130165Y-85667457D01*
X141150647Y-85525000D01*
X141130165Y-85382543D01*
X141070377Y-85251627D01*
X140976128Y-85142857D01*
X140855053Y-85065047D01*
X140855051Y-85065046D01*
X140855049Y-85065045D01*
X140855050Y-85065045D01*
X140716963Y-85024500D01*
X140716961Y-85024500D01*
X140573039Y-85024500D01*
X140573036Y-85024500D01*
X140434949Y-85065045D01*
X140313873Y-85142856D01*
X140313872Y-85142856D01*
X140313872Y-85142857D01*
X140290406Y-85169939D01*
X140280212Y-85181703D01*
X140221433Y-85219477D01*
X140186499Y-85224500D01*
X139209803Y-85224500D01*
X139142764Y-85204815D01*
X139122122Y-85188181D01*
X139103880Y-85169939D01*
X139070395Y-85108616D01*
X139068824Y-85064609D01*
X139070132Y-85055515D01*
X139049650Y-84913058D01*
X138989862Y-84782142D01*
X138895613Y-84673372D01*
X138774538Y-84595562D01*
X138774536Y-84595561D01*
X138774534Y-84595560D01*
X138774535Y-84595560D01*
X138636448Y-84555015D01*
X138636446Y-84555015D01*
X138492524Y-84555015D01*
X138492521Y-84555015D01*
X138354434Y-84595560D01*
X138233358Y-84673371D01*
X138139108Y-84782141D01*
X138139107Y-84782143D01*
X138079319Y-84913058D01*
X138058838Y-85055515D01*
X138079319Y-85197971D01*
X138139107Y-85328886D01*
X138139108Y-85328888D01*
X138233357Y-85437658D01*
X138354432Y-85515468D01*
X138354435Y-85515469D01*
X138354434Y-85515469D01*
X138461592Y-85546932D01*
X138489765Y-85555205D01*
X138492521Y-85556014D01*
X138492523Y-85556015D01*
X138588652Y-85556015D01*
X138655691Y-85575700D01*
X138676333Y-85592334D01*
X138793510Y-85709511D01*
X138849459Y-85765460D01*
X138849461Y-85765461D01*
X138849465Y-85765464D01*
X138906463Y-85798371D01*
X138917981Y-85805021D01*
X138994408Y-85825500D01*
X139073532Y-85825500D01*
X140186499Y-85825500D01*
X140253538Y-85845185D01*
X140280211Y-85868296D01*
X140313872Y-85907143D01*
X140313873Y-85907143D01*
X140319680Y-85913845D01*
X140318434Y-85914924D01*
X140350657Y-85965062D01*
X140350659Y-86034931D01*
X140318433Y-86085080D01*
X140319676Y-86086158D01*
X140317481Y-86088691D01*
X140315151Y-86090188D01*
X140312892Y-86093704D01*
X140307177Y-86098657D01*
X140305315Y-86096508D01*
X140258702Y-86126463D01*
X140223771Y-86131485D01*
X137709483Y-86131485D01*
X137662708Y-86144018D01*
X137633051Y-86151965D01*
X137633050Y-86151966D01*
X137602436Y-86169642D01*
X137602435Y-86169643D01*
X137592727Y-86175248D01*
X137564534Y-86191524D01*
X137055610Y-86700448D01*
X136994287Y-86733933D01*
X136924595Y-86728949D01*
X136868662Y-86687077D01*
X136845192Y-86630415D01*
X136830165Y-86525899D01*
X136770377Y-86394983D01*
X136740729Y-86360767D01*
X136711705Y-86297211D01*
X136721649Y-86228053D01*
X136767402Y-86175250D01*
X136776128Y-86169643D01*
X136870377Y-86060873D01*
X136930165Y-85929957D01*
X136950647Y-85787500D01*
X136930165Y-85645043D01*
X136870377Y-85514127D01*
X136776128Y-85405357D01*
X136655053Y-85327547D01*
X136655051Y-85327546D01*
X136655049Y-85327545D01*
X136655050Y-85327545D01*
X136516963Y-85287000D01*
X136516961Y-85287000D01*
X136373039Y-85287000D01*
X136373036Y-85287000D01*
X136234949Y-85327545D01*
X136113873Y-85405356D01*
X136080212Y-85444203D01*
X136021433Y-85481977D01*
X135986499Y-85487000D01*
X135728333Y-85487000D01*
X135661294Y-85467315D01*
X135640652Y-85450681D01*
X135431819Y-85241848D01*
X135398334Y-85180525D01*
X135395500Y-85154167D01*
X135395500Y-83730439D01*
X135394532Y-83726826D01*
X135375021Y-83654011D01*
X135359919Y-83627853D01*
X135335464Y-83585495D01*
X135335458Y-83585487D01*
X134984512Y-83234541D01*
X134984511Y-83234540D01*
X134953285Y-83216512D01*
X134953285Y-83216511D01*
X134953281Y-83216510D01*
X134940269Y-83208997D01*
X134915990Y-83194979D01*
X134915991Y-83194979D01*
X134869578Y-83182543D01*
X134839562Y-83174500D01*
X134839560Y-83174500D01*
X134603501Y-83174500D01*
X134536462Y-83154815D01*
X134509788Y-83131703D01*
X134476128Y-83092857D01*
X134355053Y-83015047D01*
X134355051Y-83015046D01*
X134355049Y-83015045D01*
X134355050Y-83015045D01*
X134216963Y-82974500D01*
X134216961Y-82974500D01*
X134073039Y-82974500D01*
X134073036Y-82974500D01*
X133934949Y-83015045D01*
X133934946Y-83015047D01*
X133899270Y-83037974D01*
X133832230Y-83057658D01*
X133765191Y-83037973D01*
X133738519Y-83014861D01*
X133676128Y-82942857D01*
X133555053Y-82865047D01*
X133555051Y-82865046D01*
X133555049Y-82865045D01*
X133555050Y-82865045D01*
X133416963Y-82824500D01*
X133416961Y-82824500D01*
X133273039Y-82824500D01*
X133273036Y-82824500D01*
X133134949Y-82865045D01*
X133013873Y-82942856D01*
X132919623Y-83051626D01*
X132919622Y-83051628D01*
X132859834Y-83182543D01*
X132839353Y-83325000D01*
X132859834Y-83467456D01*
X132890660Y-83534954D01*
X132919623Y-83598373D01*
X133013872Y-83707143D01*
X133013875Y-83707144D01*
X133014213Y-83707535D01*
X133043238Y-83771091D01*
X133044500Y-83788738D01*
X133044500Y-85044562D01*
X133047435Y-85055515D01*
X133064979Y-85120990D01*
X133064980Y-85120991D01*
X133079124Y-85145489D01*
X133093240Y-85169939D01*
X133104539Y-85189509D01*
X133104541Y-85189512D01*
X134627848Y-86712819D01*
X134661333Y-86774142D01*
X134656349Y-86843834D01*
X134614477Y-86899767D01*
X134549013Y-86924184D01*
X134540167Y-86924500D01*
X134423036Y-86924500D01*
X134284949Y-86965045D01*
X134183810Y-87030043D01*
X134116770Y-87049727D01*
X134049731Y-87030042D01*
X134029090Y-87013408D01*
X133660213Y-86644531D01*
X133660208Y-86644527D01*
X133580291Y-86598387D01*
X133580287Y-86598385D01*
X133574926Y-86596949D01*
X133574926Y-86596948D01*
X133506476Y-86578608D01*
X133491144Y-86574500D01*
X133491143Y-86574500D01*
X133158895Y-86574500D01*
X133091856Y-86554815D01*
X133077688Y-86544210D01*
X133076132Y-86542862D01*
X133076128Y-86542857D01*
X132955053Y-86465047D01*
X132955051Y-86465046D01*
X132955049Y-86465045D01*
X132955050Y-86465045D01*
X132816963Y-86424500D01*
X132816961Y-86424500D01*
X132673039Y-86424500D01*
X132673036Y-86424500D01*
X132534949Y-86465045D01*
X132413873Y-86542856D01*
X132319623Y-86651626D01*
X132319622Y-86651628D01*
X132259834Y-86782543D01*
X132239353Y-86925000D01*
X100998097Y-86925000D01*
X101161450Y-86837685D01*
X101321410Y-86706410D01*
X101452685Y-86546450D01*
X101550232Y-86363954D01*
X101610300Y-86165934D01*
X101630583Y-85960000D01*
X101610300Y-85754066D01*
X101550232Y-85556046D01*
X101452685Y-85373550D01*
X101352626Y-85251627D01*
X101321410Y-85213589D01*
X101161452Y-85082317D01*
X101161453Y-85082317D01*
X101161450Y-85082315D01*
X100978954Y-84984768D01*
X100780934Y-84924700D01*
X100780932Y-84924699D01*
X100780934Y-84924699D01*
X100575000Y-84904417D01*
X100369067Y-84924699D01*
X100171043Y-84984769D01*
X100096713Y-85024500D01*
X99988550Y-85082315D01*
X99988548Y-85082316D01*
X99988547Y-85082317D01*
X99828589Y-85213589D01*
X99697317Y-85373547D01*
X99599769Y-85556043D01*
X99539699Y-85754067D01*
X99519417Y-85960000D01*
X89945500Y-85960000D01*
X89945500Y-83420000D01*
X99519417Y-83420000D01*
X99539699Y-83625932D01*
X99539700Y-83625934D01*
X99599768Y-83823954D01*
X99697315Y-84006450D01*
X99697317Y-84006452D01*
X99828589Y-84166410D01*
X99897392Y-84222874D01*
X99988550Y-84297685D01*
X100171046Y-84395232D01*
X100369066Y-84455300D01*
X100369065Y-84455300D01*
X100387529Y-84457118D01*
X100575000Y-84475583D01*
X100780934Y-84455300D01*
X100978954Y-84395232D01*
X101161450Y-84297685D01*
X101321410Y-84166410D01*
X101452685Y-84006450D01*
X101550232Y-83823954D01*
X101610300Y-83625934D01*
X101630583Y-83420000D01*
X101610300Y-83214066D01*
X101550232Y-83016046D01*
X101452685Y-82833550D01*
X101395270Y-82763589D01*
X101321410Y-82673589D01*
X101161452Y-82542317D01*
X101161453Y-82542317D01*
X101161450Y-82542315D01*
X100978954Y-82444768D01*
X100780934Y-82384700D01*
X100780932Y-82384699D01*
X100780934Y-82384699D01*
X100575000Y-82364417D01*
X100369067Y-82384699D01*
X100171043Y-82444769D01*
X100069586Y-82499000D01*
X99988550Y-82542315D01*
X99988548Y-82542316D01*
X99988547Y-82542317D01*
X99828589Y-82673589D01*
X99704742Y-82824500D01*
X99697315Y-82833550D01*
X99678314Y-82869098D01*
X99599769Y-83016043D01*
X99539699Y-83214067D01*
X99519417Y-83420000D01*
X89945500Y-83420000D01*
X89945500Y-80880000D01*
X99519417Y-80880000D01*
X99539699Y-81085932D01*
X99557756Y-81145458D01*
X99599768Y-81283954D01*
X99697315Y-81466450D01*
X99697317Y-81466452D01*
X99828589Y-81626410D01*
X99886791Y-81674174D01*
X99988550Y-81757685D01*
X100171046Y-81855232D01*
X100369066Y-81915300D01*
X100369065Y-81915300D01*
X100387529Y-81917118D01*
X100575000Y-81935583D01*
X100780934Y-81915300D01*
X100978954Y-81855232D01*
X101161450Y-81757685D01*
X101321410Y-81626410D01*
X101452685Y-81466450D01*
X101550232Y-81283954D01*
X101610300Y-81085934D01*
X101628121Y-80905000D01*
X120789353Y-80905000D01*
X120809834Y-81047456D01*
X120851138Y-81137897D01*
X120869623Y-81178373D01*
X120963872Y-81287143D01*
X121084947Y-81364953D01*
X121084950Y-81364954D01*
X121084949Y-81364954D01*
X121223036Y-81405499D01*
X121223038Y-81405500D01*
X121223039Y-81405500D01*
X121366962Y-81405500D01*
X121366962Y-81405499D01*
X121505053Y-81364953D01*
X121626128Y-81287143D01*
X121659788Y-81248296D01*
X121718567Y-81210523D01*
X121753501Y-81205500D01*
X136344560Y-81205500D01*
X136344562Y-81205500D01*
X136420989Y-81185021D01*
X136489511Y-81145460D01*
X136545460Y-81089511D01*
X138335355Y-79299614D01*
X138396676Y-79266131D01*
X138466367Y-79271115D01*
X138522301Y-79312987D01*
X138545772Y-79369650D01*
X138559834Y-79467456D01*
X138599795Y-79554956D01*
X138619623Y-79598373D01*
X138713872Y-79707143D01*
X138834947Y-79784953D01*
X138834950Y-79784954D01*
X138834949Y-79784954D01*
X138973036Y-79825499D01*
X138973038Y-79825500D01*
X138973039Y-79825500D01*
X139019167Y-79825500D01*
X139086206Y-79845185D01*
X139106848Y-79861819D01*
X141304540Y-82059511D01*
X141360489Y-82115460D01*
X141360491Y-82115461D01*
X141360495Y-82115464D01*
X141417493Y-82148371D01*
X141429011Y-82155021D01*
X141505438Y-82175500D01*
X141584562Y-82175500D01*
X144786499Y-82175500D01*
X144853538Y-82195185D01*
X144880211Y-82218296D01*
X144913872Y-82257143D01*
X145034947Y-82334953D01*
X145034950Y-82334954D01*
X145034949Y-82334954D01*
X145135293Y-82364417D01*
X145168148Y-82374064D01*
X145173036Y-82375499D01*
X145173038Y-82375500D01*
X145173039Y-82375500D01*
X145316962Y-82375500D01*
X145316962Y-82375499D01*
X145455053Y-82334953D01*
X145576128Y-82257143D01*
X145670377Y-82148373D01*
X145730165Y-82017457D01*
X145750647Y-81875000D01*
X145730165Y-81732543D01*
X145670377Y-81601627D01*
X145576128Y-81492857D01*
X145455053Y-81415047D01*
X145455051Y-81415046D01*
X145455049Y-81415045D01*
X145455050Y-81415045D01*
X145316963Y-81374500D01*
X145316961Y-81374500D01*
X145173039Y-81374500D01*
X145173036Y-81374500D01*
X145034949Y-81415045D01*
X144913873Y-81492856D01*
X144880212Y-81531703D01*
X144821433Y-81569477D01*
X144786499Y-81574500D01*
X141720833Y-81574500D01*
X141653794Y-81554815D01*
X141633152Y-81538181D01*
X139578110Y-79483139D01*
X139544625Y-79421816D01*
X139543053Y-79377814D01*
X139550647Y-79325000D01*
X139530165Y-79182543D01*
X139470377Y-79051627D01*
X139376128Y-78942857D01*
X139268975Y-78873994D01*
X139223221Y-78821191D01*
X139213277Y-78752032D01*
X139242300Y-78688478D01*
X139320377Y-78598373D01*
X139380165Y-78467457D01*
X139400647Y-78325000D01*
X139380165Y-78182543D01*
X139320377Y-78051627D01*
X139226128Y-77942857D01*
X139105053Y-77865047D01*
X139105051Y-77865046D01*
X139105049Y-77865045D01*
X139105050Y-77865045D01*
X138966963Y-77824500D01*
X138966961Y-77824500D01*
X138823039Y-77824500D01*
X138823036Y-77824500D01*
X138684949Y-77865045D01*
X138563873Y-77942856D01*
X138469623Y-78051626D01*
X138469622Y-78051628D01*
X138409834Y-78182543D01*
X138389353Y-78325000D01*
X138389353Y-78325004D01*
X138389405Y-78325366D01*
X138389353Y-78325727D01*
X138389353Y-78333868D01*
X138388182Y-78333868D01*
X138379454Y-78394523D01*
X138354346Y-78430681D01*
X136216848Y-80568181D01*
X136155525Y-80601666D01*
X136129167Y-80604500D01*
X121753501Y-80604500D01*
X121686462Y-80584815D01*
X121659788Y-80561703D01*
X121626128Y-80522857D01*
X121505053Y-80445047D01*
X121505051Y-80445046D01*
X121505049Y-80445045D01*
X121505050Y-80445045D01*
X121366963Y-80404500D01*
X121366961Y-80404500D01*
X121223039Y-80404500D01*
X121223036Y-80404500D01*
X121084949Y-80445045D01*
X120963873Y-80522856D01*
X120869623Y-80631626D01*
X120869622Y-80631628D01*
X120809834Y-80762543D01*
X120789353Y-80905000D01*
X101628121Y-80905000D01*
X101630583Y-80880000D01*
X101610300Y-80674066D01*
X101550232Y-80476046D01*
X101452685Y-80293550D01*
X101337897Y-80153679D01*
X101321410Y-80133589D01*
X101203677Y-80036969D01*
X101161450Y-80002315D01*
X100978954Y-79904768D01*
X100780934Y-79844700D01*
X100780932Y-79844699D01*
X100780934Y-79844699D01*
X100575000Y-79824417D01*
X100369067Y-79844699D01*
X100193692Y-79897898D01*
X100188413Y-79899500D01*
X100171043Y-79904769D01*
X100076156Y-79955488D01*
X99988550Y-80002315D01*
X99988548Y-80002316D01*
X99988547Y-80002317D01*
X99828589Y-80133589D01*
X99697317Y-80293547D01*
X99697315Y-80293550D01*
X99691218Y-80304957D01*
X99599769Y-80476043D01*
X99539699Y-80674067D01*
X99519417Y-80880000D01*
X89945500Y-80880000D01*
X89945500Y-73708322D01*
X94189500Y-73708322D01*
X94189500Y-75191360D01*
X94190978Y-75215972D01*
X94194537Y-75245471D01*
X94220808Y-75323982D01*
X94220809Y-75323985D01*
X94220811Y-75323989D01*
X94255876Y-75384423D01*
X94255883Y-75384433D01*
X94269797Y-75405353D01*
X94339845Y-75464145D01*
X94339849Y-75464148D01*
X94402020Y-75496031D01*
X94425046Y-75506112D01*
X94425048Y-75506112D01*
X94425051Y-75506113D01*
X94454687Y-75509898D01*
X94515765Y-75517701D01*
X94585304Y-75510911D01*
X94642119Y-75496999D01*
X116709604Y-66607551D01*
X116758001Y-66598588D01*
X129999384Y-66819987D01*
X130066082Y-66840789D01*
X130110948Y-66894350D01*
X130120653Y-66931248D01*
X130352641Y-69180888D01*
X130381988Y-69465468D01*
X130385142Y-69485911D01*
X130390167Y-69510279D01*
X130390171Y-69510291D01*
X130420635Y-69583048D01*
X130420636Y-69583050D01*
X130459480Y-69641109D01*
X130474719Y-69661121D01*
X130522914Y-69696582D01*
X130548383Y-69715322D01*
X130612463Y-69743169D01*
X130651982Y-69753985D01*
X130668869Y-69758607D01*
X130668872Y-69758607D01*
X130668878Y-69758609D01*
X131168783Y-69821096D01*
X131168802Y-69821100D01*
X130600000Y-69750000D01*
X130850000Y-72115000D01*
X131150940Y-72233422D01*
X131150935Y-72233421D01*
X131150924Y-72233417D01*
X131118018Y-72223556D01*
X131118013Y-72223555D01*
X131077654Y-72215060D01*
X131077654Y-72215061D01*
X131077583Y-72215046D01*
X131077270Y-72214980D01*
X131076733Y-72214868D01*
X131076724Y-72214867D01*
X130985299Y-72216803D01*
X130985293Y-72216804D01*
X130917543Y-72233784D01*
X130917503Y-72233795D01*
X130893563Y-72241378D01*
X130893561Y-72241379D01*
X130817686Y-72292441D01*
X130769858Y-72343367D01*
X130769856Y-72343369D01*
X130769854Y-72343372D01*
X130753799Y-72362713D01*
X130751715Y-72367545D01*
X130717574Y-72446692D01*
X130704871Y-72515387D01*
X130704871Y-72515388D01*
X130702529Y-72573838D01*
X131121093Y-76632761D01*
X131379646Y-79140015D01*
X131384535Y-79168114D01*
X131384541Y-79168143D01*
X131387666Y-79180813D01*
X131384604Y-79250616D01*
X131344289Y-79307682D01*
X131279523Y-79333893D01*
X131267272Y-79334500D01*
X121753501Y-79334500D01*
X121686462Y-79314815D01*
X121659788Y-79291703D01*
X121649070Y-79279334D01*
X121626128Y-79252857D01*
X121505053Y-79175047D01*
X121505051Y-79175046D01*
X121505049Y-79175045D01*
X121505050Y-79175045D01*
X121366963Y-79134500D01*
X121366961Y-79134500D01*
X121223039Y-79134500D01*
X121223036Y-79134500D01*
X121084949Y-79175045D01*
X120963873Y-79252856D01*
X120869623Y-79361626D01*
X120869622Y-79361628D01*
X120809834Y-79492543D01*
X120789353Y-79635000D01*
X120809834Y-79777456D01*
X120860834Y-79889128D01*
X120869623Y-79908373D01*
X120963872Y-80017143D01*
X121084947Y-80094953D01*
X121084950Y-80094954D01*
X121084949Y-80094954D01*
X121223036Y-80135499D01*
X121223038Y-80135500D01*
X121223039Y-80135500D01*
X121366962Y-80135500D01*
X121366962Y-80135499D01*
X121505053Y-80094953D01*
X121626128Y-80017143D01*
X121659788Y-79978296D01*
X121718567Y-79940523D01*
X121753501Y-79935500D01*
X136124560Y-79935500D01*
X136124562Y-79935500D01*
X136200989Y-79915021D01*
X136269511Y-79875460D01*
X136325460Y-79819511D01*
X138494970Y-77650000D01*
X141814353Y-77650000D01*
X141834834Y-77792456D01*
X141859186Y-77845778D01*
X141894623Y-77923373D01*
X141988872Y-78032143D01*
X142109947Y-78109953D01*
X142109950Y-78109954D01*
X142109949Y-78109954D01*
X142248036Y-78150499D01*
X142248038Y-78150500D01*
X142248039Y-78150500D01*
X142391962Y-78150500D01*
X142391962Y-78150499D01*
X142530050Y-78109954D01*
X142530051Y-78109954D01*
X142534427Y-78107142D01*
X142623529Y-78049879D01*
X142690568Y-78030195D01*
X142757607Y-78049879D01*
X142784281Y-78072993D01*
X142809986Y-78102659D01*
X142813872Y-78107143D01*
X142934947Y-78184953D01*
X142934950Y-78184954D01*
X142934949Y-78184954D01*
X143042107Y-78216417D01*
X143068155Y-78224066D01*
X143073036Y-78225499D01*
X143073038Y-78225500D01*
X143073039Y-78225500D01*
X143216962Y-78225500D01*
X143216962Y-78225499D01*
X143355053Y-78184953D01*
X143476128Y-78107143D01*
X143509788Y-78068296D01*
X143568567Y-78030523D01*
X143603501Y-78025500D01*
X143884275Y-78025500D01*
X143951314Y-78045185D01*
X143997069Y-78097989D01*
X144007013Y-78167147D01*
X143997069Y-78201011D01*
X143959835Y-78282541D01*
X143959834Y-78282542D01*
X143939353Y-78425000D01*
X143959834Y-78567456D01*
X144006925Y-78670569D01*
X144019623Y-78698373D01*
X144113872Y-78807143D01*
X144234947Y-78884953D01*
X144339119Y-78915540D01*
X144391864Y-78946835D01*
X162755604Y-97310575D01*
X162789089Y-97371898D01*
X162790661Y-97415902D01*
X162789353Y-97424999D01*
X162809834Y-97567456D01*
X162852663Y-97661237D01*
X162869623Y-97698373D01*
X162963872Y-97807143D01*
X163084947Y-97884953D01*
X163084950Y-97884954D01*
X163084949Y-97884954D01*
X163223036Y-97925499D01*
X163223038Y-97925500D01*
X163223039Y-97925500D01*
X163366962Y-97925500D01*
X163366962Y-97925499D01*
X163505053Y-97884953D01*
X163626128Y-97807143D01*
X163720377Y-97698373D01*
X163737339Y-97661231D01*
X169449500Y-97661231D01*
X169449500Y-97888768D01*
X169485093Y-98113490D01*
X169555400Y-98329876D01*
X169555401Y-98329879D01*
X169642994Y-98501788D01*
X169658697Y-98532607D01*
X169792434Y-98716680D01*
X169953320Y-98877566D01*
X170137393Y-99011303D01*
X170199333Y-99042863D01*
X170340120Y-99114598D01*
X170340123Y-99114599D01*
X170409329Y-99137085D01*
X170556511Y-99184907D01*
X170660591Y-99201391D01*
X170781232Y-99220500D01*
X170781237Y-99220500D01*
X171008768Y-99220500D01*
X171117710Y-99203244D01*
X171233489Y-99184907D01*
X171449879Y-99114598D01*
X171652607Y-99011303D01*
X171836680Y-98877566D01*
X171997566Y-98716680D01*
X172131303Y-98532607D01*
X172234598Y-98329879D01*
X172304907Y-98113489D01*
X172323244Y-97997710D01*
X172340500Y-97888768D01*
X172340500Y-97661231D01*
X172319793Y-97530499D01*
X172304907Y-97436511D01*
X172234598Y-97220121D01*
X172234598Y-97220120D01*
X172181966Y-97116825D01*
X172131303Y-97017393D01*
X171997566Y-96833320D01*
X171836680Y-96672434D01*
X171652607Y-96538697D01*
X171449879Y-96435401D01*
X171449876Y-96435400D01*
X171233490Y-96365093D01*
X171008768Y-96329500D01*
X171008763Y-96329500D01*
X170781237Y-96329500D01*
X170781232Y-96329500D01*
X170556509Y-96365093D01*
X170340123Y-96435400D01*
X170340120Y-96435401D01*
X170137392Y-96538697D01*
X170066618Y-96590118D01*
X169953320Y-96672434D01*
X169953318Y-96672436D01*
X169953317Y-96672436D01*
X169792436Y-96833317D01*
X169792436Y-96833318D01*
X169792434Y-96833320D01*
X169760970Y-96876627D01*
X169658697Y-97017392D01*
X169555401Y-97220120D01*
X169555400Y-97220123D01*
X169485093Y-97436509D01*
X169449500Y-97661231D01*
X163737339Y-97661231D01*
X163780165Y-97567457D01*
X163800647Y-97425000D01*
X163780165Y-97282543D01*
X163720377Y-97151627D01*
X163626128Y-97042857D01*
X163505053Y-96965047D01*
X163505051Y-96965046D01*
X163505049Y-96965045D01*
X163505050Y-96965045D01*
X163366963Y-96924500D01*
X163366961Y-96924500D01*
X163270833Y-96924500D01*
X163203794Y-96904815D01*
X163183152Y-96888181D01*
X159738943Y-93443972D01*
X159705458Y-93382649D01*
X159710442Y-93312957D01*
X159752314Y-93257024D01*
X159817778Y-93232607D01*
X159882917Y-93245805D01*
X160031588Y-93321557D01*
X160233757Y-93387246D01*
X160443713Y-93420500D01*
X160443714Y-93420500D01*
X160656286Y-93420500D01*
X160656287Y-93420500D01*
X160866243Y-93387246D01*
X161068412Y-93321557D01*
X161257816Y-93225051D01*
X161322910Y-93177758D01*
X161429786Y-93100109D01*
X161429788Y-93100106D01*
X161429792Y-93100104D01*
X161580104Y-92949792D01*
X161580106Y-92949788D01*
X161580109Y-92949786D01*
X161705048Y-92777820D01*
X161705047Y-92777820D01*
X161705051Y-92777816D01*
X161801557Y-92588412D01*
X161867246Y-92386243D01*
X161900500Y-92176287D01*
X161900500Y-91963713D01*
X161867246Y-91753757D01*
X161801557Y-91551588D01*
X161705051Y-91362184D01*
X161705049Y-91362181D01*
X161705048Y-91362179D01*
X161580109Y-91190213D01*
X161429786Y-91039890D01*
X161257820Y-90914951D01*
X161068414Y-90818444D01*
X161068413Y-90818443D01*
X161068412Y-90818443D01*
X160866243Y-90752754D01*
X160866241Y-90752753D01*
X160866240Y-90752753D01*
X160704957Y-90727208D01*
X160656287Y-90719500D01*
X160443713Y-90719500D01*
X160395042Y-90727208D01*
X160233760Y-90752753D01*
X160031585Y-90818444D01*
X159842179Y-90914951D01*
X159670213Y-91039890D01*
X159519890Y-91190213D01*
X159394951Y-91362179D01*
X159298444Y-91551585D01*
X159232753Y-91753760D01*
X159220541Y-91830867D01*
X159199500Y-91963713D01*
X159199500Y-92176287D01*
X159232754Y-92386243D01*
X159292949Y-92571504D01*
X159298444Y-92588414D01*
X159374193Y-92737080D01*
X159387089Y-92805749D01*
X159360813Y-92870490D01*
X159303706Y-92910747D01*
X159233901Y-92913739D01*
X159176027Y-92881056D01*
X152344971Y-86050000D01*
X160494417Y-86050000D01*
X160514699Y-86255932D01*
X160514700Y-86255934D01*
X160574768Y-86453954D01*
X160672315Y-86636450D01*
X160706969Y-86678677D01*
X160803589Y-86796410D01*
X160877594Y-86857143D01*
X160963550Y-86927685D01*
X161146046Y-87025232D01*
X161344066Y-87085300D01*
X161344065Y-87085300D01*
X161362529Y-87087118D01*
X161550000Y-87105583D01*
X161755934Y-87085300D01*
X161953954Y-87025232D01*
X162136450Y-86927685D01*
X162296410Y-86796410D01*
X162427685Y-86636450D01*
X162525232Y-86453954D01*
X162585300Y-86255934D01*
X162605583Y-86050000D01*
X162585300Y-85844066D01*
X162525232Y-85646046D01*
X162427685Y-85463550D01*
X162361205Y-85382543D01*
X162296410Y-85303589D01*
X162157405Y-85189512D01*
X162136450Y-85172315D01*
X161953954Y-85074768D01*
X161755934Y-85014700D01*
X161755932Y-85014699D01*
X161755934Y-85014699D01*
X161550000Y-84994417D01*
X161344067Y-85014699D01*
X161209515Y-85055515D01*
X161161623Y-85070043D01*
X161146043Y-85074769D01*
X161050107Y-85126049D01*
X160963550Y-85172315D01*
X160963548Y-85172316D01*
X160963547Y-85172317D01*
X160803589Y-85303589D01*
X160682876Y-85450681D01*
X160672315Y-85463550D01*
X160639469Y-85525000D01*
X160574769Y-85646043D01*
X160514699Y-85844067D01*
X160494417Y-86050000D01*
X152344971Y-86050000D01*
X146457471Y-80162500D01*
X156889353Y-80162500D01*
X156909834Y-80304956D01*
X156955295Y-80404500D01*
X156969623Y-80435873D01*
X157063872Y-80544643D01*
X157184947Y-80622453D01*
X157184950Y-80622454D01*
X157184949Y-80622454D01*
X157323036Y-80662999D01*
X157323038Y-80663000D01*
X157323039Y-80663000D01*
X157466962Y-80663000D01*
X157466962Y-80662999D01*
X157605053Y-80622453D01*
X157726128Y-80544643D01*
X157820377Y-80435873D01*
X157880165Y-80304957D01*
X157900647Y-80162500D01*
X157880165Y-80020043D01*
X157820377Y-79889127D01*
X157820375Y-79889125D01*
X157820374Y-79889122D01*
X157725787Y-79779962D01*
X157696762Y-79716406D01*
X157695500Y-79698760D01*
X157695500Y-74305833D01*
X157715185Y-74238794D01*
X157731819Y-74218152D01*
X158185652Y-73764319D01*
X158246975Y-73730834D01*
X158273333Y-73728000D01*
X158436499Y-73728000D01*
X158503538Y-73747685D01*
X158530211Y-73770796D01*
X158563872Y-73809643D01*
X158684947Y-73887453D01*
X158684950Y-73887454D01*
X158684949Y-73887454D01*
X158823036Y-73927999D01*
X158823038Y-73928000D01*
X158823039Y-73928000D01*
X158966961Y-73928000D01*
X159035566Y-73907856D01*
X159105434Y-73907856D01*
X159164213Y-73945630D01*
X159193238Y-74009186D01*
X159194500Y-74026833D01*
X159194500Y-84806463D01*
X159174815Y-84873502D01*
X159164214Y-84887664D01*
X159119625Y-84939123D01*
X159119622Y-84939128D01*
X159059834Y-85070043D01*
X159039353Y-85212500D01*
X159059834Y-85354956D01*
X159117844Y-85481977D01*
X159119623Y-85485873D01*
X159213872Y-85594643D01*
X159334947Y-85672453D01*
X159334950Y-85672454D01*
X159334949Y-85672454D01*
X159442107Y-85703917D01*
X159461156Y-85709511D01*
X159473036Y-85712999D01*
X159473038Y-85713000D01*
X159473039Y-85713000D01*
X159616962Y-85713000D01*
X159616962Y-85712999D01*
X159755053Y-85672453D01*
X159876128Y-85594643D01*
X159970377Y-85485873D01*
X160030165Y-85354957D01*
X160050647Y-85212500D01*
X160030165Y-85070043D01*
X159970377Y-84939127D01*
X159970375Y-84939125D01*
X159970374Y-84939122D01*
X159876133Y-84830362D01*
X159876129Y-84830358D01*
X159876128Y-84830357D01*
X159852458Y-84815145D01*
X159806705Y-84762341D01*
X159795500Y-84710831D01*
X159795500Y-83510000D01*
X160494417Y-83510000D01*
X160514699Y-83715932D01*
X160538740Y-83795185D01*
X160574768Y-83913954D01*
X160672315Y-84096450D01*
X160672317Y-84096452D01*
X160803589Y-84256410D01*
X160872209Y-84312724D01*
X160963550Y-84387685D01*
X161146046Y-84485232D01*
X161344066Y-84545300D01*
X161344065Y-84545300D01*
X161362529Y-84547118D01*
X161550000Y-84565583D01*
X161755934Y-84545300D01*
X161953954Y-84485232D01*
X162136450Y-84387685D01*
X162296410Y-84256410D01*
X162427685Y-84096450D01*
X162525232Y-83913954D01*
X162585300Y-83715934D01*
X162605583Y-83510000D01*
X162585300Y-83304066D01*
X162525232Y-83106046D01*
X162427685Y-82923550D01*
X162369489Y-82852638D01*
X162296410Y-82763589D01*
X162163277Y-82654331D01*
X162136450Y-82632315D01*
X161953954Y-82534768D01*
X161755934Y-82474700D01*
X161755932Y-82474699D01*
X161755934Y-82474699D01*
X161550000Y-82454417D01*
X161344067Y-82474699D01*
X161146043Y-82534769D01*
X161035898Y-82593643D01*
X160963550Y-82632315D01*
X160963548Y-82632316D01*
X160963547Y-82632317D01*
X160803589Y-82763589D01*
X160679662Y-82914597D01*
X160672315Y-82923550D01*
X160643289Y-82977853D01*
X160574769Y-83106043D01*
X160514699Y-83304067D01*
X160494417Y-83510000D01*
X159795500Y-83510000D01*
X159795500Y-80970000D01*
X160494417Y-80970000D01*
X160514699Y-81175932D01*
X160525192Y-81210523D01*
X160574768Y-81373954D01*
X160672315Y-81556450D01*
X160705886Y-81597357D01*
X160803589Y-81716410D01*
X160853880Y-81757682D01*
X160963550Y-81847685D01*
X161146046Y-81945232D01*
X161344066Y-82005300D01*
X161344065Y-82005300D01*
X161361529Y-82007020D01*
X161550000Y-82025583D01*
X161755934Y-82005300D01*
X161953954Y-81945232D01*
X162136450Y-81847685D01*
X162296410Y-81716410D01*
X162427685Y-81556450D01*
X162525232Y-81373954D01*
X162585300Y-81175934D01*
X162605583Y-80970000D01*
X162585300Y-80764066D01*
X162525232Y-80566046D01*
X162427685Y-80383550D01*
X162363185Y-80304956D01*
X162296410Y-80223589D01*
X162161722Y-80113055D01*
X162136450Y-80092315D01*
X161953954Y-79994768D01*
X161755934Y-79934700D01*
X161755932Y-79934699D01*
X161755934Y-79934699D01*
X161550000Y-79914417D01*
X161344067Y-79934699D01*
X161146043Y-79994769D01*
X161035898Y-80053643D01*
X160963550Y-80092315D01*
X160963548Y-80092316D01*
X160963547Y-80092317D01*
X160803589Y-80223589D01*
X160672317Y-80383547D01*
X160672315Y-80383550D01*
X160660101Y-80406401D01*
X160574769Y-80566043D01*
X160514699Y-80764067D01*
X160494417Y-80970000D01*
X159795500Y-80970000D01*
X159795500Y-78430000D01*
X160494417Y-78430000D01*
X160514699Y-78635932D01*
X160514700Y-78635934D01*
X160574768Y-78833954D01*
X160672315Y-79016450D01*
X160672317Y-79016452D01*
X160803589Y-79176410D01*
X160834167Y-79201504D01*
X160963550Y-79307685D01*
X161146046Y-79405232D01*
X161344066Y-79465300D01*
X161344065Y-79465300D01*
X161362529Y-79467118D01*
X161550000Y-79485583D01*
X161755934Y-79465300D01*
X161953954Y-79405232D01*
X162136450Y-79307685D01*
X162296410Y-79176410D01*
X162427685Y-79016450D01*
X162525232Y-78833954D01*
X162585300Y-78635934D01*
X162605583Y-78430000D01*
X162585300Y-78224066D01*
X162525232Y-78026046D01*
X162427685Y-77843550D01*
X162322075Y-77714863D01*
X162296410Y-77683589D01*
X162136452Y-77552317D01*
X162136453Y-77552317D01*
X162136450Y-77552315D01*
X161953954Y-77454768D01*
X161755934Y-77394700D01*
X161755932Y-77394699D01*
X161755934Y-77394699D01*
X161550000Y-77374417D01*
X161344067Y-77394699D01*
X161146043Y-77454769D01*
X161047312Y-77507543D01*
X160963550Y-77552315D01*
X160963548Y-77552316D01*
X160963547Y-77552317D01*
X160803589Y-77683589D01*
X160672317Y-77843547D01*
X160672315Y-77843550D01*
X160668851Y-77850031D01*
X160574769Y-78026043D01*
X160574768Y-78026045D01*
X160574768Y-78026046D01*
X160568962Y-78045185D01*
X160514699Y-78224067D01*
X160494417Y-78430000D01*
X159795500Y-78430000D01*
X159795500Y-75890000D01*
X160494417Y-75890000D01*
X160514699Y-76095932D01*
X160514700Y-76095934D01*
X160574768Y-76293954D01*
X160672315Y-76476450D01*
X160695466Y-76504660D01*
X160803589Y-76636410D01*
X160885162Y-76703354D01*
X160963550Y-76767685D01*
X161146046Y-76865232D01*
X161344066Y-76925300D01*
X161344065Y-76925300D01*
X161362529Y-76927118D01*
X161550000Y-76945583D01*
X161755934Y-76925300D01*
X161953954Y-76865232D01*
X162136450Y-76767685D01*
X162296410Y-76636410D01*
X162427685Y-76476450D01*
X162525232Y-76293954D01*
X162585300Y-76095934D01*
X162605583Y-75890000D01*
X162585300Y-75684066D01*
X162525232Y-75486046D01*
X162427685Y-75303550D01*
X162375702Y-75240209D01*
X162296410Y-75143589D01*
X162136452Y-75012317D01*
X162136453Y-75012317D01*
X162136450Y-75012315D01*
X161953954Y-74914768D01*
X161755934Y-74854700D01*
X161755932Y-74854699D01*
X161755934Y-74854699D01*
X161550000Y-74834417D01*
X161344067Y-74854699D01*
X161146043Y-74914769D01*
X161035898Y-74973643D01*
X160963550Y-75012315D01*
X160963548Y-75012316D01*
X160963547Y-75012317D01*
X160803589Y-75143589D01*
X160672317Y-75303547D01*
X160574769Y-75486043D01*
X160574768Y-75486045D01*
X160574768Y-75486046D01*
X160568682Y-75506110D01*
X160514699Y-75684067D01*
X160494417Y-75890000D01*
X159795500Y-75890000D01*
X159795500Y-73350000D01*
X160494417Y-73350000D01*
X160514699Y-73555932D01*
X160514700Y-73555934D01*
X160574768Y-73753954D01*
X160672315Y-73936450D01*
X160679733Y-73945489D01*
X160803589Y-74096410D01*
X160900209Y-74175702D01*
X160963550Y-74227685D01*
X161146046Y-74325232D01*
X161344066Y-74385300D01*
X161344065Y-74385300D01*
X161362529Y-74387118D01*
X161550000Y-74405583D01*
X161755934Y-74385300D01*
X161953954Y-74325232D01*
X162136450Y-74227685D01*
X162296410Y-74096410D01*
X162427685Y-73936450D01*
X162525232Y-73753954D01*
X162585300Y-73555934D01*
X162605583Y-73350000D01*
X162585300Y-73144066D01*
X162525232Y-72946046D01*
X162427685Y-72763550D01*
X162363256Y-72685043D01*
X162296410Y-72603589D01*
X162136452Y-72472317D01*
X162136453Y-72472317D01*
X162136450Y-72472315D01*
X161953954Y-72374768D01*
X161755934Y-72314700D01*
X161755932Y-72314699D01*
X161755934Y-72314699D01*
X161550000Y-72294417D01*
X161344067Y-72314699D01*
X161146043Y-72374769D01*
X161035898Y-72433643D01*
X160963550Y-72472315D01*
X160963548Y-72472316D01*
X160963547Y-72472317D01*
X160803589Y-72603589D01*
X160672317Y-72763547D01*
X160574769Y-72946043D01*
X160514699Y-73144067D01*
X160494417Y-73350000D01*
X159795500Y-73350000D01*
X159795500Y-73291238D01*
X159815185Y-73224199D01*
X159825787Y-73210035D01*
X159826124Y-73209644D01*
X159826128Y-73209643D01*
X159920377Y-73100873D01*
X159980165Y-72969957D01*
X160000647Y-72827500D01*
X159980165Y-72685043D01*
X159920377Y-72554127D01*
X159826128Y-72445357D01*
X159705053Y-72367547D01*
X159705051Y-72367546D01*
X159705049Y-72367545D01*
X159705050Y-72367545D01*
X159566963Y-72327000D01*
X159566961Y-72327000D01*
X159423039Y-72327000D01*
X159423036Y-72327000D01*
X159284949Y-72367545D01*
X159163873Y-72445356D01*
X159069623Y-72554126D01*
X159069622Y-72554128D01*
X159009834Y-72685043D01*
X158990338Y-72820647D01*
X158961313Y-72884203D01*
X158902535Y-72921977D01*
X158867600Y-72927000D01*
X158823036Y-72927000D01*
X158684949Y-72967545D01*
X158563873Y-73045356D01*
X158530212Y-73084203D01*
X158471433Y-73121977D01*
X158436499Y-73127000D01*
X158057938Y-73127000D01*
X157990539Y-73145059D01*
X157981507Y-73147480D01*
X157926050Y-73179499D01*
X157926049Y-73179500D01*
X157912990Y-73187039D01*
X157912987Y-73187041D01*
X157154541Y-73945487D01*
X157154535Y-73945495D01*
X157114982Y-74014004D01*
X157114979Y-74014009D01*
X157094500Y-74090439D01*
X157094500Y-79698760D01*
X157074815Y-79765799D01*
X157064213Y-79779962D01*
X156969625Y-79889122D01*
X156969622Y-79889128D01*
X156909834Y-80020043D01*
X156889353Y-80162500D01*
X146457471Y-80162500D01*
X144965540Y-78670569D01*
X144932055Y-78609246D01*
X144930483Y-78565244D01*
X144948850Y-78437500D01*
X152664353Y-78437500D01*
X152684834Y-78579956D01*
X152744622Y-78710871D01*
X152744623Y-78710873D01*
X152838872Y-78819643D01*
X152959947Y-78897453D01*
X152959950Y-78897454D01*
X152959949Y-78897454D01*
X153051912Y-78924456D01*
X153095280Y-78937190D01*
X153098036Y-78937999D01*
X153098038Y-78938000D01*
X153194167Y-78938000D01*
X153261206Y-78957685D01*
X153281848Y-78974319D01*
X153628034Y-79320505D01*
X153661519Y-79381828D01*
X153664353Y-79408186D01*
X153664353Y-79412499D01*
X153664353Y-79412500D01*
X153665784Y-79422453D01*
X153684834Y-79554956D01*
X153727092Y-79647486D01*
X153744623Y-79685873D01*
X153838872Y-79794643D01*
X153959947Y-79872453D01*
X153959950Y-79872454D01*
X153959949Y-79872454D01*
X154067107Y-79903917D01*
X154070006Y-79904769D01*
X154098036Y-79912999D01*
X154098038Y-79913000D01*
X154098039Y-79913000D01*
X154241962Y-79913000D01*
X154241962Y-79912999D01*
X154349121Y-79881535D01*
X154380050Y-79872454D01*
X154380050Y-79872453D01*
X154380053Y-79872453D01*
X154501128Y-79794643D01*
X154595377Y-79685873D01*
X154655165Y-79554957D01*
X154655165Y-79554954D01*
X154657663Y-79546449D01*
X154660576Y-79547304D01*
X154683301Y-79497531D01*
X154742075Y-79459750D01*
X154811943Y-79459742D01*
X154823039Y-79463000D01*
X154966962Y-79463000D01*
X154966962Y-79462999D01*
X155105053Y-79422453D01*
X155226128Y-79344643D01*
X155320377Y-79235873D01*
X155380165Y-79104957D01*
X155400647Y-78962500D01*
X155380165Y-78820043D01*
X155320377Y-78689127D01*
X155226128Y-78580357D01*
X155105053Y-78502547D01*
X155105051Y-78502546D01*
X155105049Y-78502545D01*
X155105050Y-78502545D01*
X154966963Y-78462000D01*
X154966961Y-78462000D01*
X154823039Y-78462000D01*
X154820833Y-78462000D01*
X154753794Y-78442315D01*
X154733152Y-78425681D01*
X154410130Y-78102659D01*
X154376645Y-78041336D01*
X154375074Y-77997329D01*
X154376382Y-77988235D01*
X154355900Y-77845778D01*
X154296112Y-77714862D01*
X154201863Y-77606092D01*
X154080788Y-77528282D01*
X154080786Y-77528281D01*
X154080784Y-77528280D01*
X154080785Y-77528280D01*
X153942698Y-77487735D01*
X153942696Y-77487735D01*
X153798774Y-77487735D01*
X153798771Y-77487735D01*
X153660684Y-77528280D01*
X153539608Y-77606091D01*
X153445358Y-77714861D01*
X153445357Y-77714863D01*
X153385567Y-77845783D01*
X153384320Y-77850031D01*
X153381929Y-77853750D01*
X153381886Y-77853845D01*
X153381872Y-77853838D01*
X153346541Y-77908806D01*
X153282983Y-77937826D01*
X153247701Y-77937825D01*
X153241962Y-77937000D01*
X153241961Y-77937000D01*
X153098039Y-77937000D01*
X153098036Y-77937000D01*
X152959949Y-77977545D01*
X152838873Y-78055356D01*
X152744623Y-78164126D01*
X152744622Y-78164128D01*
X152684834Y-78295043D01*
X152664353Y-78437500D01*
X144948850Y-78437500D01*
X144950647Y-78425000D01*
X144930165Y-78282543D01*
X144926651Y-78274850D01*
X144892931Y-78201011D01*
X144882987Y-78131853D01*
X144912012Y-78068297D01*
X144970790Y-78030523D01*
X145005725Y-78025500D01*
X145234560Y-78025500D01*
X145234562Y-78025500D01*
X145310989Y-78005021D01*
X145379511Y-77965460D01*
X145435460Y-77909511D01*
X151283151Y-72061818D01*
X151344474Y-72028334D01*
X151370832Y-72025500D01*
X151466962Y-72025500D01*
X151466962Y-72025499D01*
X151605053Y-71984953D01*
X151726128Y-71907143D01*
X151820377Y-71798373D01*
X151880165Y-71667457D01*
X151900647Y-71525000D01*
X151880165Y-71382543D01*
X151820377Y-71251627D01*
X151726128Y-71142857D01*
X151605053Y-71065047D01*
X151605051Y-71065046D01*
X151605049Y-71065045D01*
X151605050Y-71065045D01*
X151466963Y-71024500D01*
X151466961Y-71024500D01*
X151323039Y-71024500D01*
X151323036Y-71024500D01*
X151184949Y-71065045D01*
X151057211Y-71147137D01*
X150990171Y-71166821D01*
X150923132Y-71147136D01*
X150896459Y-71124024D01*
X150879389Y-71104324D01*
X150826128Y-71042857D01*
X150705053Y-70965047D01*
X150705051Y-70965046D01*
X150705049Y-70965045D01*
X150705050Y-70965045D01*
X150566963Y-70924500D01*
X150566961Y-70924500D01*
X150423039Y-70924500D01*
X150423036Y-70924500D01*
X150284949Y-70965045D01*
X150163873Y-71042856D01*
X150069623Y-71151626D01*
X150069622Y-71151628D01*
X150009834Y-71282543D01*
X149989353Y-71425000D01*
X149989353Y-71425001D01*
X149990661Y-71434103D01*
X149980713Y-71503261D01*
X149955603Y-71539424D01*
X144706848Y-76788181D01*
X144645525Y-76821666D01*
X144619167Y-76824500D01*
X142805438Y-76824500D01*
X142767224Y-76834739D01*
X142729009Y-76844979D01*
X142729004Y-76844982D01*
X142660495Y-76884535D01*
X142660487Y-76884541D01*
X142431847Y-77113181D01*
X142370524Y-77146666D01*
X142344166Y-77149500D01*
X142248036Y-77149500D01*
X142109949Y-77190045D01*
X141988873Y-77267856D01*
X141894623Y-77376626D01*
X141894622Y-77376628D01*
X141834834Y-77507543D01*
X141814353Y-77650000D01*
X138494970Y-77650000D01*
X139333151Y-76811818D01*
X139394474Y-76778334D01*
X139420832Y-76775500D01*
X139516962Y-76775500D01*
X139516962Y-76775499D01*
X139655053Y-76734953D01*
X139776128Y-76657143D01*
X139870377Y-76548373D01*
X139930165Y-76417457D01*
X139950647Y-76275000D01*
X139930165Y-76132543D01*
X139870377Y-76001627D01*
X139776128Y-75892857D01*
X139771941Y-75890166D01*
X139726812Y-75861163D01*
X139681057Y-75808359D01*
X139671114Y-75739201D01*
X139700139Y-75675645D01*
X139703990Y-75671404D01*
X139781001Y-75590445D01*
X139896489Y-75469037D01*
X139956956Y-75434030D01*
X139986333Y-75430500D01*
X142623908Y-75430500D01*
X142623917Y-75430500D01*
X142665204Y-75426310D01*
X142714016Y-75416299D01*
X142721857Y-75414530D01*
X142803570Y-75373453D01*
X142857448Y-75328967D01*
X142875814Y-75311810D01*
X142922348Y-75233078D01*
X142943623Y-75166527D01*
X142953324Y-75108843D01*
X142997235Y-73264529D01*
X143018510Y-73197981D01*
X143034790Y-73178550D01*
X145472818Y-70810000D01*
X160494417Y-70810000D01*
X160514699Y-71015932D01*
X160522867Y-71042857D01*
X160574768Y-71213954D01*
X160672315Y-71396450D01*
X160672317Y-71396452D01*
X160803589Y-71556410D01*
X160900209Y-71635702D01*
X160963550Y-71687685D01*
X161146046Y-71785232D01*
X161344066Y-71845300D01*
X161344065Y-71845300D01*
X161362529Y-71847118D01*
X161550000Y-71865583D01*
X161755934Y-71845300D01*
X161953954Y-71785232D01*
X162136450Y-71687685D01*
X162296410Y-71556410D01*
X162427685Y-71396450D01*
X162525232Y-71213954D01*
X162585300Y-71015934D01*
X162605583Y-70810000D01*
X162585300Y-70604066D01*
X162525232Y-70406046D01*
X162427685Y-70223550D01*
X162375702Y-70160209D01*
X162296410Y-70063589D01*
X162178677Y-69966969D01*
X162136450Y-69932315D01*
X161953954Y-69834768D01*
X161755934Y-69774700D01*
X161755932Y-69774699D01*
X161755934Y-69774699D01*
X161550000Y-69754417D01*
X161344067Y-69774699D01*
X161191130Y-69821092D01*
X161146930Y-69834500D01*
X161146043Y-69834769D01*
X161035898Y-69893643D01*
X160963550Y-69932315D01*
X160963548Y-69932316D01*
X160963547Y-69932317D01*
X160803589Y-70063589D01*
X160672317Y-70223547D01*
X160574769Y-70406043D01*
X160514699Y-70604067D01*
X160494417Y-70810000D01*
X145472818Y-70810000D01*
X149292133Y-67099527D01*
X149353933Y-67066932D01*
X149378678Y-67064467D01*
X162668206Y-67080172D01*
X162735222Y-67099936D01*
X162780914Y-67152794D01*
X162790206Y-67182813D01*
X163270995Y-69932317D01*
X163527018Y-71396450D01*
X163540524Y-71473683D01*
X163544832Y-71492857D01*
X163544835Y-71492869D01*
X163551134Y-71515726D01*
X163551140Y-71515745D01*
X163557269Y-71534434D01*
X163557272Y-71534442D01*
X166253749Y-78595592D01*
X166581780Y-79454593D01*
X166581783Y-79454599D01*
X166581784Y-79454601D01*
X166605861Y-79499776D01*
X166605864Y-79499780D01*
X166641218Y-79549871D01*
X166652096Y-79563948D01*
X166725168Y-79618945D01*
X166744457Y-79627577D01*
X166788939Y-79647485D01*
X166788942Y-79647485D01*
X166788943Y-79647486D01*
X166845190Y-79663538D01*
X169226558Y-79987445D01*
X169290331Y-80015985D01*
X169328552Y-80074473D01*
X169329084Y-80144341D01*
X169321247Y-80164769D01*
X169316926Y-80173607D01*
X169307000Y-80241739D01*
X169307000Y-81333260D01*
X169316926Y-81401391D01*
X169368303Y-81506485D01*
X169451014Y-81589196D01*
X169451015Y-81589196D01*
X169451017Y-81589198D01*
X169556107Y-81640573D01*
X169590173Y-81645536D01*
X169624239Y-81650500D01*
X169624240Y-81650500D01*
X169990761Y-81650500D01*
X170013471Y-81647191D01*
X170058893Y-81640573D01*
X170163983Y-81589198D01*
X170246698Y-81506483D01*
X170298073Y-81401393D01*
X170308000Y-81333260D01*
X170308000Y-80276548D01*
X170327685Y-80209509D01*
X170380489Y-80163754D01*
X170448710Y-80153679D01*
X171082214Y-80239847D01*
X171145987Y-80268387D01*
X171184208Y-80326876D01*
X171189500Y-80362715D01*
X171189500Y-81414525D01*
X171192400Y-81448920D01*
X171199373Y-81489984D01*
X171199524Y-81490862D01*
X171199526Y-81490869D01*
X171234933Y-81575179D01*
X171234934Y-81575181D01*
X171234936Y-81575184D01*
X171234937Y-81575186D01*
X171275647Y-81631970D01*
X171316145Y-81674173D01*
X171573203Y-81875000D01*
X171666368Y-81947785D01*
X171707078Y-82004569D01*
X171710625Y-82074349D01*
X171675884Y-82134969D01*
X171613884Y-82167184D01*
X171590028Y-82169500D01*
X171518992Y-82169500D01*
X171475313Y-82174197D01*
X171423825Y-82185397D01*
X171413627Y-82187890D01*
X171413624Y-82187891D01*
X171332916Y-82230899D01*
X171332913Y-82230901D01*
X171280104Y-82276660D01*
X171262160Y-82294242D01*
X171262154Y-82294249D01*
X171217511Y-82374059D01*
X171217509Y-82374064D01*
X171197826Y-82441096D01*
X171197825Y-82441101D01*
X171197825Y-82441102D01*
X171195911Y-82454417D01*
X171189500Y-82499003D01*
X171189500Y-83645500D01*
X171169815Y-83712539D01*
X171117011Y-83758294D01*
X171065500Y-83769500D01*
X170427883Y-83769500D01*
X170360844Y-83749815D01*
X170315089Y-83697011D01*
X170305145Y-83627853D01*
X170305179Y-83627622D01*
X170308000Y-83608260D01*
X170308000Y-82516739D01*
X170301875Y-82474699D01*
X170298073Y-82448607D01*
X170297932Y-82448319D01*
X170288167Y-82420217D01*
X170284597Y-82403805D01*
X170282110Y-82393627D01*
X170239100Y-82312915D01*
X170193345Y-82260111D01*
X170193339Y-82260104D01*
X170175757Y-82242160D01*
X170175756Y-82242159D01*
X170175754Y-82242157D01*
X170175752Y-82242156D01*
X170175750Y-82242154D01*
X170095940Y-82197511D01*
X170095935Y-82197509D01*
X170028903Y-82177826D01*
X170028899Y-82177825D01*
X170028898Y-82177825D01*
X169971000Y-82169500D01*
X164269000Y-82169500D01*
X164268992Y-82169500D01*
X164225313Y-82174197D01*
X164173825Y-82185397D01*
X164163627Y-82187890D01*
X164163624Y-82187891D01*
X164082916Y-82230899D01*
X164082913Y-82230901D01*
X164030104Y-82276660D01*
X164012160Y-82294242D01*
X164012154Y-82294249D01*
X163967511Y-82374059D01*
X163967509Y-82374064D01*
X163947826Y-82441096D01*
X163947825Y-82441101D01*
X163947825Y-82441102D01*
X163945911Y-82454417D01*
X163939500Y-82499003D01*
X163939500Y-83902354D01*
X163943959Y-83944937D01*
X163954601Y-83995189D01*
X163956750Y-84004301D01*
X163956753Y-84004309D01*
X163998868Y-84085479D01*
X163998870Y-84085481D01*
X163998871Y-84085483D01*
X164044043Y-84138786D01*
X164061434Y-84156931D01*
X164140756Y-84202453D01*
X164207572Y-84222873D01*
X164207579Y-84222875D01*
X164256396Y-84230442D01*
X164265379Y-84231835D01*
X168507707Y-84278453D01*
X168574524Y-84298874D01*
X168612926Y-84339076D01*
X172026142Y-90080019D01*
X172824136Y-91422225D01*
X172827085Y-91427184D01*
X172844500Y-91490553D01*
X172844500Y-92843157D01*
X172846635Y-92872683D01*
X172846636Y-92872695D01*
X172846637Y-92872698D01*
X172851767Y-92907995D01*
X172882591Y-92990066D01*
X172920544Y-93048729D01*
X172950025Y-93082543D01*
X172958982Y-93092817D01*
X172958983Y-93092818D01*
X173141713Y-93250182D01*
X173152909Y-93259161D01*
X173152913Y-93259164D01*
X173166791Y-93269519D01*
X173231786Y-93301990D01*
X173298825Y-93321675D01*
X173310116Y-93323298D01*
X173327393Y-93327056D01*
X173401700Y-93348874D01*
X173433794Y-93363530D01*
X173475176Y-93390125D01*
X173501842Y-93413231D01*
X173511729Y-93424641D01*
X173534045Y-93450395D01*
X173553127Y-93480087D01*
X173578359Y-93535338D01*
X173583827Y-93549568D01*
X173584274Y-93550986D01*
X173584275Y-93550990D01*
X173608457Y-93608995D01*
X173612475Y-93618634D01*
X173650421Y-93677285D01*
X173650423Y-93677288D01*
X173650425Y-93677290D01*
X173688864Y-93721379D01*
X173811708Y-93827170D01*
X173847596Y-93851966D01*
X173893577Y-93876983D01*
X173933896Y-93893648D01*
X173933898Y-93893648D01*
X173933899Y-93893649D01*
X173951699Y-93898876D01*
X173983801Y-93913535D01*
X174025176Y-93940125D01*
X174051849Y-93963239D01*
X174058276Y-93970657D01*
X174084048Y-94000401D01*
X174103124Y-94030081D01*
X174109298Y-94043599D01*
X174109300Y-94043602D01*
X174131902Y-94081630D01*
X174131905Y-94081635D01*
X174138275Y-94090117D01*
X174163780Y-94124081D01*
X174194005Y-94156397D01*
X174826018Y-94700676D01*
X174837225Y-94709664D01*
X174851103Y-94720019D01*
X174898882Y-94743889D01*
X174916098Y-94752490D01*
X174983129Y-94772173D01*
X174983131Y-94772173D01*
X174983137Y-94772175D01*
X175041035Y-94780500D01*
X175934414Y-94780500D01*
X176001453Y-94800185D01*
X176047208Y-94852989D01*
X176057152Y-94922147D01*
X176033384Y-94979206D01*
X173400012Y-98467863D01*
X170456011Y-102368033D01*
X170451440Y-102374333D01*
X170446108Y-102381981D01*
X170417509Y-102441611D01*
X170397826Y-102508640D01*
X170389500Y-102566549D01*
X170389500Y-112603183D01*
X170393815Y-112645083D01*
X170393816Y-112645088D01*
X170404122Y-112694574D01*
X170406065Y-112703010D01*
X170406066Y-112703011D01*
X170447634Y-112784475D01*
X170492443Y-112838084D01*
X170509714Y-112856349D01*
X170509715Y-112856350D01*
X170549965Y-112879813D01*
X170588726Y-112902408D01*
X170655405Y-112923281D01*
X170713143Y-112932633D01*
X180759463Y-113111233D01*
X180826140Y-113132106D01*
X180870949Y-113185715D01*
X180879662Y-113255039D01*
X180849512Y-113318069D01*
X180803323Y-113350339D01*
X180796600Y-113353029D01*
X180792013Y-113354928D01*
X180786601Y-113357246D01*
X180786597Y-113357248D01*
X180732920Y-113390847D01*
X180732911Y-113390853D01*
X180680114Y-113436602D01*
X180680110Y-113436606D01*
X180662160Y-113454193D01*
X180662154Y-113454200D01*
X180617511Y-113534010D01*
X180617509Y-113534015D01*
X180597826Y-113601047D01*
X180597825Y-113601052D01*
X180597825Y-113601053D01*
X180591431Y-113645525D01*
X180589500Y-113658954D01*
X180589500Y-114198188D01*
X180589501Y-114198210D01*
X180594137Y-114241604D01*
X180594138Y-114241612D01*
X180594139Y-114241614D01*
X180605210Y-114292830D01*
X180618919Y-114334289D01*
X181378541Y-116009232D01*
X181378561Y-116009276D01*
X181378566Y-116009286D01*
X181380193Y-116012786D01*
X181382237Y-116017071D01*
X181382241Y-116017078D01*
X181417318Y-116068645D01*
X181417322Y-116068649D01*
X181464920Y-116119776D01*
X181464927Y-116119783D01*
X181480431Y-116134514D01*
X181483155Y-116137103D01*
X181483158Y-116137104D01*
X181483160Y-116137106D01*
X181564508Y-116178868D01*
X181564516Y-116178872D01*
X181632216Y-116196151D01*
X181690371Y-116202403D01*
X182898254Y-116159264D01*
X182898259Y-116159263D01*
X182898265Y-116159263D01*
X182928963Y-116155842D01*
X182928965Y-116155841D01*
X182928979Y-116155840D01*
X182965542Y-116148949D01*
X183047303Y-116113957D01*
X183104067Y-116073218D01*
X183123553Y-116057340D01*
X183175306Y-115981936D01*
X183201034Y-115916976D01*
X183214614Y-115860084D01*
X183399121Y-113849434D01*
X183399766Y-113840058D01*
X183400285Y-113828727D01*
X183400500Y-113819324D01*
X183400500Y-113613043D01*
X183420185Y-113546004D01*
X183472989Y-113500249D01*
X183542147Y-113490305D01*
X183605703Y-113519330D01*
X183612181Y-113525362D01*
X183892289Y-113805470D01*
X183892290Y-113805471D01*
X183892292Y-113805472D01*
X183913640Y-113817797D01*
X183961857Y-113868363D01*
X183963043Y-113870725D01*
X183968303Y-113881485D01*
X184051014Y-113964196D01*
X184051015Y-113964196D01*
X184051017Y-113964198D01*
X184156107Y-114015573D01*
X184190173Y-114020536D01*
X184224239Y-114025500D01*
X184224240Y-114025500D01*
X185315761Y-114025500D01*
X185338471Y-114022191D01*
X185383893Y-114015573D01*
X185488983Y-113964198D01*
X185571698Y-113881483D01*
X185623073Y-113776393D01*
X185633000Y-113708260D01*
X185633000Y-113341740D01*
X185623073Y-113273607D01*
X185571698Y-113168517D01*
X185571696Y-113168515D01*
X185571696Y-113168514D01*
X185488985Y-113085803D01*
X185383891Y-113034426D01*
X185315761Y-113024500D01*
X185315760Y-113024500D01*
X184224240Y-113024500D01*
X184179704Y-113030988D01*
X184110529Y-113021175D01*
X184074148Y-112995965D01*
X184019319Y-112941136D01*
X183985834Y-112879813D01*
X183983000Y-112853455D01*
X183983000Y-112229590D01*
X184002685Y-112162551D01*
X184055489Y-112116796D01*
X184124647Y-112106852D01*
X184146628Y-112113623D01*
X184146905Y-112112730D01*
X184156107Y-112115573D01*
X184224239Y-112125500D01*
X184224240Y-112125500D01*
X185315761Y-112125500D01*
X185338471Y-112122191D01*
X185383893Y-112115573D01*
X185488983Y-112064198D01*
X185541363Y-112011817D01*
X185602684Y-111978334D01*
X185629043Y-111975500D01*
X185728642Y-111975500D01*
X185728644Y-111975500D01*
X185817788Y-111951614D01*
X185897712Y-111905470D01*
X186216363Y-111586817D01*
X186277686Y-111553333D01*
X186304044Y-111550499D01*
X186664017Y-111550499D01*
X186664018Y-111550499D01*
X186757804Y-111535646D01*
X186870842Y-111478050D01*
X186960550Y-111388342D01*
X186985177Y-111340008D01*
X187033148Y-111289215D01*
X187100969Y-111272419D01*
X187167104Y-111294956D01*
X187210556Y-111349670D01*
X187217530Y-111419191D01*
X187215845Y-111426828D01*
X186699637Y-113459396D01*
X186694901Y-113484496D01*
X186694901Y-113484497D01*
X186691085Y-113515026D01*
X186689500Y-113540485D01*
X186689500Y-116251007D01*
X186694197Y-116294686D01*
X186705397Y-116346174D01*
X186707890Y-116356372D01*
X186707891Y-116356375D01*
X186750899Y-116437083D01*
X186750901Y-116437086D01*
X186796660Y-116489895D01*
X186814242Y-116507839D01*
X186814246Y-116507843D01*
X186814247Y-116507844D01*
X186814249Y-116507845D01*
X186894059Y-116552488D01*
X186894063Y-116552490D01*
X186961102Y-116572175D01*
X187019000Y-116580500D01*
X187019004Y-116580500D01*
X188370991Y-116580500D01*
X188371000Y-116580500D01*
X188414684Y-116575803D01*
X188443875Y-116569452D01*
X188466174Y-116564602D01*
X188466190Y-116564598D01*
X188466195Y-116564597D01*
X188476373Y-116562110D01*
X188557085Y-116519100D01*
X188609889Y-116473345D01*
X188627843Y-116455754D01*
X188672490Y-116375937D01*
X188692175Y-116308898D01*
X188700500Y-116251000D01*
X188700500Y-110499000D01*
X188695803Y-110455316D01*
X188688018Y-110419530D01*
X188684602Y-110403825D01*
X188684348Y-110402789D01*
X188682110Y-110393627D01*
X188639100Y-110312915D01*
X188594686Y-110261659D01*
X188593339Y-110260104D01*
X188575757Y-110242160D01*
X188575756Y-110242159D01*
X188575754Y-110242157D01*
X188575752Y-110242156D01*
X188575750Y-110242154D01*
X188495940Y-110197511D01*
X188495935Y-110197509D01*
X188428903Y-110177826D01*
X188428899Y-110177825D01*
X188428898Y-110177825D01*
X188371000Y-110169500D01*
X187791445Y-110169500D01*
X187791432Y-110169500D01*
X187773018Y-110170327D01*
X187750852Y-110172323D01*
X187677074Y-110193343D01*
X187614668Y-110224675D01*
X187614635Y-110224693D01*
X187592904Y-110237323D01*
X187592903Y-110237323D01*
X187592903Y-110237324D01*
X187529983Y-110303695D01*
X187529983Y-110303696D01*
X187494402Y-110363826D01*
X187472084Y-110417888D01*
X187277184Y-111185305D01*
X187241603Y-111245436D01*
X187179161Y-111276786D01*
X187109682Y-111269399D01*
X187055227Y-111225623D01*
X187033083Y-111159355D01*
X187032999Y-111154834D01*
X187032999Y-110568482D01*
X187018146Y-110474696D01*
X186960550Y-110361658D01*
X186960546Y-110361654D01*
X186960545Y-110361652D01*
X186870847Y-110271954D01*
X186870844Y-110271952D01*
X186870842Y-110271950D01*
X186794017Y-110232805D01*
X186757801Y-110214352D01*
X186664024Y-110199500D01*
X186200982Y-110199500D01*
X186120019Y-110212323D01*
X186107196Y-110214354D01*
X185994158Y-110271950D01*
X185994157Y-110271951D01*
X185994152Y-110271954D01*
X185904454Y-110361652D01*
X185904451Y-110361657D01*
X185904450Y-110361658D01*
X185888161Y-110393627D01*
X185846852Y-110474698D01*
X185832000Y-110568475D01*
X185832000Y-110928455D01*
X185812315Y-110995494D01*
X185795685Y-111016131D01*
X185695597Y-111116220D01*
X185643194Y-111168623D01*
X185581871Y-111202107D01*
X185512179Y-111197123D01*
X185498452Y-111189826D01*
X185498214Y-111190315D01*
X185488983Y-111185802D01*
X185391901Y-111138342D01*
X185383891Y-111134426D01*
X185315761Y-111124500D01*
X185315760Y-111124500D01*
X184224240Y-111124500D01*
X184224239Y-111124500D01*
X184156107Y-111134426D01*
X184146905Y-111137270D01*
X184146032Y-111134444D01*
X184092578Y-111143568D01*
X184028283Y-111116220D01*
X183988980Y-111058453D01*
X183983000Y-111020409D01*
X183983000Y-110946544D01*
X184002685Y-110879505D01*
X184019319Y-110858863D01*
X184091364Y-110786818D01*
X184152687Y-110753333D01*
X184179045Y-110750499D01*
X184539017Y-110750499D01*
X184539018Y-110750499D01*
X184632804Y-110735646D01*
X184745842Y-110678050D01*
X184835550Y-110588342D01*
X184893146Y-110475304D01*
X184893146Y-110475302D01*
X184893147Y-110475301D01*
X184906083Y-110393624D01*
X184908000Y-110381519D01*
X184907999Y-109768482D01*
X184893146Y-109674696D01*
X184835550Y-109561658D01*
X184835546Y-109561654D01*
X184835545Y-109561652D01*
X184745847Y-109471954D01*
X184745844Y-109471952D01*
X184745842Y-109471950D01*
X184669017Y-109432805D01*
X184632801Y-109414352D01*
X184539024Y-109399500D01*
X184075982Y-109399500D01*
X183995019Y-109412323D01*
X183982196Y-109414354D01*
X183869158Y-109471950D01*
X183869157Y-109471951D01*
X183869152Y-109471954D01*
X183779454Y-109561652D01*
X183779451Y-109561657D01*
X183721852Y-109674698D01*
X183707000Y-109768475D01*
X183707000Y-110128455D01*
X183687315Y-110195494D01*
X183670681Y-110216136D01*
X183469680Y-110417136D01*
X183408357Y-110450621D01*
X183338665Y-110445637D01*
X183282732Y-110403765D01*
X183258315Y-110338301D01*
X183257999Y-110329480D01*
X183257999Y-109768482D01*
X183243146Y-109674696D01*
X183185550Y-109561658D01*
X183185546Y-109561654D01*
X183185545Y-109561652D01*
X183095847Y-109471954D01*
X183095844Y-109471952D01*
X183095842Y-109471950D01*
X183019017Y-109432805D01*
X182982801Y-109414352D01*
X182889024Y-109399500D01*
X182425982Y-109399500D01*
X182345019Y-109412323D01*
X182332196Y-109414354D01*
X182219158Y-109471950D01*
X182219157Y-109471951D01*
X182219152Y-109471954D01*
X182129454Y-109561652D01*
X182129451Y-109561657D01*
X182071852Y-109674698D01*
X182057000Y-109768475D01*
X182057000Y-110381518D01*
X182057095Y-110382714D01*
X182057000Y-110383161D01*
X182057001Y-110386390D01*
X182056322Y-110386390D01*
X182042725Y-110451090D01*
X181993669Y-110500842D01*
X181925503Y-110516175D01*
X181859868Y-110492221D01*
X181845795Y-110480113D01*
X181785213Y-110419531D01*
X181785208Y-110419527D01*
X181705290Y-110373387D01*
X181705289Y-110373386D01*
X181705288Y-110373386D01*
X181616144Y-110349500D01*
X181616143Y-110349500D01*
X181506295Y-110349500D01*
X181439256Y-110329815D01*
X181395811Y-110281796D01*
X181390796Y-110271954D01*
X181385550Y-110261658D01*
X181385547Y-110261655D01*
X181385545Y-110261652D01*
X181295847Y-110171954D01*
X181295844Y-110171952D01*
X181295842Y-110171950D01*
X181210479Y-110128455D01*
X181182801Y-110114352D01*
X181089024Y-110099500D01*
X180475982Y-110099500D01*
X180382195Y-110114354D01*
X180316362Y-110147898D01*
X180247693Y-110160794D01*
X180182953Y-110134517D01*
X180142696Y-110077411D01*
X180136203Y-110043197D01*
X180113719Y-109561657D01*
X179794193Y-102718475D01*
X190669500Y-102718475D01*
X190669500Y-103181517D01*
X190680292Y-103249657D01*
X190684354Y-103275304D01*
X190741950Y-103388342D01*
X190741952Y-103388344D01*
X190741954Y-103388347D01*
X190831652Y-103478045D01*
X190831654Y-103478046D01*
X190831658Y-103478050D01*
X190944694Y-103535645D01*
X190944698Y-103535647D01*
X191038475Y-103550499D01*
X191038481Y-103550500D01*
X191651518Y-103550499D01*
X191745304Y-103535646D01*
X191858342Y-103478050D01*
X191948050Y-103388342D01*
X192005646Y-103275304D01*
X192005646Y-103275302D01*
X192005647Y-103275301D01*
X192020499Y-103181524D01*
X192020500Y-103181519D01*
X192020499Y-102718482D01*
X192016539Y-102693475D01*
X192269500Y-102693475D01*
X192269500Y-103156517D01*
X192273460Y-103181517D01*
X192284354Y-103250304D01*
X192341950Y-103363342D01*
X192341952Y-103363344D01*
X192341954Y-103363347D01*
X192431652Y-103453045D01*
X192431654Y-103453046D01*
X192431658Y-103453050D01*
X192544694Y-103510645D01*
X192544698Y-103510647D01*
X192638475Y-103525499D01*
X192638481Y-103525500D01*
X193251518Y-103525499D01*
X193345304Y-103510646D01*
X193458342Y-103453050D01*
X193548050Y-103363342D01*
X193605646Y-103250304D01*
X193605646Y-103250302D01*
X193605647Y-103250301D01*
X193620499Y-103156524D01*
X193620500Y-103156519D01*
X193620499Y-102693482D01*
X193605646Y-102599696D01*
X193548050Y-102486658D01*
X193548046Y-102486654D01*
X193548045Y-102486652D01*
X193451442Y-102390049D01*
X193417957Y-102328726D01*
X193422941Y-102259034D01*
X193426328Y-102250858D01*
X193430165Y-102242457D01*
X193450647Y-102100000D01*
X193430165Y-101957543D01*
X193370377Y-101826627D01*
X193276128Y-101717857D01*
X193155053Y-101640047D01*
X193155051Y-101640046D01*
X193155049Y-101640045D01*
X193155050Y-101640045D01*
X193016963Y-101599500D01*
X193016961Y-101599500D01*
X192873039Y-101599500D01*
X192873036Y-101599500D01*
X192734949Y-101640045D01*
X192613873Y-101717856D01*
X192519623Y-101826626D01*
X192519622Y-101826628D01*
X192459834Y-101957543D01*
X192439353Y-102100000D01*
X192459834Y-102242456D01*
X192459836Y-102242460D01*
X192463671Y-102250858D01*
X192473614Y-102320016D01*
X192444588Y-102383572D01*
X192438558Y-102390049D01*
X192341951Y-102486656D01*
X192341951Y-102486657D01*
X192341950Y-102486658D01*
X192329215Y-102511652D01*
X192284352Y-102599698D01*
X192269500Y-102693475D01*
X192016539Y-102693475D01*
X192005646Y-102624696D01*
X191948050Y-102511658D01*
X191948046Y-102511654D01*
X191948045Y-102511652D01*
X191859192Y-102422799D01*
X191825707Y-102361476D01*
X191827898Y-102300177D01*
X191830165Y-102292457D01*
X191837353Y-102242460D01*
X191850647Y-102150000D01*
X191830165Y-102007543D01*
X191770377Y-101876627D01*
X191676128Y-101767857D01*
X191555053Y-101690047D01*
X191555051Y-101690046D01*
X191555049Y-101690045D01*
X191555050Y-101690045D01*
X191416963Y-101649500D01*
X191416961Y-101649500D01*
X191273039Y-101649500D01*
X191273036Y-101649500D01*
X191134949Y-101690045D01*
X191013873Y-101767856D01*
X190919623Y-101876626D01*
X190919622Y-101876628D01*
X190859834Y-102007543D01*
X190839353Y-102150000D01*
X190859834Y-102292456D01*
X190862104Y-102300185D01*
X190862102Y-102370055D01*
X190830808Y-102422799D01*
X190741951Y-102511656D01*
X190741951Y-102511657D01*
X190684352Y-102624698D01*
X190669500Y-102718475D01*
X179794193Y-102718475D01*
X179601054Y-98582085D01*
X179597941Y-98554788D01*
X179592004Y-98522245D01*
X179585279Y-98495610D01*
X179097266Y-96994030D01*
X179097265Y-96994030D01*
X179084814Y-96955718D01*
X179084812Y-96955714D01*
X179080545Y-96942586D01*
X178956572Y-96561129D01*
X178950500Y-96522802D01*
X178950500Y-95849508D01*
X178950499Y-95849492D01*
X178948758Y-95833299D01*
X178945803Y-95805816D01*
X178936207Y-95761705D01*
X178934602Y-95754325D01*
X178933667Y-95750499D01*
X178932110Y-95744127D01*
X178932107Y-95744122D01*
X178932107Y-95744120D01*
X178916651Y-95715116D01*
X178909702Y-95695655D01*
X178905240Y-95684882D01*
X178853895Y-95608040D01*
X178847112Y-95597888D01*
X178760117Y-95539760D01*
X178760115Y-95539759D01*
X178760112Y-95539758D01*
X178683404Y-95524500D01*
X178683401Y-95524500D01*
X178661167Y-95524500D01*
X178643520Y-95523238D01*
X178642051Y-95523026D01*
X178621000Y-95520000D01*
X178569000Y-95520000D01*
X178568995Y-95520000D01*
X178533741Y-95523790D01*
X178520494Y-95524500D01*
X178506601Y-95524500D01*
X178429880Y-95539760D01*
X178413889Y-95550446D01*
X178347212Y-95571323D01*
X178279832Y-95552837D01*
X178276111Y-95550446D01*
X178260117Y-95539759D01*
X178183403Y-95524500D01*
X178006601Y-95524500D01*
X177929880Y-95539760D01*
X177913889Y-95550446D01*
X177847212Y-95571323D01*
X177779832Y-95552837D01*
X177776111Y-95550446D01*
X177760117Y-95539759D01*
X177683403Y-95524500D01*
X177624000Y-95524500D01*
X177556961Y-95504815D01*
X177511206Y-95452011D01*
X177500000Y-95400500D01*
X177500000Y-95316089D01*
X177499477Y-95301438D01*
X177499477Y-95301433D01*
X177498218Y-95283827D01*
X177498218Y-95266155D01*
X177499476Y-95248565D01*
X177500000Y-95233906D01*
X177500000Y-94904500D01*
X177496210Y-94869251D01*
X177495499Y-94855995D01*
X177495499Y-94836602D01*
X177495499Y-94836600D01*
X177480240Y-94759883D01*
X177480239Y-94759881D01*
X177480238Y-94759878D01*
X177469555Y-94743891D01*
X177448676Y-94677214D01*
X177467160Y-94609833D01*
X177469517Y-94606164D01*
X177480240Y-94590117D01*
X177495500Y-94513401D01*
X177495499Y-94491165D01*
X177496761Y-94473518D01*
X177500000Y-94451000D01*
X177500000Y-94216092D01*
X177499477Y-94201433D01*
X177498218Y-94183827D01*
X177498218Y-94166155D01*
X177499476Y-94148565D01*
X177500000Y-94133906D01*
X177500000Y-93904500D01*
X177496210Y-93869251D01*
X177495499Y-93855995D01*
X177495499Y-93836602D01*
X177495499Y-93836600D01*
X177480240Y-93759883D01*
X177480239Y-93759881D01*
X177480238Y-93759879D01*
X177456861Y-93724894D01*
X177422112Y-93672888D01*
X177335117Y-93614760D01*
X177335115Y-93614759D01*
X177335112Y-93614758D01*
X177325152Y-93612777D01*
X177301316Y-93605480D01*
X177295442Y-93603011D01*
X177228403Y-93583326D01*
X177228399Y-93583325D01*
X177228398Y-93583325D01*
X177170500Y-93575000D01*
X177295000Y-93575000D01*
X177295000Y-92732035D01*
X177305472Y-92741775D01*
X177319287Y-92753523D01*
X177319400Y-92753619D01*
X177336812Y-92767138D01*
X177383710Y-92791130D01*
X177404937Y-92801990D01*
X177415838Y-92805190D01*
X177428360Y-92809609D01*
X177429880Y-92810239D01*
X177429882Y-92810239D01*
X177429883Y-92810240D01*
X177434226Y-92811103D01*
X177444948Y-92813738D01*
X177471976Y-92821675D01*
X177529874Y-92830000D01*
X177529878Y-92830000D01*
X178115493Y-92830000D01*
X178115500Y-92830000D01*
X178150747Y-92826210D01*
X178164004Y-92825499D01*
X178183398Y-92825499D01*
X178183400Y-92825499D01*
X178260117Y-92810240D01*
X178276107Y-92799555D01*
X178342783Y-92778676D01*
X178410164Y-92797159D01*
X178413871Y-92799541D01*
X178422321Y-92805187D01*
X178429883Y-92810240D01*
X178429887Y-92810241D01*
X178447493Y-92813743D01*
X178506599Y-92825500D01*
X178528833Y-92825499D01*
X178546481Y-92826761D01*
X178569000Y-92830000D01*
X178620991Y-92830000D01*
X178621000Y-92830000D01*
X178651114Y-92826762D01*
X178656248Y-92826210D01*
X178669504Y-92825499D01*
X178683398Y-92825499D01*
X178683400Y-92825499D01*
X178760117Y-92810240D01*
X178776107Y-92799555D01*
X178842783Y-92778676D01*
X178910164Y-92797159D01*
X178913871Y-92799541D01*
X178922321Y-92805187D01*
X178929883Y-92810240D01*
X178929887Y-92810241D01*
X178947493Y-92813743D01*
X179006599Y-92825500D01*
X179034333Y-92825499D01*
X179051981Y-92826761D01*
X179074500Y-92830000D01*
X179134060Y-92830000D01*
X179134070Y-92830000D01*
X179160322Y-92827910D01*
X179166569Y-92827413D01*
X179166570Y-92827412D01*
X179166580Y-92827412D01*
X179168772Y-92827060D01*
X179177359Y-92826377D01*
X179177332Y-92826097D01*
X179183391Y-92825499D01*
X179183400Y-92825499D01*
X179201347Y-92821928D01*
X179205947Y-92821105D01*
X179207162Y-92820910D01*
X179210716Y-92820065D01*
X179260117Y-92810240D01*
X179276108Y-92799554D01*
X179342785Y-92778676D01*
X179410166Y-92797160D01*
X179413871Y-92799541D01*
X179422321Y-92805187D01*
X179429883Y-92810240D01*
X179429887Y-92810241D01*
X179447493Y-92813743D01*
X179506599Y-92825500D01*
X179683400Y-92825499D01*
X179760117Y-92810240D01*
X179776107Y-92799555D01*
X179842783Y-92778676D01*
X179910164Y-92797159D01*
X179913871Y-92799541D01*
X179922321Y-92805187D01*
X179929883Y-92810240D01*
X179929887Y-92810241D01*
X179947493Y-92813743D01*
X180006599Y-92825500D01*
X180028833Y-92825499D01*
X180046481Y-92826761D01*
X180069000Y-92830000D01*
X180070501Y-92830000D01*
X180070984Y-92830142D01*
X180073417Y-92830316D01*
X180073379Y-92830845D01*
X180137540Y-92849685D01*
X180183295Y-92902489D01*
X180194500Y-92953998D01*
X180194501Y-93013400D01*
X180201528Y-93048727D01*
X180209760Y-93090118D01*
X180215753Y-93099086D01*
X180216436Y-93100109D01*
X180218601Y-93103348D01*
X180239480Y-93170025D01*
X180239500Y-93172241D01*
X180239500Y-93177758D01*
X180219815Y-93244797D01*
X180218604Y-93246647D01*
X180209759Y-93259884D01*
X180194500Y-93336596D01*
X180194500Y-93513398D01*
X180209760Y-93590119D01*
X180220446Y-93606111D01*
X180241323Y-93672788D01*
X180222837Y-93740168D01*
X180220446Y-93743889D01*
X180209759Y-93759882D01*
X180194500Y-93836596D01*
X180194500Y-94013398D01*
X180209760Y-94090119D01*
X180220446Y-94106111D01*
X180241323Y-94172788D01*
X180222837Y-94240168D01*
X180220446Y-94243889D01*
X180209759Y-94259882D01*
X180194500Y-94336596D01*
X180194500Y-94513398D01*
X180209760Y-94590119D01*
X180220446Y-94606111D01*
X180241323Y-94672788D01*
X180222837Y-94740168D01*
X180220446Y-94743889D01*
X180209759Y-94759882D01*
X180194500Y-94836596D01*
X180194500Y-95013398D01*
X180209760Y-95090119D01*
X180220446Y-95106111D01*
X180241323Y-95172788D01*
X180222837Y-95240168D01*
X180220446Y-95243889D01*
X180209759Y-95259882D01*
X180194500Y-95336596D01*
X180194500Y-95400500D01*
X180174815Y-95467539D01*
X180122011Y-95513294D01*
X180070502Y-95524500D01*
X180006601Y-95524500D01*
X179929880Y-95539760D01*
X179913889Y-95550446D01*
X179847212Y-95571323D01*
X179779832Y-95552837D01*
X179776111Y-95550446D01*
X179760117Y-95539759D01*
X179683403Y-95524500D01*
X179506601Y-95524500D01*
X179429881Y-95539760D01*
X179429879Y-95539761D01*
X179342888Y-95597888D01*
X179284760Y-95684883D01*
X179284758Y-95684887D01*
X179269500Y-95761594D01*
X179269500Y-96513397D01*
X179284760Y-96590118D01*
X179284761Y-96590120D01*
X179294499Y-96604693D01*
X179342888Y-96677112D01*
X179429883Y-96735240D01*
X179429886Y-96735240D01*
X179429887Y-96735241D01*
X179468241Y-96742870D01*
X179506599Y-96750500D01*
X179670499Y-96750499D01*
X179737539Y-96770183D01*
X179783294Y-96822987D01*
X179794500Y-96874499D01*
X179794500Y-96915611D01*
X179783294Y-96967123D01*
X179764835Y-97007540D01*
X179764834Y-97007543D01*
X179744353Y-97150000D01*
X179764834Y-97292456D01*
X179816240Y-97405018D01*
X179824623Y-97423373D01*
X179918872Y-97532143D01*
X180039947Y-97609953D01*
X180039950Y-97609954D01*
X180039949Y-97609954D01*
X180178036Y-97650499D01*
X180178038Y-97650500D01*
X180178039Y-97650500D01*
X180321962Y-97650500D01*
X180321962Y-97650499D01*
X180460053Y-97609953D01*
X180581128Y-97532143D01*
X180675377Y-97423373D01*
X180735165Y-97292457D01*
X180755647Y-97150000D01*
X180735165Y-97007543D01*
X180675377Y-96876627D01*
X180581128Y-96767857D01*
X180464883Y-96693151D01*
X180419129Y-96640348D01*
X180409185Y-96571189D01*
X180410296Y-96564697D01*
X180420500Y-96513401D01*
X180420499Y-95874498D01*
X180440183Y-95807460D01*
X180492987Y-95761705D01*
X180544495Y-95750499D01*
X181183400Y-95750499D01*
X181229714Y-95741287D01*
X181299306Y-95747514D01*
X181354483Y-95790377D01*
X181376643Y-95845257D01*
X181379834Y-95867456D01*
X181419930Y-95955252D01*
X181439623Y-95998373D01*
X181533872Y-96107143D01*
X181654947Y-96184953D01*
X181654950Y-96184954D01*
X181654949Y-96184954D01*
X181793036Y-96225499D01*
X181793038Y-96225500D01*
X181793039Y-96225500D01*
X181936962Y-96225500D01*
X181936962Y-96225499D01*
X182075053Y-96184953D01*
X182196128Y-96107143D01*
X182290377Y-95998373D01*
X182350165Y-95867457D01*
X182370647Y-95725000D01*
X182350165Y-95582543D01*
X182290377Y-95451627D01*
X182290375Y-95451625D01*
X182290375Y-95451624D01*
X182289697Y-95450568D01*
X182289343Y-95449363D01*
X182286693Y-95443560D01*
X182287527Y-95443178D01*
X182270013Y-95383528D01*
X182289699Y-95316489D01*
X182300293Y-95302335D01*
X182390377Y-95198373D01*
X182450165Y-95067457D01*
X182470647Y-94925000D01*
X182450165Y-94782543D01*
X182390377Y-94651627D01*
X182296128Y-94542857D01*
X182175053Y-94465047D01*
X182175051Y-94465046D01*
X182175049Y-94465045D01*
X182175050Y-94465045D01*
X182036963Y-94424500D01*
X182036961Y-94424500D01*
X181893039Y-94424500D01*
X181893036Y-94424500D01*
X181754949Y-94465045D01*
X181633872Y-94542857D01*
X181627172Y-94548663D01*
X181625105Y-94546278D01*
X181579393Y-94575634D01*
X181509524Y-94575610D01*
X181450758Y-94537816D01*
X181421755Y-94474250D01*
X181420499Y-94456654D01*
X181420499Y-94336600D01*
X181405240Y-94259883D01*
X181405239Y-94259881D01*
X181405238Y-94259878D01*
X181394555Y-94243891D01*
X181373676Y-94177214D01*
X181392160Y-94109833D01*
X181394517Y-94106164D01*
X181405240Y-94090117D01*
X181420500Y-94013401D01*
X181420499Y-93892436D01*
X181440183Y-93825398D01*
X181492987Y-93779643D01*
X181543132Y-93768444D01*
X184766965Y-93733018D01*
X184834216Y-93751965D01*
X184880549Y-93804263D01*
X184884302Y-93813128D01*
X186872498Y-99067647D01*
X186875036Y-99074029D01*
X186875043Y-99074045D01*
X186878210Y-99081636D01*
X186912560Y-99137085D01*
X186958320Y-99189895D01*
X186975902Y-99207839D01*
X186975906Y-99207843D01*
X186975907Y-99207844D01*
X186975909Y-99207845D01*
X186998533Y-99220500D01*
X187055723Y-99252490D01*
X187122762Y-99272175D01*
X187180660Y-99280500D01*
X188359217Y-99280500D01*
X188426256Y-99300185D01*
X188428073Y-99301375D01*
X188446769Y-99313867D01*
X188446771Y-99313867D01*
X188446772Y-99313868D01*
X188446770Y-99313868D01*
X188505247Y-99325499D01*
X188505250Y-99325500D01*
X188505252Y-99325500D01*
X189994748Y-99325500D01*
X189995386Y-99325373D01*
X189995728Y-99325403D01*
X190000813Y-99324903D01*
X190000907Y-99325866D01*
X190064978Y-99331594D01*
X190120159Y-99374452D01*
X190139362Y-99414892D01*
X190151233Y-99459199D01*
X190158719Y-99487136D01*
X190195345Y-99550572D01*
X190234485Y-99618365D01*
X190341635Y-99725515D01*
X190472865Y-99801281D01*
X190619234Y-99840500D01*
X190619236Y-99840500D01*
X190770764Y-99840500D01*
X190770766Y-99840500D01*
X190917135Y-99801281D01*
X191048365Y-99725515D01*
X191155515Y-99618365D01*
X191231281Y-99487135D01*
X191270500Y-99340766D01*
X191270500Y-99189234D01*
X191231281Y-99042865D01*
X191155515Y-98911635D01*
X191048365Y-98804485D01*
X190982750Y-98766602D01*
X190917136Y-98728719D01*
X190859091Y-98713166D01*
X190770766Y-98689500D01*
X190770764Y-98689500D01*
X190767413Y-98688602D01*
X190707752Y-98652237D01*
X190695096Y-98626184D01*
X190684207Y-98650030D01*
X190625429Y-98687804D01*
X190622587Y-98688602D01*
X190619236Y-98689500D01*
X190619234Y-98689500D01*
X190472865Y-98728719D01*
X190472864Y-98728719D01*
X190472862Y-98728720D01*
X190472861Y-98728720D01*
X190361500Y-98793015D01*
X190293600Y-98809488D01*
X190227573Y-98786635D01*
X190184382Y-98731714D01*
X190175500Y-98685628D01*
X190175500Y-98568827D01*
X190195185Y-98501788D01*
X190247989Y-98456033D01*
X190299500Y-98444827D01*
X190590494Y-98444827D01*
X190657533Y-98464512D01*
X190695329Y-98508131D01*
X190730003Y-98466137D01*
X190796555Y-98444862D01*
X190799506Y-98444827D01*
X190986499Y-98444827D01*
X191053538Y-98464512D01*
X191080211Y-98487623D01*
X191113872Y-98526470D01*
X191234947Y-98604280D01*
X191234950Y-98604281D01*
X191234949Y-98604281D01*
X191373036Y-98644826D01*
X191373038Y-98644827D01*
X191373039Y-98644827D01*
X191516962Y-98644827D01*
X191516962Y-98644826D01*
X191655053Y-98604280D01*
X191776128Y-98526470D01*
X191870377Y-98417700D01*
X191930165Y-98286784D01*
X191950647Y-98144327D01*
X191930165Y-98001870D01*
X191870377Y-97870954D01*
X191776128Y-97762184D01*
X191655053Y-97684374D01*
X191655051Y-97684373D01*
X191655049Y-97684372D01*
X191655050Y-97684372D01*
X191516963Y-97643827D01*
X191516961Y-97643827D01*
X191456379Y-97643827D01*
X191389340Y-97624142D01*
X191364141Y-97595061D01*
X191347865Y-97630703D01*
X191289087Y-97668477D01*
X191289086Y-97668477D01*
X191234949Y-97684372D01*
X191113873Y-97762183D01*
X191080212Y-97801030D01*
X191021433Y-97838804D01*
X190986499Y-97843827D01*
X190299500Y-97843827D01*
X190232461Y-97824142D01*
X190186706Y-97771338D01*
X190175500Y-97719827D01*
X190175500Y-97549500D01*
X190195185Y-97482461D01*
X190247989Y-97436706D01*
X190299500Y-97425500D01*
X191254152Y-97425500D01*
X191321191Y-97445185D01*
X191346389Y-97474265D01*
X191362666Y-97438624D01*
X191402818Y-97409670D01*
X191402480Y-97409085D01*
X191408251Y-97405753D01*
X191408928Y-97405265D01*
X191409514Y-97405021D01*
X191409518Y-97405021D01*
X191409521Y-97405019D01*
X191409524Y-97405018D01*
X191478033Y-97365464D01*
X191478032Y-97365464D01*
X191478040Y-97365460D01*
X191533989Y-97309511D01*
X193235460Y-95608040D01*
X193249910Y-95583011D01*
X193275021Y-95539518D01*
X193295500Y-95463091D01*
X193295500Y-86605438D01*
X193291628Y-86590988D01*
X193275022Y-86529012D01*
X193235460Y-86460489D01*
X188999968Y-82224997D01*
X191299723Y-82224997D01*
X191299723Y-82225002D01*
X191305781Y-82294242D01*
X191318628Y-82441096D01*
X191318793Y-82442975D01*
X191318793Y-82442979D01*
X191375422Y-82654322D01*
X191375424Y-82654326D01*
X191375425Y-82654330D01*
X191408815Y-82725935D01*
X191467897Y-82852638D01*
X191491305Y-82886068D01*
X191593402Y-83031877D01*
X191748123Y-83186598D01*
X191927361Y-83312102D01*
X192125670Y-83404575D01*
X192337023Y-83461207D01*
X192519926Y-83477208D01*
X192554998Y-83480277D01*
X192555000Y-83480277D01*
X192555002Y-83480277D01*
X192583254Y-83477805D01*
X192772977Y-83461207D01*
X192984330Y-83404575D01*
X193182639Y-83312102D01*
X193361877Y-83186598D01*
X193516598Y-83031877D01*
X193642102Y-82852639D01*
X193734575Y-82654330D01*
X193791207Y-82442977D01*
X193810277Y-82225000D01*
X193807030Y-82187891D01*
X193805832Y-82174197D01*
X193791207Y-82007023D01*
X193734575Y-81795670D01*
X193642102Y-81597362D01*
X193642100Y-81597359D01*
X193642099Y-81597357D01*
X193516599Y-81418124D01*
X193463428Y-81364953D01*
X193361877Y-81263402D01*
X193223978Y-81166844D01*
X193182638Y-81137897D01*
X193071202Y-81085934D01*
X192984330Y-81045425D01*
X192984326Y-81045424D01*
X192984322Y-81045422D01*
X192772977Y-80988793D01*
X192615308Y-80974999D01*
X193964892Y-80974999D01*
X193964892Y-80975000D01*
X193983282Y-81173464D01*
X193983282Y-81173466D01*
X193983283Y-81173469D01*
X194037765Y-81364954D01*
X194037830Y-81365183D01*
X194126670Y-81543598D01*
X194126675Y-81543606D01*
X194246792Y-81702666D01*
X194348821Y-81795677D01*
X194394090Y-81836945D01*
X194563554Y-81941873D01*
X194565285Y-81942543D01*
X194565991Y-81943086D01*
X194568688Y-81944429D01*
X194568425Y-81944956D01*
X194620689Y-81985110D01*
X194644285Y-82050875D01*
X194644500Y-82058173D01*
X194644500Y-82726667D01*
X194624815Y-82793706D01*
X194624094Y-82794669D01*
X194619622Y-82801628D01*
X194559834Y-82932543D01*
X194539353Y-83075000D01*
X194559834Y-83217456D01*
X194606802Y-83320299D01*
X194619623Y-83348373D01*
X194713872Y-83457143D01*
X194834947Y-83534953D01*
X194834950Y-83534954D01*
X194834949Y-83534954D01*
X194973036Y-83575499D01*
X194973038Y-83575500D01*
X194973039Y-83575500D01*
X195116962Y-83575500D01*
X195116962Y-83575499D01*
X195255053Y-83534953D01*
X195376128Y-83457143D01*
X195470377Y-83348373D01*
X195530165Y-83217457D01*
X195550647Y-83075000D01*
X195530165Y-82932543D01*
X195470377Y-82801627D01*
X195470374Y-82801624D01*
X195465582Y-82794166D01*
X195468621Y-82792212D01*
X195446749Y-82744224D01*
X195445500Y-82726667D01*
X195445500Y-82058173D01*
X195465185Y-81991134D01*
X195517989Y-81945379D01*
X195524693Y-81942551D01*
X195526446Y-81941873D01*
X195695910Y-81836945D01*
X195843209Y-81702664D01*
X195963326Y-81543604D01*
X196052171Y-81365180D01*
X196106717Y-81173469D01*
X196125108Y-80975000D01*
X196106717Y-80776531D01*
X196052171Y-80584820D01*
X196042823Y-80566046D01*
X195963329Y-80406401D01*
X195963324Y-80406393D01*
X195843207Y-80247333D01*
X195695911Y-80113056D01*
X195695910Y-80113055D01*
X195623979Y-80068517D01*
X195526447Y-80008127D01*
X195526445Y-80008126D01*
X195420306Y-79967008D01*
X195340586Y-79936124D01*
X195340582Y-79936123D01*
X195227692Y-79915021D01*
X195144660Y-79899500D01*
X194945340Y-79899500D01*
X194873125Y-79912999D01*
X194749417Y-79936123D01*
X194749415Y-79936123D01*
X194749414Y-79936124D01*
X194699430Y-79955488D01*
X194563554Y-80008126D01*
X194563552Y-80008127D01*
X194394088Y-80113056D01*
X194246792Y-80247333D01*
X194126675Y-80406393D01*
X194126670Y-80406401D01*
X194047177Y-80566046D01*
X194037829Y-80584820D01*
X193987263Y-80762543D01*
X193983282Y-80776535D01*
X193964892Y-80974999D01*
X192615308Y-80974999D01*
X192555002Y-80969723D01*
X192554998Y-80969723D01*
X192409682Y-80982436D01*
X192337023Y-80988793D01*
X192337020Y-80988793D01*
X192125677Y-81045422D01*
X192125670Y-81045424D01*
X192125670Y-81045425D01*
X192100631Y-81057100D01*
X191927361Y-81137898D01*
X191927357Y-81137900D01*
X191748121Y-81263402D01*
X191593402Y-81418121D01*
X191467900Y-81597357D01*
X191467898Y-81597361D01*
X191375426Y-81795668D01*
X191375422Y-81795677D01*
X191318793Y-82007020D01*
X191318793Y-82007024D01*
X191299723Y-82224997D01*
X188999968Y-82224997D01*
X181989968Y-75214997D01*
X191299723Y-75214997D01*
X191299723Y-75215002D01*
X191302389Y-75245471D01*
X191313585Y-75373453D01*
X191318793Y-75432975D01*
X191318793Y-75432979D01*
X191375422Y-75644322D01*
X191375424Y-75644326D01*
X191375425Y-75644330D01*
X191393955Y-75684067D01*
X191467897Y-75842638D01*
X191467898Y-75842639D01*
X191593402Y-76021877D01*
X191748123Y-76176598D01*
X191927361Y-76302102D01*
X192125670Y-76394575D01*
X192337023Y-76451207D01*
X192519926Y-76467208D01*
X192554998Y-76470277D01*
X192555000Y-76470277D01*
X192555002Y-76470277D01*
X192583254Y-76467805D01*
X192772977Y-76451207D01*
X192984330Y-76394575D01*
X193182639Y-76302102D01*
X193361877Y-76176598D01*
X193516598Y-76021877D01*
X193642102Y-75842639D01*
X193734575Y-75644330D01*
X193791207Y-75432977D01*
X193808695Y-75233078D01*
X193810277Y-75215002D01*
X193810277Y-75214997D01*
X193806036Y-75166527D01*
X193791207Y-74997023D01*
X193734575Y-74785670D01*
X193642102Y-74587362D01*
X193642100Y-74587359D01*
X193642099Y-74587357D01*
X193516599Y-74408124D01*
X193493775Y-74385300D01*
X193361877Y-74253402D01*
X193182639Y-74127898D01*
X193182640Y-74127898D01*
X193182638Y-74127897D01*
X193083484Y-74081661D01*
X192984330Y-74035425D01*
X192984326Y-74035424D01*
X192984322Y-74035422D01*
X192772977Y-73978793D01*
X192555002Y-73959723D01*
X192554998Y-73959723D01*
X192409682Y-73972436D01*
X192337023Y-73978793D01*
X192337020Y-73978793D01*
X192125677Y-74035422D01*
X192125668Y-74035426D01*
X191927361Y-74127898D01*
X191927357Y-74127900D01*
X191748121Y-74253402D01*
X191593402Y-74408121D01*
X191467900Y-74587357D01*
X191467898Y-74587361D01*
X191375426Y-74785668D01*
X191375422Y-74785677D01*
X191318793Y-74997020D01*
X191318793Y-74997024D01*
X191299723Y-75214997D01*
X181989968Y-75214997D01*
X175359511Y-68584540D01*
X175359509Y-68584539D01*
X175359504Y-68584535D01*
X175290995Y-68544982D01*
X175290990Y-68544979D01*
X175265513Y-68538152D01*
X175214562Y-68524500D01*
X175214560Y-68524500D01*
X169903501Y-68524500D01*
X169836462Y-68504815D01*
X169809788Y-68481703D01*
X169776128Y-68442857D01*
X169655053Y-68365047D01*
X169655051Y-68365046D01*
X169655049Y-68365045D01*
X169655050Y-68365045D01*
X169516963Y-68324500D01*
X169516961Y-68324500D01*
X169373039Y-68324500D01*
X169373036Y-68324500D01*
X169234949Y-68365045D01*
X169113873Y-68442856D01*
X169019623Y-68551626D01*
X169019622Y-68551628D01*
X168959834Y-68682543D01*
X168939353Y-68825000D01*
X168959834Y-68967456D01*
X169019622Y-69098371D01*
X169019623Y-69098373D01*
X169113872Y-69207143D01*
X169234947Y-69284953D01*
X169234950Y-69284954D01*
X169234949Y-69284954D01*
X169373036Y-69325499D01*
X169373038Y-69325500D01*
X169373039Y-69325500D01*
X169516962Y-69325500D01*
X169516962Y-69325499D01*
X169655053Y-69284953D01*
X169776128Y-69207143D01*
X169809788Y-69168296D01*
X169868567Y-69130523D01*
X169903501Y-69125500D01*
X174999167Y-69125500D01*
X175066206Y-69145185D01*
X175086848Y-69161819D01*
X175537848Y-69612819D01*
X175571333Y-69674142D01*
X175566349Y-69743834D01*
X175524477Y-69799767D01*
X175459013Y-69824184D01*
X175450167Y-69824500D01*
X169946826Y-69824500D01*
X169879787Y-69804815D01*
X169853113Y-69781703D01*
X169833100Y-69758607D01*
X169776128Y-69692857D01*
X169655053Y-69615047D01*
X169655051Y-69615046D01*
X169655049Y-69615045D01*
X169655050Y-69615045D01*
X169516963Y-69574500D01*
X169516961Y-69574500D01*
X169373039Y-69574500D01*
X169373036Y-69574500D01*
X169234949Y-69615045D01*
X169113873Y-69692856D01*
X169019623Y-69801626D01*
X169019622Y-69801628D01*
X168959834Y-69932543D01*
X168939353Y-70075000D01*
X168959834Y-70217456D01*
X169018438Y-70345778D01*
X169019623Y-70348373D01*
X169113872Y-70457143D01*
X169234947Y-70534953D01*
X169234950Y-70534954D01*
X169234949Y-70534954D01*
X169373036Y-70575499D01*
X169373038Y-70575500D01*
X169373039Y-70575500D01*
X169516962Y-70575500D01*
X169516962Y-70575499D01*
X169655053Y-70534953D01*
X169776128Y-70457143D01*
X169776136Y-70457133D01*
X169777688Y-70455790D01*
X169779572Y-70454929D01*
X169783589Y-70452348D01*
X169783960Y-70452925D01*
X169841243Y-70426763D01*
X169858895Y-70425500D01*
X175599167Y-70425500D01*
X175666206Y-70445185D01*
X175686848Y-70461819D01*
X192258181Y-87033152D01*
X192291666Y-87094475D01*
X192294500Y-87120833D01*
X192294500Y-94826576D01*
X192274815Y-94893615D01*
X192258181Y-94914257D01*
X192136897Y-95035541D01*
X192075574Y-95069026D01*
X192005882Y-95064042D01*
X191949949Y-95022170D01*
X191934094Y-94990497D01*
X191933849Y-94990610D01*
X191930711Y-94983740D01*
X191930240Y-94982798D01*
X191930165Y-94982544D01*
X191903886Y-94925000D01*
X191870377Y-94851627D01*
X191776128Y-94742857D01*
X191655053Y-94665047D01*
X191655051Y-94665046D01*
X191655049Y-94665045D01*
X191655050Y-94665045D01*
X191516963Y-94624500D01*
X191516961Y-94624500D01*
X191373039Y-94624500D01*
X191373036Y-94624500D01*
X191234949Y-94665045D01*
X191113873Y-94742856D01*
X191080212Y-94781703D01*
X191021433Y-94819477D01*
X190986499Y-94824500D01*
X190299500Y-94824500D01*
X190232461Y-94804815D01*
X190186706Y-94752011D01*
X190175500Y-94700500D01*
X190175500Y-94455249D01*
X190175499Y-94455247D01*
X190168171Y-94418403D01*
X190174398Y-94348812D01*
X190185946Y-94328695D01*
X190185401Y-94328380D01*
X190189841Y-94320703D01*
X190189844Y-94320700D01*
X190223909Y-94235825D01*
X190234852Y-94166818D01*
X190235698Y-94108334D01*
X190235695Y-94108314D01*
X190235564Y-94105995D01*
X190235742Y-94105226D01*
X190235762Y-94103907D01*
X190236048Y-94103911D01*
X190251399Y-94037943D01*
X190301512Y-93989255D01*
X190369992Y-93975389D01*
X190421364Y-93991547D01*
X190472859Y-94021278D01*
X190472860Y-94021278D01*
X190472865Y-94021281D01*
X190619234Y-94060500D01*
X190619236Y-94060500D01*
X190770764Y-94060500D01*
X190770766Y-94060500D01*
X190917135Y-94021281D01*
X191048365Y-93945515D01*
X191155515Y-93838365D01*
X191231281Y-93707135D01*
X191270500Y-93560766D01*
X191270500Y-93409234D01*
X191231281Y-93262865D01*
X191229142Y-93259161D01*
X191209447Y-93225048D01*
X191155515Y-93131635D01*
X191048365Y-93024485D01*
X190982750Y-92986602D01*
X190917136Y-92948719D01*
X190786586Y-92913739D01*
X190770766Y-92909500D01*
X190619234Y-92909500D01*
X190472863Y-92948719D01*
X190341635Y-93024485D01*
X190341632Y-93024487D01*
X190234487Y-93131632D01*
X190234485Y-93131635D01*
X190158719Y-93262863D01*
X190145297Y-93312957D01*
X190141519Y-93327059D01*
X190139363Y-93335104D01*
X190102998Y-93394765D01*
X190040151Y-93425294D01*
X190000851Y-93424710D01*
X190000813Y-93425097D01*
X189996188Y-93424641D01*
X189995404Y-93424630D01*
X189994750Y-93424500D01*
X189994748Y-93424500D01*
X189897333Y-93424500D01*
X189879686Y-93423238D01*
X189860643Y-93420500D01*
X189857166Y-93420000D01*
X189857165Y-93420000D01*
X188628809Y-93420000D01*
X188561770Y-93400315D01*
X188516015Y-93347511D01*
X188510477Y-93333062D01*
X188509633Y-93330368D01*
X188505071Y-93318403D01*
X188491905Y-93283865D01*
X188093283Y-92528581D01*
X187666638Y-91720202D01*
X187636288Y-91677157D01*
X187611142Y-91649762D01*
X187593669Y-91630726D01*
X187579991Y-91617160D01*
X187579988Y-91617157D01*
X187500171Y-91572510D01*
X187500169Y-91572509D01*
X187433137Y-91552826D01*
X187433133Y-91552825D01*
X187433132Y-91552825D01*
X187375234Y-91544500D01*
X183050501Y-91544500D01*
X183050322Y-91544500D01*
X183049750Y-91544501D01*
X183049749Y-91544500D01*
X183049074Y-91544502D01*
X183049075Y-91544503D01*
X183048896Y-91544503D01*
X183048885Y-91544504D01*
X183048813Y-91544504D01*
X183047780Y-91544510D01*
X180766324Y-91562879D01*
X180699129Y-91543735D01*
X180652950Y-91491301D01*
X180642450Y-91422225D01*
X180667476Y-91365843D01*
X180666718Y-91365368D01*
X180670038Y-91360071D01*
X180670545Y-91358930D01*
X180671355Y-91357967D01*
X180671361Y-91357963D01*
X180719938Y-91280475D01*
X180742946Y-91214502D01*
X180754152Y-91157093D01*
X180756689Y-91106329D01*
X180763493Y-91071563D01*
X180767646Y-91059699D01*
X180770500Y-91029266D01*
X180770500Y-90833224D01*
X180770655Y-90827032D01*
X180771084Y-90818444D01*
X180793734Y-90365454D01*
X180793734Y-90365447D01*
X180793734Y-90365443D01*
X180790322Y-90316540D01*
X180785450Y-90291102D01*
X180779271Y-90258835D01*
X180775755Y-90243627D01*
X180732745Y-90162915D01*
X180686990Y-90110111D01*
X180686984Y-90110104D01*
X180669402Y-90092160D01*
X180669401Y-90092159D01*
X180669399Y-90092157D01*
X180669397Y-90092156D01*
X180669395Y-90092154D01*
X180589585Y-90047511D01*
X180589580Y-90047509D01*
X180522548Y-90027826D01*
X180522544Y-90027825D01*
X180522543Y-90027825D01*
X180464645Y-90019500D01*
X179069000Y-90019500D01*
X179068992Y-90019500D01*
X179025313Y-90024197D01*
X178973825Y-90035397D01*
X178963627Y-90037890D01*
X178963624Y-90037891D01*
X178882916Y-90080899D01*
X178882913Y-90080901D01*
X178830104Y-90126660D01*
X178812160Y-90144242D01*
X178812156Y-90144247D01*
X178790472Y-90183012D01*
X178740564Y-90231909D01*
X178672142Y-90246062D01*
X178621719Y-90230695D01*
X178592970Y-90214614D01*
X178565821Y-90194073D01*
X178548224Y-90176475D01*
X178548218Y-90176471D01*
X178515272Y-90159684D01*
X178464477Y-90111710D01*
X178447682Y-90043889D01*
X178470220Y-89977754D01*
X178504724Y-89944759D01*
X178598619Y-89884667D01*
X178617768Y-89869278D01*
X178633010Y-89857032D01*
X178633013Y-89857028D01*
X178633019Y-89857024D01*
X178670491Y-89819621D01*
X178677843Y-89811892D01*
X178722490Y-89732075D01*
X178742175Y-89665036D01*
X178750500Y-89607138D01*
X178750500Y-88849000D01*
X178745803Y-88805316D01*
X178741897Y-88787364D01*
X178734602Y-88753825D01*
X178734348Y-88752789D01*
X178732110Y-88743627D01*
X178689100Y-88662915D01*
X178643345Y-88610111D01*
X178643339Y-88610104D01*
X178625757Y-88592160D01*
X178625756Y-88592159D01*
X178625754Y-88592157D01*
X178625752Y-88592156D01*
X178625750Y-88592154D01*
X178545940Y-88547511D01*
X178545935Y-88547509D01*
X178478903Y-88527826D01*
X178478899Y-88527825D01*
X178478898Y-88527825D01*
X178421000Y-88519500D01*
X177604598Y-88519500D01*
X177604591Y-88519500D01*
X177571358Y-88522205D01*
X177531790Y-88528690D01*
X177531775Y-88528694D01*
X177447229Y-88563096D01*
X177447218Y-88563102D01*
X177389971Y-88603151D01*
X177389970Y-88603152D01*
X177359318Y-88631895D01*
X177296951Y-88663392D01*
X177227455Y-88656170D01*
X177172896Y-88612523D01*
X177150596Y-88546308D01*
X177150500Y-88541441D01*
X177150500Y-87846389D01*
X177147510Y-87811460D01*
X177140345Y-87769919D01*
X177131460Y-87736004D01*
X177130229Y-87732543D01*
X175761780Y-83883779D01*
X175754474Y-83863232D01*
X175567942Y-83338609D01*
X175564768Y-83330261D01*
X175560729Y-83320296D01*
X175525584Y-83262915D01*
X175486194Y-83217457D01*
X175479823Y-83210104D01*
X175462241Y-83192160D01*
X175462240Y-83192159D01*
X175462238Y-83192157D01*
X175462236Y-83192156D01*
X175462234Y-83192154D01*
X175382424Y-83147511D01*
X175382419Y-83147509D01*
X175315387Y-83127826D01*
X175315383Y-83127825D01*
X175315382Y-83127825D01*
X175257484Y-83119500D01*
X175257480Y-83119500D01*
X174033557Y-83119500D01*
X173966518Y-83099815D01*
X173920763Y-83047011D01*
X173910819Y-82977853D01*
X173939844Y-82914297D01*
X173975243Y-82886068D01*
X174007085Y-82869100D01*
X174059889Y-82823345D01*
X174077843Y-82805754D01*
X174122490Y-82725937D01*
X174142175Y-82658898D01*
X174150500Y-82601000D01*
X174150500Y-80022527D01*
X174170185Y-79955488D01*
X174191914Y-79930031D01*
X174208725Y-79915021D01*
X175440452Y-78815266D01*
X175459890Y-78795390D01*
X175481619Y-78769933D01*
X175522490Y-78694417D01*
X175542175Y-78627378D01*
X175550500Y-78569480D01*
X175550500Y-76734765D01*
X175550500Y-76734757D01*
X175549364Y-76719989D01*
X175548087Y-76703368D01*
X175548085Y-76703354D01*
X175542299Y-76665924D01*
X175542298Y-76665921D01*
X175509701Y-76582590D01*
X175509700Y-76582588D01*
X175509699Y-76582585D01*
X175470689Y-76524619D01*
X175455403Y-76504660D01*
X175381592Y-76450659D01*
X175381591Y-76450658D01*
X175381589Y-76450657D01*
X175317443Y-76422989D01*
X175317442Y-76422988D01*
X175317438Y-76422987D01*
X175260981Y-76407700D01*
X175260978Y-76407699D01*
X175260976Y-76407699D01*
X175260972Y-76407698D01*
X171253458Y-75917839D01*
X171189302Y-75890166D01*
X171156841Y-75848677D01*
X170993732Y-75510911D01*
X166113289Y-65404463D01*
X166083185Y-65358840D01*
X166040240Y-65309544D01*
X166040235Y-65309538D01*
X166025456Y-65294249D01*
X166008243Y-65284252D01*
X165946369Y-65248317D01*
X165879658Y-65227551D01*
X165879655Y-65227550D01*
X165821908Y-65218291D01*
X141146981Y-64819470D01*
X116472061Y-64420649D01*
X116472059Y-64420649D01*
X116472054Y-64420649D01*
X116430807Y-64424153D01*
X116381940Y-64433332D01*
X116381928Y-64433335D01*
X116342231Y-64445034D01*
X116342215Y-64445040D01*
X95245859Y-73055753D01*
X95245857Y-73055754D01*
X94394509Y-73403240D01*
X94390620Y-73404875D01*
X94385945Y-73406896D01*
X94385941Y-73406898D01*
X94332916Y-73440217D01*
X94280104Y-73485979D01*
X94262160Y-73503561D01*
X94262154Y-73503568D01*
X94217511Y-73583378D01*
X94217509Y-73583383D01*
X94197826Y-73650415D01*
X94189500Y-73708322D01*
X89945500Y-73708322D01*
X89945500Y-69793995D01*
X90984499Y-69793995D01*
X91011418Y-69929322D01*
X91011421Y-69929332D01*
X91064221Y-70056804D01*
X91064228Y-70056817D01*
X91140885Y-70171541D01*
X91140888Y-70171545D01*
X91238454Y-70269111D01*
X91238458Y-70269114D01*
X91353182Y-70345771D01*
X91353195Y-70345778D01*
X91480667Y-70398578D01*
X91480672Y-70398580D01*
X91480676Y-70398580D01*
X91480677Y-70398581D01*
X91616004Y-70425500D01*
X91616007Y-70425500D01*
X91753995Y-70425500D01*
X91851809Y-70406043D01*
X91889328Y-70398580D01*
X92016811Y-70345775D01*
X92131542Y-70269114D01*
X92229114Y-70171542D01*
X92305775Y-70056811D01*
X92358580Y-69929328D01*
X92377389Y-69834769D01*
X92385500Y-69793995D01*
X92385500Y-69656004D01*
X92358581Y-69520677D01*
X92358580Y-69520676D01*
X92358580Y-69520672D01*
X92354280Y-69510291D01*
X92305778Y-69393195D01*
X92305771Y-69393182D01*
X92229114Y-69278458D01*
X92229111Y-69278454D01*
X92131545Y-69180888D01*
X92131541Y-69180885D01*
X92016817Y-69104228D01*
X92016804Y-69104221D01*
X91889332Y-69051421D01*
X91889322Y-69051418D01*
X91753995Y-69024500D01*
X91753993Y-69024500D01*
X91616007Y-69024500D01*
X91616005Y-69024500D01*
X91480677Y-69051418D01*
X91480667Y-69051421D01*
X91353195Y-69104221D01*
X91353182Y-69104228D01*
X91238458Y-69180885D01*
X91238454Y-69180888D01*
X91140888Y-69278454D01*
X91140885Y-69278458D01*
X91064228Y-69393182D01*
X91064221Y-69393195D01*
X91011421Y-69520667D01*
X91011418Y-69520677D01*
X90984500Y-69656004D01*
X90984500Y-69656007D01*
X90984500Y-69793993D01*
X90984500Y-69793995D01*
X90984499Y-69793995D01*
X89945500Y-69793995D01*
X89945500Y-66793995D01*
X90984499Y-66793995D01*
X91011418Y-66929322D01*
X91011421Y-66929332D01*
X91064221Y-67056804D01*
X91064228Y-67056817D01*
X91140885Y-67171541D01*
X91140888Y-67171545D01*
X91238454Y-67269111D01*
X91238458Y-67269114D01*
X91353182Y-67345771D01*
X91353195Y-67345778D01*
X91480667Y-67398578D01*
X91480672Y-67398580D01*
X91480676Y-67398580D01*
X91480677Y-67398581D01*
X91616004Y-67425500D01*
X91616007Y-67425500D01*
X91753995Y-67425500D01*
X91845041Y-67407389D01*
X91889328Y-67398580D01*
X92016811Y-67345775D01*
X92131542Y-67269114D01*
X92229114Y-67171542D01*
X92305775Y-67056811D01*
X92358580Y-66929328D01*
X92385500Y-66793993D01*
X92385500Y-66656007D01*
X92385500Y-66656004D01*
X92358581Y-66520677D01*
X92358580Y-66520676D01*
X92358580Y-66520672D01*
X92358578Y-66520667D01*
X92305778Y-66393195D01*
X92305771Y-66393182D01*
X92229114Y-66278458D01*
X92229111Y-66278454D01*
X92131545Y-66180888D01*
X92131541Y-66180885D01*
X92016817Y-66104228D01*
X92016804Y-66104221D01*
X91889332Y-66051421D01*
X91889322Y-66051418D01*
X91753995Y-66024500D01*
X91753993Y-66024500D01*
X91616007Y-66024500D01*
X91616005Y-66024500D01*
X91480677Y-66051418D01*
X91480667Y-66051421D01*
X91353195Y-66104221D01*
X91353182Y-66104228D01*
X91238458Y-66180885D01*
X91238454Y-66180888D01*
X91140888Y-66278454D01*
X91140885Y-66278458D01*
X91064228Y-66393182D01*
X91064221Y-66393195D01*
X91011421Y-66520667D01*
X91011418Y-66520677D01*
X90984500Y-66656004D01*
X90984500Y-66656007D01*
X90984500Y-66793993D01*
X90984500Y-66793995D01*
X90984499Y-66793995D01*
X89945500Y-66793995D01*
X89945500Y-61963713D01*
X108199500Y-61963713D01*
X108199500Y-62176286D01*
X108232753Y-62386239D01*
X108298444Y-62588414D01*
X108394951Y-62777820D01*
X108519890Y-62949786D01*
X108670213Y-63100109D01*
X108842179Y-63225048D01*
X108842181Y-63225049D01*
X108842184Y-63225051D01*
X109031588Y-63321557D01*
X109233757Y-63387246D01*
X109443713Y-63420500D01*
X109443714Y-63420500D01*
X109656286Y-63420500D01*
X109656287Y-63420500D01*
X109866243Y-63387246D01*
X110068412Y-63321557D01*
X110257816Y-63225051D01*
X110279789Y-63209086D01*
X110429786Y-63100109D01*
X110429788Y-63100106D01*
X110429792Y-63100104D01*
X110580104Y-62949792D01*
X110580106Y-62949788D01*
X110580109Y-62949786D01*
X110705048Y-62777820D01*
X110705047Y-62777820D01*
X110705051Y-62777816D01*
X110801557Y-62588412D01*
X110867246Y-62386243D01*
X110900500Y-62176287D01*
X110900500Y-61963713D01*
X159199500Y-61963713D01*
X159199500Y-62176286D01*
X159232753Y-62386239D01*
X159298444Y-62588414D01*
X159394951Y-62777820D01*
X159519890Y-62949786D01*
X159670213Y-63100109D01*
X159842179Y-63225048D01*
X159842181Y-63225049D01*
X159842184Y-63225051D01*
X160031588Y-63321557D01*
X160233757Y-63387246D01*
X160443713Y-63420500D01*
X160443714Y-63420500D01*
X160656286Y-63420500D01*
X160656287Y-63420500D01*
X160866243Y-63387246D01*
X161068412Y-63321557D01*
X161257816Y-63225051D01*
X161279789Y-63209086D01*
X161429786Y-63100109D01*
X161429788Y-63100106D01*
X161429792Y-63100104D01*
X161580104Y-62949792D01*
X161580106Y-62949788D01*
X161580109Y-62949786D01*
X161705048Y-62777820D01*
X161705047Y-62777820D01*
X161705051Y-62777816D01*
X161801557Y-62588412D01*
X161867246Y-62386243D01*
X161900500Y-62176287D01*
X161900500Y-61963713D01*
X161867246Y-61753757D01*
X161801557Y-61551588D01*
X161705051Y-61362184D01*
X161705049Y-61362181D01*
X161705048Y-61362179D01*
X161580109Y-61190213D01*
X161429786Y-61039890D01*
X161257820Y-60914951D01*
X161068414Y-60818444D01*
X161068413Y-60818443D01*
X161068412Y-60818443D01*
X160866243Y-60752754D01*
X160866241Y-60752753D01*
X160866240Y-60752753D01*
X160704957Y-60727208D01*
X160656287Y-60719500D01*
X160443713Y-60719500D01*
X160395042Y-60727208D01*
X160233760Y-60752753D01*
X160031585Y-60818444D01*
X159842179Y-60914951D01*
X159670213Y-61039890D01*
X159519890Y-61190213D01*
X159394951Y-61362179D01*
X159298444Y-61551585D01*
X159232753Y-61753760D01*
X159199500Y-61963713D01*
X110900500Y-61963713D01*
X110867246Y-61753757D01*
X110801557Y-61551588D01*
X110705051Y-61362184D01*
X110705049Y-61362181D01*
X110705048Y-61362179D01*
X110580109Y-61190213D01*
X110429786Y-61039890D01*
X110257820Y-60914951D01*
X110068414Y-60818444D01*
X110068413Y-60818443D01*
X110068412Y-60818443D01*
X109866243Y-60752754D01*
X109866241Y-60752753D01*
X109866240Y-60752753D01*
X109704957Y-60727208D01*
X109656287Y-60719500D01*
X109443713Y-60719500D01*
X109395042Y-60727208D01*
X109233760Y-60752753D01*
X109031585Y-60818444D01*
X108842179Y-60914951D01*
X108670213Y-61039890D01*
X108519890Y-61190213D01*
X108394951Y-61362179D01*
X108298444Y-61551585D01*
X108232753Y-61753760D01*
X108199500Y-61963713D01*
X89945500Y-61963713D01*
X89945500Y-56649500D01*
X89965185Y-56582461D01*
X90017989Y-56536706D01*
X90069500Y-56525500D01*
X197120500Y-56525500D01*
X197187539Y-56545185D01*
G37*
%TD.AperFunction*%
%TD*%
%TA.AperFunction,Conductor*%
%TO.N,GND*%
G36*
X177295000Y-92725000D02*
G01*
X177295000Y-93575000D01*
X176345000Y-93575000D01*
X175145000Y-92175000D01*
X175395000Y-91625000D01*
X177295000Y-92725000D01*
G37*
%TD.AperFunction*%
%TD*%
%TA.AperFunction,Conductor*%
%TO.N,GND*%
G36*
X131200000Y-69825000D02*
G01*
X135105000Y-71985000D01*
X135430000Y-75825000D01*
X133730000Y-75610000D01*
X133315000Y-73085000D01*
X130850000Y-72115000D01*
X130600000Y-69750000D01*
X131200000Y-69825000D01*
G37*
%TD.AperFunction*%
%TD*%
%TA.AperFunction,Conductor*%
%TO.N,Net-(U5-PSEL)*%
G36*
X187442273Y-91769685D02*
G01*
X187484897Y-91816121D01*
X187911542Y-92624500D01*
X188310164Y-93379784D01*
X188324500Y-93437662D01*
X188324500Y-93444752D01*
X188336131Y-93503229D01*
X188336132Y-93503230D01*
X188380447Y-93569552D01*
X188446769Y-93613867D01*
X188446770Y-93613868D01*
X188505247Y-93625499D01*
X188505250Y-93625500D01*
X189857166Y-93625500D01*
X189924205Y-93645185D01*
X189969960Y-93697989D01*
X189980146Y-93733632D01*
X190031888Y-94134632D01*
X190020945Y-94203639D01*
X189974430Y-94255775D01*
X189908908Y-94274500D01*
X188505247Y-94274500D01*
X188446770Y-94286131D01*
X188446769Y-94286132D01*
X188380447Y-94330447D01*
X188336132Y-94396769D01*
X188336131Y-94396770D01*
X188324500Y-94455247D01*
X188324500Y-94794747D01*
X188335651Y-94850810D01*
X188335651Y-94899190D01*
X188324500Y-94955252D01*
X188324500Y-95294747D01*
X188335651Y-95350810D01*
X188335651Y-95399190D01*
X188324500Y-95455252D01*
X188324500Y-95747123D01*
X188304815Y-95814162D01*
X188262502Y-95854509D01*
X188210492Y-95884538D01*
X188210486Y-95884542D01*
X187804541Y-96290487D01*
X187804535Y-96290495D01*
X187764982Y-96359004D01*
X187764979Y-96359009D01*
X187758138Y-96384540D01*
X187744500Y-96435438D01*
X187744500Y-96934562D01*
X187758152Y-96985513D01*
X187764979Y-97010990D01*
X187778588Y-97034560D01*
X187778590Y-97034563D01*
X187804537Y-97079507D01*
X187804539Y-97079510D01*
X187804540Y-97079511D01*
X188034540Y-97309511D01*
X188090489Y-97365460D01*
X188090491Y-97365461D01*
X188090495Y-97365464D01*
X188159004Y-97405017D01*
X188159011Y-97405021D01*
X188232596Y-97424738D01*
X188292254Y-97461102D01*
X188322783Y-97523949D01*
X188324500Y-97544512D01*
X188324500Y-97794747D01*
X188335651Y-97850810D01*
X188335651Y-97899190D01*
X188324500Y-97955252D01*
X188324500Y-98294752D01*
X188336131Y-98353229D01*
X188336132Y-98353230D01*
X188380447Y-98419552D01*
X188446769Y-98463867D01*
X188446770Y-98463868D01*
X188505247Y-98475499D01*
X188505250Y-98475500D01*
X189171000Y-98475500D01*
X189238039Y-98495185D01*
X189283794Y-98547989D01*
X189295000Y-98599500D01*
X189295000Y-98951000D01*
X189275315Y-99018039D01*
X189222511Y-99063794D01*
X189171000Y-99075000D01*
X187180660Y-99075000D01*
X187113621Y-99055315D01*
X187067866Y-99002511D01*
X187064699Y-98994920D01*
X184995000Y-93525000D01*
X180570363Y-93573622D01*
X180503111Y-93554675D01*
X180456778Y-93502377D01*
X180445000Y-93449629D01*
X180445000Y-92625000D01*
X180225916Y-92625000D01*
X180215738Y-92624500D01*
X180214748Y-92624500D01*
X180069000Y-92624500D01*
X180001961Y-92604815D01*
X179956206Y-92552011D01*
X179945000Y-92500500D01*
X179945000Y-91898005D01*
X179964685Y-91830966D01*
X180017489Y-91785211D01*
X180067998Y-91774009D01*
X183049503Y-91750003D01*
X183050501Y-91750000D01*
X187375234Y-91750000D01*
X187442273Y-91769685D01*
G37*
%TD.AperFunction*%
%TD*%
%TA.AperFunction,Conductor*%
%TO.N,+BATT*%
G36*
X177237539Y-94800185D02*
G01*
X177283294Y-94852989D01*
X177294500Y-94904500D01*
X177294500Y-95233906D01*
X177293238Y-95251552D01*
X177289867Y-95274999D01*
X177293238Y-95298445D01*
X177294500Y-95316092D01*
X177294500Y-95545747D01*
X177295000Y-95555915D01*
X177295000Y-95571971D01*
X177294853Y-95578013D01*
X177291340Y-95650019D01*
X177286245Y-95672728D01*
X177287142Y-95672907D01*
X177269500Y-95761596D01*
X177269500Y-96094711D01*
X177269353Y-96100753D01*
X177234401Y-96817261D01*
X177211473Y-96883261D01*
X177204263Y-96892419D01*
X177174624Y-96926625D01*
X177174621Y-96926629D01*
X177114834Y-97057543D01*
X177094353Y-97200000D01*
X177114834Y-97342456D01*
X177174623Y-97473373D01*
X177178965Y-97480130D01*
X177198648Y-97547170D01*
X177198501Y-97553207D01*
X177194999Y-97625000D01*
X177299150Y-97625000D01*
X177366189Y-97644685D01*
X177375238Y-97650500D01*
X177389949Y-97659954D01*
X177528036Y-97700499D01*
X177528038Y-97700500D01*
X177528039Y-97700500D01*
X177671962Y-97700500D01*
X177671962Y-97700499D01*
X177810050Y-97659954D01*
X177810051Y-97659954D01*
X177824762Y-97650500D01*
X177833810Y-97644684D01*
X177900849Y-97625000D01*
X177944999Y-97625000D01*
X177945000Y-97625000D01*
X177952089Y-97584825D01*
X177980485Y-97525180D01*
X178025377Y-97473373D01*
X178085165Y-97342457D01*
X178105647Y-97200000D01*
X178085165Y-97057543D01*
X178072315Y-97029407D01*
X178062372Y-96960250D01*
X178062997Y-96956348D01*
X178081526Y-96851350D01*
X178112560Y-96788755D01*
X178172512Y-96752872D01*
X178179449Y-96751284D01*
X178183395Y-96750499D01*
X178183400Y-96750499D01*
X178260117Y-96735240D01*
X178347112Y-96677112D01*
X178405240Y-96590117D01*
X178405240Y-96590113D01*
X178409915Y-96578831D01*
X178412356Y-96579842D01*
X178436547Y-96533584D01*
X178443804Y-96527323D01*
X178445000Y-96525000D01*
X178445000Y-95849500D01*
X178464685Y-95782461D01*
X178517489Y-95736706D01*
X178569000Y-95725500D01*
X178621000Y-95725500D01*
X178688039Y-95745185D01*
X178733794Y-95797989D01*
X178745000Y-95849500D01*
X178745000Y-96575000D01*
X178901828Y-97057547D01*
X179389841Y-98559127D01*
X179395778Y-98591670D01*
X179995000Y-111425000D01*
X181594997Y-112074999D01*
X181594998Y-112074999D01*
X181595000Y-112075000D01*
X181847376Y-112106547D01*
X181871587Y-112113758D01*
X181871905Y-112112730D01*
X181881105Y-112115572D01*
X181881107Y-112115573D01*
X181915173Y-112120536D01*
X181949239Y-112125500D01*
X181991284Y-112125500D01*
X182006664Y-112126458D01*
X183086381Y-112261422D01*
X183150460Y-112289269D01*
X183189313Y-112347341D01*
X183195000Y-112384464D01*
X183195000Y-112801000D01*
X183175315Y-112868039D01*
X183122511Y-112913794D01*
X183071000Y-112925000D01*
X181846079Y-112925000D01*
X181843875Y-112924980D01*
X170716796Y-112727165D01*
X170650117Y-112706292D01*
X170605308Y-112652683D01*
X170595000Y-112603185D01*
X170595000Y-102566546D01*
X170614685Y-102499507D01*
X170620030Y-102491840D01*
X173564030Y-98591670D01*
X176403639Y-94829793D01*
X176459740Y-94788146D01*
X176502609Y-94780500D01*
X177170500Y-94780500D01*
X177237539Y-94800185D01*
G37*
%TD.AperFunction*%
%TD*%
%TA.AperFunction,Conductor*%
%TO.N,Net-(U5-BTST)*%
G36*
X178504494Y-90394685D02*
G01*
X178550249Y-90447489D01*
X178560209Y-90481464D01*
X178743754Y-91766278D01*
X178745000Y-91783814D01*
X178745000Y-92500500D01*
X178725315Y-92567539D01*
X178672511Y-92613294D01*
X178621000Y-92624500D01*
X178569000Y-92624500D01*
X178501961Y-92604815D01*
X178456206Y-92552011D01*
X178445000Y-92500500D01*
X178445000Y-91775000D01*
X178444999Y-91774999D01*
X178418154Y-91758594D01*
X178379712Y-91721678D01*
X178347112Y-91672888D01*
X178260117Y-91614760D01*
X178260115Y-91614759D01*
X178260112Y-91614758D01*
X178183407Y-91599500D01*
X178181168Y-91599280D01*
X178179517Y-91598726D01*
X178177427Y-91598311D01*
X178177480Y-91598044D01*
X178128665Y-91581684D01*
X177604340Y-91261263D01*
X177557401Y-91209509D01*
X177545000Y-91155456D01*
X177545000Y-90499000D01*
X177564685Y-90431961D01*
X177617489Y-90386206D01*
X177669000Y-90375000D01*
X178437455Y-90375000D01*
X178504494Y-90394685D01*
G37*
%TD.AperFunction*%
%TD*%
M02*
