M48
; DRILL file {KiCad 8.0.8-8.0.8-0~ubuntu24.04.1} date 2025-01-24T01:05:33+0100
; FORMAT={-:-/ absolute / inch / decimal}
; #@! TF.CreationDate,2025-01-24T01:05:33+01:00
; #@! TF.GenerationSoftware,Kicad,Pcbnew,8.0.8-8.0.8-0~ubuntu24.04.1
; #@! TF.FileFunction,Plated,1,2,PTH
FMAT,2
INCH
; #@! TA.AperFunction,Plated,PTH,ComponentDrill
T1C0.0079
; #@! TA.AperFunction,Plated,PTH,ViaDrill
T2C0.0118
; #@! TA.AperFunction,Plated,PTH,ComponentDrill
T3C0.0236
; #@! TA.AperFunction,Plated,PTH,ComponentDrill
T4C0.0390
; #@! TA.AperFunction,Plated,PTH,ComponentDrill
T5C0.0394
; #@! TA.AperFunction,Plated,PTH,ComponentDrill
T6C0.0512
%
G90
G05
T1
X4.3563Y-4.7185
X4.3563Y-4.7618
X4.3563Y-4.8051
X4.3996Y-4.7185
X4.3996Y-4.7618
X4.3996Y-4.8051
X4.4429Y-4.7185
X4.4429Y-4.7618
X4.4429Y-4.8051
T2
X3.935Y-5.3268
X3.9606Y-5.3268
X3.9862Y-5.3268
X4.0118Y-5.3268
X4.0374Y-5.3268
X4.0512Y-4.0172
X4.063Y-5.3268
X4.0866Y-3.8031
X4.0866Y-4.2539
X4.0886Y-5.3268
X4.1142Y-5.3268
X4.1181Y-3.8031
X4.1181Y-4.2539
X4.1398Y-5.3268
X4.1516Y-3.5787
X4.1516Y-3.6063
X4.1594Y-4.0381
X4.1654Y-4.2165
X4.1654Y-4.248
X4.1772Y-3.5787
X4.1772Y-3.6063
X4.1811Y-3.8858
X4.1811Y-3.9154
X4.2008Y-4.811
X4.2323Y-4.8996
X4.2323Y-4.9252
X4.2323Y-4.9508
X4.2638Y-3.0453
X4.2677Y-4.7126
X4.2697Y-4.811
X4.2756Y-4.7461
X4.3425Y-3.9941
X4.3425Y-4.0217
X4.3425Y-4.0512
X4.3583Y-4.5079
X4.3661Y-4.5866
X4.3661Y-4.626
X4.374Y-3.7402
X4.376Y-3.7992
X4.4823Y-4.4469
X4.498Y-3.8819
X4.5Y-3.9331
X4.502Y-3.6811
X4.5758Y-3.6201
X4.6319Y-4.6122
X4.6319Y-4.6378
X4.6594Y-4.689
X4.6594Y-4.7146
X4.6594Y-4.7402
X4.6614Y-5.0886
X4.7205Y-5.0886
X4.7795Y-5.0886
X4.8327Y-4.9803
X5.0669Y-5.065
X5.0945Y-3.1693
X5.0965Y-3.0433
X5.1535Y-3.1693
X5.158Y-5.0443
X5.2717Y-4.0217
X5.2776Y-3.6201
X5.2815Y-4.6949
X5.3031Y-3.6417
X5.3031Y-4.0197
X5.3091Y-4.6949
X5.3268Y-3.6181
X5.3307Y-4.7736
X5.3366Y-4.0197
X5.3681Y-2.9035
X5.372Y-3.8661
X5.374Y-3.7205
X5.3799Y-4.4075
X5.3799Y-4.5906
X5.3937Y-2.9035
X5.3976Y-4.3307
X5.4134Y-4.378
X5.4528Y-4.6043
X5.5059Y-4.4587
X5.5295Y-4.4626
X5.5482Y-4.7894
X5.5512Y-4.2441
X5.5512Y-4.2776
X5.5719Y-4.7894
X5.6083Y-2.9016
X5.6161Y-3.4665
X5.6161Y-3.5787
X5.6161Y-3.6476
X5.6339Y-2.9016
X5.6437Y-3.8917
X5.6654Y-3.9823
X5.6791Y-4.0354
X5.685Y-4.0689
X5.7067Y-4.0945
X5.7185Y-4.4035
X5.7795Y-4.2145
X5.8031Y-3.8996
X5.8051Y-3.9764
X5.8189Y-3.6398
X5.8189Y-3.6654
X5.8317Y-4.1998
X5.8484Y-5.2598
X5.8484Y-5.2874
X5.8543Y-4.2835
X5.8661Y-3.9862
X5.8799Y-4.1752
X5.8883Y-3.4685
X5.8883Y-3.5748
X5.8898Y-4.2146
X5.9075Y-3.9882
X5.9154Y-4.0531
X5.9449Y-4.3228
X5.9764Y-4.0591
X6.0059Y-3.7146
X6.0059Y-4.0591
X6.0282Y-3.689
X6.0315Y-3.8957
X6.0329Y-3.8675
X6.1063Y-4.2362
X6.1063Y-4.2618
X6.1496Y-3.9409
X6.1673Y-3.9685
X6.1732Y-3.878
X6.187Y-3.9941
X6.2106Y-3.7736
X6.2283Y-4.0768
X6.2362Y-3.7736
X6.252Y-3.1496
X6.2776Y-3.1496
X6.2776Y-5.2598
X6.2776Y-5.2874
X6.2795Y-4.0118
X6.3465Y-4.0039
X6.378Y-3.9912
X6.4213Y-5.2579
X6.4213Y-5.2854
X6.8465Y-5.2579
X6.8465Y-5.2835
X6.8701Y-3.5591
X6.8701Y-3.5866
X6.8701Y-3.6142
X6.8701Y-3.6417
X6.8701Y-3.9232
X6.8701Y-4.002
X6.8701Y-4.1024
T4
X3.902Y-4.6334
X3.902Y-4.8105
T5
X4.1978Y-3.1921
X4.1978Y-3.2921
X4.1978Y-3.3921
X4.1978Y-3.4921
X6.9577Y-3.6004
X6.9577Y-3.7004
X6.9577Y-3.8004
X6.9577Y-3.9004
X6.9577Y-4.0004
X6.9577Y-4.1004
X6.9577Y-4.2004
X6.9577Y-4.3004
T6
X4.0Y-4.5838
X4.0Y-4.8597
T3
G00X3.9134Y-3.859
M15
G01X3.8898Y-3.859
M16
G05
G00X3.9134Y-4.1991
M15
G01X3.8898Y-4.1991
M16
G05
G00X4.0878Y-3.859
M15
G01X4.0445Y-3.859
M16
G05
G00X4.0878Y-4.1991
M15
G01X4.0445Y-4.1991
M16
G05
M30
