%TF.GenerationSoftware,KiCad,Pcbnew,8.0.8-8.0.8-0~ubuntu24.04.1*%
%TF.CreationDate,2025-01-24T01:05:33+01:00*%
%TF.ProjectId,leany,6c65616e-792e-46b6-9963-61645f706362,rev?*%
%TF.SameCoordinates,Original*%
%TF.FileFunction,Soldermask,Top*%
%TF.FilePolarity,Negative*%
%FSLAX46Y46*%
G04 Gerber Fmt 4.6, Leading zero omitted, Abs format (unit mm)*
G04 Created by KiCad (PCBNEW 8.0.8-8.0.8-0~ubuntu24.04.1) date 2025-01-24 01:05:33*
%MOMM*%
%LPD*%
G01*
G04 APERTURE LIST*
G04 Aperture macros list*
%AMRoundRect*
0 Rectangle with rounded corners*
0 $1 Rounding radius*
0 $2 $3 $4 $5 $6 $7 $8 $9 X,Y pos of 4 corners*
0 Add a 4 corners polygon primitive as box body*
4,1,4,$2,$3,$4,$5,$6,$7,$8,$9,$2,$3,0*
0 Add four circle primitives for the rounded corners*
1,1,$1+$1,$2,$3*
1,1,$1+$1,$4,$5*
1,1,$1+$1,$6,$7*
1,1,$1+$1,$8,$9*
0 Add four rect primitives between the rounded corners*
20,1,$1+$1,$2,$3,$4,$5,0*
20,1,$1+$1,$4,$5,$6,$7,0*
20,1,$1+$1,$6,$7,$8,$9,0*
20,1,$1+$1,$8,$9,$2,$3,0*%
G04 Aperture macros list end*
%ADD10R,1.000000X1.000000*%
%ADD11RoundRect,0.250000X-0.250000X-0.475000X0.250000X-0.475000X0.250000X0.475000X-0.250000X0.475000X0*%
%ADD12RoundRect,0.200000X-0.200000X-0.275000X0.200000X-0.275000X0.200000X0.275000X-0.200000X0.275000X0*%
%ADD13RoundRect,0.225000X-0.225000X-0.250000X0.225000X-0.250000X0.225000X0.250000X-0.225000X0.250000X0*%
%ADD14C,2.100000*%
%ADD15C,1.750000*%
%ADD16RoundRect,0.200000X0.275000X-0.200000X0.275000X0.200000X-0.275000X0.200000X-0.275000X-0.200000X0*%
%ADD17RoundRect,0.087500X-0.225000X-0.087500X0.225000X-0.087500X0.225000X0.087500X-0.225000X0.087500X0*%
%ADD18RoundRect,0.087500X-0.087500X-0.225000X0.087500X-0.225000X0.087500X0.225000X-0.087500X0.225000X0*%
%ADD19RoundRect,0.150000X-0.587500X-0.150000X0.587500X-0.150000X0.587500X0.150000X-0.587500X0.150000X0*%
%ADD20R,2.500000X1.397000*%
%ADD21R,1.000000X0.750000*%
%ADD22RoundRect,0.250000X-0.850000X0.375000X-0.850000X-0.375000X0.850000X-0.375000X0.850000X0.375000X0*%
%ADD23RoundRect,0.200000X-0.275000X0.200000X-0.275000X-0.200000X0.275000X-0.200000X0.275000X0.200000X0*%
%ADD24RoundRect,0.200000X0.200000X0.275000X-0.200000X0.275000X-0.200000X-0.275000X0.200000X-0.275000X0*%
%ADD25R,2.400000X1.900000*%
%ADD26RoundRect,0.225000X-0.250000X0.225000X-0.250000X-0.225000X0.250000X-0.225000X0.250000X0.225000X0*%
%ADD27RoundRect,0.150000X-0.512500X-0.150000X0.512500X-0.150000X0.512500X0.150000X-0.512500X0.150000X0*%
%ADD28R,1.550000X1.300000*%
%ADD29RoundRect,0.250000X0.475000X-0.250000X0.475000X0.250000X-0.475000X0.250000X-0.475000X-0.250000X0*%
%ADD30R,1.700000X1.700000*%
%ADD31O,1.700000X1.700000*%
%ADD32RoundRect,0.250000X-0.475000X0.250000X-0.475000X-0.250000X0.475000X-0.250000X0.475000X0.250000X0*%
%ADD33RoundRect,0.062500X-0.062500X0.350000X-0.062500X-0.350000X0.062500X-0.350000X0.062500X0.350000X0*%
%ADD34RoundRect,0.062500X-0.350000X0.062500X-0.350000X-0.062500X0.350000X-0.062500X0.350000X0.062500X0*%
%ADD35R,2.700000X2.700000*%
%ADD36RoundRect,0.225000X0.225000X0.250000X-0.225000X0.250000X-0.225000X-0.250000X0.225000X-0.250000X0*%
%ADD37R,0.700000X0.800000*%
%ADD38C,2.400000*%
%ADD39C,0.650000*%
%ADD40R,1.450000X0.600000*%
%ADD41R,1.450000X0.300000*%
%ADD42O,2.100000X1.000000*%
%ADD43O,1.600000X1.000000*%
%ADD44RoundRect,0.075000X-0.662500X-0.075000X0.662500X-0.075000X0.662500X0.075000X-0.662500X0.075000X0*%
%ADD45RoundRect,0.075000X-0.075000X-0.662500X0.075000X-0.662500X0.075000X0.662500X-0.075000X0.662500X0*%
%ADD46RoundRect,0.250000X0.250000X0.475000X-0.250000X0.475000X-0.250000X-0.475000X0.250000X-0.475000X0*%
%ADD47RoundRect,0.225000X0.250000X-0.225000X0.250000X0.225000X-0.250000X0.225000X-0.250000X-0.225000X0*%
%ADD48RoundRect,0.150000X-0.825000X-0.150000X0.825000X-0.150000X0.825000X0.150000X-0.825000X0.150000X0*%
G04 APERTURE END LIST*
D10*
%TO.C,TP1*%
X115650000Y-130900000D03*
%TD*%
D11*
%TO.C,C14*%
X107200000Y-102187500D03*
X109100000Y-102187500D03*
%TD*%
D12*
%TO.C,R23*%
X141200000Y-122850000D03*
X142850000Y-122850000D03*
%TD*%
D13*
%TO.C,C10*%
X136475000Y-97100000D03*
X138025000Y-97100000D03*
%TD*%
D14*
%TO.C,SW5*%
X101600000Y-123437500D03*
X101600000Y-116427500D03*
D15*
X99110000Y-122187500D03*
X99110000Y-117687500D03*
%TD*%
D16*
%TO.C,R8*%
X151000000Y-108500000D03*
X151000000Y-106850000D03*
%TD*%
D17*
%TO.C,U1*%
X138637500Y-110650000D03*
X138637500Y-111150000D03*
X138637500Y-111650000D03*
X138637500Y-112150000D03*
D18*
X139300000Y-112312500D03*
X139800000Y-112312500D03*
X140300000Y-112312500D03*
D17*
X140962500Y-112150000D03*
X140962500Y-111650000D03*
X140962500Y-111150000D03*
X140962500Y-110650000D03*
D18*
X140300000Y-110487500D03*
X139800000Y-110487500D03*
X139300000Y-110487500D03*
%TD*%
D19*
%TO.C,Q1*%
X170037500Y-108300000D03*
X170037500Y-110200000D03*
X171912500Y-109250000D03*
%TD*%
D20*
%TO.C,J5*%
X98000000Y-129900000D03*
X104199998Y-129900000D03*
X98000000Y-132899999D03*
X104199998Y-132899999D03*
%TD*%
D21*
%TO.C,SW2*%
X149850000Y-75100000D03*
X155850000Y-75100000D03*
X149850000Y-78850000D03*
X155850000Y-78850000D03*
%TD*%
D12*
%TO.C,R12*%
X157325000Y-78850000D03*
X158975000Y-78850000D03*
%TD*%
D22*
%TO.C,L1*%
X115950000Y-124525000D03*
X115950000Y-126675000D03*
%TD*%
D23*
%TO.C,R2*%
X138300000Y-107400000D03*
X138300000Y-109050000D03*
%TD*%
D10*
%TO.C,TP3*%
X128475000Y-123550000D03*
%TD*%
D24*
%TO.C,R22*%
X142850000Y-125050000D03*
X141200000Y-125050000D03*
%TD*%
D25*
%TO.C,Y1*%
X141100000Y-98400000D03*
X141100000Y-94300000D03*
%TD*%
D26*
%TO.C,C16*%
X118400000Y-126612500D03*
X118400000Y-128162500D03*
%TD*%
D27*
%TO.C,Q2*%
X136450000Y-122350000D03*
X136450000Y-123300000D03*
X136450000Y-124250000D03*
X138725000Y-124250000D03*
X138725000Y-123300000D03*
X138725000Y-122350000D03*
%TD*%
D28*
%TO.C,SW3*%
X150025000Y-129500000D03*
X157975000Y-129500000D03*
X150025000Y-134000000D03*
X157975000Y-134000000D03*
%TD*%
D10*
%TO.C,TP2*%
X107850000Y-105600000D03*
%TD*%
D12*
%TO.C,R15*%
X126525000Y-78900000D03*
X128175000Y-78900000D03*
%TD*%
D13*
%TO.C,C9*%
X136475000Y-95600000D03*
X138025000Y-95600000D03*
%TD*%
D12*
%TO.C,R21*%
X137775000Y-120750000D03*
X139425000Y-120750000D03*
%TD*%
D23*
%TO.C,R6*%
X143950000Y-95675000D03*
X143950000Y-97325000D03*
%TD*%
D29*
%TO.C,C13*%
X113200000Y-126300000D03*
X113200000Y-124400000D03*
%TD*%
D11*
%TO.C,C22*%
X115300000Y-119800000D03*
X117200000Y-119800000D03*
%TD*%
D28*
%TO.C,SW4*%
X172500000Y-134000000D03*
X164550000Y-134000000D03*
X172500000Y-129500000D03*
X164550000Y-129500000D03*
%TD*%
D21*
%TO.C,SW1*%
X136700000Y-75100000D03*
X142700000Y-75100000D03*
X136700000Y-78850000D03*
X142700000Y-78850000D03*
%TD*%
D13*
%TO.C,C3*%
X106650000Y-78550000D03*
X108200000Y-78550000D03*
%TD*%
D27*
%TO.C,U4*%
X124075000Y-125537500D03*
X124075000Y-126487500D03*
X124075000Y-127437500D03*
X126350000Y-127437500D03*
X126350000Y-125537500D03*
%TD*%
D30*
%TO.C,J1*%
X106625000Y-88700000D03*
D31*
X106625000Y-86160000D03*
X106625000Y-83620000D03*
X106625000Y-81080000D03*
%TD*%
D32*
%TO.C,C20*%
X128850000Y-125450000D03*
X128850000Y-127350000D03*
%TD*%
D33*
%TO.C,U5*%
X113000000Y-118987500D03*
X112500000Y-118987500D03*
X112000000Y-118987500D03*
X111500000Y-118987500D03*
X111000000Y-118987500D03*
X110500000Y-118987500D03*
D34*
X109787500Y-119700000D03*
X109787500Y-120200000D03*
X109787500Y-120700000D03*
X109787500Y-121200000D03*
X109787500Y-121700000D03*
X109787500Y-122200000D03*
D33*
X110500000Y-122912500D03*
X111000000Y-122912500D03*
X111500000Y-122912500D03*
X112000000Y-122912500D03*
X112500000Y-122912500D03*
X113000000Y-122912500D03*
D34*
X113712500Y-122200000D03*
X113712500Y-121700000D03*
X113712500Y-121200000D03*
X113712500Y-120700000D03*
X113712500Y-120200000D03*
X113712500Y-119700000D03*
D35*
X111750000Y-120950000D03*
%TD*%
D12*
%TO.C,R14*%
X126475000Y-80450000D03*
X128125000Y-80450000D03*
%TD*%
D13*
%TO.C,C5*%
X156325000Y-96950000D03*
X157875000Y-96950000D03*
%TD*%
D12*
%TO.C,R11*%
X112325000Y-96450000D03*
X113975000Y-96450000D03*
%TD*%
D13*
%TO.C,C12*%
X115275000Y-122350000D03*
X116825000Y-122350000D03*
%TD*%
D23*
%TO.C,R17*%
X101400000Y-109375000D03*
X101400000Y-111025000D03*
%TD*%
D13*
%TO.C,C15*%
X114975000Y-117550000D03*
X116525000Y-117550000D03*
%TD*%
D36*
%TO.C,C11*%
X118900000Y-91900000D03*
X117350000Y-91900000D03*
%TD*%
D24*
%TO.C,R9*%
X158975000Y-75100000D03*
X157325000Y-75100000D03*
%TD*%
D12*
%TO.C,R13*%
X126525000Y-77300000D03*
X128175000Y-77300000D03*
%TD*%
D16*
%TO.C,R20*%
X134300000Y-124975000D03*
X134300000Y-123325000D03*
%TD*%
D26*
%TO.C,C2*%
X136750000Y-113725000D03*
X136750000Y-115275000D03*
%TD*%
D23*
%TO.C,R3*%
X102650000Y-91225000D03*
X102650000Y-92875000D03*
%TD*%
D16*
%TO.C,R24*%
X134300000Y-121925000D03*
X134300000Y-120275000D03*
%TD*%
D26*
%TO.C,C18*%
X121400000Y-126612500D03*
X121400000Y-128162500D03*
%TD*%
D23*
%TO.C,R4*%
X104150000Y-91225000D03*
X104150000Y-92875000D03*
%TD*%
D37*
%TO.C,D1*%
X124500000Y-77300000D03*
X124500000Y-79000000D03*
X123400000Y-77300000D03*
X123400000Y-79000000D03*
%TD*%
D38*
%TO.C,J2*%
X124725000Y-85250000D03*
X124725000Y-115250000D03*
X175725000Y-85250000D03*
X175725000Y-115250000D03*
D30*
X176725000Y-91450000D03*
D31*
X176725000Y-93990000D03*
X176725000Y-96530000D03*
X176725000Y-99070000D03*
X176725000Y-101610000D03*
X176725000Y-104150000D03*
X176725000Y-106690000D03*
X176725000Y-109230000D03*
%TD*%
D26*
%TO.C,C19*%
X131000000Y-125375000D03*
X131000000Y-126925000D03*
%TD*%
%TO.C,C17*%
X119900000Y-126612500D03*
X119900000Y-128162500D03*
%TD*%
D10*
%TO.C,TP4*%
X107300000Y-135900000D03*
%TD*%
D32*
%TO.C,C1*%
X138500000Y-113750000D03*
X138500000Y-115650000D03*
%TD*%
D13*
%TO.C,C8*%
X141050000Y-102000000D03*
X142600000Y-102000000D03*
%TD*%
D36*
%TO.C,C6*%
X142600000Y-103500000D03*
X141050000Y-103500000D03*
%TD*%
D12*
%TO.C,R5*%
X141000000Y-100500000D03*
X142650000Y-100500000D03*
%TD*%
D16*
%TO.C,R18*%
X109450000Y-117575000D03*
X109450000Y-115925000D03*
%TD*%
D23*
%TO.C,R16*%
X99900000Y-109375000D03*
X99900000Y-111025000D03*
%TD*%
D29*
%TO.C,C23*%
X106300000Y-120050000D03*
X106300000Y-118150000D03*
%TD*%
D26*
%TO.C,C4*%
X154000000Y-106300000D03*
X154000000Y-107850000D03*
%TD*%
D23*
%TO.C,R7*%
X168012500Y-108475000D03*
X168012500Y-110125000D03*
%TD*%
D16*
%TO.C,R19*%
X111950000Y-117575000D03*
X111950000Y-115925000D03*
%TD*%
D39*
%TO.C,J3*%
X102750000Y-99447500D03*
X102750000Y-105227500D03*
D40*
X104195000Y-99087500D03*
X104195000Y-99887500D03*
D41*
X104195000Y-101087500D03*
X104195000Y-102087500D03*
X104195000Y-102587500D03*
X104195000Y-103587500D03*
D40*
X104195000Y-104787500D03*
X104195000Y-105587500D03*
X104195000Y-105587500D03*
X104195000Y-104787500D03*
D41*
X104195000Y-104087500D03*
X104195000Y-103087500D03*
X104195000Y-101587500D03*
X104195000Y-100587500D03*
D40*
X104195000Y-99887500D03*
X104195000Y-99087500D03*
D42*
X103280000Y-98017500D03*
D43*
X99100000Y-98017500D03*
D42*
X103280000Y-106657500D03*
D43*
X99100000Y-106657500D03*
%TD*%
D44*
%TO.C,U2*%
X146150000Y-97500000D03*
X146150000Y-98000000D03*
X146150000Y-98500000D03*
X146150000Y-99000000D03*
X146150000Y-99500000D03*
X146150000Y-100000000D03*
X146150000Y-100500000D03*
X146150000Y-101000000D03*
X146150000Y-101500000D03*
X146150000Y-102000000D03*
X146150000Y-102500000D03*
X146150000Y-103000000D03*
D45*
X147562500Y-104412500D03*
X148062500Y-104412500D03*
X148562500Y-104412500D03*
X149062500Y-104412500D03*
X149562500Y-104412500D03*
X150062500Y-104412500D03*
X150562500Y-104412500D03*
X151062500Y-104412500D03*
X151562500Y-104412500D03*
X152062500Y-104412500D03*
X152562500Y-104412500D03*
X153062500Y-104412500D03*
D44*
X154475000Y-103000000D03*
X154475000Y-102500000D03*
X154475000Y-102000000D03*
X154475000Y-101500000D03*
X154475000Y-101000000D03*
X154475000Y-100500000D03*
X154475000Y-100000000D03*
X154475000Y-99500000D03*
X154475000Y-99000000D03*
X154475000Y-98500000D03*
X154475000Y-98000000D03*
X154475000Y-97500000D03*
D45*
X153062500Y-96087500D03*
X152562500Y-96087500D03*
X152062500Y-96087500D03*
X151562500Y-96087500D03*
X151062500Y-96087500D03*
X150562500Y-96087500D03*
X150062500Y-96087500D03*
X149562500Y-96087500D03*
X149062500Y-96087500D03*
X148562500Y-96087500D03*
X148062500Y-96087500D03*
X147562500Y-96087500D03*
%TD*%
D46*
%TO.C,C21*%
X110550000Y-125200000D03*
X108650000Y-125200000D03*
%TD*%
D10*
%TO.C,TP5*%
X142850000Y-121100000D03*
%TD*%
D47*
%TO.C,C7*%
X146650000Y-94325000D03*
X146650000Y-92775000D03*
%TD*%
D23*
%TO.C,R1*%
X139800000Y-107400000D03*
X139800000Y-109050000D03*
%TD*%
D48*
%TO.C,U3*%
X116000000Y-93500000D03*
X116000000Y-94770000D03*
X116000000Y-96040000D03*
X116000000Y-97310000D03*
X116000000Y-98580000D03*
X116000000Y-99850000D03*
X116000000Y-101120000D03*
X116000000Y-102390000D03*
X120950000Y-102390000D03*
X120950000Y-101120000D03*
X120950000Y-99850000D03*
X120950000Y-98580000D03*
X120950000Y-97310000D03*
X120950000Y-96040000D03*
X120950000Y-94770000D03*
X120950000Y-93500000D03*
%TD*%
D12*
%TO.C,R10*%
X112325000Y-94950000D03*
X113975000Y-94950000D03*
%TD*%
M02*
