%TF.GenerationSoftware,KiCad,Pcbnew,8.0.7*%
%TF.CreationDate,2024-12-15T23:10:09+01:00*%
%TF.ProjectId,leany,6c65616e-792e-46b6-9963-61645f706362,rev?*%
%TF.SameCoordinates,Original*%
%TF.FileFunction,Legend,Bot*%
%TF.FilePolarity,Positive*%
%FSLAX46Y46*%
G04 Gerber Fmt 4.6, Leading zero omitted, Abs format (unit mm)*
G04 Created by KiCad (PCBNEW 8.0.7) date 2024-12-15 23:10:09*
%MOMM*%
%LPD*%
G01*
G04 APERTURE LIST*
G04 Aperture macros list*
%AMRoundRect*
0 Rectangle with rounded corners*
0 $1 Rounding radius*
0 $2 $3 $4 $5 $6 $7 $8 $9 X,Y pos of 4 corners*
0 Add a 4 corners polygon primitive as box body*
4,1,4,$2,$3,$4,$5,$6,$7,$8,$9,$2,$3,0*
0 Add four circle primitives for the rounded corners*
1,1,$1+$1,$2,$3*
1,1,$1+$1,$4,$5*
1,1,$1+$1,$6,$7*
1,1,$1+$1,$8,$9*
0 Add four rect primitives between the rounded corners*
20,1,$1+$1,$2,$3,$4,$5,0*
20,1,$1+$1,$4,$5,$6,$7,0*
20,1,$1+$1,$6,$7,$8,$9,0*
20,1,$1+$1,$8,$9,$2,$3,0*%
G04 Aperture macros list end*
%ADD10C,0.150000*%
%ADD11C,0.120000*%
%ADD12R,1.700000X1.700000*%
%ADD13O,1.700000X1.700000*%
%ADD14C,2.200000*%
%ADD15C,0.900000*%
%ADD16RoundRect,0.250000X0.850000X-0.375000X0.850000X0.375000X-0.850000X0.375000X-0.850000X-0.375000X0*%
%ADD17RoundRect,0.225000X-0.250000X0.225000X-0.250000X-0.225000X0.250000X-0.225000X0.250000X0.225000X0*%
%ADD18RoundRect,0.225000X0.250000X-0.225000X0.250000X0.225000X-0.250000X0.225000X-0.250000X-0.225000X0*%
%ADD19R,1.000000X1.000000*%
%ADD20RoundRect,0.200000X-0.275000X0.200000X-0.275000X-0.200000X0.275000X-0.200000X0.275000X0.200000X0*%
%ADD21RoundRect,0.250000X0.250000X0.475000X-0.250000X0.475000X-0.250000X-0.475000X0.250000X-0.475000X0*%
%ADD22RoundRect,0.250000X0.475000X-0.250000X0.475000X0.250000X-0.475000X0.250000X-0.475000X-0.250000X0*%
%ADD23RoundRect,0.200000X-0.200000X-0.275000X0.200000X-0.275000X0.200000X0.275000X-0.200000X0.275000X0*%
%ADD24RoundRect,0.150000X0.150000X-0.512500X0.150000X0.512500X-0.150000X0.512500X-0.150000X-0.512500X0*%
%ADD25RoundRect,0.225000X-0.225000X-0.250000X0.225000X-0.250000X0.225000X0.250000X-0.225000X0.250000X0*%
%ADD26RoundRect,0.200000X0.200000X0.275000X-0.200000X0.275000X-0.200000X-0.275000X0.200000X-0.275000X0*%
%ADD27C,0.650000*%
%ADD28R,1.450000X0.600000*%
%ADD29R,1.450000X0.300000*%
%ADD30O,1.600000X1.000000*%
%ADD31O,2.100000X1.000000*%
%ADD32RoundRect,0.062500X0.350000X0.062500X-0.350000X0.062500X-0.350000X-0.062500X0.350000X-0.062500X0*%
%ADD33RoundRect,0.062500X0.062500X0.350000X-0.062500X0.350000X-0.062500X-0.350000X0.062500X-0.350000X0*%
%ADD34R,2.700000X2.700000*%
%ADD35C,2.100000*%
%ADD36C,1.750000*%
%ADD37C,2.390000*%
%ADD38C,3.450000*%
%ADD39R,7.340000X6.350000*%
%ADD40RoundRect,0.250000X-0.250000X-0.475000X0.250000X-0.475000X0.250000X0.475000X-0.250000X0.475000X0*%
%ADD41RoundRect,0.150000X-0.512500X-0.150000X0.512500X-0.150000X0.512500X0.150000X-0.512500X0.150000X0*%
G04 APERTURE END LIST*
D10*
X176311666Y-87279819D02*
X176787856Y-87279819D01*
X176787856Y-87279819D02*
X176787856Y-86279819D01*
X175454523Y-87279819D02*
X176025951Y-87279819D01*
X175740237Y-87279819D02*
X175740237Y-86279819D01*
X175740237Y-86279819D02*
X175835475Y-86422676D01*
X175835475Y-86422676D02*
X175930713Y-86517914D01*
X175930713Y-86517914D02*
X176025951Y-86565533D01*
X168409580Y-87507142D02*
X168457200Y-87459523D01*
X168457200Y-87459523D02*
X168504819Y-87316666D01*
X168504819Y-87316666D02*
X168504819Y-87221428D01*
X168504819Y-87221428D02*
X168457200Y-87078571D01*
X168457200Y-87078571D02*
X168361961Y-86983333D01*
X168361961Y-86983333D02*
X168266723Y-86935714D01*
X168266723Y-86935714D02*
X168076247Y-86888095D01*
X168076247Y-86888095D02*
X167933390Y-86888095D01*
X167933390Y-86888095D02*
X167742914Y-86935714D01*
X167742914Y-86935714D02*
X167647676Y-86983333D01*
X167647676Y-86983333D02*
X167552438Y-87078571D01*
X167552438Y-87078571D02*
X167504819Y-87221428D01*
X167504819Y-87221428D02*
X167504819Y-87316666D01*
X167504819Y-87316666D02*
X167552438Y-87459523D01*
X167552438Y-87459523D02*
X167600057Y-87507142D01*
X168504819Y-88459523D02*
X168504819Y-87888095D01*
X168504819Y-88173809D02*
X167504819Y-88173809D01*
X167504819Y-88173809D02*
X167647676Y-88078571D01*
X167647676Y-88078571D02*
X167742914Y-87983333D01*
X167742914Y-87983333D02*
X167790533Y-87888095D01*
X167504819Y-88792857D02*
X167504819Y-89459523D01*
X167504819Y-89459523D02*
X168504819Y-89030952D01*
X182604580Y-87357142D02*
X182652200Y-87309523D01*
X182652200Y-87309523D02*
X182699819Y-87166666D01*
X182699819Y-87166666D02*
X182699819Y-87071428D01*
X182699819Y-87071428D02*
X182652200Y-86928571D01*
X182652200Y-86928571D02*
X182556961Y-86833333D01*
X182556961Y-86833333D02*
X182461723Y-86785714D01*
X182461723Y-86785714D02*
X182271247Y-86738095D01*
X182271247Y-86738095D02*
X182128390Y-86738095D01*
X182128390Y-86738095D02*
X181937914Y-86785714D01*
X181937914Y-86785714D02*
X181842676Y-86833333D01*
X181842676Y-86833333D02*
X181747438Y-86928571D01*
X181747438Y-86928571D02*
X181699819Y-87071428D01*
X181699819Y-87071428D02*
X181699819Y-87166666D01*
X181699819Y-87166666D02*
X181747438Y-87309523D01*
X181747438Y-87309523D02*
X181795057Y-87357142D01*
X182699819Y-88309523D02*
X182699819Y-87738095D01*
X182699819Y-88023809D02*
X181699819Y-88023809D01*
X181699819Y-88023809D02*
X181842676Y-87928571D01*
X181842676Y-87928571D02*
X181937914Y-87833333D01*
X181937914Y-87833333D02*
X181985533Y-87738095D01*
X182033152Y-89166666D02*
X182699819Y-89166666D01*
X181652200Y-88928571D02*
X182366485Y-88690476D01*
X182366485Y-88690476D02*
X182366485Y-89309523D01*
X186004819Y-88291667D02*
X187004819Y-88625000D01*
X187004819Y-88625000D02*
X186004819Y-88958333D01*
X186481009Y-89625000D02*
X186528628Y-89767857D01*
X186528628Y-89767857D02*
X186576247Y-89815476D01*
X186576247Y-89815476D02*
X186671485Y-89863095D01*
X186671485Y-89863095D02*
X186814342Y-89863095D01*
X186814342Y-89863095D02*
X186909580Y-89815476D01*
X186909580Y-89815476D02*
X186957200Y-89767857D01*
X186957200Y-89767857D02*
X187004819Y-89672619D01*
X187004819Y-89672619D02*
X187004819Y-89291667D01*
X187004819Y-89291667D02*
X186004819Y-89291667D01*
X186004819Y-89291667D02*
X186004819Y-89625000D01*
X186004819Y-89625000D02*
X186052438Y-89720238D01*
X186052438Y-89720238D02*
X186100057Y-89767857D01*
X186100057Y-89767857D02*
X186195295Y-89815476D01*
X186195295Y-89815476D02*
X186290533Y-89815476D01*
X186290533Y-89815476D02*
X186385771Y-89767857D01*
X186385771Y-89767857D02*
X186433390Y-89720238D01*
X186433390Y-89720238D02*
X186481009Y-89625000D01*
X186481009Y-89625000D02*
X186481009Y-89291667D01*
X186004819Y-90291667D02*
X186814342Y-90291667D01*
X186814342Y-90291667D02*
X186909580Y-90339286D01*
X186909580Y-90339286D02*
X186957200Y-90386905D01*
X186957200Y-90386905D02*
X187004819Y-90482143D01*
X187004819Y-90482143D02*
X187004819Y-90672619D01*
X187004819Y-90672619D02*
X186957200Y-90767857D01*
X186957200Y-90767857D02*
X186909580Y-90815476D01*
X186909580Y-90815476D02*
X186814342Y-90863095D01*
X186814342Y-90863095D02*
X186004819Y-90863095D01*
X186957200Y-91291667D02*
X187004819Y-91434524D01*
X187004819Y-91434524D02*
X187004819Y-91672619D01*
X187004819Y-91672619D02*
X186957200Y-91767857D01*
X186957200Y-91767857D02*
X186909580Y-91815476D01*
X186909580Y-91815476D02*
X186814342Y-91863095D01*
X186814342Y-91863095D02*
X186719104Y-91863095D01*
X186719104Y-91863095D02*
X186623866Y-91815476D01*
X186623866Y-91815476D02*
X186576247Y-91767857D01*
X186576247Y-91767857D02*
X186528628Y-91672619D01*
X186528628Y-91672619D02*
X186481009Y-91482143D01*
X186481009Y-91482143D02*
X186433390Y-91386905D01*
X186433390Y-91386905D02*
X186385771Y-91339286D01*
X186385771Y-91339286D02*
X186290533Y-91291667D01*
X186290533Y-91291667D02*
X186195295Y-91291667D01*
X186195295Y-91291667D02*
X186100057Y-91339286D01*
X186100057Y-91339286D02*
X186052438Y-91386905D01*
X186052438Y-91386905D02*
X186004819Y-91482143D01*
X186004819Y-91482143D02*
X186004819Y-91720238D01*
X186004819Y-91720238D02*
X186052438Y-91863095D01*
X191799819Y-106157142D02*
X191323628Y-105823809D01*
X191799819Y-105585714D02*
X190799819Y-105585714D01*
X190799819Y-105585714D02*
X190799819Y-105966666D01*
X190799819Y-105966666D02*
X190847438Y-106061904D01*
X190847438Y-106061904D02*
X190895057Y-106109523D01*
X190895057Y-106109523D02*
X190990295Y-106157142D01*
X190990295Y-106157142D02*
X191133152Y-106157142D01*
X191133152Y-106157142D02*
X191228390Y-106109523D01*
X191228390Y-106109523D02*
X191276009Y-106061904D01*
X191276009Y-106061904D02*
X191323628Y-105966666D01*
X191323628Y-105966666D02*
X191323628Y-105585714D01*
X191799819Y-107109523D02*
X191799819Y-106538095D01*
X191799819Y-106823809D02*
X190799819Y-106823809D01*
X190799819Y-106823809D02*
X190942676Y-106728571D01*
X190942676Y-106728571D02*
X191037914Y-106633333D01*
X191037914Y-106633333D02*
X191085533Y-106538095D01*
X190799819Y-107728571D02*
X190799819Y-107823809D01*
X190799819Y-107823809D02*
X190847438Y-107919047D01*
X190847438Y-107919047D02*
X190895057Y-107966666D01*
X190895057Y-107966666D02*
X190990295Y-108014285D01*
X190990295Y-108014285D02*
X191180771Y-108061904D01*
X191180771Y-108061904D02*
X191418866Y-108061904D01*
X191418866Y-108061904D02*
X191609342Y-108014285D01*
X191609342Y-108014285D02*
X191704580Y-107966666D01*
X191704580Y-107966666D02*
X191752200Y-107919047D01*
X191752200Y-107919047D02*
X191799819Y-107823809D01*
X191799819Y-107823809D02*
X191799819Y-107728571D01*
X191799819Y-107728571D02*
X191752200Y-107633333D01*
X191752200Y-107633333D02*
X191704580Y-107585714D01*
X191704580Y-107585714D02*
X191609342Y-107538095D01*
X191609342Y-107538095D02*
X191418866Y-107490476D01*
X191418866Y-107490476D02*
X191180771Y-107490476D01*
X191180771Y-107490476D02*
X190990295Y-107538095D01*
X190990295Y-107538095D02*
X190895057Y-107585714D01*
X190895057Y-107585714D02*
X190847438Y-107633333D01*
X190847438Y-107633333D02*
X190799819Y-107728571D01*
X170142857Y-92559580D02*
X170190476Y-92607200D01*
X170190476Y-92607200D02*
X170333333Y-92654819D01*
X170333333Y-92654819D02*
X170428571Y-92654819D01*
X170428571Y-92654819D02*
X170571428Y-92607200D01*
X170571428Y-92607200D02*
X170666666Y-92511961D01*
X170666666Y-92511961D02*
X170714285Y-92416723D01*
X170714285Y-92416723D02*
X170761904Y-92226247D01*
X170761904Y-92226247D02*
X170761904Y-92083390D01*
X170761904Y-92083390D02*
X170714285Y-91892914D01*
X170714285Y-91892914D02*
X170666666Y-91797676D01*
X170666666Y-91797676D02*
X170571428Y-91702438D01*
X170571428Y-91702438D02*
X170428571Y-91654819D01*
X170428571Y-91654819D02*
X170333333Y-91654819D01*
X170333333Y-91654819D02*
X170190476Y-91702438D01*
X170190476Y-91702438D02*
X170142857Y-91750057D01*
X169190476Y-92654819D02*
X169761904Y-92654819D01*
X169476190Y-92654819D02*
X169476190Y-91654819D01*
X169476190Y-91654819D02*
X169571428Y-91797676D01*
X169571428Y-91797676D02*
X169666666Y-91892914D01*
X169666666Y-91892914D02*
X169761904Y-91940533D01*
X168809523Y-91750057D02*
X168761904Y-91702438D01*
X168761904Y-91702438D02*
X168666666Y-91654819D01*
X168666666Y-91654819D02*
X168428571Y-91654819D01*
X168428571Y-91654819D02*
X168333333Y-91702438D01*
X168333333Y-91702438D02*
X168285714Y-91750057D01*
X168285714Y-91750057D02*
X168238095Y-91845295D01*
X168238095Y-91845295D02*
X168238095Y-91940533D01*
X168238095Y-91940533D02*
X168285714Y-92083390D01*
X168285714Y-92083390D02*
X168857142Y-92654819D01*
X168857142Y-92654819D02*
X168238095Y-92654819D01*
X166809580Y-87457142D02*
X166857200Y-87409523D01*
X166857200Y-87409523D02*
X166904819Y-87266666D01*
X166904819Y-87266666D02*
X166904819Y-87171428D01*
X166904819Y-87171428D02*
X166857200Y-87028571D01*
X166857200Y-87028571D02*
X166761961Y-86933333D01*
X166761961Y-86933333D02*
X166666723Y-86885714D01*
X166666723Y-86885714D02*
X166476247Y-86838095D01*
X166476247Y-86838095D02*
X166333390Y-86838095D01*
X166333390Y-86838095D02*
X166142914Y-86885714D01*
X166142914Y-86885714D02*
X166047676Y-86933333D01*
X166047676Y-86933333D02*
X165952438Y-87028571D01*
X165952438Y-87028571D02*
X165904819Y-87171428D01*
X165904819Y-87171428D02*
X165904819Y-87266666D01*
X165904819Y-87266666D02*
X165952438Y-87409523D01*
X165952438Y-87409523D02*
X166000057Y-87457142D01*
X166904819Y-88409523D02*
X166904819Y-87838095D01*
X166904819Y-88123809D02*
X165904819Y-88123809D01*
X165904819Y-88123809D02*
X166047676Y-88028571D01*
X166047676Y-88028571D02*
X166142914Y-87933333D01*
X166142914Y-87933333D02*
X166190533Y-87838095D01*
X165904819Y-89266666D02*
X165904819Y-89076190D01*
X165904819Y-89076190D02*
X165952438Y-88980952D01*
X165952438Y-88980952D02*
X166000057Y-88933333D01*
X166000057Y-88933333D02*
X166142914Y-88838095D01*
X166142914Y-88838095D02*
X166333390Y-88790476D01*
X166333390Y-88790476D02*
X166714342Y-88790476D01*
X166714342Y-88790476D02*
X166809580Y-88838095D01*
X166809580Y-88838095D02*
X166857200Y-88885714D01*
X166857200Y-88885714D02*
X166904819Y-88980952D01*
X166904819Y-88980952D02*
X166904819Y-89171428D01*
X166904819Y-89171428D02*
X166857200Y-89266666D01*
X166857200Y-89266666D02*
X166809580Y-89314285D01*
X166809580Y-89314285D02*
X166714342Y-89361904D01*
X166714342Y-89361904D02*
X166476247Y-89361904D01*
X166476247Y-89361904D02*
X166381009Y-89314285D01*
X166381009Y-89314285D02*
X166333390Y-89266666D01*
X166333390Y-89266666D02*
X166285771Y-89171428D01*
X166285771Y-89171428D02*
X166285771Y-88980952D01*
X166285771Y-88980952D02*
X166333390Y-88885714D01*
X166333390Y-88885714D02*
X166381009Y-88838095D01*
X166381009Y-88838095D02*
X166476247Y-88790476D01*
X184309580Y-87657142D02*
X184357200Y-87609523D01*
X184357200Y-87609523D02*
X184404819Y-87466666D01*
X184404819Y-87466666D02*
X184404819Y-87371428D01*
X184404819Y-87371428D02*
X184357200Y-87228571D01*
X184357200Y-87228571D02*
X184261961Y-87133333D01*
X184261961Y-87133333D02*
X184166723Y-87085714D01*
X184166723Y-87085714D02*
X183976247Y-87038095D01*
X183976247Y-87038095D02*
X183833390Y-87038095D01*
X183833390Y-87038095D02*
X183642914Y-87085714D01*
X183642914Y-87085714D02*
X183547676Y-87133333D01*
X183547676Y-87133333D02*
X183452438Y-87228571D01*
X183452438Y-87228571D02*
X183404819Y-87371428D01*
X183404819Y-87371428D02*
X183404819Y-87466666D01*
X183404819Y-87466666D02*
X183452438Y-87609523D01*
X183452438Y-87609523D02*
X183500057Y-87657142D01*
X184404819Y-88609523D02*
X184404819Y-88038095D01*
X184404819Y-88323809D02*
X183404819Y-88323809D01*
X183404819Y-88323809D02*
X183547676Y-88228571D01*
X183547676Y-88228571D02*
X183642914Y-88133333D01*
X183642914Y-88133333D02*
X183690533Y-88038095D01*
X183404819Y-88942857D02*
X183404819Y-89561904D01*
X183404819Y-89561904D02*
X183785771Y-89228571D01*
X183785771Y-89228571D02*
X183785771Y-89371428D01*
X183785771Y-89371428D02*
X183833390Y-89466666D01*
X183833390Y-89466666D02*
X183881009Y-89514285D01*
X183881009Y-89514285D02*
X183976247Y-89561904D01*
X183976247Y-89561904D02*
X184214342Y-89561904D01*
X184214342Y-89561904D02*
X184309580Y-89514285D01*
X184309580Y-89514285D02*
X184357200Y-89466666D01*
X184357200Y-89466666D02*
X184404819Y-89371428D01*
X184404819Y-89371428D02*
X184404819Y-89085714D01*
X184404819Y-89085714D02*
X184357200Y-88990476D01*
X184357200Y-88990476D02*
X184309580Y-88942857D01*
X180842857Y-115754819D02*
X181176190Y-115278628D01*
X181414285Y-115754819D02*
X181414285Y-114754819D01*
X181414285Y-114754819D02*
X181033333Y-114754819D01*
X181033333Y-114754819D02*
X180938095Y-114802438D01*
X180938095Y-114802438D02*
X180890476Y-114850057D01*
X180890476Y-114850057D02*
X180842857Y-114945295D01*
X180842857Y-114945295D02*
X180842857Y-115088152D01*
X180842857Y-115088152D02*
X180890476Y-115183390D01*
X180890476Y-115183390D02*
X180938095Y-115231009D01*
X180938095Y-115231009D02*
X181033333Y-115278628D01*
X181033333Y-115278628D02*
X181414285Y-115278628D01*
X179890476Y-115754819D02*
X180461904Y-115754819D01*
X180176190Y-115754819D02*
X180176190Y-114754819D01*
X180176190Y-114754819D02*
X180271428Y-114897676D01*
X180271428Y-114897676D02*
X180366666Y-114992914D01*
X180366666Y-114992914D02*
X180461904Y-115040533D01*
X179557142Y-114754819D02*
X178890476Y-114754819D01*
X178890476Y-114754819D02*
X179319047Y-115754819D01*
X170611904Y-78654819D02*
X170611904Y-79464342D01*
X170611904Y-79464342D02*
X170564285Y-79559580D01*
X170564285Y-79559580D02*
X170516666Y-79607200D01*
X170516666Y-79607200D02*
X170421428Y-79654819D01*
X170421428Y-79654819D02*
X170230952Y-79654819D01*
X170230952Y-79654819D02*
X170135714Y-79607200D01*
X170135714Y-79607200D02*
X170088095Y-79559580D01*
X170088095Y-79559580D02*
X170040476Y-79464342D01*
X170040476Y-79464342D02*
X170040476Y-78654819D01*
X169135714Y-78988152D02*
X169135714Y-79654819D01*
X169373809Y-78607200D02*
X169611904Y-79321485D01*
X169611904Y-79321485D02*
X168992857Y-79321485D01*
X178642857Y-82584580D02*
X178690476Y-82632200D01*
X178690476Y-82632200D02*
X178833333Y-82679819D01*
X178833333Y-82679819D02*
X178928571Y-82679819D01*
X178928571Y-82679819D02*
X179071428Y-82632200D01*
X179071428Y-82632200D02*
X179166666Y-82536961D01*
X179166666Y-82536961D02*
X179214285Y-82441723D01*
X179214285Y-82441723D02*
X179261904Y-82251247D01*
X179261904Y-82251247D02*
X179261904Y-82108390D01*
X179261904Y-82108390D02*
X179214285Y-81917914D01*
X179214285Y-81917914D02*
X179166666Y-81822676D01*
X179166666Y-81822676D02*
X179071428Y-81727438D01*
X179071428Y-81727438D02*
X178928571Y-81679819D01*
X178928571Y-81679819D02*
X178833333Y-81679819D01*
X178833333Y-81679819D02*
X178690476Y-81727438D01*
X178690476Y-81727438D02*
X178642857Y-81775057D01*
X177690476Y-82679819D02*
X178261904Y-82679819D01*
X177976190Y-82679819D02*
X177976190Y-81679819D01*
X177976190Y-81679819D02*
X178071428Y-81822676D01*
X178071428Y-81822676D02*
X178166666Y-81917914D01*
X178166666Y-81917914D02*
X178261904Y-81965533D01*
X177119047Y-82108390D02*
X177214285Y-82060771D01*
X177214285Y-82060771D02*
X177261904Y-82013152D01*
X177261904Y-82013152D02*
X177309523Y-81917914D01*
X177309523Y-81917914D02*
X177309523Y-81870295D01*
X177309523Y-81870295D02*
X177261904Y-81775057D01*
X177261904Y-81775057D02*
X177214285Y-81727438D01*
X177214285Y-81727438D02*
X177119047Y-81679819D01*
X177119047Y-81679819D02*
X176928571Y-81679819D01*
X176928571Y-81679819D02*
X176833333Y-81727438D01*
X176833333Y-81727438D02*
X176785714Y-81775057D01*
X176785714Y-81775057D02*
X176738095Y-81870295D01*
X176738095Y-81870295D02*
X176738095Y-81917914D01*
X176738095Y-81917914D02*
X176785714Y-82013152D01*
X176785714Y-82013152D02*
X176833333Y-82060771D01*
X176833333Y-82060771D02*
X176928571Y-82108390D01*
X176928571Y-82108390D02*
X177119047Y-82108390D01*
X177119047Y-82108390D02*
X177214285Y-82156009D01*
X177214285Y-82156009D02*
X177261904Y-82203628D01*
X177261904Y-82203628D02*
X177309523Y-82298866D01*
X177309523Y-82298866D02*
X177309523Y-82489342D01*
X177309523Y-82489342D02*
X177261904Y-82584580D01*
X177261904Y-82584580D02*
X177214285Y-82632200D01*
X177214285Y-82632200D02*
X177119047Y-82679819D01*
X177119047Y-82679819D02*
X176928571Y-82679819D01*
X176928571Y-82679819D02*
X176833333Y-82632200D01*
X176833333Y-82632200D02*
X176785714Y-82584580D01*
X176785714Y-82584580D02*
X176738095Y-82489342D01*
X176738095Y-82489342D02*
X176738095Y-82298866D01*
X176738095Y-82298866D02*
X176785714Y-82203628D01*
X176785714Y-82203628D02*
X176833333Y-82156009D01*
X176833333Y-82156009D02*
X176928571Y-82108390D01*
X190775357Y-111229819D02*
X191108690Y-110753628D01*
X191346785Y-111229819D02*
X191346785Y-110229819D01*
X191346785Y-110229819D02*
X190965833Y-110229819D01*
X190965833Y-110229819D02*
X190870595Y-110277438D01*
X190870595Y-110277438D02*
X190822976Y-110325057D01*
X190822976Y-110325057D02*
X190775357Y-110420295D01*
X190775357Y-110420295D02*
X190775357Y-110563152D01*
X190775357Y-110563152D02*
X190822976Y-110658390D01*
X190822976Y-110658390D02*
X190870595Y-110706009D01*
X190870595Y-110706009D02*
X190965833Y-110753628D01*
X190965833Y-110753628D02*
X191346785Y-110753628D01*
X189822976Y-111229819D02*
X190394404Y-111229819D01*
X190108690Y-111229819D02*
X190108690Y-110229819D01*
X190108690Y-110229819D02*
X190203928Y-110372676D01*
X190203928Y-110372676D02*
X190299166Y-110467914D01*
X190299166Y-110467914D02*
X190394404Y-110515533D01*
X188918214Y-110229819D02*
X189394404Y-110229819D01*
X189394404Y-110229819D02*
X189442023Y-110706009D01*
X189442023Y-110706009D02*
X189394404Y-110658390D01*
X189394404Y-110658390D02*
X189299166Y-110610771D01*
X189299166Y-110610771D02*
X189061071Y-110610771D01*
X189061071Y-110610771D02*
X188965833Y-110658390D01*
X188965833Y-110658390D02*
X188918214Y-110706009D01*
X188918214Y-110706009D02*
X188870595Y-110801247D01*
X188870595Y-110801247D02*
X188870595Y-111039342D01*
X188870595Y-111039342D02*
X188918214Y-111134580D01*
X188918214Y-111134580D02*
X188965833Y-111182200D01*
X188965833Y-111182200D02*
X189061071Y-111229819D01*
X189061071Y-111229819D02*
X189299166Y-111229819D01*
X189299166Y-111229819D02*
X189394404Y-111182200D01*
X189394404Y-111182200D02*
X189442023Y-111134580D01*
X186454819Y-95357143D02*
X187264342Y-95357143D01*
X187264342Y-95357143D02*
X187359580Y-95404762D01*
X187359580Y-95404762D02*
X187407200Y-95452381D01*
X187407200Y-95452381D02*
X187454819Y-95547619D01*
X187454819Y-95547619D02*
X187454819Y-95738095D01*
X187454819Y-95738095D02*
X187407200Y-95833333D01*
X187407200Y-95833333D02*
X187359580Y-95880952D01*
X187359580Y-95880952D02*
X187264342Y-95928571D01*
X187264342Y-95928571D02*
X186454819Y-95928571D01*
X187407200Y-96357143D02*
X187454819Y-96500000D01*
X187454819Y-96500000D02*
X187454819Y-96738095D01*
X187454819Y-96738095D02*
X187407200Y-96833333D01*
X187407200Y-96833333D02*
X187359580Y-96880952D01*
X187359580Y-96880952D02*
X187264342Y-96928571D01*
X187264342Y-96928571D02*
X187169104Y-96928571D01*
X187169104Y-96928571D02*
X187073866Y-96880952D01*
X187073866Y-96880952D02*
X187026247Y-96833333D01*
X187026247Y-96833333D02*
X186978628Y-96738095D01*
X186978628Y-96738095D02*
X186931009Y-96547619D01*
X186931009Y-96547619D02*
X186883390Y-96452381D01*
X186883390Y-96452381D02*
X186835771Y-96404762D01*
X186835771Y-96404762D02*
X186740533Y-96357143D01*
X186740533Y-96357143D02*
X186645295Y-96357143D01*
X186645295Y-96357143D02*
X186550057Y-96404762D01*
X186550057Y-96404762D02*
X186502438Y-96452381D01*
X186502438Y-96452381D02*
X186454819Y-96547619D01*
X186454819Y-96547619D02*
X186454819Y-96785714D01*
X186454819Y-96785714D02*
X186502438Y-96928571D01*
X186931009Y-97690476D02*
X186978628Y-97833333D01*
X186978628Y-97833333D02*
X187026247Y-97880952D01*
X187026247Y-97880952D02*
X187121485Y-97928571D01*
X187121485Y-97928571D02*
X187264342Y-97928571D01*
X187264342Y-97928571D02*
X187359580Y-97880952D01*
X187359580Y-97880952D02*
X187407200Y-97833333D01*
X187407200Y-97833333D02*
X187454819Y-97738095D01*
X187454819Y-97738095D02*
X187454819Y-97357143D01*
X187454819Y-97357143D02*
X186454819Y-97357143D01*
X186454819Y-97357143D02*
X186454819Y-97690476D01*
X186454819Y-97690476D02*
X186502438Y-97785714D01*
X186502438Y-97785714D02*
X186550057Y-97833333D01*
X186550057Y-97833333D02*
X186645295Y-97880952D01*
X186645295Y-97880952D02*
X186740533Y-97880952D01*
X186740533Y-97880952D02*
X186835771Y-97833333D01*
X186835771Y-97833333D02*
X186883390Y-97785714D01*
X186883390Y-97785714D02*
X186931009Y-97690476D01*
X186931009Y-97690476D02*
X186931009Y-97357143D01*
X187359580Y-99690476D02*
X187407200Y-99642857D01*
X187407200Y-99642857D02*
X187454819Y-99500000D01*
X187454819Y-99500000D02*
X187454819Y-99404762D01*
X187454819Y-99404762D02*
X187407200Y-99261905D01*
X187407200Y-99261905D02*
X187311961Y-99166667D01*
X187311961Y-99166667D02*
X187216723Y-99119048D01*
X187216723Y-99119048D02*
X187026247Y-99071429D01*
X187026247Y-99071429D02*
X186883390Y-99071429D01*
X186883390Y-99071429D02*
X186692914Y-99119048D01*
X186692914Y-99119048D02*
X186597676Y-99166667D01*
X186597676Y-99166667D02*
X186502438Y-99261905D01*
X186502438Y-99261905D02*
X186454819Y-99404762D01*
X186454819Y-99404762D02*
X186454819Y-99500000D01*
X186454819Y-99500000D02*
X186502438Y-99642857D01*
X186502438Y-99642857D02*
X186550057Y-99690476D01*
X174899819Y-94963095D02*
X175709342Y-94963095D01*
X175709342Y-94963095D02*
X175804580Y-95010714D01*
X175804580Y-95010714D02*
X175852200Y-95058333D01*
X175852200Y-95058333D02*
X175899819Y-95153571D01*
X175899819Y-95153571D02*
X175899819Y-95344047D01*
X175899819Y-95344047D02*
X175852200Y-95439285D01*
X175852200Y-95439285D02*
X175804580Y-95486904D01*
X175804580Y-95486904D02*
X175709342Y-95534523D01*
X175709342Y-95534523D02*
X174899819Y-95534523D01*
X174899819Y-96486904D02*
X174899819Y-96010714D01*
X174899819Y-96010714D02*
X175376009Y-95963095D01*
X175376009Y-95963095D02*
X175328390Y-96010714D01*
X175328390Y-96010714D02*
X175280771Y-96105952D01*
X175280771Y-96105952D02*
X175280771Y-96344047D01*
X175280771Y-96344047D02*
X175328390Y-96439285D01*
X175328390Y-96439285D02*
X175376009Y-96486904D01*
X175376009Y-96486904D02*
X175471247Y-96534523D01*
X175471247Y-96534523D02*
X175709342Y-96534523D01*
X175709342Y-96534523D02*
X175804580Y-96486904D01*
X175804580Y-96486904D02*
X175852200Y-96439285D01*
X175852200Y-96439285D02*
X175899819Y-96344047D01*
X175899819Y-96344047D02*
X175899819Y-96105952D01*
X175899819Y-96105952D02*
X175852200Y-96010714D01*
X175852200Y-96010714D02*
X175804580Y-95963095D01*
X172409580Y-72357142D02*
X172457200Y-72309523D01*
X172457200Y-72309523D02*
X172504819Y-72166666D01*
X172504819Y-72166666D02*
X172504819Y-72071428D01*
X172504819Y-72071428D02*
X172457200Y-71928571D01*
X172457200Y-71928571D02*
X172361961Y-71833333D01*
X172361961Y-71833333D02*
X172266723Y-71785714D01*
X172266723Y-71785714D02*
X172076247Y-71738095D01*
X172076247Y-71738095D02*
X171933390Y-71738095D01*
X171933390Y-71738095D02*
X171742914Y-71785714D01*
X171742914Y-71785714D02*
X171647676Y-71833333D01*
X171647676Y-71833333D02*
X171552438Y-71928571D01*
X171552438Y-71928571D02*
X171504819Y-72071428D01*
X171504819Y-72071428D02*
X171504819Y-72166666D01*
X171504819Y-72166666D02*
X171552438Y-72309523D01*
X171552438Y-72309523D02*
X171600057Y-72357142D01*
X172504819Y-73309523D02*
X172504819Y-72738095D01*
X172504819Y-73023809D02*
X171504819Y-73023809D01*
X171504819Y-73023809D02*
X171647676Y-72928571D01*
X171647676Y-72928571D02*
X171742914Y-72833333D01*
X171742914Y-72833333D02*
X171790533Y-72738095D01*
X172504819Y-73785714D02*
X172504819Y-73976190D01*
X172504819Y-73976190D02*
X172457200Y-74071428D01*
X172457200Y-74071428D02*
X172409580Y-74119047D01*
X172409580Y-74119047D02*
X172266723Y-74214285D01*
X172266723Y-74214285D02*
X172076247Y-74261904D01*
X172076247Y-74261904D02*
X171695295Y-74261904D01*
X171695295Y-74261904D02*
X171600057Y-74214285D01*
X171600057Y-74214285D02*
X171552438Y-74166666D01*
X171552438Y-74166666D02*
X171504819Y-74071428D01*
X171504819Y-74071428D02*
X171504819Y-73880952D01*
X171504819Y-73880952D02*
X171552438Y-73785714D01*
X171552438Y-73785714D02*
X171600057Y-73738095D01*
X171600057Y-73738095D02*
X171695295Y-73690476D01*
X171695295Y-73690476D02*
X171933390Y-73690476D01*
X171933390Y-73690476D02*
X172028628Y-73738095D01*
X172028628Y-73738095D02*
X172076247Y-73785714D01*
X172076247Y-73785714D02*
X172123866Y-73880952D01*
X172123866Y-73880952D02*
X172123866Y-74071428D01*
X172123866Y-74071428D02*
X172076247Y-74166666D01*
X172076247Y-74166666D02*
X172028628Y-74214285D01*
X172028628Y-74214285D02*
X171933390Y-74261904D01*
X165159580Y-87457142D02*
X165207200Y-87409523D01*
X165207200Y-87409523D02*
X165254819Y-87266666D01*
X165254819Y-87266666D02*
X165254819Y-87171428D01*
X165254819Y-87171428D02*
X165207200Y-87028571D01*
X165207200Y-87028571D02*
X165111961Y-86933333D01*
X165111961Y-86933333D02*
X165016723Y-86885714D01*
X165016723Y-86885714D02*
X164826247Y-86838095D01*
X164826247Y-86838095D02*
X164683390Y-86838095D01*
X164683390Y-86838095D02*
X164492914Y-86885714D01*
X164492914Y-86885714D02*
X164397676Y-86933333D01*
X164397676Y-86933333D02*
X164302438Y-87028571D01*
X164302438Y-87028571D02*
X164254819Y-87171428D01*
X164254819Y-87171428D02*
X164254819Y-87266666D01*
X164254819Y-87266666D02*
X164302438Y-87409523D01*
X164302438Y-87409523D02*
X164350057Y-87457142D01*
X165254819Y-88409523D02*
X165254819Y-87838095D01*
X165254819Y-88123809D02*
X164254819Y-88123809D01*
X164254819Y-88123809D02*
X164397676Y-88028571D01*
X164397676Y-88028571D02*
X164492914Y-87933333D01*
X164492914Y-87933333D02*
X164540533Y-87838095D01*
X164254819Y-89314285D02*
X164254819Y-88838095D01*
X164254819Y-88838095D02*
X164731009Y-88790476D01*
X164731009Y-88790476D02*
X164683390Y-88838095D01*
X164683390Y-88838095D02*
X164635771Y-88933333D01*
X164635771Y-88933333D02*
X164635771Y-89171428D01*
X164635771Y-89171428D02*
X164683390Y-89266666D01*
X164683390Y-89266666D02*
X164731009Y-89314285D01*
X164731009Y-89314285D02*
X164826247Y-89361904D01*
X164826247Y-89361904D02*
X165064342Y-89361904D01*
X165064342Y-89361904D02*
X165159580Y-89314285D01*
X165159580Y-89314285D02*
X165207200Y-89266666D01*
X165207200Y-89266666D02*
X165254819Y-89171428D01*
X165254819Y-89171428D02*
X165254819Y-88933333D01*
X165254819Y-88933333D02*
X165207200Y-88838095D01*
X165207200Y-88838095D02*
X165159580Y-88790476D01*
X190109939Y-76415476D02*
X189109939Y-76415476D01*
X189109939Y-76415476D02*
X189109939Y-76796428D01*
X189109939Y-76796428D02*
X189157558Y-76891666D01*
X189157558Y-76891666D02*
X189205177Y-76939285D01*
X189205177Y-76939285D02*
X189300415Y-76986904D01*
X189300415Y-76986904D02*
X189443272Y-76986904D01*
X189443272Y-76986904D02*
X189538510Y-76939285D01*
X189538510Y-76939285D02*
X189586129Y-76891666D01*
X189586129Y-76891666D02*
X189633748Y-76796428D01*
X189633748Y-76796428D02*
X189633748Y-76415476D01*
X189109939Y-77605952D02*
X189109939Y-77796428D01*
X189109939Y-77796428D02*
X189157558Y-77891666D01*
X189157558Y-77891666D02*
X189252796Y-77986904D01*
X189252796Y-77986904D02*
X189443272Y-78034523D01*
X189443272Y-78034523D02*
X189776605Y-78034523D01*
X189776605Y-78034523D02*
X189967081Y-77986904D01*
X189967081Y-77986904D02*
X190062320Y-77891666D01*
X190062320Y-77891666D02*
X190109939Y-77796428D01*
X190109939Y-77796428D02*
X190109939Y-77605952D01*
X190109939Y-77605952D02*
X190062320Y-77510714D01*
X190062320Y-77510714D02*
X189967081Y-77415476D01*
X189967081Y-77415476D02*
X189776605Y-77367857D01*
X189776605Y-77367857D02*
X189443272Y-77367857D01*
X189443272Y-77367857D02*
X189252796Y-77415476D01*
X189252796Y-77415476D02*
X189157558Y-77510714D01*
X189157558Y-77510714D02*
X189109939Y-77605952D01*
X189109939Y-78367857D02*
X190109939Y-78605952D01*
X190109939Y-78605952D02*
X189395653Y-78796428D01*
X189395653Y-78796428D02*
X190109939Y-78986904D01*
X190109939Y-78986904D02*
X189109939Y-79225000D01*
X189586129Y-79605952D02*
X189586129Y-79939285D01*
X190109939Y-80082142D02*
X190109939Y-79605952D01*
X190109939Y-79605952D02*
X189109939Y-79605952D01*
X189109939Y-79605952D02*
X189109939Y-80082142D01*
X190109939Y-81082142D02*
X189633748Y-80748809D01*
X190109939Y-80510714D02*
X189109939Y-80510714D01*
X189109939Y-80510714D02*
X189109939Y-80891666D01*
X189109939Y-80891666D02*
X189157558Y-80986904D01*
X189157558Y-80986904D02*
X189205177Y-81034523D01*
X189205177Y-81034523D02*
X189300415Y-81082142D01*
X189300415Y-81082142D02*
X189443272Y-81082142D01*
X189443272Y-81082142D02*
X189538510Y-81034523D01*
X189538510Y-81034523D02*
X189586129Y-80986904D01*
X189586129Y-80986904D02*
X189633748Y-80891666D01*
X189633748Y-80891666D02*
X189633748Y-80510714D01*
X136830714Y-104006009D02*
X136687857Y-104053628D01*
X136687857Y-104053628D02*
X136640238Y-104101247D01*
X136640238Y-104101247D02*
X136592619Y-104196485D01*
X136592619Y-104196485D02*
X136592619Y-104339342D01*
X136592619Y-104339342D02*
X136640238Y-104434580D01*
X136640238Y-104434580D02*
X136687857Y-104482200D01*
X136687857Y-104482200D02*
X136783095Y-104529819D01*
X136783095Y-104529819D02*
X137164047Y-104529819D01*
X137164047Y-104529819D02*
X137164047Y-103529819D01*
X137164047Y-103529819D02*
X136830714Y-103529819D01*
X136830714Y-103529819D02*
X136735476Y-103577438D01*
X136735476Y-103577438D02*
X136687857Y-103625057D01*
X136687857Y-103625057D02*
X136640238Y-103720295D01*
X136640238Y-103720295D02*
X136640238Y-103815533D01*
X136640238Y-103815533D02*
X136687857Y-103910771D01*
X136687857Y-103910771D02*
X136735476Y-103958390D01*
X136735476Y-103958390D02*
X136830714Y-104006009D01*
X136830714Y-104006009D02*
X137164047Y-104006009D01*
X136306904Y-103529819D02*
X135735476Y-103529819D01*
X136021190Y-104529819D02*
X136021190Y-103529819D01*
X134878333Y-104529819D02*
X135449761Y-104529819D01*
X135164047Y-104529819D02*
X135164047Y-103529819D01*
X135164047Y-103529819D02*
X135259285Y-103672676D01*
X135259285Y-103672676D02*
X135354523Y-103767914D01*
X135354523Y-103767914D02*
X135449761Y-103815533D01*
X178404580Y-85982142D02*
X178452200Y-85934523D01*
X178452200Y-85934523D02*
X178499819Y-85791666D01*
X178499819Y-85791666D02*
X178499819Y-85696428D01*
X178499819Y-85696428D02*
X178452200Y-85553571D01*
X178452200Y-85553571D02*
X178356961Y-85458333D01*
X178356961Y-85458333D02*
X178261723Y-85410714D01*
X178261723Y-85410714D02*
X178071247Y-85363095D01*
X178071247Y-85363095D02*
X177928390Y-85363095D01*
X177928390Y-85363095D02*
X177737914Y-85410714D01*
X177737914Y-85410714D02*
X177642676Y-85458333D01*
X177642676Y-85458333D02*
X177547438Y-85553571D01*
X177547438Y-85553571D02*
X177499819Y-85696428D01*
X177499819Y-85696428D02*
X177499819Y-85791666D01*
X177499819Y-85791666D02*
X177547438Y-85934523D01*
X177547438Y-85934523D02*
X177595057Y-85982142D01*
X178499819Y-86934523D02*
X178499819Y-86363095D01*
X178499819Y-86648809D02*
X177499819Y-86648809D01*
X177499819Y-86648809D02*
X177642676Y-86553571D01*
X177642676Y-86553571D02*
X177737914Y-86458333D01*
X177737914Y-86458333D02*
X177785533Y-86363095D01*
X178499819Y-87886904D02*
X178499819Y-87315476D01*
X178499819Y-87601190D02*
X177499819Y-87601190D01*
X177499819Y-87601190D02*
X177642676Y-87505952D01*
X177642676Y-87505952D02*
X177737914Y-87410714D01*
X177737914Y-87410714D02*
X177785533Y-87315476D01*
X184175357Y-109129819D02*
X184508690Y-108653628D01*
X184746785Y-109129819D02*
X184746785Y-108129819D01*
X184746785Y-108129819D02*
X184365833Y-108129819D01*
X184365833Y-108129819D02*
X184270595Y-108177438D01*
X184270595Y-108177438D02*
X184222976Y-108225057D01*
X184222976Y-108225057D02*
X184175357Y-108320295D01*
X184175357Y-108320295D02*
X184175357Y-108463152D01*
X184175357Y-108463152D02*
X184222976Y-108558390D01*
X184222976Y-108558390D02*
X184270595Y-108606009D01*
X184270595Y-108606009D02*
X184365833Y-108653628D01*
X184365833Y-108653628D02*
X184746785Y-108653628D01*
X183222976Y-109129819D02*
X183794404Y-109129819D01*
X183508690Y-109129819D02*
X183508690Y-108129819D01*
X183508690Y-108129819D02*
X183603928Y-108272676D01*
X183603928Y-108272676D02*
X183699166Y-108367914D01*
X183699166Y-108367914D02*
X183794404Y-108415533D01*
X182365833Y-108463152D02*
X182365833Y-109129819D01*
X182603928Y-108082200D02*
X182842023Y-108796485D01*
X182842023Y-108796485D02*
X182222976Y-108796485D01*
X180204580Y-85357142D02*
X180252200Y-85309523D01*
X180252200Y-85309523D02*
X180299819Y-85166666D01*
X180299819Y-85166666D02*
X180299819Y-85071428D01*
X180299819Y-85071428D02*
X180252200Y-84928571D01*
X180252200Y-84928571D02*
X180156961Y-84833333D01*
X180156961Y-84833333D02*
X180061723Y-84785714D01*
X180061723Y-84785714D02*
X179871247Y-84738095D01*
X179871247Y-84738095D02*
X179728390Y-84738095D01*
X179728390Y-84738095D02*
X179537914Y-84785714D01*
X179537914Y-84785714D02*
X179442676Y-84833333D01*
X179442676Y-84833333D02*
X179347438Y-84928571D01*
X179347438Y-84928571D02*
X179299819Y-85071428D01*
X179299819Y-85071428D02*
X179299819Y-85166666D01*
X179299819Y-85166666D02*
X179347438Y-85309523D01*
X179347438Y-85309523D02*
X179395057Y-85357142D01*
X179395057Y-85738095D02*
X179347438Y-85785714D01*
X179347438Y-85785714D02*
X179299819Y-85880952D01*
X179299819Y-85880952D02*
X179299819Y-86119047D01*
X179299819Y-86119047D02*
X179347438Y-86214285D01*
X179347438Y-86214285D02*
X179395057Y-86261904D01*
X179395057Y-86261904D02*
X179490295Y-86309523D01*
X179490295Y-86309523D02*
X179585533Y-86309523D01*
X179585533Y-86309523D02*
X179728390Y-86261904D01*
X179728390Y-86261904D02*
X180299819Y-85690476D01*
X180299819Y-85690476D02*
X180299819Y-86309523D01*
X180299819Y-87261904D02*
X180299819Y-86690476D01*
X180299819Y-86976190D02*
X179299819Y-86976190D01*
X179299819Y-86976190D02*
X179442676Y-86880952D01*
X179442676Y-86880952D02*
X179537914Y-86785714D01*
X179537914Y-86785714D02*
X179585533Y-86690476D01*
X178476189Y-77204819D02*
X177857142Y-77204819D01*
X177857142Y-77204819D02*
X178190475Y-77585771D01*
X178190475Y-77585771D02*
X178047618Y-77585771D01*
X178047618Y-77585771D02*
X177952380Y-77633390D01*
X177952380Y-77633390D02*
X177904761Y-77681009D01*
X177904761Y-77681009D02*
X177857142Y-77776247D01*
X177857142Y-77776247D02*
X177857142Y-78014342D01*
X177857142Y-78014342D02*
X177904761Y-78109580D01*
X177904761Y-78109580D02*
X177952380Y-78157200D01*
X177952380Y-78157200D02*
X178047618Y-78204819D01*
X178047618Y-78204819D02*
X178333332Y-78204819D01*
X178333332Y-78204819D02*
X178428570Y-78157200D01*
X178428570Y-78157200D02*
X178476189Y-78109580D01*
X177428570Y-78109580D02*
X177380951Y-78157200D01*
X177380951Y-78157200D02*
X177428570Y-78204819D01*
X177428570Y-78204819D02*
X177476189Y-78157200D01*
X177476189Y-78157200D02*
X177428570Y-78109580D01*
X177428570Y-78109580D02*
X177428570Y-78204819D01*
X177047618Y-77204819D02*
X176428571Y-77204819D01*
X176428571Y-77204819D02*
X176761904Y-77585771D01*
X176761904Y-77585771D02*
X176619047Y-77585771D01*
X176619047Y-77585771D02*
X176523809Y-77633390D01*
X176523809Y-77633390D02*
X176476190Y-77681009D01*
X176476190Y-77681009D02*
X176428571Y-77776247D01*
X176428571Y-77776247D02*
X176428571Y-78014342D01*
X176428571Y-78014342D02*
X176476190Y-78109580D01*
X176476190Y-78109580D02*
X176523809Y-78157200D01*
X176523809Y-78157200D02*
X176619047Y-78204819D01*
X176619047Y-78204819D02*
X176904761Y-78204819D01*
X176904761Y-78204819D02*
X176999999Y-78157200D01*
X176999999Y-78157200D02*
X177047618Y-78109580D01*
X176142856Y-77204819D02*
X175809523Y-78204819D01*
X175809523Y-78204819D02*
X175476190Y-77204819D01*
X183392857Y-99109580D02*
X183440476Y-99157200D01*
X183440476Y-99157200D02*
X183583333Y-99204819D01*
X183583333Y-99204819D02*
X183678571Y-99204819D01*
X183678571Y-99204819D02*
X183821428Y-99157200D01*
X183821428Y-99157200D02*
X183916666Y-99061961D01*
X183916666Y-99061961D02*
X183964285Y-98966723D01*
X183964285Y-98966723D02*
X184011904Y-98776247D01*
X184011904Y-98776247D02*
X184011904Y-98633390D01*
X184011904Y-98633390D02*
X183964285Y-98442914D01*
X183964285Y-98442914D02*
X183916666Y-98347676D01*
X183916666Y-98347676D02*
X183821428Y-98252438D01*
X183821428Y-98252438D02*
X183678571Y-98204819D01*
X183678571Y-98204819D02*
X183583333Y-98204819D01*
X183583333Y-98204819D02*
X183440476Y-98252438D01*
X183440476Y-98252438D02*
X183392857Y-98300057D01*
X183011904Y-98300057D02*
X182964285Y-98252438D01*
X182964285Y-98252438D02*
X182869047Y-98204819D01*
X182869047Y-98204819D02*
X182630952Y-98204819D01*
X182630952Y-98204819D02*
X182535714Y-98252438D01*
X182535714Y-98252438D02*
X182488095Y-98300057D01*
X182488095Y-98300057D02*
X182440476Y-98395295D01*
X182440476Y-98395295D02*
X182440476Y-98490533D01*
X182440476Y-98490533D02*
X182488095Y-98633390D01*
X182488095Y-98633390D02*
X183059523Y-99204819D01*
X183059523Y-99204819D02*
X182440476Y-99204819D01*
X181821428Y-98204819D02*
X181726190Y-98204819D01*
X181726190Y-98204819D02*
X181630952Y-98252438D01*
X181630952Y-98252438D02*
X181583333Y-98300057D01*
X181583333Y-98300057D02*
X181535714Y-98395295D01*
X181535714Y-98395295D02*
X181488095Y-98585771D01*
X181488095Y-98585771D02*
X181488095Y-98823866D01*
X181488095Y-98823866D02*
X181535714Y-99014342D01*
X181535714Y-99014342D02*
X181583333Y-99109580D01*
X181583333Y-99109580D02*
X181630952Y-99157200D01*
X181630952Y-99157200D02*
X181726190Y-99204819D01*
X181726190Y-99204819D02*
X181821428Y-99204819D01*
X181821428Y-99204819D02*
X181916666Y-99157200D01*
X181916666Y-99157200D02*
X181964285Y-99109580D01*
X181964285Y-99109580D02*
X182011904Y-99014342D01*
X182011904Y-99014342D02*
X182059523Y-98823866D01*
X182059523Y-98823866D02*
X182059523Y-98585771D01*
X182059523Y-98585771D02*
X182011904Y-98395295D01*
X182011904Y-98395295D02*
X181964285Y-98300057D01*
X181964285Y-98300057D02*
X181916666Y-98252438D01*
X181916666Y-98252438D02*
X181821428Y-98204819D01*
X193399819Y-105983333D02*
X192923628Y-105650000D01*
X193399819Y-105411905D02*
X192399819Y-105411905D01*
X192399819Y-105411905D02*
X192399819Y-105792857D01*
X192399819Y-105792857D02*
X192447438Y-105888095D01*
X192447438Y-105888095D02*
X192495057Y-105935714D01*
X192495057Y-105935714D02*
X192590295Y-105983333D01*
X192590295Y-105983333D02*
X192733152Y-105983333D01*
X192733152Y-105983333D02*
X192828390Y-105935714D01*
X192828390Y-105935714D02*
X192876009Y-105888095D01*
X192876009Y-105888095D02*
X192923628Y-105792857D01*
X192923628Y-105792857D02*
X192923628Y-105411905D01*
X193399819Y-106459524D02*
X193399819Y-106650000D01*
X193399819Y-106650000D02*
X193352200Y-106745238D01*
X193352200Y-106745238D02*
X193304580Y-106792857D01*
X193304580Y-106792857D02*
X193161723Y-106888095D01*
X193161723Y-106888095D02*
X192971247Y-106935714D01*
X192971247Y-106935714D02*
X192590295Y-106935714D01*
X192590295Y-106935714D02*
X192495057Y-106888095D01*
X192495057Y-106888095D02*
X192447438Y-106840476D01*
X192447438Y-106840476D02*
X192399819Y-106745238D01*
X192399819Y-106745238D02*
X192399819Y-106554762D01*
X192399819Y-106554762D02*
X192447438Y-106459524D01*
X192447438Y-106459524D02*
X192495057Y-106411905D01*
X192495057Y-106411905D02*
X192590295Y-106364286D01*
X192590295Y-106364286D02*
X192828390Y-106364286D01*
X192828390Y-106364286D02*
X192923628Y-106411905D01*
X192923628Y-106411905D02*
X192971247Y-106459524D01*
X192971247Y-106459524D02*
X193018866Y-106554762D01*
X193018866Y-106554762D02*
X193018866Y-106745238D01*
X193018866Y-106745238D02*
X192971247Y-106840476D01*
X192971247Y-106840476D02*
X192923628Y-106888095D01*
X192923628Y-106888095D02*
X192828390Y-106935714D01*
X190787857Y-112829819D02*
X191121190Y-112353628D01*
X191359285Y-112829819D02*
X191359285Y-111829819D01*
X191359285Y-111829819D02*
X190978333Y-111829819D01*
X190978333Y-111829819D02*
X190883095Y-111877438D01*
X190883095Y-111877438D02*
X190835476Y-111925057D01*
X190835476Y-111925057D02*
X190787857Y-112020295D01*
X190787857Y-112020295D02*
X190787857Y-112163152D01*
X190787857Y-112163152D02*
X190835476Y-112258390D01*
X190835476Y-112258390D02*
X190883095Y-112306009D01*
X190883095Y-112306009D02*
X190978333Y-112353628D01*
X190978333Y-112353628D02*
X191359285Y-112353628D01*
X189835476Y-112829819D02*
X190406904Y-112829819D01*
X190121190Y-112829819D02*
X190121190Y-111829819D01*
X190121190Y-111829819D02*
X190216428Y-111972676D01*
X190216428Y-111972676D02*
X190311666Y-112067914D01*
X190311666Y-112067914D02*
X190406904Y-112115533D01*
X188978333Y-111829819D02*
X189168809Y-111829819D01*
X189168809Y-111829819D02*
X189264047Y-111877438D01*
X189264047Y-111877438D02*
X189311666Y-111925057D01*
X189311666Y-111925057D02*
X189406904Y-112067914D01*
X189406904Y-112067914D02*
X189454523Y-112258390D01*
X189454523Y-112258390D02*
X189454523Y-112639342D01*
X189454523Y-112639342D02*
X189406904Y-112734580D01*
X189406904Y-112734580D02*
X189359285Y-112782200D01*
X189359285Y-112782200D02*
X189264047Y-112829819D01*
X189264047Y-112829819D02*
X189073571Y-112829819D01*
X189073571Y-112829819D02*
X188978333Y-112782200D01*
X188978333Y-112782200D02*
X188930714Y-112734580D01*
X188930714Y-112734580D02*
X188883095Y-112639342D01*
X188883095Y-112639342D02*
X188883095Y-112401247D01*
X188883095Y-112401247D02*
X188930714Y-112306009D01*
X188930714Y-112306009D02*
X188978333Y-112258390D01*
X188978333Y-112258390D02*
X189073571Y-112210771D01*
X189073571Y-112210771D02*
X189264047Y-112210771D01*
X189264047Y-112210771D02*
X189359285Y-112258390D01*
X189359285Y-112258390D02*
X189406904Y-112306009D01*
X189406904Y-112306009D02*
X189454523Y-112401247D01*
X189226009Y-114261904D02*
X189273628Y-114404761D01*
X189273628Y-114404761D02*
X189321247Y-114452380D01*
X189321247Y-114452380D02*
X189416485Y-114499999D01*
X189416485Y-114499999D02*
X189559342Y-114499999D01*
X189559342Y-114499999D02*
X189654580Y-114452380D01*
X189654580Y-114452380D02*
X189702200Y-114404761D01*
X189702200Y-114404761D02*
X189749819Y-114309523D01*
X189749819Y-114309523D02*
X189749819Y-113928571D01*
X189749819Y-113928571D02*
X188749819Y-113928571D01*
X188749819Y-113928571D02*
X188749819Y-114261904D01*
X188749819Y-114261904D02*
X188797438Y-114357142D01*
X188797438Y-114357142D02*
X188845057Y-114404761D01*
X188845057Y-114404761D02*
X188940295Y-114452380D01*
X188940295Y-114452380D02*
X189035533Y-114452380D01*
X189035533Y-114452380D02*
X189130771Y-114404761D01*
X189130771Y-114404761D02*
X189178390Y-114357142D01*
X189178390Y-114357142D02*
X189226009Y-114261904D01*
X189226009Y-114261904D02*
X189226009Y-113928571D01*
X189464104Y-114880952D02*
X189464104Y-115357142D01*
X189749819Y-114785714D02*
X188749819Y-115119047D01*
X188749819Y-115119047D02*
X189749819Y-115452380D01*
X188749819Y-115642857D02*
X188749819Y-116214285D01*
X189749819Y-115928571D02*
X188749819Y-115928571D01*
X188749819Y-116404762D02*
X188749819Y-116976190D01*
X189749819Y-116690476D02*
X188749819Y-116690476D01*
X189368866Y-117309524D02*
X189368866Y-118071429D01*
X189749819Y-117690476D02*
X188987914Y-117690476D01*
X175368808Y-85229819D02*
X175035475Y-86229819D01*
X175035475Y-86229819D02*
X174702142Y-85229819D01*
X174368808Y-86229819D02*
X174368808Y-85563152D01*
X174368808Y-85229819D02*
X174416427Y-85277438D01*
X174416427Y-85277438D02*
X174368808Y-85325057D01*
X174368808Y-85325057D02*
X174321189Y-85277438D01*
X174321189Y-85277438D02*
X174368808Y-85229819D01*
X174368808Y-85229819D02*
X174368808Y-85325057D01*
X173892618Y-85563152D02*
X173892618Y-86229819D01*
X173892618Y-85658390D02*
X173844999Y-85610771D01*
X173844999Y-85610771D02*
X173749761Y-85563152D01*
X173749761Y-85563152D02*
X173606904Y-85563152D01*
X173606904Y-85563152D02*
X173511666Y-85610771D01*
X173511666Y-85610771D02*
X173464047Y-85706009D01*
X173464047Y-85706009D02*
X173464047Y-86229819D01*
X179807319Y-110882142D02*
X179331128Y-110548809D01*
X179807319Y-110310714D02*
X178807319Y-110310714D01*
X178807319Y-110310714D02*
X178807319Y-110691666D01*
X178807319Y-110691666D02*
X178854938Y-110786904D01*
X178854938Y-110786904D02*
X178902557Y-110834523D01*
X178902557Y-110834523D02*
X178997795Y-110882142D01*
X178997795Y-110882142D02*
X179140652Y-110882142D01*
X179140652Y-110882142D02*
X179235890Y-110834523D01*
X179235890Y-110834523D02*
X179283509Y-110786904D01*
X179283509Y-110786904D02*
X179331128Y-110691666D01*
X179331128Y-110691666D02*
X179331128Y-110310714D01*
X179807319Y-111834523D02*
X179807319Y-111263095D01*
X179807319Y-111548809D02*
X178807319Y-111548809D01*
X178807319Y-111548809D02*
X178950176Y-111453571D01*
X178950176Y-111453571D02*
X179045414Y-111358333D01*
X179045414Y-111358333D02*
X179093033Y-111263095D01*
X178807319Y-112167857D02*
X178807319Y-112786904D01*
X178807319Y-112786904D02*
X179188271Y-112453571D01*
X179188271Y-112453571D02*
X179188271Y-112596428D01*
X179188271Y-112596428D02*
X179235890Y-112691666D01*
X179235890Y-112691666D02*
X179283509Y-112739285D01*
X179283509Y-112739285D02*
X179378747Y-112786904D01*
X179378747Y-112786904D02*
X179616842Y-112786904D01*
X179616842Y-112786904D02*
X179712080Y-112739285D01*
X179712080Y-112739285D02*
X179759700Y-112691666D01*
X179759700Y-112691666D02*
X179807319Y-112596428D01*
X179807319Y-112596428D02*
X179807319Y-112310714D01*
X179807319Y-112310714D02*
X179759700Y-112215476D01*
X179759700Y-112215476D02*
X179712080Y-112167857D01*
X185645238Y-115600057D02*
X185740476Y-115552438D01*
X185740476Y-115552438D02*
X185835714Y-115457200D01*
X185835714Y-115457200D02*
X185978571Y-115314342D01*
X185978571Y-115314342D02*
X186073809Y-115266723D01*
X186073809Y-115266723D02*
X186169047Y-115266723D01*
X186121428Y-115504819D02*
X186216666Y-115457200D01*
X186216666Y-115457200D02*
X186311904Y-115361961D01*
X186311904Y-115361961D02*
X186359523Y-115171485D01*
X186359523Y-115171485D02*
X186359523Y-114838152D01*
X186359523Y-114838152D02*
X186311904Y-114647676D01*
X186311904Y-114647676D02*
X186216666Y-114552438D01*
X186216666Y-114552438D02*
X186121428Y-114504819D01*
X186121428Y-114504819D02*
X185930952Y-114504819D01*
X185930952Y-114504819D02*
X185835714Y-114552438D01*
X185835714Y-114552438D02*
X185740476Y-114647676D01*
X185740476Y-114647676D02*
X185692857Y-114838152D01*
X185692857Y-114838152D02*
X185692857Y-115171485D01*
X185692857Y-115171485D02*
X185740476Y-115361961D01*
X185740476Y-115361961D02*
X185835714Y-115457200D01*
X185835714Y-115457200D02*
X185930952Y-115504819D01*
X185930952Y-115504819D02*
X186121428Y-115504819D01*
X185311904Y-114600057D02*
X185264285Y-114552438D01*
X185264285Y-114552438D02*
X185169047Y-114504819D01*
X185169047Y-114504819D02*
X184930952Y-114504819D01*
X184930952Y-114504819D02*
X184835714Y-114552438D01*
X184835714Y-114552438D02*
X184788095Y-114600057D01*
X184788095Y-114600057D02*
X184740476Y-114695295D01*
X184740476Y-114695295D02*
X184740476Y-114790533D01*
X184740476Y-114790533D02*
X184788095Y-114933390D01*
X184788095Y-114933390D02*
X185359523Y-115504819D01*
X185359523Y-115504819D02*
X184740476Y-115504819D01*
X189002438Y-104738095D02*
X188954819Y-104642857D01*
X188954819Y-104642857D02*
X188954819Y-104500000D01*
X188954819Y-104500000D02*
X189002438Y-104357143D01*
X189002438Y-104357143D02*
X189097676Y-104261905D01*
X189097676Y-104261905D02*
X189192914Y-104214286D01*
X189192914Y-104214286D02*
X189383390Y-104166667D01*
X189383390Y-104166667D02*
X189526247Y-104166667D01*
X189526247Y-104166667D02*
X189716723Y-104214286D01*
X189716723Y-104214286D02*
X189811961Y-104261905D01*
X189811961Y-104261905D02*
X189907200Y-104357143D01*
X189907200Y-104357143D02*
X189954819Y-104500000D01*
X189954819Y-104500000D02*
X189954819Y-104595238D01*
X189954819Y-104595238D02*
X189907200Y-104738095D01*
X189907200Y-104738095D02*
X189859580Y-104785714D01*
X189859580Y-104785714D02*
X189526247Y-104785714D01*
X189526247Y-104785714D02*
X189526247Y-104595238D01*
X189954819Y-105214286D02*
X188954819Y-105214286D01*
X188954819Y-105214286D02*
X189954819Y-105785714D01*
X189954819Y-105785714D02*
X188954819Y-105785714D01*
X189954819Y-106261905D02*
X188954819Y-106261905D01*
X188954819Y-106261905D02*
X188954819Y-106500000D01*
X188954819Y-106500000D02*
X189002438Y-106642857D01*
X189002438Y-106642857D02*
X189097676Y-106738095D01*
X189097676Y-106738095D02*
X189192914Y-106785714D01*
X189192914Y-106785714D02*
X189383390Y-106833333D01*
X189383390Y-106833333D02*
X189526247Y-106833333D01*
X189526247Y-106833333D02*
X189716723Y-106785714D01*
X189716723Y-106785714D02*
X189811961Y-106738095D01*
X189811961Y-106738095D02*
X189907200Y-106642857D01*
X189907200Y-106642857D02*
X189954819Y-106500000D01*
X189954819Y-106500000D02*
X189954819Y-106261905D01*
D11*
%TO.C,L1*%
X174735000Y-89263748D02*
X174735000Y-89786252D01*
X176955000Y-89263748D02*
X176955000Y-89786252D01*
%TO.C,C17*%
X167435000Y-84365580D02*
X167435000Y-84084420D01*
X168455000Y-84365580D02*
X168455000Y-84084420D01*
%TO.C,C14*%
X181735000Y-91534420D02*
X181735000Y-91815580D01*
X182755000Y-91534420D02*
X182755000Y-91815580D01*
%TO.C,TP2*%
X185745000Y-92350000D02*
X187145000Y-92350000D01*
X185745000Y-93750000D02*
X185745000Y-92350000D01*
X187145000Y-92350000D02*
X187145000Y-93750000D01*
X187145000Y-93750000D02*
X185745000Y-93750000D01*
%TO.C,R10*%
X190822500Y-104012258D02*
X190822500Y-103537742D01*
X191867500Y-104012258D02*
X191867500Y-103537742D01*
%TO.C,C12*%
X172388748Y-91465000D02*
X172911252Y-91465000D01*
X172388748Y-92935000D02*
X172911252Y-92935000D01*
%TO.C,C16*%
X165835000Y-84390580D02*
X165835000Y-84109420D01*
X166855000Y-84390580D02*
X166855000Y-84109420D01*
%TO.C,C13*%
X183265000Y-91188748D02*
X183265000Y-91711252D01*
X184735000Y-91188748D02*
X184735000Y-91711252D01*
%TO.C,R17*%
X183287258Y-114777500D02*
X182812742Y-114777500D01*
X183287258Y-115822500D02*
X182812742Y-115822500D01*
%TO.C,U4*%
X169197500Y-81125000D02*
X169197500Y-81925000D01*
X169197500Y-82725000D02*
X169197500Y-81925000D01*
X172317500Y-81125000D02*
X172317500Y-81925000D01*
X172317500Y-82725000D02*
X172317500Y-81925000D01*
X172597500Y-83465000D02*
X172267500Y-83225000D01*
X172597500Y-82985000D01*
X172597500Y-83465000D01*
G36*
X172597500Y-83465000D02*
G01*
X172267500Y-83225000D01*
X172597500Y-82985000D01*
X172597500Y-83465000D01*
G37*
%TO.C,C18*%
X174385580Y-81715000D02*
X174104420Y-81715000D01*
X174385580Y-82735000D02*
X174104420Y-82735000D01*
%TO.C,R15*%
X187020242Y-110352500D02*
X187494758Y-110352500D01*
X187020242Y-111397500D02*
X187494758Y-111397500D01*
%TO.C,J3*%
X193395000Y-91675000D02*
X191395000Y-91675000D01*
X193395000Y-101075000D02*
X191395000Y-101075000D01*
X197195000Y-91675000D02*
X195295000Y-91675000D01*
X197195000Y-101075000D02*
X195295000Y-101075000D01*
X197195000Y-101075000D02*
X197195000Y-91675000D01*
%TO.C,U5*%
X176735000Y-92065000D02*
X177210000Y-92065000D01*
X176735000Y-92540000D02*
X176735000Y-92065000D01*
X176735000Y-95810000D02*
X176735000Y-96285000D01*
X176735000Y-96285000D02*
X177210000Y-96285000D01*
X180655000Y-92065000D02*
X180480000Y-92065000D01*
X180955000Y-92305000D02*
X180955000Y-92540000D01*
X180955000Y-95810000D02*
X180955000Y-96285000D01*
X180955000Y-96285000D02*
X180480000Y-96285000D01*
X180955000Y-92065000D02*
X180715000Y-91735000D01*
X181195000Y-91735000D01*
X180955000Y-92065000D01*
G36*
X180955000Y-92065000D02*
G01*
X180715000Y-91735000D01*
X181195000Y-91735000D01*
X180955000Y-92065000D01*
G37*
%TO.C,C19*%
X171415000Y-75938748D02*
X171415000Y-76461252D01*
X172885000Y-75938748D02*
X172885000Y-76461252D01*
%TO.C,C15*%
X164235000Y-84390580D02*
X164235000Y-84109420D01*
X165255000Y-84390580D02*
X165255000Y-84109420D01*
%TO.C,SW4*%
X190735000Y-74865000D02*
X190735000Y-75385000D01*
X190735000Y-74865000D02*
X191245000Y-74865000D01*
X190735000Y-75385000D02*
X191245000Y-75385000D01*
X190735000Y-82065000D02*
X190735000Y-82585000D01*
X190735000Y-82065000D02*
X191245000Y-82065000D01*
X190735000Y-82585000D02*
X191245000Y-82585000D01*
X193845000Y-74865000D02*
X195945000Y-74865000D01*
X193845000Y-75385000D02*
X194075000Y-75385000D01*
X193845000Y-82065000D02*
X194075000Y-82065000D01*
X193845000Y-82585000D02*
X195945000Y-82585000D01*
X194075000Y-75385000D02*
X194075000Y-75925000D01*
X194075000Y-77025000D02*
X194075000Y-80425000D01*
X194075000Y-81525000D02*
X194075000Y-82065000D01*
%TO.C,BT1*%
X93715000Y-99775000D02*
X91215000Y-99775000D01*
X96325000Y-95355000D02*
X96325000Y-102335000D01*
X96325000Y-116215000D02*
X96325000Y-109215000D01*
X173605000Y-95335000D02*
X96325000Y-95335000D01*
X173605000Y-102335000D02*
X173605000Y-95335000D01*
X173605000Y-109215000D02*
X173605000Y-116215000D01*
X173605000Y-116215000D02*
X96325000Y-116215000D01*
X176215000Y-99775000D02*
X178715000Y-99775000D01*
X177465000Y-98525000D02*
X177465000Y-101025000D01*
X177965000Y-102335000D02*
X173605000Y-102335000D01*
%TO.C,C11*%
X177535000Y-90115580D02*
X177535000Y-89834420D01*
X178555000Y-90115580D02*
X178555000Y-89834420D01*
%TO.C,R14*%
X183719758Y-109552500D02*
X183245242Y-109552500D01*
X183719758Y-110597500D02*
X183245242Y-110597500D01*
%TO.C,C21*%
X179110000Y-89513748D02*
X179110000Y-90036252D01*
X180580000Y-89513748D02*
X180580000Y-90036252D01*
%TO.C,TP3*%
X173645000Y-76925000D02*
X175045000Y-76925000D01*
X173645000Y-78325000D02*
X173645000Y-76925000D01*
X175045000Y-76925000D02*
X175045000Y-78325000D01*
X175045000Y-78325000D02*
X173645000Y-78325000D01*
%TO.C,C20*%
X179811252Y-98015000D02*
X179288748Y-98015000D01*
X179811252Y-99485000D02*
X179288748Y-99485000D01*
%TO.C,R9*%
X192422500Y-103987258D02*
X192422500Y-103512742D01*
X193467500Y-103987258D02*
X193467500Y-103512742D01*
%TO.C,R16*%
X187482258Y-111852500D02*
X187007742Y-111852500D01*
X187482258Y-112897500D02*
X187007742Y-112897500D01*
%TO.C,TP5*%
X186995000Y-113625000D02*
X188395000Y-113625000D01*
X186995000Y-115025000D02*
X186995000Y-113625000D01*
X188395000Y-113625000D02*
X188395000Y-115025000D01*
X188395000Y-115025000D02*
X186995000Y-115025000D01*
%TO.C,TP1*%
X173645000Y-83525000D02*
X175045000Y-83525000D01*
X173645000Y-84925000D02*
X173645000Y-83525000D01*
X175045000Y-83525000D02*
X175045000Y-84925000D01*
X175045000Y-84925000D02*
X173645000Y-84925000D01*
%TO.C,R13*%
X180260000Y-111762258D02*
X180260000Y-111287742D01*
X181305000Y-111762258D02*
X181305000Y-111287742D01*
%TO.C,Q2*%
X182832500Y-111015000D02*
X183632500Y-111015000D01*
X182832500Y-114135000D02*
X183632500Y-114135000D01*
X184432500Y-111015000D02*
X183632500Y-111015000D01*
X184432500Y-114135000D02*
X183632500Y-114135000D01*
X182572500Y-114415000D02*
X182092500Y-114415000D01*
X182332500Y-114085000D01*
X182572500Y-114415000D01*
G36*
X182572500Y-114415000D02*
G01*
X182092500Y-114415000D01*
X182332500Y-114085000D01*
X182572500Y-114415000D01*
G37*
%TO.C,TP4*%
X188845000Y-102075000D02*
X190245000Y-102075000D01*
X188845000Y-103475000D02*
X188845000Y-102075000D01*
X190245000Y-102075000D02*
X190245000Y-103475000D01*
X190245000Y-103475000D02*
X188845000Y-103475000D01*
%TD*%
%LPC*%
D12*
%TO.C,J1*%
X100575000Y-88500000D03*
D13*
X100575000Y-85960000D03*
X100575000Y-83420000D03*
X100575000Y-80880000D03*
%TD*%
%TO.C,J2*%
X161550000Y-86050000D03*
X161550000Y-83510000D03*
X161550000Y-80970000D03*
X161550000Y-78430000D03*
X161550000Y-75890000D03*
X161550000Y-73350000D03*
X161550000Y-70810000D03*
D12*
X161550000Y-68270000D03*
D14*
X160550000Y-92070000D03*
X160550000Y-62070000D03*
X109550000Y-92070000D03*
X109550000Y-62070000D03*
%TD*%
D15*
%TO.C,SW1*%
X91685000Y-66725000D03*
X91685000Y-69725000D03*
%TD*%
D16*
%TO.C,L1*%
X175845000Y-90600000D03*
X175845000Y-88450000D03*
%TD*%
D17*
%TO.C,C17*%
X167945000Y-83450000D03*
X167945000Y-85000000D03*
%TD*%
D18*
%TO.C,C14*%
X182245000Y-92450000D03*
X182245000Y-90900000D03*
%TD*%
D19*
%TO.C,TP2*%
X186445000Y-93050000D03*
%TD*%
D20*
%TO.C,R10*%
X191345000Y-102950000D03*
X191345000Y-104600000D03*
%TD*%
D21*
%TO.C,C12*%
X173600000Y-92200000D03*
X171700000Y-92200000D03*
%TD*%
D17*
%TO.C,C16*%
X166345000Y-83475000D03*
X166345000Y-85025000D03*
%TD*%
D22*
%TO.C,C13*%
X184000000Y-92400000D03*
X184000000Y-90500000D03*
%TD*%
D23*
%TO.C,R17*%
X182225000Y-115300000D03*
X183875000Y-115300000D03*
%TD*%
D24*
%TO.C,U4*%
X171707500Y-83062500D03*
X170757500Y-83062500D03*
X169807500Y-83062500D03*
X169807500Y-80787500D03*
X171707500Y-80787500D03*
%TD*%
D25*
%TO.C,C18*%
X173470000Y-82225000D03*
X175020000Y-82225000D03*
%TD*%
D26*
%TO.C,R15*%
X188082500Y-110875000D03*
X186432500Y-110875000D03*
%TD*%
D27*
%TO.C,J3*%
X190695000Y-93485000D03*
X190695000Y-99265000D03*
D28*
X189250000Y-93125000D03*
X189250000Y-93925000D03*
D29*
X189250000Y-95125000D03*
X189250000Y-96125000D03*
X189250000Y-96625000D03*
X189250000Y-97625000D03*
D28*
X189250000Y-98825000D03*
X189250000Y-99625000D03*
X189250000Y-99625000D03*
X189250000Y-98825000D03*
D29*
X189250000Y-98125000D03*
X189250000Y-97125000D03*
X189250000Y-95625000D03*
X189250000Y-94625000D03*
D28*
X189250000Y-93925000D03*
X189250000Y-93125000D03*
D30*
X194345000Y-92055000D03*
D31*
X190165000Y-92055000D03*
D30*
X194345000Y-100695000D03*
D31*
X190165000Y-100695000D03*
%TD*%
D32*
%TO.C,U5*%
X180807500Y-92925000D03*
X180807500Y-93425000D03*
X180807500Y-93925000D03*
X180807500Y-94425000D03*
X180807500Y-94925000D03*
X180807500Y-95425000D03*
D33*
X180095000Y-96137500D03*
X179595000Y-96137500D03*
X179095000Y-96137500D03*
X178595000Y-96137500D03*
X178095000Y-96137500D03*
X177595000Y-96137500D03*
D32*
X176882500Y-95425000D03*
X176882500Y-94925000D03*
X176882500Y-94425000D03*
X176882500Y-93925000D03*
X176882500Y-93425000D03*
X176882500Y-92925000D03*
D33*
X177595000Y-92212500D03*
X178095000Y-92212500D03*
X178595000Y-92212500D03*
X179095000Y-92212500D03*
X179595000Y-92212500D03*
X180095000Y-92212500D03*
D34*
X178845000Y-94175000D03*
%TD*%
D22*
%TO.C,C19*%
X172150000Y-77150000D03*
X172150000Y-75250000D03*
%TD*%
D17*
%TO.C,C15*%
X164745000Y-83475000D03*
X164745000Y-85025000D03*
%TD*%
D35*
%TO.C,SW4*%
X192555000Y-82225000D03*
X192555000Y-75215000D03*
D36*
X195045000Y-80975000D03*
X195045000Y-76475000D03*
%TD*%
D37*
%TO.C,BT1*%
X170895000Y-97775000D03*
D38*
X162565000Y-113775000D03*
X107365000Y-97775000D03*
D39*
X174295000Y-105775000D03*
X95635000Y-105775000D03*
%TD*%
D17*
%TO.C,C11*%
X178045000Y-89200000D03*
X178045000Y-90750000D03*
%TD*%
D23*
%TO.C,R14*%
X182657500Y-110075000D03*
X184307500Y-110075000D03*
%TD*%
D22*
%TO.C,C21*%
X179845000Y-90725000D03*
X179845000Y-88825000D03*
%TD*%
D19*
%TO.C,TP3*%
X174345000Y-77625000D03*
%TD*%
D40*
%TO.C,C20*%
X178600000Y-98750000D03*
X180500000Y-98750000D03*
%TD*%
D20*
%TO.C,R9*%
X192945000Y-102925000D03*
X192945000Y-104575000D03*
%TD*%
D23*
%TO.C,R16*%
X186420000Y-112375000D03*
X188070000Y-112375000D03*
%TD*%
D19*
%TO.C,TP5*%
X187695000Y-114325000D03*
%TD*%
%TO.C,TP1*%
X174345000Y-84225000D03*
%TD*%
D20*
%TO.C,R13*%
X180782500Y-110700000D03*
X180782500Y-112350000D03*
%TD*%
D41*
%TO.C,Q2*%
X182495000Y-113525000D03*
X182495000Y-112575000D03*
X182495000Y-111625000D03*
X184770000Y-111625000D03*
X184770000Y-112575000D03*
X184770000Y-113525000D03*
%TD*%
D19*
%TO.C,TP4*%
X189545000Y-102775000D03*
%TD*%
%LPD*%
M02*
