%TF.GenerationSoftware,KiCad,Pcbnew,8.0.8-8.0.8-0~ubuntu24.04.1*%
%TF.CreationDate,2025-01-24T14:48:35+01:00*%
%TF.ProjectId,leany,6c65616e-792e-46b6-9963-61645f706362,rev?*%
%TF.SameCoordinates,Original*%
%TF.FileFunction,Legend,Top*%
%TF.FilePolarity,Positive*%
%FSLAX46Y46*%
G04 Gerber Fmt 4.6, Leading zero omitted, Abs format (unit mm)*
G04 Created by KiCad (PCBNEW 8.0.8-8.0.8-0~ubuntu24.04.1) date 2025-01-24 14:48:35*
%MOMM*%
%LPD*%
G01*
G04 APERTURE LIST*
G04 Aperture macros list*
%AMRoundRect*
0 Rectangle with rounded corners*
0 $1 Rounding radius*
0 $2 $3 $4 $5 $6 $7 $8 $9 X,Y pos of 4 corners*
0 Add a 4 corners polygon primitive as box body*
4,1,4,$2,$3,$4,$5,$6,$7,$8,$9,$2,$3,0*
0 Add four circle primitives for the rounded corners*
1,1,$1+$1,$2,$3*
1,1,$1+$1,$4,$5*
1,1,$1+$1,$6,$7*
1,1,$1+$1,$8,$9*
0 Add four rect primitives between the rounded corners*
20,1,$1+$1,$2,$3,$4,$5,0*
20,1,$1+$1,$4,$5,$6,$7,0*
20,1,$1+$1,$6,$7,$8,$9,0*
20,1,$1+$1,$8,$9,$2,$3,0*%
G04 Aperture macros list end*
%ADD10C,0.300000*%
%ADD11C,0.150000*%
%ADD12C,0.152400*%
%ADD13C,0.508000*%
%ADD14C,0.120000*%
%ADD15C,0.100000*%
%ADD16C,0.200000*%
%ADD17R,6.000001X2.000000*%
%ADD18R,3.500001X2.000000*%
%ADD19R,1.000000X1.000000*%
%ADD20RoundRect,0.250000X-0.250000X-0.475000X0.250000X-0.475000X0.250000X0.475000X-0.250000X0.475000X0*%
%ADD21RoundRect,0.200000X-0.200000X-0.275000X0.200000X-0.275000X0.200000X0.275000X-0.200000X0.275000X0*%
%ADD22RoundRect,0.225000X-0.225000X-0.250000X0.225000X-0.250000X0.225000X0.250000X-0.225000X0.250000X0*%
%ADD23C,2.100000*%
%ADD24C,1.750000*%
%ADD25RoundRect,0.200000X0.275000X-0.200000X0.275000X0.200000X-0.275000X0.200000X-0.275000X-0.200000X0*%
%ADD26RoundRect,0.087500X-0.225000X-0.087500X0.225000X-0.087500X0.225000X0.087500X-0.225000X0.087500X0*%
%ADD27RoundRect,0.087500X-0.087500X-0.225000X0.087500X-0.225000X0.087500X0.225000X-0.087500X0.225000X0*%
%ADD28RoundRect,0.150000X-0.587500X-0.150000X0.587500X-0.150000X0.587500X0.150000X-0.587500X0.150000X0*%
%ADD29R,1.000000X0.750000*%
%ADD30RoundRect,0.250000X-0.850000X0.375000X-0.850000X-0.375000X0.850000X-0.375000X0.850000X0.375000X0*%
%ADD31RoundRect,0.200000X-0.275000X0.200000X-0.275000X-0.200000X0.275000X-0.200000X0.275000X0.200000X0*%
%ADD32RoundRect,0.200000X0.200000X0.275000X-0.200000X0.275000X-0.200000X-0.275000X0.200000X-0.275000X0*%
%ADD33R,2.400000X1.900000*%
%ADD34RoundRect,0.225000X-0.250000X0.225000X-0.250000X-0.225000X0.250000X-0.225000X0.250000X0.225000X0*%
%ADD35RoundRect,0.150000X-0.512500X-0.150000X0.512500X-0.150000X0.512500X0.150000X-0.512500X0.150000X0*%
%ADD36R,1.550000X1.300000*%
%ADD37RoundRect,0.250000X0.475000X-0.250000X0.475000X0.250000X-0.475000X0.250000X-0.475000X-0.250000X0*%
%ADD38R,1.700000X1.700000*%
%ADD39O,1.700000X1.700000*%
%ADD40RoundRect,0.250000X-0.475000X0.250000X-0.475000X-0.250000X0.475000X-0.250000X0.475000X0.250000X0*%
%ADD41RoundRect,0.062500X-0.062500X0.350000X-0.062500X-0.350000X0.062500X-0.350000X0.062500X0.350000X0*%
%ADD42RoundRect,0.062500X-0.350000X0.062500X-0.350000X-0.062500X0.350000X-0.062500X0.350000X0.062500X0*%
%ADD43R,2.700000X2.700000*%
%ADD44RoundRect,0.225000X0.225000X0.250000X-0.225000X0.250000X-0.225000X-0.250000X0.225000X-0.250000X0*%
%ADD45R,0.700000X0.800000*%
%ADD46C,2.400000*%
%ADD47C,0.650000*%
%ADD48R,1.450000X0.600000*%
%ADD49R,1.450000X0.300000*%
%ADD50O,2.100000X1.000000*%
%ADD51O,1.600000X1.000000*%
%ADD52RoundRect,0.075000X-0.662500X-0.075000X0.662500X-0.075000X0.662500X0.075000X-0.662500X0.075000X0*%
%ADD53RoundRect,0.075000X-0.075000X-0.662500X0.075000X-0.662500X0.075000X0.662500X-0.075000X0.662500X0*%
%ADD54RoundRect,0.250000X0.250000X0.475000X-0.250000X0.475000X-0.250000X-0.475000X0.250000X-0.475000X0*%
%ADD55RoundRect,0.225000X0.250000X-0.225000X0.250000X0.225000X-0.250000X0.225000X-0.250000X-0.225000X0*%
%ADD56RoundRect,0.150000X-0.825000X-0.150000X0.825000X-0.150000X0.825000X0.150000X-0.825000X0.150000X0*%
G04 APERTURE END LIST*
D10*
X179954510Y-109215114D02*
X180168796Y-109286542D01*
X180168796Y-109286542D02*
X180240225Y-109357971D01*
X180240225Y-109357971D02*
X180311653Y-109500828D01*
X180311653Y-109500828D02*
X180311653Y-109715114D01*
X180311653Y-109715114D02*
X180240225Y-109857971D01*
X180240225Y-109857971D02*
X180168796Y-109929400D01*
X180168796Y-109929400D02*
X180025939Y-110000828D01*
X180025939Y-110000828D02*
X179454510Y-110000828D01*
X179454510Y-110000828D02*
X179454510Y-108500828D01*
X179454510Y-108500828D02*
X179954510Y-108500828D01*
X179954510Y-108500828D02*
X180097368Y-108572257D01*
X180097368Y-108572257D02*
X180168796Y-108643685D01*
X180168796Y-108643685D02*
X180240225Y-108786542D01*
X180240225Y-108786542D02*
X180240225Y-108929400D01*
X180240225Y-108929400D02*
X180168796Y-109072257D01*
X180168796Y-109072257D02*
X180097368Y-109143685D01*
X180097368Y-109143685D02*
X179954510Y-109215114D01*
X179954510Y-109215114D02*
X179454510Y-109215114D01*
X181668796Y-110000828D02*
X180954510Y-110000828D01*
X180954510Y-110000828D02*
X180954510Y-108500828D01*
X179454510Y-104800828D02*
X179454510Y-103300828D01*
X179454510Y-103300828D02*
X179811653Y-103300828D01*
X179811653Y-103300828D02*
X180025939Y-103372257D01*
X180025939Y-103372257D02*
X180168796Y-103515114D01*
X180168796Y-103515114D02*
X180240225Y-103657971D01*
X180240225Y-103657971D02*
X180311653Y-103943685D01*
X180311653Y-103943685D02*
X180311653Y-104157971D01*
X180311653Y-104157971D02*
X180240225Y-104443685D01*
X180240225Y-104443685D02*
X180168796Y-104586542D01*
X180168796Y-104586542D02*
X180025939Y-104729400D01*
X180025939Y-104729400D02*
X179811653Y-104800828D01*
X179811653Y-104800828D02*
X179454510Y-104800828D01*
X181811653Y-104657971D02*
X181740225Y-104729400D01*
X181740225Y-104729400D02*
X181525939Y-104800828D01*
X181525939Y-104800828D02*
X181383082Y-104800828D01*
X181383082Y-104800828D02*
X181168796Y-104729400D01*
X181168796Y-104729400D02*
X181025939Y-104586542D01*
X181025939Y-104586542D02*
X180954510Y-104443685D01*
X180954510Y-104443685D02*
X180883082Y-104157971D01*
X180883082Y-104157971D02*
X180883082Y-103943685D01*
X180883082Y-103943685D02*
X180954510Y-103657971D01*
X180954510Y-103657971D02*
X181025939Y-103515114D01*
X181025939Y-103515114D02*
X181168796Y-103372257D01*
X181168796Y-103372257D02*
X181383082Y-103300828D01*
X181383082Y-103300828D02*
X181525939Y-103300828D01*
X181525939Y-103300828D02*
X181740225Y-103372257D01*
X181740225Y-103372257D02*
X181811653Y-103443685D01*
X180311653Y-102300828D02*
X179811653Y-101586542D01*
X179454510Y-102300828D02*
X179454510Y-100800828D01*
X179454510Y-100800828D02*
X180025939Y-100800828D01*
X180025939Y-100800828D02*
X180168796Y-100872257D01*
X180168796Y-100872257D02*
X180240225Y-100943685D01*
X180240225Y-100943685D02*
X180311653Y-101086542D01*
X180311653Y-101086542D02*
X180311653Y-101300828D01*
X180311653Y-101300828D02*
X180240225Y-101443685D01*
X180240225Y-101443685D02*
X180168796Y-101515114D01*
X180168796Y-101515114D02*
X180025939Y-101586542D01*
X180025939Y-101586542D02*
X179454510Y-101586542D01*
X180883082Y-102229400D02*
X181097368Y-102300828D01*
X181097368Y-102300828D02*
X181454510Y-102300828D01*
X181454510Y-102300828D02*
X181597368Y-102229400D01*
X181597368Y-102229400D02*
X181668796Y-102157971D01*
X181668796Y-102157971D02*
X181740225Y-102015114D01*
X181740225Y-102015114D02*
X181740225Y-101872257D01*
X181740225Y-101872257D02*
X181668796Y-101729400D01*
X181668796Y-101729400D02*
X181597368Y-101657971D01*
X181597368Y-101657971D02*
X181454510Y-101586542D01*
X181454510Y-101586542D02*
X181168796Y-101515114D01*
X181168796Y-101515114D02*
X181025939Y-101443685D01*
X181025939Y-101443685D02*
X180954510Y-101372257D01*
X180954510Y-101372257D02*
X180883082Y-101229400D01*
X180883082Y-101229400D02*
X180883082Y-101086542D01*
X180883082Y-101086542D02*
X180954510Y-100943685D01*
X180954510Y-100943685D02*
X181025939Y-100872257D01*
X181025939Y-100872257D02*
X181168796Y-100800828D01*
X181168796Y-100800828D02*
X181525939Y-100800828D01*
X181525939Y-100800828D02*
X181740225Y-100872257D01*
X182168796Y-100800828D02*
X183025939Y-100800828D01*
X182597367Y-102300828D02*
X182597367Y-100800828D01*
X99454510Y-126929400D02*
X100597368Y-126929400D01*
X100025939Y-127500828D02*
X100025939Y-126357971D01*
X109061653Y-80200828D02*
X109990225Y-80200828D01*
X109990225Y-80200828D02*
X109490225Y-80772257D01*
X109490225Y-80772257D02*
X109704510Y-80772257D01*
X109704510Y-80772257D02*
X109847368Y-80843685D01*
X109847368Y-80843685D02*
X109918796Y-80915114D01*
X109918796Y-80915114D02*
X109990225Y-81057971D01*
X109990225Y-81057971D02*
X109990225Y-81415114D01*
X109990225Y-81415114D02*
X109918796Y-81557971D01*
X109918796Y-81557971D02*
X109847368Y-81629400D01*
X109847368Y-81629400D02*
X109704510Y-81700828D01*
X109704510Y-81700828D02*
X109275939Y-81700828D01*
X109275939Y-81700828D02*
X109133082Y-81629400D01*
X109133082Y-81629400D02*
X109061653Y-81557971D01*
X110490224Y-80700828D02*
X110847367Y-81700828D01*
X110847367Y-81700828D02*
X111204510Y-80700828D01*
X111633081Y-80200828D02*
X112561653Y-80200828D01*
X112561653Y-80200828D02*
X112061653Y-80772257D01*
X112061653Y-80772257D02*
X112275938Y-80772257D01*
X112275938Y-80772257D02*
X112418796Y-80843685D01*
X112418796Y-80843685D02*
X112490224Y-80915114D01*
X112490224Y-80915114D02*
X112561653Y-81057971D01*
X112561653Y-81057971D02*
X112561653Y-81415114D01*
X112561653Y-81415114D02*
X112490224Y-81557971D01*
X112490224Y-81557971D02*
X112418796Y-81629400D01*
X112418796Y-81629400D02*
X112275938Y-81700828D01*
X112275938Y-81700828D02*
X111847367Y-81700828D01*
X111847367Y-81700828D02*
X111704510Y-81629400D01*
X111704510Y-81629400D02*
X111633081Y-81557971D01*
X179454510Y-99800828D02*
X179454510Y-98300828D01*
X179454510Y-98300828D02*
X179954510Y-99372257D01*
X179954510Y-99372257D02*
X180454510Y-98300828D01*
X180454510Y-98300828D02*
X180454510Y-99800828D01*
X181454511Y-98300828D02*
X181740225Y-98300828D01*
X181740225Y-98300828D02*
X181883082Y-98372257D01*
X181883082Y-98372257D02*
X182025939Y-98515114D01*
X182025939Y-98515114D02*
X182097368Y-98800828D01*
X182097368Y-98800828D02*
X182097368Y-99300828D01*
X182097368Y-99300828D02*
X182025939Y-99586542D01*
X182025939Y-99586542D02*
X181883082Y-99729400D01*
X181883082Y-99729400D02*
X181740225Y-99800828D01*
X181740225Y-99800828D02*
X181454511Y-99800828D01*
X181454511Y-99800828D02*
X181311654Y-99729400D01*
X181311654Y-99729400D02*
X181168796Y-99586542D01*
X181168796Y-99586542D02*
X181097368Y-99300828D01*
X181097368Y-99300828D02*
X181097368Y-98800828D01*
X181097368Y-98800828D02*
X181168796Y-98515114D01*
X181168796Y-98515114D02*
X181311654Y-98372257D01*
X181311654Y-98372257D02*
X181454511Y-98300828D01*
X182668797Y-99729400D02*
X182883083Y-99800828D01*
X182883083Y-99800828D02*
X183240225Y-99800828D01*
X183240225Y-99800828D02*
X183383083Y-99729400D01*
X183383083Y-99729400D02*
X183454511Y-99657971D01*
X183454511Y-99657971D02*
X183525940Y-99515114D01*
X183525940Y-99515114D02*
X183525940Y-99372257D01*
X183525940Y-99372257D02*
X183454511Y-99229400D01*
X183454511Y-99229400D02*
X183383083Y-99157971D01*
X183383083Y-99157971D02*
X183240225Y-99086542D01*
X183240225Y-99086542D02*
X182954511Y-99015114D01*
X182954511Y-99015114D02*
X182811654Y-98943685D01*
X182811654Y-98943685D02*
X182740225Y-98872257D01*
X182740225Y-98872257D02*
X182668797Y-98729400D01*
X182668797Y-98729400D02*
X182668797Y-98586542D01*
X182668797Y-98586542D02*
X182740225Y-98443685D01*
X182740225Y-98443685D02*
X182811654Y-98372257D01*
X182811654Y-98372257D02*
X182954511Y-98300828D01*
X182954511Y-98300828D02*
X183311654Y-98300828D01*
X183311654Y-98300828D02*
X183525940Y-98372257D01*
X184168796Y-99800828D02*
X184168796Y-98300828D01*
X179383082Y-97129400D02*
X179597368Y-97200828D01*
X179597368Y-97200828D02*
X179954510Y-97200828D01*
X179954510Y-97200828D02*
X180097368Y-97129400D01*
X180097368Y-97129400D02*
X180168796Y-97057971D01*
X180168796Y-97057971D02*
X180240225Y-96915114D01*
X180240225Y-96915114D02*
X180240225Y-96772257D01*
X180240225Y-96772257D02*
X180168796Y-96629400D01*
X180168796Y-96629400D02*
X180097368Y-96557971D01*
X180097368Y-96557971D02*
X179954510Y-96486542D01*
X179954510Y-96486542D02*
X179668796Y-96415114D01*
X179668796Y-96415114D02*
X179525939Y-96343685D01*
X179525939Y-96343685D02*
X179454510Y-96272257D01*
X179454510Y-96272257D02*
X179383082Y-96129400D01*
X179383082Y-96129400D02*
X179383082Y-95986542D01*
X179383082Y-95986542D02*
X179454510Y-95843685D01*
X179454510Y-95843685D02*
X179525939Y-95772257D01*
X179525939Y-95772257D02*
X179668796Y-95700828D01*
X179668796Y-95700828D02*
X180025939Y-95700828D01*
X180025939Y-95700828D02*
X180240225Y-95772257D01*
X181740224Y-97057971D02*
X181668796Y-97129400D01*
X181668796Y-97129400D02*
X181454510Y-97200828D01*
X181454510Y-97200828D02*
X181311653Y-97200828D01*
X181311653Y-97200828D02*
X181097367Y-97129400D01*
X181097367Y-97129400D02*
X180954510Y-96986542D01*
X180954510Y-96986542D02*
X180883081Y-96843685D01*
X180883081Y-96843685D02*
X180811653Y-96557971D01*
X180811653Y-96557971D02*
X180811653Y-96343685D01*
X180811653Y-96343685D02*
X180883081Y-96057971D01*
X180883081Y-96057971D02*
X180954510Y-95915114D01*
X180954510Y-95915114D02*
X181097367Y-95772257D01*
X181097367Y-95772257D02*
X181311653Y-95700828D01*
X181311653Y-95700828D02*
X181454510Y-95700828D01*
X181454510Y-95700828D02*
X181668796Y-95772257D01*
X181668796Y-95772257D02*
X181740224Y-95843685D01*
X183097367Y-97200828D02*
X182383081Y-97200828D01*
X182383081Y-97200828D02*
X182383081Y-95700828D01*
D11*
X181459875Y-130620363D02*
X181412256Y-130715601D01*
X181412256Y-130715601D02*
X181317017Y-130763220D01*
X181317017Y-130763220D02*
X180459875Y-130763220D01*
X181412256Y-129858458D02*
X181459875Y-129953696D01*
X181459875Y-129953696D02*
X181459875Y-130144172D01*
X181459875Y-130144172D02*
X181412256Y-130239410D01*
X181412256Y-130239410D02*
X181317017Y-130287029D01*
X181317017Y-130287029D02*
X180936065Y-130287029D01*
X180936065Y-130287029D02*
X180840827Y-130239410D01*
X180840827Y-130239410D02*
X180793208Y-130144172D01*
X180793208Y-130144172D02*
X180793208Y-129953696D01*
X180793208Y-129953696D02*
X180840827Y-129858458D01*
X180840827Y-129858458D02*
X180936065Y-129810839D01*
X180936065Y-129810839D02*
X181031303Y-129810839D01*
X181031303Y-129810839D02*
X181126541Y-130287029D01*
X181459875Y-128953696D02*
X180936065Y-128953696D01*
X180936065Y-128953696D02*
X180840827Y-129001315D01*
X180840827Y-129001315D02*
X180793208Y-129096553D01*
X180793208Y-129096553D02*
X180793208Y-129287029D01*
X180793208Y-129287029D02*
X180840827Y-129382267D01*
X181412256Y-128953696D02*
X181459875Y-129048934D01*
X181459875Y-129048934D02*
X181459875Y-129287029D01*
X181459875Y-129287029D02*
X181412256Y-129382267D01*
X181412256Y-129382267D02*
X181317017Y-129429886D01*
X181317017Y-129429886D02*
X181221779Y-129429886D01*
X181221779Y-129429886D02*
X181126541Y-129382267D01*
X181126541Y-129382267D02*
X181078922Y-129287029D01*
X181078922Y-129287029D02*
X181078922Y-129048934D01*
X181078922Y-129048934D02*
X181031303Y-128953696D01*
X180793208Y-128477505D02*
X181459875Y-128477505D01*
X180888446Y-128477505D02*
X180840827Y-128429886D01*
X180840827Y-128429886D02*
X180793208Y-128334648D01*
X180793208Y-128334648D02*
X180793208Y-128191791D01*
X180793208Y-128191791D02*
X180840827Y-128096553D01*
X180840827Y-128096553D02*
X180936065Y-128048934D01*
X180936065Y-128048934D02*
X181459875Y-128048934D01*
X180793208Y-127667981D02*
X181459875Y-127429886D01*
X180793208Y-127191791D02*
X181459875Y-127429886D01*
X181459875Y-127429886D02*
X181697970Y-127525124D01*
X181697970Y-127525124D02*
X181745589Y-127572743D01*
X181745589Y-127572743D02*
X181793208Y-127667981D01*
X183069819Y-130763220D02*
X182403152Y-130763220D01*
X182593628Y-130763220D02*
X182498390Y-130715601D01*
X182498390Y-130715601D02*
X182450771Y-130667982D01*
X182450771Y-130667982D02*
X182403152Y-130572744D01*
X182403152Y-130572744D02*
X182403152Y-130477506D01*
X183022200Y-129763220D02*
X183069819Y-129858458D01*
X183069819Y-129858458D02*
X183069819Y-130048934D01*
X183069819Y-130048934D02*
X183022200Y-130144172D01*
X183022200Y-130144172D02*
X182926961Y-130191791D01*
X182926961Y-130191791D02*
X182546009Y-130191791D01*
X182546009Y-130191791D02*
X182450771Y-130144172D01*
X182450771Y-130144172D02*
X182403152Y-130048934D01*
X182403152Y-130048934D02*
X182403152Y-129858458D01*
X182403152Y-129858458D02*
X182450771Y-129763220D01*
X182450771Y-129763220D02*
X182546009Y-129715601D01*
X182546009Y-129715601D02*
X182641247Y-129715601D01*
X182641247Y-129715601D02*
X182736485Y-130191791D01*
X182403152Y-129382267D02*
X183069819Y-129144172D01*
X183069819Y-129144172D02*
X182403152Y-128906077D01*
X182069819Y-127572743D02*
X182069819Y-127477505D01*
X182069819Y-127477505D02*
X182117438Y-127382267D01*
X182117438Y-127382267D02*
X182165057Y-127334648D01*
X182165057Y-127334648D02*
X182260295Y-127287029D01*
X182260295Y-127287029D02*
X182450771Y-127239410D01*
X182450771Y-127239410D02*
X182688866Y-127239410D01*
X182688866Y-127239410D02*
X182879342Y-127287029D01*
X182879342Y-127287029D02*
X182974580Y-127334648D01*
X182974580Y-127334648D02*
X183022200Y-127382267D01*
X183022200Y-127382267D02*
X183069819Y-127477505D01*
X183069819Y-127477505D02*
X183069819Y-127572743D01*
X183069819Y-127572743D02*
X183022200Y-127667981D01*
X183022200Y-127667981D02*
X182974580Y-127715600D01*
X182974580Y-127715600D02*
X182879342Y-127763219D01*
X182879342Y-127763219D02*
X182688866Y-127810838D01*
X182688866Y-127810838D02*
X182450771Y-127810838D01*
X182450771Y-127810838D02*
X182260295Y-127763219D01*
X182260295Y-127763219D02*
X182165057Y-127715600D01*
X182165057Y-127715600D02*
X182117438Y-127667981D01*
X182117438Y-127667981D02*
X182069819Y-127572743D01*
X182974580Y-126810838D02*
X183022200Y-126763219D01*
X183022200Y-126763219D02*
X183069819Y-126810838D01*
X183069819Y-126810838D02*
X183022200Y-126858457D01*
X183022200Y-126858457D02*
X182974580Y-126810838D01*
X182974580Y-126810838D02*
X183069819Y-126810838D01*
X182165057Y-126382267D02*
X182117438Y-126334648D01*
X182117438Y-126334648D02*
X182069819Y-126239410D01*
X182069819Y-126239410D02*
X182069819Y-126001315D01*
X182069819Y-126001315D02*
X182117438Y-125906077D01*
X182117438Y-125906077D02*
X182165057Y-125858458D01*
X182165057Y-125858458D02*
X182260295Y-125810839D01*
X182260295Y-125810839D02*
X182355533Y-125810839D01*
X182355533Y-125810839D02*
X182498390Y-125858458D01*
X182498390Y-125858458D02*
X183069819Y-126429886D01*
X183069819Y-126429886D02*
X183069819Y-125810839D01*
D10*
X179311653Y-93200828D02*
X180240225Y-93200828D01*
X180240225Y-93200828D02*
X179740225Y-93772257D01*
X179740225Y-93772257D02*
X179954510Y-93772257D01*
X179954510Y-93772257D02*
X180097368Y-93843685D01*
X180097368Y-93843685D02*
X180168796Y-93915114D01*
X180168796Y-93915114D02*
X180240225Y-94057971D01*
X180240225Y-94057971D02*
X180240225Y-94415114D01*
X180240225Y-94415114D02*
X180168796Y-94557971D01*
X180168796Y-94557971D02*
X180097368Y-94629400D01*
X180097368Y-94629400D02*
X179954510Y-94700828D01*
X179954510Y-94700828D02*
X179525939Y-94700828D01*
X179525939Y-94700828D02*
X179383082Y-94629400D01*
X179383082Y-94629400D02*
X179311653Y-94557971D01*
X180740224Y-93700828D02*
X181097367Y-94700828D01*
X181097367Y-94700828D02*
X181454510Y-93700828D01*
X181883081Y-93200828D02*
X182811653Y-93200828D01*
X182811653Y-93200828D02*
X182311653Y-93772257D01*
X182311653Y-93772257D02*
X182525938Y-93772257D01*
X182525938Y-93772257D02*
X182668796Y-93843685D01*
X182668796Y-93843685D02*
X182740224Y-93915114D01*
X182740224Y-93915114D02*
X182811653Y-94057971D01*
X182811653Y-94057971D02*
X182811653Y-94415114D01*
X182811653Y-94415114D02*
X182740224Y-94557971D01*
X182740224Y-94557971D02*
X182668796Y-94629400D01*
X182668796Y-94629400D02*
X182525938Y-94700828D01*
X182525938Y-94700828D02*
X182097367Y-94700828D01*
X182097367Y-94700828D02*
X181954510Y-94629400D01*
X181954510Y-94629400D02*
X181883081Y-94557971D01*
X180240225Y-90772257D02*
X180097368Y-90700828D01*
X180097368Y-90700828D02*
X179883082Y-90700828D01*
X179883082Y-90700828D02*
X179668796Y-90772257D01*
X179668796Y-90772257D02*
X179525939Y-90915114D01*
X179525939Y-90915114D02*
X179454510Y-91057971D01*
X179454510Y-91057971D02*
X179383082Y-91343685D01*
X179383082Y-91343685D02*
X179383082Y-91557971D01*
X179383082Y-91557971D02*
X179454510Y-91843685D01*
X179454510Y-91843685D02*
X179525939Y-91986542D01*
X179525939Y-91986542D02*
X179668796Y-92129400D01*
X179668796Y-92129400D02*
X179883082Y-92200828D01*
X179883082Y-92200828D02*
X180025939Y-92200828D01*
X180025939Y-92200828D02*
X180240225Y-92129400D01*
X180240225Y-92129400D02*
X180311653Y-92057971D01*
X180311653Y-92057971D02*
X180311653Y-91557971D01*
X180311653Y-91557971D02*
X180025939Y-91557971D01*
X180954510Y-92200828D02*
X180954510Y-90700828D01*
X180954510Y-90700828D02*
X181811653Y-92200828D01*
X181811653Y-92200828D02*
X181811653Y-90700828D01*
X182525939Y-92200828D02*
X182525939Y-90700828D01*
X182525939Y-90700828D02*
X182883082Y-90700828D01*
X182883082Y-90700828D02*
X183097368Y-90772257D01*
X183097368Y-90772257D02*
X183240225Y-90915114D01*
X183240225Y-90915114D02*
X183311654Y-91057971D01*
X183311654Y-91057971D02*
X183383082Y-91343685D01*
X183383082Y-91343685D02*
X183383082Y-91557971D01*
X183383082Y-91557971D02*
X183311654Y-91843685D01*
X183311654Y-91843685D02*
X183240225Y-91986542D01*
X183240225Y-91986542D02*
X183097368Y-92129400D01*
X183097368Y-92129400D02*
X182883082Y-92200828D01*
X182883082Y-92200828D02*
X182525939Y-92200828D01*
X109861653Y-86757971D02*
X109790225Y-86829400D01*
X109790225Y-86829400D02*
X109575939Y-86900828D01*
X109575939Y-86900828D02*
X109433082Y-86900828D01*
X109433082Y-86900828D02*
X109218796Y-86829400D01*
X109218796Y-86829400D02*
X109075939Y-86686542D01*
X109075939Y-86686542D02*
X109004510Y-86543685D01*
X109004510Y-86543685D02*
X108933082Y-86257971D01*
X108933082Y-86257971D02*
X108933082Y-86043685D01*
X108933082Y-86043685D02*
X109004510Y-85757971D01*
X109004510Y-85757971D02*
X109075939Y-85615114D01*
X109075939Y-85615114D02*
X109218796Y-85472257D01*
X109218796Y-85472257D02*
X109433082Y-85400828D01*
X109433082Y-85400828D02*
X109575939Y-85400828D01*
X109575939Y-85400828D02*
X109790225Y-85472257D01*
X109790225Y-85472257D02*
X109861653Y-85543685D01*
X111218796Y-86900828D02*
X110504510Y-86900828D01*
X110504510Y-86900828D02*
X110504510Y-85400828D01*
X111718796Y-86900828D02*
X111718796Y-85400828D01*
X112575939Y-86900828D02*
X111933082Y-86043685D01*
X112575939Y-85400828D02*
X111718796Y-86257971D01*
X99454510Y-137029400D02*
X100597368Y-137029400D01*
X109104510Y-84200828D02*
X109104510Y-82700828D01*
X110104511Y-82700828D02*
X110390225Y-82700828D01*
X110390225Y-82700828D02*
X110533082Y-82772257D01*
X110533082Y-82772257D02*
X110675939Y-82915114D01*
X110675939Y-82915114D02*
X110747368Y-83200828D01*
X110747368Y-83200828D02*
X110747368Y-83700828D01*
X110747368Y-83700828D02*
X110675939Y-83986542D01*
X110675939Y-83986542D02*
X110533082Y-84129400D01*
X110533082Y-84129400D02*
X110390225Y-84200828D01*
X110390225Y-84200828D02*
X110104511Y-84200828D01*
X110104511Y-84200828D02*
X109961654Y-84129400D01*
X109961654Y-84129400D02*
X109818796Y-83986542D01*
X109818796Y-83986542D02*
X109747368Y-83700828D01*
X109747368Y-83700828D02*
X109747368Y-83200828D01*
X109747368Y-83200828D02*
X109818796Y-82915114D01*
X109818796Y-82915114D02*
X109961654Y-82772257D01*
X109961654Y-82772257D02*
X110104511Y-82700828D01*
X109990225Y-88072257D02*
X109847368Y-88000828D01*
X109847368Y-88000828D02*
X109633082Y-88000828D01*
X109633082Y-88000828D02*
X109418796Y-88072257D01*
X109418796Y-88072257D02*
X109275939Y-88215114D01*
X109275939Y-88215114D02*
X109204510Y-88357971D01*
X109204510Y-88357971D02*
X109133082Y-88643685D01*
X109133082Y-88643685D02*
X109133082Y-88857971D01*
X109133082Y-88857971D02*
X109204510Y-89143685D01*
X109204510Y-89143685D02*
X109275939Y-89286542D01*
X109275939Y-89286542D02*
X109418796Y-89429400D01*
X109418796Y-89429400D02*
X109633082Y-89500828D01*
X109633082Y-89500828D02*
X109775939Y-89500828D01*
X109775939Y-89500828D02*
X109990225Y-89429400D01*
X109990225Y-89429400D02*
X110061653Y-89357971D01*
X110061653Y-89357971D02*
X110061653Y-88857971D01*
X110061653Y-88857971D02*
X109775939Y-88857971D01*
X110704510Y-89500828D02*
X110704510Y-88000828D01*
X110704510Y-88000828D02*
X111561653Y-89500828D01*
X111561653Y-89500828D02*
X111561653Y-88000828D01*
X112275939Y-89500828D02*
X112275939Y-88000828D01*
X112275939Y-88000828D02*
X112633082Y-88000828D01*
X112633082Y-88000828D02*
X112847368Y-88072257D01*
X112847368Y-88072257D02*
X112990225Y-88215114D01*
X112990225Y-88215114D02*
X113061654Y-88357971D01*
X113061654Y-88357971D02*
X113133082Y-88643685D01*
X113133082Y-88643685D02*
X113133082Y-88857971D01*
X113133082Y-88857971D02*
X113061654Y-89143685D01*
X113061654Y-89143685D02*
X112990225Y-89286542D01*
X112990225Y-89286542D02*
X112847368Y-89429400D01*
X112847368Y-89429400D02*
X112633082Y-89500828D01*
X112633082Y-89500828D02*
X112275939Y-89500828D01*
X180311653Y-107257971D02*
X180240225Y-107329400D01*
X180240225Y-107329400D02*
X180025939Y-107400828D01*
X180025939Y-107400828D02*
X179883082Y-107400828D01*
X179883082Y-107400828D02*
X179668796Y-107329400D01*
X179668796Y-107329400D02*
X179525939Y-107186542D01*
X179525939Y-107186542D02*
X179454510Y-107043685D01*
X179454510Y-107043685D02*
X179383082Y-106757971D01*
X179383082Y-106757971D02*
X179383082Y-106543685D01*
X179383082Y-106543685D02*
X179454510Y-106257971D01*
X179454510Y-106257971D02*
X179525939Y-106115114D01*
X179525939Y-106115114D02*
X179668796Y-105972257D01*
X179668796Y-105972257D02*
X179883082Y-105900828D01*
X179883082Y-105900828D02*
X180025939Y-105900828D01*
X180025939Y-105900828D02*
X180240225Y-105972257D01*
X180240225Y-105972257D02*
X180311653Y-106043685D01*
X180883082Y-107329400D02*
X181097368Y-107400828D01*
X181097368Y-107400828D02*
X181454510Y-107400828D01*
X181454510Y-107400828D02*
X181597368Y-107329400D01*
X181597368Y-107329400D02*
X181668796Y-107257971D01*
X181668796Y-107257971D02*
X181740225Y-107115114D01*
X181740225Y-107115114D02*
X181740225Y-106972257D01*
X181740225Y-106972257D02*
X181668796Y-106829400D01*
X181668796Y-106829400D02*
X181597368Y-106757971D01*
X181597368Y-106757971D02*
X181454510Y-106686542D01*
X181454510Y-106686542D02*
X181168796Y-106615114D01*
X181168796Y-106615114D02*
X181025939Y-106543685D01*
X181025939Y-106543685D02*
X180954510Y-106472257D01*
X180954510Y-106472257D02*
X180883082Y-106329400D01*
X180883082Y-106329400D02*
X180883082Y-106186542D01*
X180883082Y-106186542D02*
X180954510Y-106043685D01*
X180954510Y-106043685D02*
X181025939Y-105972257D01*
X181025939Y-105972257D02*
X181168796Y-105900828D01*
X181168796Y-105900828D02*
X181525939Y-105900828D01*
X181525939Y-105900828D02*
X181740225Y-105972257D01*
D11*
X107580952Y-138031009D02*
X107723809Y-138078628D01*
X107723809Y-138078628D02*
X107771428Y-138126247D01*
X107771428Y-138126247D02*
X107819047Y-138221485D01*
X107819047Y-138221485D02*
X107819047Y-138364342D01*
X107819047Y-138364342D02*
X107771428Y-138459580D01*
X107771428Y-138459580D02*
X107723809Y-138507200D01*
X107723809Y-138507200D02*
X107628571Y-138554819D01*
X107628571Y-138554819D02*
X107247619Y-138554819D01*
X107247619Y-138554819D02*
X107247619Y-137554819D01*
X107247619Y-137554819D02*
X107580952Y-137554819D01*
X107580952Y-137554819D02*
X107676190Y-137602438D01*
X107676190Y-137602438D02*
X107723809Y-137650057D01*
X107723809Y-137650057D02*
X107771428Y-137745295D01*
X107771428Y-137745295D02*
X107771428Y-137840533D01*
X107771428Y-137840533D02*
X107723809Y-137935771D01*
X107723809Y-137935771D02*
X107676190Y-137983390D01*
X107676190Y-137983390D02*
X107580952Y-138031009D01*
X107580952Y-138031009D02*
X107247619Y-138031009D01*
X108200000Y-138269104D02*
X108676190Y-138269104D01*
X108104762Y-138554819D02*
X108438095Y-137554819D01*
X108438095Y-137554819D02*
X108771428Y-138554819D01*
X108961905Y-137554819D02*
X109533333Y-137554819D01*
X109247619Y-138554819D02*
X109247619Y-137554819D01*
X109723810Y-137554819D02*
X110295238Y-137554819D01*
X110009524Y-138554819D02*
X110009524Y-137554819D01*
X114676191Y-132154819D02*
X115009524Y-133154819D01*
X115009524Y-133154819D02*
X115342857Y-132154819D01*
X115676191Y-133154819D02*
X115676191Y-132488152D01*
X115676191Y-132154819D02*
X115628572Y-132202438D01*
X115628572Y-132202438D02*
X115676191Y-132250057D01*
X115676191Y-132250057D02*
X115723810Y-132202438D01*
X115723810Y-132202438D02*
X115676191Y-132154819D01*
X115676191Y-132154819D02*
X115676191Y-132250057D01*
X116152381Y-132488152D02*
X116152381Y-133154819D01*
X116152381Y-132583390D02*
X116200000Y-132535771D01*
X116200000Y-132535771D02*
X116295238Y-132488152D01*
X116295238Y-132488152D02*
X116438095Y-132488152D01*
X116438095Y-132488152D02*
X116533333Y-132535771D01*
X116533333Y-132535771D02*
X116580952Y-132631009D01*
X116580952Y-132631009D02*
X116580952Y-133154819D01*
X107557142Y-100859580D02*
X107509523Y-100907200D01*
X107509523Y-100907200D02*
X107366666Y-100954819D01*
X107366666Y-100954819D02*
X107271428Y-100954819D01*
X107271428Y-100954819D02*
X107128571Y-100907200D01*
X107128571Y-100907200D02*
X107033333Y-100811961D01*
X107033333Y-100811961D02*
X106985714Y-100716723D01*
X106985714Y-100716723D02*
X106938095Y-100526247D01*
X106938095Y-100526247D02*
X106938095Y-100383390D01*
X106938095Y-100383390D02*
X106985714Y-100192914D01*
X106985714Y-100192914D02*
X107033333Y-100097676D01*
X107033333Y-100097676D02*
X107128571Y-100002438D01*
X107128571Y-100002438D02*
X107271428Y-99954819D01*
X107271428Y-99954819D02*
X107366666Y-99954819D01*
X107366666Y-99954819D02*
X107509523Y-100002438D01*
X107509523Y-100002438D02*
X107557142Y-100050057D01*
X108509523Y-100954819D02*
X107938095Y-100954819D01*
X108223809Y-100954819D02*
X108223809Y-99954819D01*
X108223809Y-99954819D02*
X108128571Y-100097676D01*
X108128571Y-100097676D02*
X108033333Y-100192914D01*
X108033333Y-100192914D02*
X107938095Y-100240533D01*
X109366666Y-100288152D02*
X109366666Y-100954819D01*
X109128571Y-99907200D02*
X108890476Y-100621485D01*
X108890476Y-100621485D02*
X109509523Y-100621485D01*
X144282142Y-123354819D02*
X143948809Y-122878628D01*
X143710714Y-123354819D02*
X143710714Y-122354819D01*
X143710714Y-122354819D02*
X144091666Y-122354819D01*
X144091666Y-122354819D02*
X144186904Y-122402438D01*
X144186904Y-122402438D02*
X144234523Y-122450057D01*
X144234523Y-122450057D02*
X144282142Y-122545295D01*
X144282142Y-122545295D02*
X144282142Y-122688152D01*
X144282142Y-122688152D02*
X144234523Y-122783390D01*
X144234523Y-122783390D02*
X144186904Y-122831009D01*
X144186904Y-122831009D02*
X144091666Y-122878628D01*
X144091666Y-122878628D02*
X143710714Y-122878628D01*
X144663095Y-122450057D02*
X144710714Y-122402438D01*
X144710714Y-122402438D02*
X144805952Y-122354819D01*
X144805952Y-122354819D02*
X145044047Y-122354819D01*
X145044047Y-122354819D02*
X145139285Y-122402438D01*
X145139285Y-122402438D02*
X145186904Y-122450057D01*
X145186904Y-122450057D02*
X145234523Y-122545295D01*
X145234523Y-122545295D02*
X145234523Y-122640533D01*
X145234523Y-122640533D02*
X145186904Y-122783390D01*
X145186904Y-122783390D02*
X144615476Y-123354819D01*
X144615476Y-123354819D02*
X145234523Y-123354819D01*
X145567857Y-122354819D02*
X146186904Y-122354819D01*
X146186904Y-122354819D02*
X145853571Y-122735771D01*
X145853571Y-122735771D02*
X145996428Y-122735771D01*
X145996428Y-122735771D02*
X146091666Y-122783390D01*
X146091666Y-122783390D02*
X146139285Y-122831009D01*
X146139285Y-122831009D02*
X146186904Y-122926247D01*
X146186904Y-122926247D02*
X146186904Y-123164342D01*
X146186904Y-123164342D02*
X146139285Y-123259580D01*
X146139285Y-123259580D02*
X146091666Y-123307200D01*
X146091666Y-123307200D02*
X145996428Y-123354819D01*
X145996428Y-123354819D02*
X145710714Y-123354819D01*
X145710714Y-123354819D02*
X145615476Y-123307200D01*
X145615476Y-123307200D02*
X145567857Y-123259580D01*
X133707142Y-97509580D02*
X133659523Y-97557200D01*
X133659523Y-97557200D02*
X133516666Y-97604819D01*
X133516666Y-97604819D02*
X133421428Y-97604819D01*
X133421428Y-97604819D02*
X133278571Y-97557200D01*
X133278571Y-97557200D02*
X133183333Y-97461961D01*
X133183333Y-97461961D02*
X133135714Y-97366723D01*
X133135714Y-97366723D02*
X133088095Y-97176247D01*
X133088095Y-97176247D02*
X133088095Y-97033390D01*
X133088095Y-97033390D02*
X133135714Y-96842914D01*
X133135714Y-96842914D02*
X133183333Y-96747676D01*
X133183333Y-96747676D02*
X133278571Y-96652438D01*
X133278571Y-96652438D02*
X133421428Y-96604819D01*
X133421428Y-96604819D02*
X133516666Y-96604819D01*
X133516666Y-96604819D02*
X133659523Y-96652438D01*
X133659523Y-96652438D02*
X133707142Y-96700057D01*
X134659523Y-97604819D02*
X134088095Y-97604819D01*
X134373809Y-97604819D02*
X134373809Y-96604819D01*
X134373809Y-96604819D02*
X134278571Y-96747676D01*
X134278571Y-96747676D02*
X134183333Y-96842914D01*
X134183333Y-96842914D02*
X134088095Y-96890533D01*
X135278571Y-96604819D02*
X135373809Y-96604819D01*
X135373809Y-96604819D02*
X135469047Y-96652438D01*
X135469047Y-96652438D02*
X135516666Y-96700057D01*
X135516666Y-96700057D02*
X135564285Y-96795295D01*
X135564285Y-96795295D02*
X135611904Y-96985771D01*
X135611904Y-96985771D02*
X135611904Y-97223866D01*
X135611904Y-97223866D02*
X135564285Y-97414342D01*
X135564285Y-97414342D02*
X135516666Y-97509580D01*
X135516666Y-97509580D02*
X135469047Y-97557200D01*
X135469047Y-97557200D02*
X135373809Y-97604819D01*
X135373809Y-97604819D02*
X135278571Y-97604819D01*
X135278571Y-97604819D02*
X135183333Y-97557200D01*
X135183333Y-97557200D02*
X135135714Y-97509580D01*
X135135714Y-97509580D02*
X135088095Y-97414342D01*
X135088095Y-97414342D02*
X135040476Y-97223866D01*
X135040476Y-97223866D02*
X135040476Y-96985771D01*
X135040476Y-96985771D02*
X135088095Y-96795295D01*
X135088095Y-96795295D02*
X135135714Y-96700057D01*
X135135714Y-96700057D02*
X135183333Y-96652438D01*
X135183333Y-96652438D02*
X135278571Y-96604819D01*
X100490476Y-126154819D02*
X100490476Y-125154819D01*
X100490476Y-125154819D02*
X100871428Y-125154819D01*
X100871428Y-125154819D02*
X100966666Y-125202438D01*
X100966666Y-125202438D02*
X101014285Y-125250057D01*
X101014285Y-125250057D02*
X101061904Y-125345295D01*
X101061904Y-125345295D02*
X101061904Y-125488152D01*
X101061904Y-125488152D02*
X101014285Y-125583390D01*
X101014285Y-125583390D02*
X100966666Y-125631009D01*
X100966666Y-125631009D02*
X100871428Y-125678628D01*
X100871428Y-125678628D02*
X100490476Y-125678628D01*
X101680952Y-125154819D02*
X101871428Y-125154819D01*
X101871428Y-125154819D02*
X101966666Y-125202438D01*
X101966666Y-125202438D02*
X102061904Y-125297676D01*
X102061904Y-125297676D02*
X102109523Y-125488152D01*
X102109523Y-125488152D02*
X102109523Y-125821485D01*
X102109523Y-125821485D02*
X102061904Y-126011961D01*
X102061904Y-126011961D02*
X101966666Y-126107200D01*
X101966666Y-126107200D02*
X101871428Y-126154819D01*
X101871428Y-126154819D02*
X101680952Y-126154819D01*
X101680952Y-126154819D02*
X101585714Y-126107200D01*
X101585714Y-126107200D02*
X101490476Y-126011961D01*
X101490476Y-126011961D02*
X101442857Y-125821485D01*
X101442857Y-125821485D02*
X101442857Y-125488152D01*
X101442857Y-125488152D02*
X101490476Y-125297676D01*
X101490476Y-125297676D02*
X101585714Y-125202438D01*
X101585714Y-125202438D02*
X101680952Y-125154819D01*
X102442857Y-125154819D02*
X102680952Y-126154819D01*
X102680952Y-126154819D02*
X102871428Y-125440533D01*
X102871428Y-125440533D02*
X103061904Y-126154819D01*
X103061904Y-126154819D02*
X103300000Y-125154819D01*
X103680952Y-125631009D02*
X104014285Y-125631009D01*
X104157142Y-126154819D02*
X103680952Y-126154819D01*
X103680952Y-126154819D02*
X103680952Y-125154819D01*
X103680952Y-125154819D02*
X104157142Y-125154819D01*
X105157142Y-126154819D02*
X104823809Y-125678628D01*
X104585714Y-126154819D02*
X104585714Y-125154819D01*
X104585714Y-125154819D02*
X104966666Y-125154819D01*
X104966666Y-125154819D02*
X105061904Y-125202438D01*
X105061904Y-125202438D02*
X105109523Y-125250057D01*
X105109523Y-125250057D02*
X105157142Y-125345295D01*
X105157142Y-125345295D02*
X105157142Y-125488152D01*
X105157142Y-125488152D02*
X105109523Y-125583390D01*
X105109523Y-125583390D02*
X105061904Y-125631009D01*
X105061904Y-125631009D02*
X104966666Y-125678628D01*
X104966666Y-125678628D02*
X104585714Y-125678628D01*
X151454819Y-110291666D02*
X150978628Y-110624999D01*
X151454819Y-110863094D02*
X150454819Y-110863094D01*
X150454819Y-110863094D02*
X150454819Y-110482142D01*
X150454819Y-110482142D02*
X150502438Y-110386904D01*
X150502438Y-110386904D02*
X150550057Y-110339285D01*
X150550057Y-110339285D02*
X150645295Y-110291666D01*
X150645295Y-110291666D02*
X150788152Y-110291666D01*
X150788152Y-110291666D02*
X150883390Y-110339285D01*
X150883390Y-110339285D02*
X150931009Y-110386904D01*
X150931009Y-110386904D02*
X150978628Y-110482142D01*
X150978628Y-110482142D02*
X150978628Y-110863094D01*
X150883390Y-109720237D02*
X150835771Y-109815475D01*
X150835771Y-109815475D02*
X150788152Y-109863094D01*
X150788152Y-109863094D02*
X150692914Y-109910713D01*
X150692914Y-109910713D02*
X150645295Y-109910713D01*
X150645295Y-109910713D02*
X150550057Y-109863094D01*
X150550057Y-109863094D02*
X150502438Y-109815475D01*
X150502438Y-109815475D02*
X150454819Y-109720237D01*
X150454819Y-109720237D02*
X150454819Y-109529761D01*
X150454819Y-109529761D02*
X150502438Y-109434523D01*
X150502438Y-109434523D02*
X150550057Y-109386904D01*
X150550057Y-109386904D02*
X150645295Y-109339285D01*
X150645295Y-109339285D02*
X150692914Y-109339285D01*
X150692914Y-109339285D02*
X150788152Y-109386904D01*
X150788152Y-109386904D02*
X150835771Y-109434523D01*
X150835771Y-109434523D02*
X150883390Y-109529761D01*
X150883390Y-109529761D02*
X150883390Y-109720237D01*
X150883390Y-109720237D02*
X150931009Y-109815475D01*
X150931009Y-109815475D02*
X150978628Y-109863094D01*
X150978628Y-109863094D02*
X151073866Y-109910713D01*
X151073866Y-109910713D02*
X151264342Y-109910713D01*
X151264342Y-109910713D02*
X151359580Y-109863094D01*
X151359580Y-109863094D02*
X151407200Y-109815475D01*
X151407200Y-109815475D02*
X151454819Y-109720237D01*
X151454819Y-109720237D02*
X151454819Y-109529761D01*
X151454819Y-109529761D02*
X151407200Y-109434523D01*
X151407200Y-109434523D02*
X151359580Y-109386904D01*
X151359580Y-109386904D02*
X151264342Y-109339285D01*
X151264342Y-109339285D02*
X151073866Y-109339285D01*
X151073866Y-109339285D02*
X150978628Y-109386904D01*
X150978628Y-109386904D02*
X150931009Y-109434523D01*
X150931009Y-109434523D02*
X150883390Y-109529761D01*
X141738095Y-109904819D02*
X141738095Y-110714342D01*
X141738095Y-110714342D02*
X141785714Y-110809580D01*
X141785714Y-110809580D02*
X141833333Y-110857200D01*
X141833333Y-110857200D02*
X141928571Y-110904819D01*
X141928571Y-110904819D02*
X142119047Y-110904819D01*
X142119047Y-110904819D02*
X142214285Y-110857200D01*
X142214285Y-110857200D02*
X142261904Y-110809580D01*
X142261904Y-110809580D02*
X142309523Y-110714342D01*
X142309523Y-110714342D02*
X142309523Y-109904819D01*
X143309523Y-110904819D02*
X142738095Y-110904819D01*
X143023809Y-110904819D02*
X143023809Y-109904819D01*
X143023809Y-109904819D02*
X142928571Y-110047676D01*
X142928571Y-110047676D02*
X142833333Y-110142914D01*
X142833333Y-110142914D02*
X142738095Y-110190533D01*
X170917261Y-112300057D02*
X170822023Y-112252438D01*
X170822023Y-112252438D02*
X170726785Y-112157200D01*
X170726785Y-112157200D02*
X170583928Y-112014342D01*
X170583928Y-112014342D02*
X170488690Y-111966723D01*
X170488690Y-111966723D02*
X170393452Y-111966723D01*
X170441071Y-112204819D02*
X170345833Y-112157200D01*
X170345833Y-112157200D02*
X170250595Y-112061961D01*
X170250595Y-112061961D02*
X170202976Y-111871485D01*
X170202976Y-111871485D02*
X170202976Y-111538152D01*
X170202976Y-111538152D02*
X170250595Y-111347676D01*
X170250595Y-111347676D02*
X170345833Y-111252438D01*
X170345833Y-111252438D02*
X170441071Y-111204819D01*
X170441071Y-111204819D02*
X170631547Y-111204819D01*
X170631547Y-111204819D02*
X170726785Y-111252438D01*
X170726785Y-111252438D02*
X170822023Y-111347676D01*
X170822023Y-111347676D02*
X170869642Y-111538152D01*
X170869642Y-111538152D02*
X170869642Y-111871485D01*
X170869642Y-111871485D02*
X170822023Y-112061961D01*
X170822023Y-112061961D02*
X170726785Y-112157200D01*
X170726785Y-112157200D02*
X170631547Y-112204819D01*
X170631547Y-112204819D02*
X170441071Y-112204819D01*
X171822023Y-112204819D02*
X171250595Y-112204819D01*
X171536309Y-112204819D02*
X171536309Y-111204819D01*
X171536309Y-111204819D02*
X171441071Y-111347676D01*
X171441071Y-111347676D02*
X171345833Y-111442914D01*
X171345833Y-111442914D02*
X171250595Y-111490533D01*
X151159523Y-80656009D02*
X150826190Y-80656009D01*
X150826190Y-81179819D02*
X150826190Y-80179819D01*
X150826190Y-80179819D02*
X151302380Y-80179819D01*
X152159523Y-81179819D02*
X151683333Y-81179819D01*
X151683333Y-81179819D02*
X151683333Y-80179819D01*
X152445238Y-80894104D02*
X152921428Y-80894104D01*
X152350000Y-81179819D02*
X152683333Y-80179819D01*
X152683333Y-80179819D02*
X153016666Y-81179819D01*
X153302381Y-81132200D02*
X153445238Y-81179819D01*
X153445238Y-81179819D02*
X153683333Y-81179819D01*
X153683333Y-81179819D02*
X153778571Y-81132200D01*
X153778571Y-81132200D02*
X153826190Y-81084580D01*
X153826190Y-81084580D02*
X153873809Y-80989342D01*
X153873809Y-80989342D02*
X153873809Y-80894104D01*
X153873809Y-80894104D02*
X153826190Y-80798866D01*
X153826190Y-80798866D02*
X153778571Y-80751247D01*
X153778571Y-80751247D02*
X153683333Y-80703628D01*
X153683333Y-80703628D02*
X153492857Y-80656009D01*
X153492857Y-80656009D02*
X153397619Y-80608390D01*
X153397619Y-80608390D02*
X153350000Y-80560771D01*
X153350000Y-80560771D02*
X153302381Y-80465533D01*
X153302381Y-80465533D02*
X153302381Y-80370295D01*
X153302381Y-80370295D02*
X153350000Y-80275057D01*
X153350000Y-80275057D02*
X153397619Y-80227438D01*
X153397619Y-80227438D02*
X153492857Y-80179819D01*
X153492857Y-80179819D02*
X153730952Y-80179819D01*
X153730952Y-80179819D02*
X153873809Y-80227438D01*
X154302381Y-81179819D02*
X154302381Y-80179819D01*
X154302381Y-80656009D02*
X154873809Y-80656009D01*
X154873809Y-81179819D02*
X154873809Y-80179819D01*
X160407142Y-79304819D02*
X160073809Y-78828628D01*
X159835714Y-79304819D02*
X159835714Y-78304819D01*
X159835714Y-78304819D02*
X160216666Y-78304819D01*
X160216666Y-78304819D02*
X160311904Y-78352438D01*
X160311904Y-78352438D02*
X160359523Y-78400057D01*
X160359523Y-78400057D02*
X160407142Y-78495295D01*
X160407142Y-78495295D02*
X160407142Y-78638152D01*
X160407142Y-78638152D02*
X160359523Y-78733390D01*
X160359523Y-78733390D02*
X160311904Y-78781009D01*
X160311904Y-78781009D02*
X160216666Y-78828628D01*
X160216666Y-78828628D02*
X159835714Y-78828628D01*
X161359523Y-79304819D02*
X160788095Y-79304819D01*
X161073809Y-79304819D02*
X161073809Y-78304819D01*
X161073809Y-78304819D02*
X160978571Y-78447676D01*
X160978571Y-78447676D02*
X160883333Y-78542914D01*
X160883333Y-78542914D02*
X160788095Y-78590533D01*
X161740476Y-78400057D02*
X161788095Y-78352438D01*
X161788095Y-78352438D02*
X161883333Y-78304819D01*
X161883333Y-78304819D02*
X162121428Y-78304819D01*
X162121428Y-78304819D02*
X162216666Y-78352438D01*
X162216666Y-78352438D02*
X162264285Y-78400057D01*
X162264285Y-78400057D02*
X162311904Y-78495295D01*
X162311904Y-78495295D02*
X162311904Y-78590533D01*
X162311904Y-78590533D02*
X162264285Y-78733390D01*
X162264285Y-78733390D02*
X161692857Y-79304819D01*
X161692857Y-79304819D02*
X162311904Y-79304819D01*
X116254819Y-128604166D02*
X116254819Y-129080356D01*
X116254819Y-129080356D02*
X115254819Y-129080356D01*
X116254819Y-127747023D02*
X116254819Y-128318451D01*
X116254819Y-128032737D02*
X115254819Y-128032737D01*
X115254819Y-128032737D02*
X115397676Y-128127975D01*
X115397676Y-128127975D02*
X115492914Y-128223213D01*
X115492914Y-128223213D02*
X115540533Y-128318451D01*
X138754819Y-105966666D02*
X138278628Y-106299999D01*
X138754819Y-106538094D02*
X137754819Y-106538094D01*
X137754819Y-106538094D02*
X137754819Y-106157142D01*
X137754819Y-106157142D02*
X137802438Y-106061904D01*
X137802438Y-106061904D02*
X137850057Y-106014285D01*
X137850057Y-106014285D02*
X137945295Y-105966666D01*
X137945295Y-105966666D02*
X138088152Y-105966666D01*
X138088152Y-105966666D02*
X138183390Y-106014285D01*
X138183390Y-106014285D02*
X138231009Y-106061904D01*
X138231009Y-106061904D02*
X138278628Y-106157142D01*
X138278628Y-106157142D02*
X138278628Y-106538094D01*
X137850057Y-105585713D02*
X137802438Y-105538094D01*
X137802438Y-105538094D02*
X137754819Y-105442856D01*
X137754819Y-105442856D02*
X137754819Y-105204761D01*
X137754819Y-105204761D02*
X137802438Y-105109523D01*
X137802438Y-105109523D02*
X137850057Y-105061904D01*
X137850057Y-105061904D02*
X137945295Y-105014285D01*
X137945295Y-105014285D02*
X138040533Y-105014285D01*
X138040533Y-105014285D02*
X138183390Y-105061904D01*
X138183390Y-105061904D02*
X138754819Y-105633332D01*
X138754819Y-105633332D02*
X138754819Y-105014285D01*
X126998810Y-121354819D02*
X127617857Y-121354819D01*
X127617857Y-121354819D02*
X127284524Y-121735771D01*
X127284524Y-121735771D02*
X127427381Y-121735771D01*
X127427381Y-121735771D02*
X127522619Y-121783390D01*
X127522619Y-121783390D02*
X127570238Y-121831009D01*
X127570238Y-121831009D02*
X127617857Y-121926247D01*
X127617857Y-121926247D02*
X127617857Y-122164342D01*
X127617857Y-122164342D02*
X127570238Y-122259580D01*
X127570238Y-122259580D02*
X127522619Y-122307200D01*
X127522619Y-122307200D02*
X127427381Y-122354819D01*
X127427381Y-122354819D02*
X127141667Y-122354819D01*
X127141667Y-122354819D02*
X127046429Y-122307200D01*
X127046429Y-122307200D02*
X126998810Y-122259580D01*
X128046429Y-122259580D02*
X128094048Y-122307200D01*
X128094048Y-122307200D02*
X128046429Y-122354819D01*
X128046429Y-122354819D02*
X127998810Y-122307200D01*
X127998810Y-122307200D02*
X128046429Y-122259580D01*
X128046429Y-122259580D02*
X128046429Y-122354819D01*
X128427381Y-121354819D02*
X129046428Y-121354819D01*
X129046428Y-121354819D02*
X128713095Y-121735771D01*
X128713095Y-121735771D02*
X128855952Y-121735771D01*
X128855952Y-121735771D02*
X128951190Y-121783390D01*
X128951190Y-121783390D02*
X128998809Y-121831009D01*
X128998809Y-121831009D02*
X129046428Y-121926247D01*
X129046428Y-121926247D02*
X129046428Y-122164342D01*
X129046428Y-122164342D02*
X128998809Y-122259580D01*
X128998809Y-122259580D02*
X128951190Y-122307200D01*
X128951190Y-122307200D02*
X128855952Y-122354819D01*
X128855952Y-122354819D02*
X128570238Y-122354819D01*
X128570238Y-122354819D02*
X128475000Y-122307200D01*
X128475000Y-122307200D02*
X128427381Y-122259580D01*
X129332143Y-121354819D02*
X129665476Y-122354819D01*
X129665476Y-122354819D02*
X129998809Y-121354819D01*
X144282142Y-125604819D02*
X143948809Y-125128628D01*
X143710714Y-125604819D02*
X143710714Y-124604819D01*
X143710714Y-124604819D02*
X144091666Y-124604819D01*
X144091666Y-124604819D02*
X144186904Y-124652438D01*
X144186904Y-124652438D02*
X144234523Y-124700057D01*
X144234523Y-124700057D02*
X144282142Y-124795295D01*
X144282142Y-124795295D02*
X144282142Y-124938152D01*
X144282142Y-124938152D02*
X144234523Y-125033390D01*
X144234523Y-125033390D02*
X144186904Y-125081009D01*
X144186904Y-125081009D02*
X144091666Y-125128628D01*
X144091666Y-125128628D02*
X143710714Y-125128628D01*
X144663095Y-124700057D02*
X144710714Y-124652438D01*
X144710714Y-124652438D02*
X144805952Y-124604819D01*
X144805952Y-124604819D02*
X145044047Y-124604819D01*
X145044047Y-124604819D02*
X145139285Y-124652438D01*
X145139285Y-124652438D02*
X145186904Y-124700057D01*
X145186904Y-124700057D02*
X145234523Y-124795295D01*
X145234523Y-124795295D02*
X145234523Y-124890533D01*
X145234523Y-124890533D02*
X145186904Y-125033390D01*
X145186904Y-125033390D02*
X144615476Y-125604819D01*
X144615476Y-125604819D02*
X145234523Y-125604819D01*
X145615476Y-124700057D02*
X145663095Y-124652438D01*
X145663095Y-124652438D02*
X145758333Y-124604819D01*
X145758333Y-124604819D02*
X145996428Y-124604819D01*
X145996428Y-124604819D02*
X146091666Y-124652438D01*
X146091666Y-124652438D02*
X146139285Y-124700057D01*
X146139285Y-124700057D02*
X146186904Y-124795295D01*
X146186904Y-124795295D02*
X146186904Y-124890533D01*
X146186904Y-124890533D02*
X146139285Y-125033390D01*
X146139285Y-125033390D02*
X145567857Y-125604819D01*
X145567857Y-125604819D02*
X146186904Y-125604819D01*
X140323809Y-92278628D02*
X140323809Y-92754819D01*
X139990476Y-91754819D02*
X140323809Y-92278628D01*
X140323809Y-92278628D02*
X140657142Y-91754819D01*
X141514285Y-92754819D02*
X140942857Y-92754819D01*
X141228571Y-92754819D02*
X141228571Y-91754819D01*
X141228571Y-91754819D02*
X141133333Y-91897676D01*
X141133333Y-91897676D02*
X141038095Y-91992914D01*
X141038095Y-91992914D02*
X140942857Y-92040533D01*
X118609580Y-131592857D02*
X118657200Y-131640476D01*
X118657200Y-131640476D02*
X118704819Y-131783333D01*
X118704819Y-131783333D02*
X118704819Y-131878571D01*
X118704819Y-131878571D02*
X118657200Y-132021428D01*
X118657200Y-132021428D02*
X118561961Y-132116666D01*
X118561961Y-132116666D02*
X118466723Y-132164285D01*
X118466723Y-132164285D02*
X118276247Y-132211904D01*
X118276247Y-132211904D02*
X118133390Y-132211904D01*
X118133390Y-132211904D02*
X117942914Y-132164285D01*
X117942914Y-132164285D02*
X117847676Y-132116666D01*
X117847676Y-132116666D02*
X117752438Y-132021428D01*
X117752438Y-132021428D02*
X117704819Y-131878571D01*
X117704819Y-131878571D02*
X117704819Y-131783333D01*
X117704819Y-131783333D02*
X117752438Y-131640476D01*
X117752438Y-131640476D02*
X117800057Y-131592857D01*
X118704819Y-130640476D02*
X118704819Y-131211904D01*
X118704819Y-130926190D02*
X117704819Y-130926190D01*
X117704819Y-130926190D02*
X117847676Y-131021428D01*
X117847676Y-131021428D02*
X117942914Y-131116666D01*
X117942914Y-131116666D02*
X117990533Y-131211904D01*
X117704819Y-129783333D02*
X117704819Y-129973809D01*
X117704819Y-129973809D02*
X117752438Y-130069047D01*
X117752438Y-130069047D02*
X117800057Y-130116666D01*
X117800057Y-130116666D02*
X117942914Y-130211904D01*
X117942914Y-130211904D02*
X118133390Y-130259523D01*
X118133390Y-130259523D02*
X118514342Y-130259523D01*
X118514342Y-130259523D02*
X118609580Y-130211904D01*
X118609580Y-130211904D02*
X118657200Y-130164285D01*
X118657200Y-130164285D02*
X118704819Y-130069047D01*
X118704819Y-130069047D02*
X118704819Y-129878571D01*
X118704819Y-129878571D02*
X118657200Y-129783333D01*
X118657200Y-129783333D02*
X118609580Y-129735714D01*
X118609580Y-129735714D02*
X118514342Y-129688095D01*
X118514342Y-129688095D02*
X118276247Y-129688095D01*
X118276247Y-129688095D02*
X118181009Y-129735714D01*
X118181009Y-129735714D02*
X118133390Y-129783333D01*
X118133390Y-129783333D02*
X118085771Y-129878571D01*
X118085771Y-129878571D02*
X118085771Y-130069047D01*
X118085771Y-130069047D02*
X118133390Y-130164285D01*
X118133390Y-130164285D02*
X118181009Y-130211904D01*
X118181009Y-130211904D02*
X118276247Y-130259523D01*
X137354761Y-126400057D02*
X137259523Y-126352438D01*
X137259523Y-126352438D02*
X137164285Y-126257200D01*
X137164285Y-126257200D02*
X137021428Y-126114342D01*
X137021428Y-126114342D02*
X136926190Y-126066723D01*
X136926190Y-126066723D02*
X136830952Y-126066723D01*
X136878571Y-126304819D02*
X136783333Y-126257200D01*
X136783333Y-126257200D02*
X136688095Y-126161961D01*
X136688095Y-126161961D02*
X136640476Y-125971485D01*
X136640476Y-125971485D02*
X136640476Y-125638152D01*
X136640476Y-125638152D02*
X136688095Y-125447676D01*
X136688095Y-125447676D02*
X136783333Y-125352438D01*
X136783333Y-125352438D02*
X136878571Y-125304819D01*
X136878571Y-125304819D02*
X137069047Y-125304819D01*
X137069047Y-125304819D02*
X137164285Y-125352438D01*
X137164285Y-125352438D02*
X137259523Y-125447676D01*
X137259523Y-125447676D02*
X137307142Y-125638152D01*
X137307142Y-125638152D02*
X137307142Y-125971485D01*
X137307142Y-125971485D02*
X137259523Y-126161961D01*
X137259523Y-126161961D02*
X137164285Y-126257200D01*
X137164285Y-126257200D02*
X137069047Y-126304819D01*
X137069047Y-126304819D02*
X136878571Y-126304819D01*
X137688095Y-125400057D02*
X137735714Y-125352438D01*
X137735714Y-125352438D02*
X137830952Y-125304819D01*
X137830952Y-125304819D02*
X138069047Y-125304819D01*
X138069047Y-125304819D02*
X138164285Y-125352438D01*
X138164285Y-125352438D02*
X138211904Y-125400057D01*
X138211904Y-125400057D02*
X138259523Y-125495295D01*
X138259523Y-125495295D02*
X138259523Y-125590533D01*
X138259523Y-125590533D02*
X138211904Y-125733390D01*
X138211904Y-125733390D02*
X137640476Y-126304819D01*
X137640476Y-126304819D02*
X138259523Y-126304819D01*
X152190476Y-127104819D02*
X152857142Y-127104819D01*
X152857142Y-127104819D02*
X152190476Y-128104819D01*
X152190476Y-128104819D02*
X152857142Y-128104819D01*
X153238095Y-127581009D02*
X153571428Y-127581009D01*
X153714285Y-128104819D02*
X153238095Y-128104819D01*
X153238095Y-128104819D02*
X153238095Y-127104819D01*
X153238095Y-127104819D02*
X153714285Y-127104819D01*
X154714285Y-128104819D02*
X154380952Y-127628628D01*
X154142857Y-128104819D02*
X154142857Y-127104819D01*
X154142857Y-127104819D02*
X154523809Y-127104819D01*
X154523809Y-127104819D02*
X154619047Y-127152438D01*
X154619047Y-127152438D02*
X154666666Y-127200057D01*
X154666666Y-127200057D02*
X154714285Y-127295295D01*
X154714285Y-127295295D02*
X154714285Y-127438152D01*
X154714285Y-127438152D02*
X154666666Y-127533390D01*
X154666666Y-127533390D02*
X154619047Y-127581009D01*
X154619047Y-127581009D02*
X154523809Y-127628628D01*
X154523809Y-127628628D02*
X154142857Y-127628628D01*
X155333333Y-127104819D02*
X155523809Y-127104819D01*
X155523809Y-127104819D02*
X155619047Y-127152438D01*
X155619047Y-127152438D02*
X155714285Y-127247676D01*
X155714285Y-127247676D02*
X155761904Y-127438152D01*
X155761904Y-127438152D02*
X155761904Y-127771485D01*
X155761904Y-127771485D02*
X155714285Y-127961961D01*
X155714285Y-127961961D02*
X155619047Y-128057200D01*
X155619047Y-128057200D02*
X155523809Y-128104819D01*
X155523809Y-128104819D02*
X155333333Y-128104819D01*
X155333333Y-128104819D02*
X155238095Y-128057200D01*
X155238095Y-128057200D02*
X155142857Y-127961961D01*
X155142857Y-127961961D02*
X155095238Y-127771485D01*
X155095238Y-127771485D02*
X155095238Y-127438152D01*
X155095238Y-127438152D02*
X155142857Y-127247676D01*
X155142857Y-127247676D02*
X155238095Y-127152438D01*
X155238095Y-127152438D02*
X155333333Y-127104819D01*
X106266667Y-106754819D02*
X106600000Y-107754819D01*
X106600000Y-107754819D02*
X106933333Y-106754819D01*
X107600000Y-107231009D02*
X107742857Y-107278628D01*
X107742857Y-107278628D02*
X107790476Y-107326247D01*
X107790476Y-107326247D02*
X107838095Y-107421485D01*
X107838095Y-107421485D02*
X107838095Y-107564342D01*
X107838095Y-107564342D02*
X107790476Y-107659580D01*
X107790476Y-107659580D02*
X107742857Y-107707200D01*
X107742857Y-107707200D02*
X107647619Y-107754819D01*
X107647619Y-107754819D02*
X107266667Y-107754819D01*
X107266667Y-107754819D02*
X107266667Y-106754819D01*
X107266667Y-106754819D02*
X107600000Y-106754819D01*
X107600000Y-106754819D02*
X107695238Y-106802438D01*
X107695238Y-106802438D02*
X107742857Y-106850057D01*
X107742857Y-106850057D02*
X107790476Y-106945295D01*
X107790476Y-106945295D02*
X107790476Y-107040533D01*
X107790476Y-107040533D02*
X107742857Y-107135771D01*
X107742857Y-107135771D02*
X107695238Y-107183390D01*
X107695238Y-107183390D02*
X107600000Y-107231009D01*
X107600000Y-107231009D02*
X107266667Y-107231009D01*
X108266667Y-106754819D02*
X108266667Y-107564342D01*
X108266667Y-107564342D02*
X108314286Y-107659580D01*
X108314286Y-107659580D02*
X108361905Y-107707200D01*
X108361905Y-107707200D02*
X108457143Y-107754819D01*
X108457143Y-107754819D02*
X108647619Y-107754819D01*
X108647619Y-107754819D02*
X108742857Y-107707200D01*
X108742857Y-107707200D02*
X108790476Y-107659580D01*
X108790476Y-107659580D02*
X108838095Y-107564342D01*
X108838095Y-107564342D02*
X108838095Y-106754819D01*
X109266667Y-107707200D02*
X109409524Y-107754819D01*
X109409524Y-107754819D02*
X109647619Y-107754819D01*
X109647619Y-107754819D02*
X109742857Y-107707200D01*
X109742857Y-107707200D02*
X109790476Y-107659580D01*
X109790476Y-107659580D02*
X109838095Y-107564342D01*
X109838095Y-107564342D02*
X109838095Y-107469104D01*
X109838095Y-107469104D02*
X109790476Y-107373866D01*
X109790476Y-107373866D02*
X109742857Y-107326247D01*
X109742857Y-107326247D02*
X109647619Y-107278628D01*
X109647619Y-107278628D02*
X109457143Y-107231009D01*
X109457143Y-107231009D02*
X109361905Y-107183390D01*
X109361905Y-107183390D02*
X109314286Y-107135771D01*
X109314286Y-107135771D02*
X109266667Y-107040533D01*
X109266667Y-107040533D02*
X109266667Y-106945295D01*
X109266667Y-106945295D02*
X109314286Y-106850057D01*
X109314286Y-106850057D02*
X109361905Y-106802438D01*
X109361905Y-106802438D02*
X109457143Y-106754819D01*
X109457143Y-106754819D02*
X109695238Y-106754819D01*
X109695238Y-106754819D02*
X109838095Y-106802438D01*
X130557142Y-79404819D02*
X130223809Y-78928628D01*
X129985714Y-79404819D02*
X129985714Y-78404819D01*
X129985714Y-78404819D02*
X130366666Y-78404819D01*
X130366666Y-78404819D02*
X130461904Y-78452438D01*
X130461904Y-78452438D02*
X130509523Y-78500057D01*
X130509523Y-78500057D02*
X130557142Y-78595295D01*
X130557142Y-78595295D02*
X130557142Y-78738152D01*
X130557142Y-78738152D02*
X130509523Y-78833390D01*
X130509523Y-78833390D02*
X130461904Y-78881009D01*
X130461904Y-78881009D02*
X130366666Y-78928628D01*
X130366666Y-78928628D02*
X129985714Y-78928628D01*
X131509523Y-79404819D02*
X130938095Y-79404819D01*
X131223809Y-79404819D02*
X131223809Y-78404819D01*
X131223809Y-78404819D02*
X131128571Y-78547676D01*
X131128571Y-78547676D02*
X131033333Y-78642914D01*
X131033333Y-78642914D02*
X130938095Y-78690533D01*
X132414285Y-78404819D02*
X131938095Y-78404819D01*
X131938095Y-78404819D02*
X131890476Y-78881009D01*
X131890476Y-78881009D02*
X131938095Y-78833390D01*
X131938095Y-78833390D02*
X132033333Y-78785771D01*
X132033333Y-78785771D02*
X132271428Y-78785771D01*
X132271428Y-78785771D02*
X132366666Y-78833390D01*
X132366666Y-78833390D02*
X132414285Y-78881009D01*
X132414285Y-78881009D02*
X132461904Y-78976247D01*
X132461904Y-78976247D02*
X132461904Y-79214342D01*
X132461904Y-79214342D02*
X132414285Y-79309580D01*
X132414285Y-79309580D02*
X132366666Y-79357200D01*
X132366666Y-79357200D02*
X132271428Y-79404819D01*
X132271428Y-79404819D02*
X132033333Y-79404819D01*
X132033333Y-79404819D02*
X131938095Y-79357200D01*
X131938095Y-79357200D02*
X131890476Y-79309580D01*
X134633333Y-96009580D02*
X134585714Y-96057200D01*
X134585714Y-96057200D02*
X134442857Y-96104819D01*
X134442857Y-96104819D02*
X134347619Y-96104819D01*
X134347619Y-96104819D02*
X134204762Y-96057200D01*
X134204762Y-96057200D02*
X134109524Y-95961961D01*
X134109524Y-95961961D02*
X134061905Y-95866723D01*
X134061905Y-95866723D02*
X134014286Y-95676247D01*
X134014286Y-95676247D02*
X134014286Y-95533390D01*
X134014286Y-95533390D02*
X134061905Y-95342914D01*
X134061905Y-95342914D02*
X134109524Y-95247676D01*
X134109524Y-95247676D02*
X134204762Y-95152438D01*
X134204762Y-95152438D02*
X134347619Y-95104819D01*
X134347619Y-95104819D02*
X134442857Y-95104819D01*
X134442857Y-95104819D02*
X134585714Y-95152438D01*
X134585714Y-95152438D02*
X134633333Y-95200057D01*
X135109524Y-96104819D02*
X135300000Y-96104819D01*
X135300000Y-96104819D02*
X135395238Y-96057200D01*
X135395238Y-96057200D02*
X135442857Y-96009580D01*
X135442857Y-96009580D02*
X135538095Y-95866723D01*
X135538095Y-95866723D02*
X135585714Y-95676247D01*
X135585714Y-95676247D02*
X135585714Y-95295295D01*
X135585714Y-95295295D02*
X135538095Y-95200057D01*
X135538095Y-95200057D02*
X135490476Y-95152438D01*
X135490476Y-95152438D02*
X135395238Y-95104819D01*
X135395238Y-95104819D02*
X135204762Y-95104819D01*
X135204762Y-95104819D02*
X135109524Y-95152438D01*
X135109524Y-95152438D02*
X135061905Y-95200057D01*
X135061905Y-95200057D02*
X135014286Y-95295295D01*
X135014286Y-95295295D02*
X135014286Y-95533390D01*
X135014286Y-95533390D02*
X135061905Y-95628628D01*
X135061905Y-95628628D02*
X135109524Y-95676247D01*
X135109524Y-95676247D02*
X135204762Y-95723866D01*
X135204762Y-95723866D02*
X135395238Y-95723866D01*
X135395238Y-95723866D02*
X135490476Y-95676247D01*
X135490476Y-95676247D02*
X135538095Y-95628628D01*
X135538095Y-95628628D02*
X135585714Y-95533390D01*
X138057142Y-119754819D02*
X137723809Y-119278628D01*
X137485714Y-119754819D02*
X137485714Y-118754819D01*
X137485714Y-118754819D02*
X137866666Y-118754819D01*
X137866666Y-118754819D02*
X137961904Y-118802438D01*
X137961904Y-118802438D02*
X138009523Y-118850057D01*
X138009523Y-118850057D02*
X138057142Y-118945295D01*
X138057142Y-118945295D02*
X138057142Y-119088152D01*
X138057142Y-119088152D02*
X138009523Y-119183390D01*
X138009523Y-119183390D02*
X137961904Y-119231009D01*
X137961904Y-119231009D02*
X137866666Y-119278628D01*
X137866666Y-119278628D02*
X137485714Y-119278628D01*
X138438095Y-118850057D02*
X138485714Y-118802438D01*
X138485714Y-118802438D02*
X138580952Y-118754819D01*
X138580952Y-118754819D02*
X138819047Y-118754819D01*
X138819047Y-118754819D02*
X138914285Y-118802438D01*
X138914285Y-118802438D02*
X138961904Y-118850057D01*
X138961904Y-118850057D02*
X139009523Y-118945295D01*
X139009523Y-118945295D02*
X139009523Y-119040533D01*
X139009523Y-119040533D02*
X138961904Y-119183390D01*
X138961904Y-119183390D02*
X138390476Y-119754819D01*
X138390476Y-119754819D02*
X139009523Y-119754819D01*
X139961904Y-119754819D02*
X139390476Y-119754819D01*
X139676190Y-119754819D02*
X139676190Y-118754819D01*
X139676190Y-118754819D02*
X139580952Y-118897676D01*
X139580952Y-118897676D02*
X139485714Y-118992914D01*
X139485714Y-118992914D02*
X139390476Y-119040533D01*
X144404819Y-94166666D02*
X143928628Y-94499999D01*
X144404819Y-94738094D02*
X143404819Y-94738094D01*
X143404819Y-94738094D02*
X143404819Y-94357142D01*
X143404819Y-94357142D02*
X143452438Y-94261904D01*
X143452438Y-94261904D02*
X143500057Y-94214285D01*
X143500057Y-94214285D02*
X143595295Y-94166666D01*
X143595295Y-94166666D02*
X143738152Y-94166666D01*
X143738152Y-94166666D02*
X143833390Y-94214285D01*
X143833390Y-94214285D02*
X143881009Y-94261904D01*
X143881009Y-94261904D02*
X143928628Y-94357142D01*
X143928628Y-94357142D02*
X143928628Y-94738094D01*
X143404819Y-93309523D02*
X143404819Y-93499999D01*
X143404819Y-93499999D02*
X143452438Y-93595237D01*
X143452438Y-93595237D02*
X143500057Y-93642856D01*
X143500057Y-93642856D02*
X143642914Y-93738094D01*
X143642914Y-93738094D02*
X143833390Y-93785713D01*
X143833390Y-93785713D02*
X144214342Y-93785713D01*
X144214342Y-93785713D02*
X144309580Y-93738094D01*
X144309580Y-93738094D02*
X144357200Y-93690475D01*
X144357200Y-93690475D02*
X144404819Y-93595237D01*
X144404819Y-93595237D02*
X144404819Y-93404761D01*
X144404819Y-93404761D02*
X144357200Y-93309523D01*
X144357200Y-93309523D02*
X144309580Y-93261904D01*
X144309580Y-93261904D02*
X144214342Y-93214285D01*
X144214342Y-93214285D02*
X143976247Y-93214285D01*
X143976247Y-93214285D02*
X143881009Y-93261904D01*
X143881009Y-93261904D02*
X143833390Y-93309523D01*
X143833390Y-93309523D02*
X143785771Y-93404761D01*
X143785771Y-93404761D02*
X143785771Y-93595237D01*
X143785771Y-93595237D02*
X143833390Y-93690475D01*
X143833390Y-93690475D02*
X143881009Y-93738094D01*
X143881009Y-93738094D02*
X143976247Y-93785713D01*
X113559580Y-129142857D02*
X113607200Y-129190476D01*
X113607200Y-129190476D02*
X113654819Y-129333333D01*
X113654819Y-129333333D02*
X113654819Y-129428571D01*
X113654819Y-129428571D02*
X113607200Y-129571428D01*
X113607200Y-129571428D02*
X113511961Y-129666666D01*
X113511961Y-129666666D02*
X113416723Y-129714285D01*
X113416723Y-129714285D02*
X113226247Y-129761904D01*
X113226247Y-129761904D02*
X113083390Y-129761904D01*
X113083390Y-129761904D02*
X112892914Y-129714285D01*
X112892914Y-129714285D02*
X112797676Y-129666666D01*
X112797676Y-129666666D02*
X112702438Y-129571428D01*
X112702438Y-129571428D02*
X112654819Y-129428571D01*
X112654819Y-129428571D02*
X112654819Y-129333333D01*
X112654819Y-129333333D02*
X112702438Y-129190476D01*
X112702438Y-129190476D02*
X112750057Y-129142857D01*
X113654819Y-128190476D02*
X113654819Y-128761904D01*
X113654819Y-128476190D02*
X112654819Y-128476190D01*
X112654819Y-128476190D02*
X112797676Y-128571428D01*
X112797676Y-128571428D02*
X112892914Y-128666666D01*
X112892914Y-128666666D02*
X112940533Y-128761904D01*
X112654819Y-127857142D02*
X112654819Y-127238095D01*
X112654819Y-127238095D02*
X113035771Y-127571428D01*
X113035771Y-127571428D02*
X113035771Y-127428571D01*
X113035771Y-127428571D02*
X113083390Y-127333333D01*
X113083390Y-127333333D02*
X113131009Y-127285714D01*
X113131009Y-127285714D02*
X113226247Y-127238095D01*
X113226247Y-127238095D02*
X113464342Y-127238095D01*
X113464342Y-127238095D02*
X113559580Y-127285714D01*
X113559580Y-127285714D02*
X113607200Y-127333333D01*
X113607200Y-127333333D02*
X113654819Y-127428571D01*
X113654819Y-127428571D02*
X113654819Y-127714285D01*
X113654819Y-127714285D02*
X113607200Y-127809523D01*
X113607200Y-127809523D02*
X113559580Y-127857142D01*
X119407142Y-120159580D02*
X119359523Y-120207200D01*
X119359523Y-120207200D02*
X119216666Y-120254819D01*
X119216666Y-120254819D02*
X119121428Y-120254819D01*
X119121428Y-120254819D02*
X118978571Y-120207200D01*
X118978571Y-120207200D02*
X118883333Y-120111961D01*
X118883333Y-120111961D02*
X118835714Y-120016723D01*
X118835714Y-120016723D02*
X118788095Y-119826247D01*
X118788095Y-119826247D02*
X118788095Y-119683390D01*
X118788095Y-119683390D02*
X118835714Y-119492914D01*
X118835714Y-119492914D02*
X118883333Y-119397676D01*
X118883333Y-119397676D02*
X118978571Y-119302438D01*
X118978571Y-119302438D02*
X119121428Y-119254819D01*
X119121428Y-119254819D02*
X119216666Y-119254819D01*
X119216666Y-119254819D02*
X119359523Y-119302438D01*
X119359523Y-119302438D02*
X119407142Y-119350057D01*
X119788095Y-119350057D02*
X119835714Y-119302438D01*
X119835714Y-119302438D02*
X119930952Y-119254819D01*
X119930952Y-119254819D02*
X120169047Y-119254819D01*
X120169047Y-119254819D02*
X120264285Y-119302438D01*
X120264285Y-119302438D02*
X120311904Y-119350057D01*
X120311904Y-119350057D02*
X120359523Y-119445295D01*
X120359523Y-119445295D02*
X120359523Y-119540533D01*
X120359523Y-119540533D02*
X120311904Y-119683390D01*
X120311904Y-119683390D02*
X119740476Y-120254819D01*
X119740476Y-120254819D02*
X120359523Y-120254819D01*
X120740476Y-119350057D02*
X120788095Y-119302438D01*
X120788095Y-119302438D02*
X120883333Y-119254819D01*
X120883333Y-119254819D02*
X121121428Y-119254819D01*
X121121428Y-119254819D02*
X121216666Y-119302438D01*
X121216666Y-119302438D02*
X121264285Y-119350057D01*
X121264285Y-119350057D02*
X121311904Y-119445295D01*
X121311904Y-119445295D02*
X121311904Y-119540533D01*
X121311904Y-119540533D02*
X121264285Y-119683390D01*
X121264285Y-119683390D02*
X120692857Y-120254819D01*
X120692857Y-120254819D02*
X121311904Y-120254819D01*
X166810714Y-128054819D02*
X166810714Y-127054819D01*
X166810714Y-127531009D02*
X167382142Y-127531009D01*
X167382142Y-128054819D02*
X167382142Y-127054819D01*
X168048809Y-127054819D02*
X168239285Y-127054819D01*
X168239285Y-127054819D02*
X168334523Y-127102438D01*
X168334523Y-127102438D02*
X168429761Y-127197676D01*
X168429761Y-127197676D02*
X168477380Y-127388152D01*
X168477380Y-127388152D02*
X168477380Y-127721485D01*
X168477380Y-127721485D02*
X168429761Y-127911961D01*
X168429761Y-127911961D02*
X168334523Y-128007200D01*
X168334523Y-128007200D02*
X168239285Y-128054819D01*
X168239285Y-128054819D02*
X168048809Y-128054819D01*
X168048809Y-128054819D02*
X167953571Y-128007200D01*
X167953571Y-128007200D02*
X167858333Y-127911961D01*
X167858333Y-127911961D02*
X167810714Y-127721485D01*
X167810714Y-127721485D02*
X167810714Y-127388152D01*
X167810714Y-127388152D02*
X167858333Y-127197676D01*
X167858333Y-127197676D02*
X167953571Y-127102438D01*
X167953571Y-127102438D02*
X168048809Y-127054819D01*
X169382142Y-128054819D02*
X168905952Y-128054819D01*
X168905952Y-128054819D02*
X168905952Y-127054819D01*
X169715476Y-128054819D02*
X169715476Y-127054819D01*
X169715476Y-127054819D02*
X169953571Y-127054819D01*
X169953571Y-127054819D02*
X170096428Y-127102438D01*
X170096428Y-127102438D02*
X170191666Y-127197676D01*
X170191666Y-127197676D02*
X170239285Y-127292914D01*
X170239285Y-127292914D02*
X170286904Y-127483390D01*
X170286904Y-127483390D02*
X170286904Y-127626247D01*
X170286904Y-127626247D02*
X170239285Y-127816723D01*
X170239285Y-127816723D02*
X170191666Y-127911961D01*
X170191666Y-127911961D02*
X170096428Y-128007200D01*
X170096428Y-128007200D02*
X169953571Y-128054819D01*
X169953571Y-128054819D02*
X169715476Y-128054819D01*
X138247618Y-81179819D02*
X137914285Y-80703628D01*
X137676190Y-81179819D02*
X137676190Y-80179819D01*
X137676190Y-80179819D02*
X138057142Y-80179819D01*
X138057142Y-80179819D02*
X138152380Y-80227438D01*
X138152380Y-80227438D02*
X138199999Y-80275057D01*
X138199999Y-80275057D02*
X138247618Y-80370295D01*
X138247618Y-80370295D02*
X138247618Y-80513152D01*
X138247618Y-80513152D02*
X138199999Y-80608390D01*
X138199999Y-80608390D02*
X138152380Y-80656009D01*
X138152380Y-80656009D02*
X138057142Y-80703628D01*
X138057142Y-80703628D02*
X137676190Y-80703628D01*
X138676190Y-80656009D02*
X139009523Y-80656009D01*
X139152380Y-81179819D02*
X138676190Y-81179819D01*
X138676190Y-81179819D02*
X138676190Y-80179819D01*
X138676190Y-80179819D02*
X139152380Y-80179819D01*
X139533333Y-81132200D02*
X139676190Y-81179819D01*
X139676190Y-81179819D02*
X139914285Y-81179819D01*
X139914285Y-81179819D02*
X140009523Y-81132200D01*
X140009523Y-81132200D02*
X140057142Y-81084580D01*
X140057142Y-81084580D02*
X140104761Y-80989342D01*
X140104761Y-80989342D02*
X140104761Y-80894104D01*
X140104761Y-80894104D02*
X140057142Y-80798866D01*
X140057142Y-80798866D02*
X140009523Y-80751247D01*
X140009523Y-80751247D02*
X139914285Y-80703628D01*
X139914285Y-80703628D02*
X139723809Y-80656009D01*
X139723809Y-80656009D02*
X139628571Y-80608390D01*
X139628571Y-80608390D02*
X139580952Y-80560771D01*
X139580952Y-80560771D02*
X139533333Y-80465533D01*
X139533333Y-80465533D02*
X139533333Y-80370295D01*
X139533333Y-80370295D02*
X139580952Y-80275057D01*
X139580952Y-80275057D02*
X139628571Y-80227438D01*
X139628571Y-80227438D02*
X139723809Y-80179819D01*
X139723809Y-80179819D02*
X139961904Y-80179819D01*
X139961904Y-80179819D02*
X140104761Y-80227438D01*
X140533333Y-80656009D02*
X140866666Y-80656009D01*
X141009523Y-81179819D02*
X140533333Y-81179819D01*
X140533333Y-81179819D02*
X140533333Y-80179819D01*
X140533333Y-80179819D02*
X141009523Y-80179819D01*
X141295238Y-80179819D02*
X141866666Y-80179819D01*
X141580952Y-81179819D02*
X141580952Y-80179819D01*
X109808333Y-78909580D02*
X109760714Y-78957200D01*
X109760714Y-78957200D02*
X109617857Y-79004819D01*
X109617857Y-79004819D02*
X109522619Y-79004819D01*
X109522619Y-79004819D02*
X109379762Y-78957200D01*
X109379762Y-78957200D02*
X109284524Y-78861961D01*
X109284524Y-78861961D02*
X109236905Y-78766723D01*
X109236905Y-78766723D02*
X109189286Y-78576247D01*
X109189286Y-78576247D02*
X109189286Y-78433390D01*
X109189286Y-78433390D02*
X109236905Y-78242914D01*
X109236905Y-78242914D02*
X109284524Y-78147676D01*
X109284524Y-78147676D02*
X109379762Y-78052438D01*
X109379762Y-78052438D02*
X109522619Y-78004819D01*
X109522619Y-78004819D02*
X109617857Y-78004819D01*
X109617857Y-78004819D02*
X109760714Y-78052438D01*
X109760714Y-78052438D02*
X109808333Y-78100057D01*
X110141667Y-78004819D02*
X110760714Y-78004819D01*
X110760714Y-78004819D02*
X110427381Y-78385771D01*
X110427381Y-78385771D02*
X110570238Y-78385771D01*
X110570238Y-78385771D02*
X110665476Y-78433390D01*
X110665476Y-78433390D02*
X110713095Y-78481009D01*
X110713095Y-78481009D02*
X110760714Y-78576247D01*
X110760714Y-78576247D02*
X110760714Y-78814342D01*
X110760714Y-78814342D02*
X110713095Y-78909580D01*
X110713095Y-78909580D02*
X110665476Y-78957200D01*
X110665476Y-78957200D02*
X110570238Y-79004819D01*
X110570238Y-79004819D02*
X110284524Y-79004819D01*
X110284524Y-79004819D02*
X110189286Y-78957200D01*
X110189286Y-78957200D02*
X110141667Y-78909580D01*
X124450595Y-123542319D02*
X124450595Y-124351842D01*
X124450595Y-124351842D02*
X124498214Y-124447080D01*
X124498214Y-124447080D02*
X124545833Y-124494700D01*
X124545833Y-124494700D02*
X124641071Y-124542319D01*
X124641071Y-124542319D02*
X124831547Y-124542319D01*
X124831547Y-124542319D02*
X124926785Y-124494700D01*
X124926785Y-124494700D02*
X124974404Y-124447080D01*
X124974404Y-124447080D02*
X125022023Y-124351842D01*
X125022023Y-124351842D02*
X125022023Y-123542319D01*
X125926785Y-123875652D02*
X125926785Y-124542319D01*
X125688690Y-123494700D02*
X125450595Y-124208985D01*
X125450595Y-124208985D02*
X126069642Y-124208985D01*
X107416666Y-92504819D02*
X107416666Y-93219104D01*
X107416666Y-93219104D02*
X107369047Y-93361961D01*
X107369047Y-93361961D02*
X107273809Y-93457200D01*
X107273809Y-93457200D02*
X107130952Y-93504819D01*
X107130952Y-93504819D02*
X107035714Y-93504819D01*
X108416666Y-93504819D02*
X107845238Y-93504819D01*
X108130952Y-93504819D02*
X108130952Y-92504819D01*
X108130952Y-92504819D02*
X108035714Y-92647676D01*
X108035714Y-92647676D02*
X107940476Y-92742914D01*
X107940476Y-92742914D02*
X107845238Y-92790533D01*
X106542857Y-91907200D02*
X106685714Y-91954819D01*
X106685714Y-91954819D02*
X106923809Y-91954819D01*
X106923809Y-91954819D02*
X107019047Y-91907200D01*
X107019047Y-91907200D02*
X107066666Y-91859580D01*
X107066666Y-91859580D02*
X107114285Y-91764342D01*
X107114285Y-91764342D02*
X107114285Y-91669104D01*
X107114285Y-91669104D02*
X107066666Y-91573866D01*
X107066666Y-91573866D02*
X107019047Y-91526247D01*
X107019047Y-91526247D02*
X106923809Y-91478628D01*
X106923809Y-91478628D02*
X106733333Y-91431009D01*
X106733333Y-91431009D02*
X106638095Y-91383390D01*
X106638095Y-91383390D02*
X106590476Y-91335771D01*
X106590476Y-91335771D02*
X106542857Y-91240533D01*
X106542857Y-91240533D02*
X106542857Y-91145295D01*
X106542857Y-91145295D02*
X106590476Y-91050057D01*
X106590476Y-91050057D02*
X106638095Y-91002438D01*
X106638095Y-91002438D02*
X106733333Y-90954819D01*
X106733333Y-90954819D02*
X106971428Y-90954819D01*
X106971428Y-90954819D02*
X107114285Y-91002438D01*
X107447619Y-90954819D02*
X107685714Y-91954819D01*
X107685714Y-91954819D02*
X107876190Y-91240533D01*
X107876190Y-91240533D02*
X108066666Y-91954819D01*
X108066666Y-91954819D02*
X108304762Y-90954819D01*
X108685714Y-91954819D02*
X108685714Y-90954819D01*
X108685714Y-90954819D02*
X108923809Y-90954819D01*
X108923809Y-90954819D02*
X109066666Y-91002438D01*
X109066666Y-91002438D02*
X109161904Y-91097676D01*
X109161904Y-91097676D02*
X109209523Y-91192914D01*
X109209523Y-91192914D02*
X109257142Y-91383390D01*
X109257142Y-91383390D02*
X109257142Y-91526247D01*
X109257142Y-91526247D02*
X109209523Y-91716723D01*
X109209523Y-91716723D02*
X109161904Y-91811961D01*
X109161904Y-91811961D02*
X109066666Y-91907200D01*
X109066666Y-91907200D02*
X108923809Y-91954819D01*
X108923809Y-91954819D02*
X108685714Y-91954819D01*
X129209580Y-130867857D02*
X129257200Y-130915476D01*
X129257200Y-130915476D02*
X129304819Y-131058333D01*
X129304819Y-131058333D02*
X129304819Y-131153571D01*
X129304819Y-131153571D02*
X129257200Y-131296428D01*
X129257200Y-131296428D02*
X129161961Y-131391666D01*
X129161961Y-131391666D02*
X129066723Y-131439285D01*
X129066723Y-131439285D02*
X128876247Y-131486904D01*
X128876247Y-131486904D02*
X128733390Y-131486904D01*
X128733390Y-131486904D02*
X128542914Y-131439285D01*
X128542914Y-131439285D02*
X128447676Y-131391666D01*
X128447676Y-131391666D02*
X128352438Y-131296428D01*
X128352438Y-131296428D02*
X128304819Y-131153571D01*
X128304819Y-131153571D02*
X128304819Y-131058333D01*
X128304819Y-131058333D02*
X128352438Y-130915476D01*
X128352438Y-130915476D02*
X128400057Y-130867857D01*
X128400057Y-130486904D02*
X128352438Y-130439285D01*
X128352438Y-130439285D02*
X128304819Y-130344047D01*
X128304819Y-130344047D02*
X128304819Y-130105952D01*
X128304819Y-130105952D02*
X128352438Y-130010714D01*
X128352438Y-130010714D02*
X128400057Y-129963095D01*
X128400057Y-129963095D02*
X128495295Y-129915476D01*
X128495295Y-129915476D02*
X128590533Y-129915476D01*
X128590533Y-129915476D02*
X128733390Y-129963095D01*
X128733390Y-129963095D02*
X129304819Y-130534523D01*
X129304819Y-130534523D02*
X129304819Y-129915476D01*
X128304819Y-129296428D02*
X128304819Y-129201190D01*
X128304819Y-129201190D02*
X128352438Y-129105952D01*
X128352438Y-129105952D02*
X128400057Y-129058333D01*
X128400057Y-129058333D02*
X128495295Y-129010714D01*
X128495295Y-129010714D02*
X128685771Y-128963095D01*
X128685771Y-128963095D02*
X128923866Y-128963095D01*
X128923866Y-128963095D02*
X129114342Y-129010714D01*
X129114342Y-129010714D02*
X129209580Y-129058333D01*
X129209580Y-129058333D02*
X129257200Y-129105952D01*
X129257200Y-129105952D02*
X129304819Y-129201190D01*
X129304819Y-129201190D02*
X129304819Y-129296428D01*
X129304819Y-129296428D02*
X129257200Y-129391666D01*
X129257200Y-129391666D02*
X129209580Y-129439285D01*
X129209580Y-129439285D02*
X129114342Y-129486904D01*
X129114342Y-129486904D02*
X128923866Y-129534523D01*
X128923866Y-129534523D02*
X128685771Y-129534523D01*
X128685771Y-129534523D02*
X128495295Y-129486904D01*
X128495295Y-129486904D02*
X128400057Y-129439285D01*
X128400057Y-129439285D02*
X128352438Y-129391666D01*
X128352438Y-129391666D02*
X128304819Y-129296428D01*
X113054819Y-118061904D02*
X113864342Y-118061904D01*
X113864342Y-118061904D02*
X113959580Y-118014285D01*
X113959580Y-118014285D02*
X114007200Y-117966666D01*
X114007200Y-117966666D02*
X114054819Y-117871428D01*
X114054819Y-117871428D02*
X114054819Y-117680952D01*
X114054819Y-117680952D02*
X114007200Y-117585714D01*
X114007200Y-117585714D02*
X113959580Y-117538095D01*
X113959580Y-117538095D02*
X113864342Y-117490476D01*
X113864342Y-117490476D02*
X113054819Y-117490476D01*
X113054819Y-116538095D02*
X113054819Y-117014285D01*
X113054819Y-117014285D02*
X113531009Y-117061904D01*
X113531009Y-117061904D02*
X113483390Y-117014285D01*
X113483390Y-117014285D02*
X113435771Y-116919047D01*
X113435771Y-116919047D02*
X113435771Y-116680952D01*
X113435771Y-116680952D02*
X113483390Y-116585714D01*
X113483390Y-116585714D02*
X113531009Y-116538095D01*
X113531009Y-116538095D02*
X113626247Y-116490476D01*
X113626247Y-116490476D02*
X113864342Y-116490476D01*
X113864342Y-116490476D02*
X113959580Y-116538095D01*
X113959580Y-116538095D02*
X114007200Y-116585714D01*
X114007200Y-116585714D02*
X114054819Y-116680952D01*
X114054819Y-116680952D02*
X114054819Y-116919047D01*
X114054819Y-116919047D02*
X114007200Y-117014285D01*
X114007200Y-117014285D02*
X113959580Y-117061904D01*
X130507142Y-80954819D02*
X130173809Y-80478628D01*
X129935714Y-80954819D02*
X129935714Y-79954819D01*
X129935714Y-79954819D02*
X130316666Y-79954819D01*
X130316666Y-79954819D02*
X130411904Y-80002438D01*
X130411904Y-80002438D02*
X130459523Y-80050057D01*
X130459523Y-80050057D02*
X130507142Y-80145295D01*
X130507142Y-80145295D02*
X130507142Y-80288152D01*
X130507142Y-80288152D02*
X130459523Y-80383390D01*
X130459523Y-80383390D02*
X130411904Y-80431009D01*
X130411904Y-80431009D02*
X130316666Y-80478628D01*
X130316666Y-80478628D02*
X129935714Y-80478628D01*
X131459523Y-80954819D02*
X130888095Y-80954819D01*
X131173809Y-80954819D02*
X131173809Y-79954819D01*
X131173809Y-79954819D02*
X131078571Y-80097676D01*
X131078571Y-80097676D02*
X130983333Y-80192914D01*
X130983333Y-80192914D02*
X130888095Y-80240533D01*
X132316666Y-80288152D02*
X132316666Y-80954819D01*
X132078571Y-79907200D02*
X131840476Y-80621485D01*
X131840476Y-80621485D02*
X132459523Y-80621485D01*
X159433333Y-97309580D02*
X159385714Y-97357200D01*
X159385714Y-97357200D02*
X159242857Y-97404819D01*
X159242857Y-97404819D02*
X159147619Y-97404819D01*
X159147619Y-97404819D02*
X159004762Y-97357200D01*
X159004762Y-97357200D02*
X158909524Y-97261961D01*
X158909524Y-97261961D02*
X158861905Y-97166723D01*
X158861905Y-97166723D02*
X158814286Y-96976247D01*
X158814286Y-96976247D02*
X158814286Y-96833390D01*
X158814286Y-96833390D02*
X158861905Y-96642914D01*
X158861905Y-96642914D02*
X158909524Y-96547676D01*
X158909524Y-96547676D02*
X159004762Y-96452438D01*
X159004762Y-96452438D02*
X159147619Y-96404819D01*
X159147619Y-96404819D02*
X159242857Y-96404819D01*
X159242857Y-96404819D02*
X159385714Y-96452438D01*
X159385714Y-96452438D02*
X159433333Y-96500057D01*
X160338095Y-96404819D02*
X159861905Y-96404819D01*
X159861905Y-96404819D02*
X159814286Y-96881009D01*
X159814286Y-96881009D02*
X159861905Y-96833390D01*
X159861905Y-96833390D02*
X159957143Y-96785771D01*
X159957143Y-96785771D02*
X160195238Y-96785771D01*
X160195238Y-96785771D02*
X160290476Y-96833390D01*
X160290476Y-96833390D02*
X160338095Y-96881009D01*
X160338095Y-96881009D02*
X160385714Y-96976247D01*
X160385714Y-96976247D02*
X160385714Y-97214342D01*
X160385714Y-97214342D02*
X160338095Y-97309580D01*
X160338095Y-97309580D02*
X160290476Y-97357200D01*
X160290476Y-97357200D02*
X160195238Y-97404819D01*
X160195238Y-97404819D02*
X159957143Y-97404819D01*
X159957143Y-97404819D02*
X159861905Y-97357200D01*
X159861905Y-97357200D02*
X159814286Y-97309580D01*
X111757142Y-98354819D02*
X111423809Y-97878628D01*
X111185714Y-98354819D02*
X111185714Y-97354819D01*
X111185714Y-97354819D02*
X111566666Y-97354819D01*
X111566666Y-97354819D02*
X111661904Y-97402438D01*
X111661904Y-97402438D02*
X111709523Y-97450057D01*
X111709523Y-97450057D02*
X111757142Y-97545295D01*
X111757142Y-97545295D02*
X111757142Y-97688152D01*
X111757142Y-97688152D02*
X111709523Y-97783390D01*
X111709523Y-97783390D02*
X111661904Y-97831009D01*
X111661904Y-97831009D02*
X111566666Y-97878628D01*
X111566666Y-97878628D02*
X111185714Y-97878628D01*
X112709523Y-98354819D02*
X112138095Y-98354819D01*
X112423809Y-98354819D02*
X112423809Y-97354819D01*
X112423809Y-97354819D02*
X112328571Y-97497676D01*
X112328571Y-97497676D02*
X112233333Y-97592914D01*
X112233333Y-97592914D02*
X112138095Y-97640533D01*
X113661904Y-98354819D02*
X113090476Y-98354819D01*
X113376190Y-98354819D02*
X113376190Y-97354819D01*
X113376190Y-97354819D02*
X113280952Y-97497676D01*
X113280952Y-97497676D02*
X113185714Y-97592914D01*
X113185714Y-97592914D02*
X113090476Y-97640533D01*
X118357142Y-122809580D02*
X118309523Y-122857200D01*
X118309523Y-122857200D02*
X118166666Y-122904819D01*
X118166666Y-122904819D02*
X118071428Y-122904819D01*
X118071428Y-122904819D02*
X117928571Y-122857200D01*
X117928571Y-122857200D02*
X117833333Y-122761961D01*
X117833333Y-122761961D02*
X117785714Y-122666723D01*
X117785714Y-122666723D02*
X117738095Y-122476247D01*
X117738095Y-122476247D02*
X117738095Y-122333390D01*
X117738095Y-122333390D02*
X117785714Y-122142914D01*
X117785714Y-122142914D02*
X117833333Y-122047676D01*
X117833333Y-122047676D02*
X117928571Y-121952438D01*
X117928571Y-121952438D02*
X118071428Y-121904819D01*
X118071428Y-121904819D02*
X118166666Y-121904819D01*
X118166666Y-121904819D02*
X118309523Y-121952438D01*
X118309523Y-121952438D02*
X118357142Y-122000057D01*
X119309523Y-122904819D02*
X118738095Y-122904819D01*
X119023809Y-122904819D02*
X119023809Y-121904819D01*
X119023809Y-121904819D02*
X118928571Y-122047676D01*
X118928571Y-122047676D02*
X118833333Y-122142914D01*
X118833333Y-122142914D02*
X118738095Y-122190533D01*
X119690476Y-122000057D02*
X119738095Y-121952438D01*
X119738095Y-121952438D02*
X119833333Y-121904819D01*
X119833333Y-121904819D02*
X120071428Y-121904819D01*
X120071428Y-121904819D02*
X120166666Y-121952438D01*
X120166666Y-121952438D02*
X120214285Y-122000057D01*
X120214285Y-122000057D02*
X120261904Y-122095295D01*
X120261904Y-122095295D02*
X120261904Y-122190533D01*
X120261904Y-122190533D02*
X120214285Y-122333390D01*
X120214285Y-122333390D02*
X119642857Y-122904819D01*
X119642857Y-122904819D02*
X120261904Y-122904819D01*
X102004819Y-113842857D02*
X101528628Y-114176190D01*
X102004819Y-114414285D02*
X101004819Y-114414285D01*
X101004819Y-114414285D02*
X101004819Y-114033333D01*
X101004819Y-114033333D02*
X101052438Y-113938095D01*
X101052438Y-113938095D02*
X101100057Y-113890476D01*
X101100057Y-113890476D02*
X101195295Y-113842857D01*
X101195295Y-113842857D02*
X101338152Y-113842857D01*
X101338152Y-113842857D02*
X101433390Y-113890476D01*
X101433390Y-113890476D02*
X101481009Y-113938095D01*
X101481009Y-113938095D02*
X101528628Y-114033333D01*
X101528628Y-114033333D02*
X101528628Y-114414285D01*
X102004819Y-112890476D02*
X102004819Y-113461904D01*
X102004819Y-113176190D02*
X101004819Y-113176190D01*
X101004819Y-113176190D02*
X101147676Y-113271428D01*
X101147676Y-113271428D02*
X101242914Y-113366666D01*
X101242914Y-113366666D02*
X101290533Y-113461904D01*
X101004819Y-112557142D02*
X101004819Y-111890476D01*
X101004819Y-111890476D02*
X102004819Y-112319047D01*
X118657142Y-117909580D02*
X118609523Y-117957200D01*
X118609523Y-117957200D02*
X118466666Y-118004819D01*
X118466666Y-118004819D02*
X118371428Y-118004819D01*
X118371428Y-118004819D02*
X118228571Y-117957200D01*
X118228571Y-117957200D02*
X118133333Y-117861961D01*
X118133333Y-117861961D02*
X118085714Y-117766723D01*
X118085714Y-117766723D02*
X118038095Y-117576247D01*
X118038095Y-117576247D02*
X118038095Y-117433390D01*
X118038095Y-117433390D02*
X118085714Y-117242914D01*
X118085714Y-117242914D02*
X118133333Y-117147676D01*
X118133333Y-117147676D02*
X118228571Y-117052438D01*
X118228571Y-117052438D02*
X118371428Y-117004819D01*
X118371428Y-117004819D02*
X118466666Y-117004819D01*
X118466666Y-117004819D02*
X118609523Y-117052438D01*
X118609523Y-117052438D02*
X118657142Y-117100057D01*
X119609523Y-118004819D02*
X119038095Y-118004819D01*
X119323809Y-118004819D02*
X119323809Y-117004819D01*
X119323809Y-117004819D02*
X119228571Y-117147676D01*
X119228571Y-117147676D02*
X119133333Y-117242914D01*
X119133333Y-117242914D02*
X119038095Y-117290533D01*
X120514285Y-117004819D02*
X120038095Y-117004819D01*
X120038095Y-117004819D02*
X119990476Y-117481009D01*
X119990476Y-117481009D02*
X120038095Y-117433390D01*
X120038095Y-117433390D02*
X120133333Y-117385771D01*
X120133333Y-117385771D02*
X120371428Y-117385771D01*
X120371428Y-117385771D02*
X120466666Y-117433390D01*
X120466666Y-117433390D02*
X120514285Y-117481009D01*
X120514285Y-117481009D02*
X120561904Y-117576247D01*
X120561904Y-117576247D02*
X120561904Y-117814342D01*
X120561904Y-117814342D02*
X120514285Y-117909580D01*
X120514285Y-117909580D02*
X120466666Y-117957200D01*
X120466666Y-117957200D02*
X120371428Y-118004819D01*
X120371428Y-118004819D02*
X120133333Y-118004819D01*
X120133333Y-118004819D02*
X120038095Y-117957200D01*
X120038095Y-117957200D02*
X119990476Y-117909580D01*
X117332142Y-90809580D02*
X117284523Y-90857200D01*
X117284523Y-90857200D02*
X117141666Y-90904819D01*
X117141666Y-90904819D02*
X117046428Y-90904819D01*
X117046428Y-90904819D02*
X116903571Y-90857200D01*
X116903571Y-90857200D02*
X116808333Y-90761961D01*
X116808333Y-90761961D02*
X116760714Y-90666723D01*
X116760714Y-90666723D02*
X116713095Y-90476247D01*
X116713095Y-90476247D02*
X116713095Y-90333390D01*
X116713095Y-90333390D02*
X116760714Y-90142914D01*
X116760714Y-90142914D02*
X116808333Y-90047676D01*
X116808333Y-90047676D02*
X116903571Y-89952438D01*
X116903571Y-89952438D02*
X117046428Y-89904819D01*
X117046428Y-89904819D02*
X117141666Y-89904819D01*
X117141666Y-89904819D02*
X117284523Y-89952438D01*
X117284523Y-89952438D02*
X117332142Y-90000057D01*
X118284523Y-90904819D02*
X117713095Y-90904819D01*
X117998809Y-90904819D02*
X117998809Y-89904819D01*
X117998809Y-89904819D02*
X117903571Y-90047676D01*
X117903571Y-90047676D02*
X117808333Y-90142914D01*
X117808333Y-90142914D02*
X117713095Y-90190533D01*
X119236904Y-90904819D02*
X118665476Y-90904819D01*
X118951190Y-90904819D02*
X118951190Y-89904819D01*
X118951190Y-89904819D02*
X118855952Y-90047676D01*
X118855952Y-90047676D02*
X118760714Y-90142914D01*
X118760714Y-90142914D02*
X118665476Y-90190533D01*
X160383333Y-75604819D02*
X160050000Y-75128628D01*
X159811905Y-75604819D02*
X159811905Y-74604819D01*
X159811905Y-74604819D02*
X160192857Y-74604819D01*
X160192857Y-74604819D02*
X160288095Y-74652438D01*
X160288095Y-74652438D02*
X160335714Y-74700057D01*
X160335714Y-74700057D02*
X160383333Y-74795295D01*
X160383333Y-74795295D02*
X160383333Y-74938152D01*
X160383333Y-74938152D02*
X160335714Y-75033390D01*
X160335714Y-75033390D02*
X160288095Y-75081009D01*
X160288095Y-75081009D02*
X160192857Y-75128628D01*
X160192857Y-75128628D02*
X159811905Y-75128628D01*
X160859524Y-75604819D02*
X161050000Y-75604819D01*
X161050000Y-75604819D02*
X161145238Y-75557200D01*
X161145238Y-75557200D02*
X161192857Y-75509580D01*
X161192857Y-75509580D02*
X161288095Y-75366723D01*
X161288095Y-75366723D02*
X161335714Y-75176247D01*
X161335714Y-75176247D02*
X161335714Y-74795295D01*
X161335714Y-74795295D02*
X161288095Y-74700057D01*
X161288095Y-74700057D02*
X161240476Y-74652438D01*
X161240476Y-74652438D02*
X161145238Y-74604819D01*
X161145238Y-74604819D02*
X160954762Y-74604819D01*
X160954762Y-74604819D02*
X160859524Y-74652438D01*
X160859524Y-74652438D02*
X160811905Y-74700057D01*
X160811905Y-74700057D02*
X160764286Y-74795295D01*
X160764286Y-74795295D02*
X160764286Y-75033390D01*
X160764286Y-75033390D02*
X160811905Y-75128628D01*
X160811905Y-75128628D02*
X160859524Y-75176247D01*
X160859524Y-75176247D02*
X160954762Y-75223866D01*
X160954762Y-75223866D02*
X161145238Y-75223866D01*
X161145238Y-75223866D02*
X161240476Y-75176247D01*
X161240476Y-75176247D02*
X161288095Y-75128628D01*
X161288095Y-75128628D02*
X161335714Y-75033390D01*
X130557142Y-77854819D02*
X130223809Y-77378628D01*
X129985714Y-77854819D02*
X129985714Y-76854819D01*
X129985714Y-76854819D02*
X130366666Y-76854819D01*
X130366666Y-76854819D02*
X130461904Y-76902438D01*
X130461904Y-76902438D02*
X130509523Y-76950057D01*
X130509523Y-76950057D02*
X130557142Y-77045295D01*
X130557142Y-77045295D02*
X130557142Y-77188152D01*
X130557142Y-77188152D02*
X130509523Y-77283390D01*
X130509523Y-77283390D02*
X130461904Y-77331009D01*
X130461904Y-77331009D02*
X130366666Y-77378628D01*
X130366666Y-77378628D02*
X129985714Y-77378628D01*
X131509523Y-77854819D02*
X130938095Y-77854819D01*
X131223809Y-77854819D02*
X131223809Y-76854819D01*
X131223809Y-76854819D02*
X131128571Y-76997676D01*
X131128571Y-76997676D02*
X131033333Y-77092914D01*
X131033333Y-77092914D02*
X130938095Y-77140533D01*
X131842857Y-76854819D02*
X132461904Y-76854819D01*
X132461904Y-76854819D02*
X132128571Y-77235771D01*
X132128571Y-77235771D02*
X132271428Y-77235771D01*
X132271428Y-77235771D02*
X132366666Y-77283390D01*
X132366666Y-77283390D02*
X132414285Y-77331009D01*
X132414285Y-77331009D02*
X132461904Y-77426247D01*
X132461904Y-77426247D02*
X132461904Y-77664342D01*
X132461904Y-77664342D02*
X132414285Y-77759580D01*
X132414285Y-77759580D02*
X132366666Y-77807200D01*
X132366666Y-77807200D02*
X132271428Y-77854819D01*
X132271428Y-77854819D02*
X131985714Y-77854819D01*
X131985714Y-77854819D02*
X131890476Y-77807200D01*
X131890476Y-77807200D02*
X131842857Y-77759580D01*
X131357142Y-123854819D02*
X131023809Y-123378628D01*
X130785714Y-123854819D02*
X130785714Y-122854819D01*
X130785714Y-122854819D02*
X131166666Y-122854819D01*
X131166666Y-122854819D02*
X131261904Y-122902438D01*
X131261904Y-122902438D02*
X131309523Y-122950057D01*
X131309523Y-122950057D02*
X131357142Y-123045295D01*
X131357142Y-123045295D02*
X131357142Y-123188152D01*
X131357142Y-123188152D02*
X131309523Y-123283390D01*
X131309523Y-123283390D02*
X131261904Y-123331009D01*
X131261904Y-123331009D02*
X131166666Y-123378628D01*
X131166666Y-123378628D02*
X130785714Y-123378628D01*
X131738095Y-122950057D02*
X131785714Y-122902438D01*
X131785714Y-122902438D02*
X131880952Y-122854819D01*
X131880952Y-122854819D02*
X132119047Y-122854819D01*
X132119047Y-122854819D02*
X132214285Y-122902438D01*
X132214285Y-122902438D02*
X132261904Y-122950057D01*
X132261904Y-122950057D02*
X132309523Y-123045295D01*
X132309523Y-123045295D02*
X132309523Y-123140533D01*
X132309523Y-123140533D02*
X132261904Y-123283390D01*
X132261904Y-123283390D02*
X131690476Y-123854819D01*
X131690476Y-123854819D02*
X132309523Y-123854819D01*
X132928571Y-122854819D02*
X133023809Y-122854819D01*
X133023809Y-122854819D02*
X133119047Y-122902438D01*
X133119047Y-122902438D02*
X133166666Y-122950057D01*
X133166666Y-122950057D02*
X133214285Y-123045295D01*
X133214285Y-123045295D02*
X133261904Y-123235771D01*
X133261904Y-123235771D02*
X133261904Y-123473866D01*
X133261904Y-123473866D02*
X133214285Y-123664342D01*
X133214285Y-123664342D02*
X133166666Y-123759580D01*
X133166666Y-123759580D02*
X133119047Y-123807200D01*
X133119047Y-123807200D02*
X133023809Y-123854819D01*
X133023809Y-123854819D02*
X132928571Y-123854819D01*
X132928571Y-123854819D02*
X132833333Y-123807200D01*
X132833333Y-123807200D02*
X132785714Y-123759580D01*
X132785714Y-123759580D02*
X132738095Y-123664342D01*
X132738095Y-123664342D02*
X132690476Y-123473866D01*
X132690476Y-123473866D02*
X132690476Y-123235771D01*
X132690476Y-123235771D02*
X132738095Y-123045295D01*
X132738095Y-123045295D02*
X132785714Y-122950057D01*
X132785714Y-122950057D02*
X132833333Y-122902438D01*
X132833333Y-122902438D02*
X132928571Y-122854819D01*
X135759580Y-115366666D02*
X135807200Y-115414285D01*
X135807200Y-115414285D02*
X135854819Y-115557142D01*
X135854819Y-115557142D02*
X135854819Y-115652380D01*
X135854819Y-115652380D02*
X135807200Y-115795237D01*
X135807200Y-115795237D02*
X135711961Y-115890475D01*
X135711961Y-115890475D02*
X135616723Y-115938094D01*
X135616723Y-115938094D02*
X135426247Y-115985713D01*
X135426247Y-115985713D02*
X135283390Y-115985713D01*
X135283390Y-115985713D02*
X135092914Y-115938094D01*
X135092914Y-115938094D02*
X134997676Y-115890475D01*
X134997676Y-115890475D02*
X134902438Y-115795237D01*
X134902438Y-115795237D02*
X134854819Y-115652380D01*
X134854819Y-115652380D02*
X134854819Y-115557142D01*
X134854819Y-115557142D02*
X134902438Y-115414285D01*
X134902438Y-115414285D02*
X134950057Y-115366666D01*
X134950057Y-114985713D02*
X134902438Y-114938094D01*
X134902438Y-114938094D02*
X134854819Y-114842856D01*
X134854819Y-114842856D02*
X134854819Y-114604761D01*
X134854819Y-114604761D02*
X134902438Y-114509523D01*
X134902438Y-114509523D02*
X134950057Y-114461904D01*
X134950057Y-114461904D02*
X135045295Y-114414285D01*
X135045295Y-114414285D02*
X135140533Y-114414285D01*
X135140533Y-114414285D02*
X135283390Y-114461904D01*
X135283390Y-114461904D02*
X135854819Y-115033332D01*
X135854819Y-115033332D02*
X135854819Y-114414285D01*
X103204819Y-94716666D02*
X102728628Y-95049999D01*
X103204819Y-95288094D02*
X102204819Y-95288094D01*
X102204819Y-95288094D02*
X102204819Y-94907142D01*
X102204819Y-94907142D02*
X102252438Y-94811904D01*
X102252438Y-94811904D02*
X102300057Y-94764285D01*
X102300057Y-94764285D02*
X102395295Y-94716666D01*
X102395295Y-94716666D02*
X102538152Y-94716666D01*
X102538152Y-94716666D02*
X102633390Y-94764285D01*
X102633390Y-94764285D02*
X102681009Y-94811904D01*
X102681009Y-94811904D02*
X102728628Y-94907142D01*
X102728628Y-94907142D02*
X102728628Y-95288094D01*
X102204819Y-94383332D02*
X102204819Y-93764285D01*
X102204819Y-93764285D02*
X102585771Y-94097618D01*
X102585771Y-94097618D02*
X102585771Y-93954761D01*
X102585771Y-93954761D02*
X102633390Y-93859523D01*
X102633390Y-93859523D02*
X102681009Y-93811904D01*
X102681009Y-93811904D02*
X102776247Y-93764285D01*
X102776247Y-93764285D02*
X103014342Y-93764285D01*
X103014342Y-93764285D02*
X103109580Y-93811904D01*
X103109580Y-93811904D02*
X103157200Y-93859523D01*
X103157200Y-93859523D02*
X103204819Y-93954761D01*
X103204819Y-93954761D02*
X103204819Y-94240475D01*
X103204819Y-94240475D02*
X103157200Y-94335713D01*
X103157200Y-94335713D02*
X103109580Y-94383332D01*
X131507142Y-122054819D02*
X131173809Y-121578628D01*
X130935714Y-122054819D02*
X130935714Y-121054819D01*
X130935714Y-121054819D02*
X131316666Y-121054819D01*
X131316666Y-121054819D02*
X131411904Y-121102438D01*
X131411904Y-121102438D02*
X131459523Y-121150057D01*
X131459523Y-121150057D02*
X131507142Y-121245295D01*
X131507142Y-121245295D02*
X131507142Y-121388152D01*
X131507142Y-121388152D02*
X131459523Y-121483390D01*
X131459523Y-121483390D02*
X131411904Y-121531009D01*
X131411904Y-121531009D02*
X131316666Y-121578628D01*
X131316666Y-121578628D02*
X130935714Y-121578628D01*
X131888095Y-121150057D02*
X131935714Y-121102438D01*
X131935714Y-121102438D02*
X132030952Y-121054819D01*
X132030952Y-121054819D02*
X132269047Y-121054819D01*
X132269047Y-121054819D02*
X132364285Y-121102438D01*
X132364285Y-121102438D02*
X132411904Y-121150057D01*
X132411904Y-121150057D02*
X132459523Y-121245295D01*
X132459523Y-121245295D02*
X132459523Y-121340533D01*
X132459523Y-121340533D02*
X132411904Y-121483390D01*
X132411904Y-121483390D02*
X131840476Y-122054819D01*
X131840476Y-122054819D02*
X132459523Y-122054819D01*
X133316666Y-121388152D02*
X133316666Y-122054819D01*
X133078571Y-121007200D02*
X132840476Y-121721485D01*
X132840476Y-121721485D02*
X133459523Y-121721485D01*
X121759580Y-131642857D02*
X121807200Y-131690476D01*
X121807200Y-131690476D02*
X121854819Y-131833333D01*
X121854819Y-131833333D02*
X121854819Y-131928571D01*
X121854819Y-131928571D02*
X121807200Y-132071428D01*
X121807200Y-132071428D02*
X121711961Y-132166666D01*
X121711961Y-132166666D02*
X121616723Y-132214285D01*
X121616723Y-132214285D02*
X121426247Y-132261904D01*
X121426247Y-132261904D02*
X121283390Y-132261904D01*
X121283390Y-132261904D02*
X121092914Y-132214285D01*
X121092914Y-132214285D02*
X120997676Y-132166666D01*
X120997676Y-132166666D02*
X120902438Y-132071428D01*
X120902438Y-132071428D02*
X120854819Y-131928571D01*
X120854819Y-131928571D02*
X120854819Y-131833333D01*
X120854819Y-131833333D02*
X120902438Y-131690476D01*
X120902438Y-131690476D02*
X120950057Y-131642857D01*
X121854819Y-130690476D02*
X121854819Y-131261904D01*
X121854819Y-130976190D02*
X120854819Y-130976190D01*
X120854819Y-130976190D02*
X120997676Y-131071428D01*
X120997676Y-131071428D02*
X121092914Y-131166666D01*
X121092914Y-131166666D02*
X121140533Y-131261904D01*
X121283390Y-130119047D02*
X121235771Y-130214285D01*
X121235771Y-130214285D02*
X121188152Y-130261904D01*
X121188152Y-130261904D02*
X121092914Y-130309523D01*
X121092914Y-130309523D02*
X121045295Y-130309523D01*
X121045295Y-130309523D02*
X120950057Y-130261904D01*
X120950057Y-130261904D02*
X120902438Y-130214285D01*
X120902438Y-130214285D02*
X120854819Y-130119047D01*
X120854819Y-130119047D02*
X120854819Y-129928571D01*
X120854819Y-129928571D02*
X120902438Y-129833333D01*
X120902438Y-129833333D02*
X120950057Y-129785714D01*
X120950057Y-129785714D02*
X121045295Y-129738095D01*
X121045295Y-129738095D02*
X121092914Y-129738095D01*
X121092914Y-129738095D02*
X121188152Y-129785714D01*
X121188152Y-129785714D02*
X121235771Y-129833333D01*
X121235771Y-129833333D02*
X121283390Y-129928571D01*
X121283390Y-129928571D02*
X121283390Y-130119047D01*
X121283390Y-130119047D02*
X121331009Y-130214285D01*
X121331009Y-130214285D02*
X121378628Y-130261904D01*
X121378628Y-130261904D02*
X121473866Y-130309523D01*
X121473866Y-130309523D02*
X121664342Y-130309523D01*
X121664342Y-130309523D02*
X121759580Y-130261904D01*
X121759580Y-130261904D02*
X121807200Y-130214285D01*
X121807200Y-130214285D02*
X121854819Y-130119047D01*
X121854819Y-130119047D02*
X121854819Y-129928571D01*
X121854819Y-129928571D02*
X121807200Y-129833333D01*
X121807200Y-129833333D02*
X121759580Y-129785714D01*
X121759580Y-129785714D02*
X121664342Y-129738095D01*
X121664342Y-129738095D02*
X121473866Y-129738095D01*
X121473866Y-129738095D02*
X121378628Y-129785714D01*
X121378628Y-129785714D02*
X121331009Y-129833333D01*
X121331009Y-129833333D02*
X121283390Y-129928571D01*
X104654819Y-94741666D02*
X104178628Y-95074999D01*
X104654819Y-95313094D02*
X103654819Y-95313094D01*
X103654819Y-95313094D02*
X103654819Y-94932142D01*
X103654819Y-94932142D02*
X103702438Y-94836904D01*
X103702438Y-94836904D02*
X103750057Y-94789285D01*
X103750057Y-94789285D02*
X103845295Y-94741666D01*
X103845295Y-94741666D02*
X103988152Y-94741666D01*
X103988152Y-94741666D02*
X104083390Y-94789285D01*
X104083390Y-94789285D02*
X104131009Y-94836904D01*
X104131009Y-94836904D02*
X104178628Y-94932142D01*
X104178628Y-94932142D02*
X104178628Y-95313094D01*
X103988152Y-93884523D02*
X104654819Y-93884523D01*
X103607200Y-94122618D02*
X104321485Y-94360713D01*
X104321485Y-94360713D02*
X104321485Y-93741666D01*
X123161905Y-76454819D02*
X123161905Y-75454819D01*
X123161905Y-75454819D02*
X123400000Y-75454819D01*
X123400000Y-75454819D02*
X123542857Y-75502438D01*
X123542857Y-75502438D02*
X123638095Y-75597676D01*
X123638095Y-75597676D02*
X123685714Y-75692914D01*
X123685714Y-75692914D02*
X123733333Y-75883390D01*
X123733333Y-75883390D02*
X123733333Y-76026247D01*
X123733333Y-76026247D02*
X123685714Y-76216723D01*
X123685714Y-76216723D02*
X123638095Y-76311961D01*
X123638095Y-76311961D02*
X123542857Y-76407200D01*
X123542857Y-76407200D02*
X123400000Y-76454819D01*
X123400000Y-76454819D02*
X123161905Y-76454819D01*
X124685714Y-76454819D02*
X124114286Y-76454819D01*
X124400000Y-76454819D02*
X124400000Y-75454819D01*
X124400000Y-75454819D02*
X124304762Y-75597676D01*
X124304762Y-75597676D02*
X124209524Y-75692914D01*
X124209524Y-75692914D02*
X124114286Y-75740533D01*
X165452381Y-85557200D02*
X165595238Y-85604819D01*
X165595238Y-85604819D02*
X165833333Y-85604819D01*
X165833333Y-85604819D02*
X165928571Y-85557200D01*
X165928571Y-85557200D02*
X165976190Y-85509580D01*
X165976190Y-85509580D02*
X166023809Y-85414342D01*
X166023809Y-85414342D02*
X166023809Y-85319104D01*
X166023809Y-85319104D02*
X165976190Y-85223866D01*
X165976190Y-85223866D02*
X165928571Y-85176247D01*
X165928571Y-85176247D02*
X165833333Y-85128628D01*
X165833333Y-85128628D02*
X165642857Y-85081009D01*
X165642857Y-85081009D02*
X165547619Y-85033390D01*
X165547619Y-85033390D02*
X165500000Y-84985771D01*
X165500000Y-84985771D02*
X165452381Y-84890533D01*
X165452381Y-84890533D02*
X165452381Y-84795295D01*
X165452381Y-84795295D02*
X165500000Y-84700057D01*
X165500000Y-84700057D02*
X165547619Y-84652438D01*
X165547619Y-84652438D02*
X165642857Y-84604819D01*
X165642857Y-84604819D02*
X165880952Y-84604819D01*
X165880952Y-84604819D02*
X166023809Y-84652438D01*
X166309524Y-84604819D02*
X166880952Y-84604819D01*
X166595238Y-85604819D02*
X166595238Y-84604819D01*
X167119048Y-84604819D02*
X167785714Y-84604819D01*
X167785714Y-84604819D02*
X167357143Y-85604819D01*
X168071429Y-84604819D02*
X168738095Y-84604819D01*
X168738095Y-84604819D02*
X168309524Y-85604819D01*
X169023810Y-84604819D02*
X169642857Y-84604819D01*
X169642857Y-84604819D02*
X169309524Y-84985771D01*
X169309524Y-84985771D02*
X169452381Y-84985771D01*
X169452381Y-84985771D02*
X169547619Y-85033390D01*
X169547619Y-85033390D02*
X169595238Y-85081009D01*
X169595238Y-85081009D02*
X169642857Y-85176247D01*
X169642857Y-85176247D02*
X169642857Y-85414342D01*
X169642857Y-85414342D02*
X169595238Y-85509580D01*
X169595238Y-85509580D02*
X169547619Y-85557200D01*
X169547619Y-85557200D02*
X169452381Y-85604819D01*
X169452381Y-85604819D02*
X169166667Y-85604819D01*
X169166667Y-85604819D02*
X169071429Y-85557200D01*
X169071429Y-85557200D02*
X169023810Y-85509580D01*
X170547619Y-84604819D02*
X170071429Y-84604819D01*
X170071429Y-84604819D02*
X170023810Y-85081009D01*
X170023810Y-85081009D02*
X170071429Y-85033390D01*
X170071429Y-85033390D02*
X170166667Y-84985771D01*
X170166667Y-84985771D02*
X170404762Y-84985771D01*
X170404762Y-84985771D02*
X170500000Y-85033390D01*
X170500000Y-85033390D02*
X170547619Y-85081009D01*
X170547619Y-85081009D02*
X170595238Y-85176247D01*
X170595238Y-85176247D02*
X170595238Y-85414342D01*
X170595238Y-85414342D02*
X170547619Y-85509580D01*
X170547619Y-85509580D02*
X170500000Y-85557200D01*
X170500000Y-85557200D02*
X170404762Y-85604819D01*
X170404762Y-85604819D02*
X170166667Y-85604819D01*
X170166667Y-85604819D02*
X170071429Y-85557200D01*
X170071429Y-85557200D02*
X170023810Y-85509580D01*
X170976191Y-85557200D02*
X171119048Y-85604819D01*
X171119048Y-85604819D02*
X171357143Y-85604819D01*
X171357143Y-85604819D02*
X171452381Y-85557200D01*
X171452381Y-85557200D02*
X171500000Y-85509580D01*
X171500000Y-85509580D02*
X171547619Y-85414342D01*
X171547619Y-85414342D02*
X171547619Y-85319104D01*
X171547619Y-85319104D02*
X171500000Y-85223866D01*
X171500000Y-85223866D02*
X171452381Y-85176247D01*
X171452381Y-85176247D02*
X171357143Y-85128628D01*
X171357143Y-85128628D02*
X171166667Y-85081009D01*
X171166667Y-85081009D02*
X171071429Y-85033390D01*
X171071429Y-85033390D02*
X171023810Y-84985771D01*
X171023810Y-84985771D02*
X170976191Y-84890533D01*
X170976191Y-84890533D02*
X170976191Y-84795295D01*
X170976191Y-84795295D02*
X171023810Y-84700057D01*
X171023810Y-84700057D02*
X171071429Y-84652438D01*
X171071429Y-84652438D02*
X171166667Y-84604819D01*
X171166667Y-84604819D02*
X171404762Y-84604819D01*
X171404762Y-84604819D02*
X171547619Y-84652438D01*
X131472080Y-130417857D02*
X131519700Y-130465476D01*
X131519700Y-130465476D02*
X131567319Y-130608333D01*
X131567319Y-130608333D02*
X131567319Y-130703571D01*
X131567319Y-130703571D02*
X131519700Y-130846428D01*
X131519700Y-130846428D02*
X131424461Y-130941666D01*
X131424461Y-130941666D02*
X131329223Y-130989285D01*
X131329223Y-130989285D02*
X131138747Y-131036904D01*
X131138747Y-131036904D02*
X130995890Y-131036904D01*
X130995890Y-131036904D02*
X130805414Y-130989285D01*
X130805414Y-130989285D02*
X130710176Y-130941666D01*
X130710176Y-130941666D02*
X130614938Y-130846428D01*
X130614938Y-130846428D02*
X130567319Y-130703571D01*
X130567319Y-130703571D02*
X130567319Y-130608333D01*
X130567319Y-130608333D02*
X130614938Y-130465476D01*
X130614938Y-130465476D02*
X130662557Y-130417857D01*
X131567319Y-129465476D02*
X131567319Y-130036904D01*
X131567319Y-129751190D02*
X130567319Y-129751190D01*
X130567319Y-129751190D02*
X130710176Y-129846428D01*
X130710176Y-129846428D02*
X130805414Y-129941666D01*
X130805414Y-129941666D02*
X130853033Y-130036904D01*
X131567319Y-128989285D02*
X131567319Y-128798809D01*
X131567319Y-128798809D02*
X131519700Y-128703571D01*
X131519700Y-128703571D02*
X131472080Y-128655952D01*
X131472080Y-128655952D02*
X131329223Y-128560714D01*
X131329223Y-128560714D02*
X131138747Y-128513095D01*
X131138747Y-128513095D02*
X130757795Y-128513095D01*
X130757795Y-128513095D02*
X130662557Y-128560714D01*
X130662557Y-128560714D02*
X130614938Y-128608333D01*
X130614938Y-128608333D02*
X130567319Y-128703571D01*
X130567319Y-128703571D02*
X130567319Y-128894047D01*
X130567319Y-128894047D02*
X130614938Y-128989285D01*
X130614938Y-128989285D02*
X130662557Y-129036904D01*
X130662557Y-129036904D02*
X130757795Y-129084523D01*
X130757795Y-129084523D02*
X130995890Y-129084523D01*
X130995890Y-129084523D02*
X131091128Y-129036904D01*
X131091128Y-129036904D02*
X131138747Y-128989285D01*
X131138747Y-128989285D02*
X131186366Y-128894047D01*
X131186366Y-128894047D02*
X131186366Y-128703571D01*
X131186366Y-128703571D02*
X131138747Y-128608333D01*
X131138747Y-128608333D02*
X131091128Y-128560714D01*
X131091128Y-128560714D02*
X130995890Y-128513095D01*
X120259580Y-131642857D02*
X120307200Y-131690476D01*
X120307200Y-131690476D02*
X120354819Y-131833333D01*
X120354819Y-131833333D02*
X120354819Y-131928571D01*
X120354819Y-131928571D02*
X120307200Y-132071428D01*
X120307200Y-132071428D02*
X120211961Y-132166666D01*
X120211961Y-132166666D02*
X120116723Y-132214285D01*
X120116723Y-132214285D02*
X119926247Y-132261904D01*
X119926247Y-132261904D02*
X119783390Y-132261904D01*
X119783390Y-132261904D02*
X119592914Y-132214285D01*
X119592914Y-132214285D02*
X119497676Y-132166666D01*
X119497676Y-132166666D02*
X119402438Y-132071428D01*
X119402438Y-132071428D02*
X119354819Y-131928571D01*
X119354819Y-131928571D02*
X119354819Y-131833333D01*
X119354819Y-131833333D02*
X119402438Y-131690476D01*
X119402438Y-131690476D02*
X119450057Y-131642857D01*
X120354819Y-130690476D02*
X120354819Y-131261904D01*
X120354819Y-130976190D02*
X119354819Y-130976190D01*
X119354819Y-130976190D02*
X119497676Y-131071428D01*
X119497676Y-131071428D02*
X119592914Y-131166666D01*
X119592914Y-131166666D02*
X119640533Y-131261904D01*
X119354819Y-130357142D02*
X119354819Y-129690476D01*
X119354819Y-129690476D02*
X120354819Y-130119047D01*
X122488095Y-135852438D02*
X122392857Y-135804819D01*
X122392857Y-135804819D02*
X122250000Y-135804819D01*
X122250000Y-135804819D02*
X122107143Y-135852438D01*
X122107143Y-135852438D02*
X122011905Y-135947676D01*
X122011905Y-135947676D02*
X121964286Y-136042914D01*
X121964286Y-136042914D02*
X121916667Y-136233390D01*
X121916667Y-136233390D02*
X121916667Y-136376247D01*
X121916667Y-136376247D02*
X121964286Y-136566723D01*
X121964286Y-136566723D02*
X122011905Y-136661961D01*
X122011905Y-136661961D02*
X122107143Y-136757200D01*
X122107143Y-136757200D02*
X122250000Y-136804819D01*
X122250000Y-136804819D02*
X122345238Y-136804819D01*
X122345238Y-136804819D02*
X122488095Y-136757200D01*
X122488095Y-136757200D02*
X122535714Y-136709580D01*
X122535714Y-136709580D02*
X122535714Y-136376247D01*
X122535714Y-136376247D02*
X122345238Y-136376247D01*
X122964286Y-136804819D02*
X122964286Y-135804819D01*
X122964286Y-135804819D02*
X123535714Y-136804819D01*
X123535714Y-136804819D02*
X123535714Y-135804819D01*
X124011905Y-136804819D02*
X124011905Y-135804819D01*
X124011905Y-135804819D02*
X124250000Y-135804819D01*
X124250000Y-135804819D02*
X124392857Y-135852438D01*
X124392857Y-135852438D02*
X124488095Y-135947676D01*
X124488095Y-135947676D02*
X124535714Y-136042914D01*
X124535714Y-136042914D02*
X124583333Y-136233390D01*
X124583333Y-136233390D02*
X124583333Y-136376247D01*
X124583333Y-136376247D02*
X124535714Y-136566723D01*
X124535714Y-136566723D02*
X124488095Y-136661961D01*
X124488095Y-136661961D02*
X124392857Y-136757200D01*
X124392857Y-136757200D02*
X124250000Y-136804819D01*
X124250000Y-136804819D02*
X124011905Y-136804819D01*
X140509580Y-115866666D02*
X140557200Y-115914285D01*
X140557200Y-115914285D02*
X140604819Y-116057142D01*
X140604819Y-116057142D02*
X140604819Y-116152380D01*
X140604819Y-116152380D02*
X140557200Y-116295237D01*
X140557200Y-116295237D02*
X140461961Y-116390475D01*
X140461961Y-116390475D02*
X140366723Y-116438094D01*
X140366723Y-116438094D02*
X140176247Y-116485713D01*
X140176247Y-116485713D02*
X140033390Y-116485713D01*
X140033390Y-116485713D02*
X139842914Y-116438094D01*
X139842914Y-116438094D02*
X139747676Y-116390475D01*
X139747676Y-116390475D02*
X139652438Y-116295237D01*
X139652438Y-116295237D02*
X139604819Y-116152380D01*
X139604819Y-116152380D02*
X139604819Y-116057142D01*
X139604819Y-116057142D02*
X139652438Y-115914285D01*
X139652438Y-115914285D02*
X139700057Y-115866666D01*
X140604819Y-114914285D02*
X140604819Y-115485713D01*
X140604819Y-115199999D02*
X139604819Y-115199999D01*
X139604819Y-115199999D02*
X139747676Y-115295237D01*
X139747676Y-115295237D02*
X139842914Y-115390475D01*
X139842914Y-115390475D02*
X139890533Y-115485713D01*
X139208333Y-102359580D02*
X139160714Y-102407200D01*
X139160714Y-102407200D02*
X139017857Y-102454819D01*
X139017857Y-102454819D02*
X138922619Y-102454819D01*
X138922619Y-102454819D02*
X138779762Y-102407200D01*
X138779762Y-102407200D02*
X138684524Y-102311961D01*
X138684524Y-102311961D02*
X138636905Y-102216723D01*
X138636905Y-102216723D02*
X138589286Y-102026247D01*
X138589286Y-102026247D02*
X138589286Y-101883390D01*
X138589286Y-101883390D02*
X138636905Y-101692914D01*
X138636905Y-101692914D02*
X138684524Y-101597676D01*
X138684524Y-101597676D02*
X138779762Y-101502438D01*
X138779762Y-101502438D02*
X138922619Y-101454819D01*
X138922619Y-101454819D02*
X139017857Y-101454819D01*
X139017857Y-101454819D02*
X139160714Y-101502438D01*
X139160714Y-101502438D02*
X139208333Y-101550057D01*
X139779762Y-101883390D02*
X139684524Y-101835771D01*
X139684524Y-101835771D02*
X139636905Y-101788152D01*
X139636905Y-101788152D02*
X139589286Y-101692914D01*
X139589286Y-101692914D02*
X139589286Y-101645295D01*
X139589286Y-101645295D02*
X139636905Y-101550057D01*
X139636905Y-101550057D02*
X139684524Y-101502438D01*
X139684524Y-101502438D02*
X139779762Y-101454819D01*
X139779762Y-101454819D02*
X139970238Y-101454819D01*
X139970238Y-101454819D02*
X140065476Y-101502438D01*
X140065476Y-101502438D02*
X140113095Y-101550057D01*
X140113095Y-101550057D02*
X140160714Y-101645295D01*
X140160714Y-101645295D02*
X140160714Y-101692914D01*
X140160714Y-101692914D02*
X140113095Y-101788152D01*
X140113095Y-101788152D02*
X140065476Y-101835771D01*
X140065476Y-101835771D02*
X139970238Y-101883390D01*
X139970238Y-101883390D02*
X139779762Y-101883390D01*
X139779762Y-101883390D02*
X139684524Y-101931009D01*
X139684524Y-101931009D02*
X139636905Y-101978628D01*
X139636905Y-101978628D02*
X139589286Y-102073866D01*
X139589286Y-102073866D02*
X139589286Y-102264342D01*
X139589286Y-102264342D02*
X139636905Y-102359580D01*
X139636905Y-102359580D02*
X139684524Y-102407200D01*
X139684524Y-102407200D02*
X139779762Y-102454819D01*
X139779762Y-102454819D02*
X139970238Y-102454819D01*
X139970238Y-102454819D02*
X140065476Y-102407200D01*
X140065476Y-102407200D02*
X140113095Y-102359580D01*
X140113095Y-102359580D02*
X140160714Y-102264342D01*
X140160714Y-102264342D02*
X140160714Y-102073866D01*
X140160714Y-102073866D02*
X140113095Y-101978628D01*
X140113095Y-101978628D02*
X140065476Y-101931009D01*
X140065476Y-101931009D02*
X139970238Y-101883390D01*
X139208333Y-103859580D02*
X139160714Y-103907200D01*
X139160714Y-103907200D02*
X139017857Y-103954819D01*
X139017857Y-103954819D02*
X138922619Y-103954819D01*
X138922619Y-103954819D02*
X138779762Y-103907200D01*
X138779762Y-103907200D02*
X138684524Y-103811961D01*
X138684524Y-103811961D02*
X138636905Y-103716723D01*
X138636905Y-103716723D02*
X138589286Y-103526247D01*
X138589286Y-103526247D02*
X138589286Y-103383390D01*
X138589286Y-103383390D02*
X138636905Y-103192914D01*
X138636905Y-103192914D02*
X138684524Y-103097676D01*
X138684524Y-103097676D02*
X138779762Y-103002438D01*
X138779762Y-103002438D02*
X138922619Y-102954819D01*
X138922619Y-102954819D02*
X139017857Y-102954819D01*
X139017857Y-102954819D02*
X139160714Y-103002438D01*
X139160714Y-103002438D02*
X139208333Y-103050057D01*
X140065476Y-102954819D02*
X139875000Y-102954819D01*
X139875000Y-102954819D02*
X139779762Y-103002438D01*
X139779762Y-103002438D02*
X139732143Y-103050057D01*
X139732143Y-103050057D02*
X139636905Y-103192914D01*
X139636905Y-103192914D02*
X139589286Y-103383390D01*
X139589286Y-103383390D02*
X139589286Y-103764342D01*
X139589286Y-103764342D02*
X139636905Y-103859580D01*
X139636905Y-103859580D02*
X139684524Y-103907200D01*
X139684524Y-103907200D02*
X139779762Y-103954819D01*
X139779762Y-103954819D02*
X139970238Y-103954819D01*
X139970238Y-103954819D02*
X140065476Y-103907200D01*
X140065476Y-103907200D02*
X140113095Y-103859580D01*
X140113095Y-103859580D02*
X140160714Y-103764342D01*
X140160714Y-103764342D02*
X140160714Y-103526247D01*
X140160714Y-103526247D02*
X140113095Y-103431009D01*
X140113095Y-103431009D02*
X140065476Y-103383390D01*
X140065476Y-103383390D02*
X139970238Y-103335771D01*
X139970238Y-103335771D02*
X139779762Y-103335771D01*
X139779762Y-103335771D02*
X139684524Y-103383390D01*
X139684524Y-103383390D02*
X139636905Y-103431009D01*
X139636905Y-103431009D02*
X139589286Y-103526247D01*
X139208333Y-101004819D02*
X138875000Y-100528628D01*
X138636905Y-101004819D02*
X138636905Y-100004819D01*
X138636905Y-100004819D02*
X139017857Y-100004819D01*
X139017857Y-100004819D02*
X139113095Y-100052438D01*
X139113095Y-100052438D02*
X139160714Y-100100057D01*
X139160714Y-100100057D02*
X139208333Y-100195295D01*
X139208333Y-100195295D02*
X139208333Y-100338152D01*
X139208333Y-100338152D02*
X139160714Y-100433390D01*
X139160714Y-100433390D02*
X139113095Y-100481009D01*
X139113095Y-100481009D02*
X139017857Y-100528628D01*
X139017857Y-100528628D02*
X138636905Y-100528628D01*
X140113095Y-100004819D02*
X139636905Y-100004819D01*
X139636905Y-100004819D02*
X139589286Y-100481009D01*
X139589286Y-100481009D02*
X139636905Y-100433390D01*
X139636905Y-100433390D02*
X139732143Y-100385771D01*
X139732143Y-100385771D02*
X139970238Y-100385771D01*
X139970238Y-100385771D02*
X140065476Y-100433390D01*
X140065476Y-100433390D02*
X140113095Y-100481009D01*
X140113095Y-100481009D02*
X140160714Y-100576247D01*
X140160714Y-100576247D02*
X140160714Y-100814342D01*
X140160714Y-100814342D02*
X140113095Y-100909580D01*
X140113095Y-100909580D02*
X140065476Y-100957200D01*
X140065476Y-100957200D02*
X139970238Y-101004819D01*
X139970238Y-101004819D02*
X139732143Y-101004819D01*
X139732143Y-101004819D02*
X139636905Y-100957200D01*
X139636905Y-100957200D02*
X139589286Y-100909580D01*
X110004819Y-114492857D02*
X109528628Y-114826190D01*
X110004819Y-115064285D02*
X109004819Y-115064285D01*
X109004819Y-115064285D02*
X109004819Y-114683333D01*
X109004819Y-114683333D02*
X109052438Y-114588095D01*
X109052438Y-114588095D02*
X109100057Y-114540476D01*
X109100057Y-114540476D02*
X109195295Y-114492857D01*
X109195295Y-114492857D02*
X109338152Y-114492857D01*
X109338152Y-114492857D02*
X109433390Y-114540476D01*
X109433390Y-114540476D02*
X109481009Y-114588095D01*
X109481009Y-114588095D02*
X109528628Y-114683333D01*
X109528628Y-114683333D02*
X109528628Y-115064285D01*
X110004819Y-113540476D02*
X110004819Y-114111904D01*
X110004819Y-113826190D02*
X109004819Y-113826190D01*
X109004819Y-113826190D02*
X109147676Y-113921428D01*
X109147676Y-113921428D02*
X109242914Y-114016666D01*
X109242914Y-114016666D02*
X109290533Y-114111904D01*
X109433390Y-112969047D02*
X109385771Y-113064285D01*
X109385771Y-113064285D02*
X109338152Y-113111904D01*
X109338152Y-113111904D02*
X109242914Y-113159523D01*
X109242914Y-113159523D02*
X109195295Y-113159523D01*
X109195295Y-113159523D02*
X109100057Y-113111904D01*
X109100057Y-113111904D02*
X109052438Y-113064285D01*
X109052438Y-113064285D02*
X109004819Y-112969047D01*
X109004819Y-112969047D02*
X109004819Y-112778571D01*
X109004819Y-112778571D02*
X109052438Y-112683333D01*
X109052438Y-112683333D02*
X109100057Y-112635714D01*
X109100057Y-112635714D02*
X109195295Y-112588095D01*
X109195295Y-112588095D02*
X109242914Y-112588095D01*
X109242914Y-112588095D02*
X109338152Y-112635714D01*
X109338152Y-112635714D02*
X109385771Y-112683333D01*
X109385771Y-112683333D02*
X109433390Y-112778571D01*
X109433390Y-112778571D02*
X109433390Y-112969047D01*
X109433390Y-112969047D02*
X109481009Y-113064285D01*
X109481009Y-113064285D02*
X109528628Y-113111904D01*
X109528628Y-113111904D02*
X109623866Y-113159523D01*
X109623866Y-113159523D02*
X109814342Y-113159523D01*
X109814342Y-113159523D02*
X109909580Y-113111904D01*
X109909580Y-113111904D02*
X109957200Y-113064285D01*
X109957200Y-113064285D02*
X110004819Y-112969047D01*
X110004819Y-112969047D02*
X110004819Y-112778571D01*
X110004819Y-112778571D02*
X109957200Y-112683333D01*
X109957200Y-112683333D02*
X109909580Y-112635714D01*
X109909580Y-112635714D02*
X109814342Y-112588095D01*
X109814342Y-112588095D02*
X109623866Y-112588095D01*
X109623866Y-112588095D02*
X109528628Y-112635714D01*
X109528628Y-112635714D02*
X109481009Y-112683333D01*
X109481009Y-112683333D02*
X109433390Y-112778571D01*
X100354819Y-113742857D02*
X99878628Y-114076190D01*
X100354819Y-114314285D02*
X99354819Y-114314285D01*
X99354819Y-114314285D02*
X99354819Y-113933333D01*
X99354819Y-113933333D02*
X99402438Y-113838095D01*
X99402438Y-113838095D02*
X99450057Y-113790476D01*
X99450057Y-113790476D02*
X99545295Y-113742857D01*
X99545295Y-113742857D02*
X99688152Y-113742857D01*
X99688152Y-113742857D02*
X99783390Y-113790476D01*
X99783390Y-113790476D02*
X99831009Y-113838095D01*
X99831009Y-113838095D02*
X99878628Y-113933333D01*
X99878628Y-113933333D02*
X99878628Y-114314285D01*
X100354819Y-112790476D02*
X100354819Y-113361904D01*
X100354819Y-113076190D02*
X99354819Y-113076190D01*
X99354819Y-113076190D02*
X99497676Y-113171428D01*
X99497676Y-113171428D02*
X99592914Y-113266666D01*
X99592914Y-113266666D02*
X99640533Y-113361904D01*
X99354819Y-111933333D02*
X99354819Y-112123809D01*
X99354819Y-112123809D02*
X99402438Y-112219047D01*
X99402438Y-112219047D02*
X99450057Y-112266666D01*
X99450057Y-112266666D02*
X99592914Y-112361904D01*
X99592914Y-112361904D02*
X99783390Y-112409523D01*
X99783390Y-112409523D02*
X100164342Y-112409523D01*
X100164342Y-112409523D02*
X100259580Y-112361904D01*
X100259580Y-112361904D02*
X100307200Y-112314285D01*
X100307200Y-112314285D02*
X100354819Y-112219047D01*
X100354819Y-112219047D02*
X100354819Y-112028571D01*
X100354819Y-112028571D02*
X100307200Y-111933333D01*
X100307200Y-111933333D02*
X100259580Y-111885714D01*
X100259580Y-111885714D02*
X100164342Y-111838095D01*
X100164342Y-111838095D02*
X99926247Y-111838095D01*
X99926247Y-111838095D02*
X99831009Y-111885714D01*
X99831009Y-111885714D02*
X99783390Y-111933333D01*
X99783390Y-111933333D02*
X99735771Y-112028571D01*
X99735771Y-112028571D02*
X99735771Y-112219047D01*
X99735771Y-112219047D02*
X99783390Y-112314285D01*
X99783390Y-112314285D02*
X99831009Y-112361904D01*
X99831009Y-112361904D02*
X99926247Y-112409523D01*
X106659580Y-116542857D02*
X106707200Y-116590476D01*
X106707200Y-116590476D02*
X106754819Y-116733333D01*
X106754819Y-116733333D02*
X106754819Y-116828571D01*
X106754819Y-116828571D02*
X106707200Y-116971428D01*
X106707200Y-116971428D02*
X106611961Y-117066666D01*
X106611961Y-117066666D02*
X106516723Y-117114285D01*
X106516723Y-117114285D02*
X106326247Y-117161904D01*
X106326247Y-117161904D02*
X106183390Y-117161904D01*
X106183390Y-117161904D02*
X105992914Y-117114285D01*
X105992914Y-117114285D02*
X105897676Y-117066666D01*
X105897676Y-117066666D02*
X105802438Y-116971428D01*
X105802438Y-116971428D02*
X105754819Y-116828571D01*
X105754819Y-116828571D02*
X105754819Y-116733333D01*
X105754819Y-116733333D02*
X105802438Y-116590476D01*
X105802438Y-116590476D02*
X105850057Y-116542857D01*
X105850057Y-116161904D02*
X105802438Y-116114285D01*
X105802438Y-116114285D02*
X105754819Y-116019047D01*
X105754819Y-116019047D02*
X105754819Y-115780952D01*
X105754819Y-115780952D02*
X105802438Y-115685714D01*
X105802438Y-115685714D02*
X105850057Y-115638095D01*
X105850057Y-115638095D02*
X105945295Y-115590476D01*
X105945295Y-115590476D02*
X106040533Y-115590476D01*
X106040533Y-115590476D02*
X106183390Y-115638095D01*
X106183390Y-115638095D02*
X106754819Y-116209523D01*
X106754819Y-116209523D02*
X106754819Y-115590476D01*
X105754819Y-115257142D02*
X105754819Y-114638095D01*
X105754819Y-114638095D02*
X106135771Y-114971428D01*
X106135771Y-114971428D02*
X106135771Y-114828571D01*
X106135771Y-114828571D02*
X106183390Y-114733333D01*
X106183390Y-114733333D02*
X106231009Y-114685714D01*
X106231009Y-114685714D02*
X106326247Y-114638095D01*
X106326247Y-114638095D02*
X106564342Y-114638095D01*
X106564342Y-114638095D02*
X106659580Y-114685714D01*
X106659580Y-114685714D02*
X106707200Y-114733333D01*
X106707200Y-114733333D02*
X106754819Y-114828571D01*
X106754819Y-114828571D02*
X106754819Y-115114285D01*
X106754819Y-115114285D02*
X106707200Y-115209523D01*
X106707200Y-115209523D02*
X106659580Y-115257142D01*
X154409580Y-109741666D02*
X154457200Y-109789285D01*
X154457200Y-109789285D02*
X154504819Y-109932142D01*
X154504819Y-109932142D02*
X154504819Y-110027380D01*
X154504819Y-110027380D02*
X154457200Y-110170237D01*
X154457200Y-110170237D02*
X154361961Y-110265475D01*
X154361961Y-110265475D02*
X154266723Y-110313094D01*
X154266723Y-110313094D02*
X154076247Y-110360713D01*
X154076247Y-110360713D02*
X153933390Y-110360713D01*
X153933390Y-110360713D02*
X153742914Y-110313094D01*
X153742914Y-110313094D02*
X153647676Y-110265475D01*
X153647676Y-110265475D02*
X153552438Y-110170237D01*
X153552438Y-110170237D02*
X153504819Y-110027380D01*
X153504819Y-110027380D02*
X153504819Y-109932142D01*
X153504819Y-109932142D02*
X153552438Y-109789285D01*
X153552438Y-109789285D02*
X153600057Y-109741666D01*
X153838152Y-108884523D02*
X154504819Y-108884523D01*
X153457200Y-109122618D02*
X154171485Y-109360713D01*
X154171485Y-109360713D02*
X154171485Y-108741666D01*
X168567319Y-112016666D02*
X168091128Y-112349999D01*
X168567319Y-112588094D02*
X167567319Y-112588094D01*
X167567319Y-112588094D02*
X167567319Y-112207142D01*
X167567319Y-112207142D02*
X167614938Y-112111904D01*
X167614938Y-112111904D02*
X167662557Y-112064285D01*
X167662557Y-112064285D02*
X167757795Y-112016666D01*
X167757795Y-112016666D02*
X167900652Y-112016666D01*
X167900652Y-112016666D02*
X167995890Y-112064285D01*
X167995890Y-112064285D02*
X168043509Y-112111904D01*
X168043509Y-112111904D02*
X168091128Y-112207142D01*
X168091128Y-112207142D02*
X168091128Y-112588094D01*
X167567319Y-111683332D02*
X167567319Y-111016666D01*
X167567319Y-111016666D02*
X168567319Y-111445237D01*
X112504819Y-114492857D02*
X112028628Y-114826190D01*
X112504819Y-115064285D02*
X111504819Y-115064285D01*
X111504819Y-115064285D02*
X111504819Y-114683333D01*
X111504819Y-114683333D02*
X111552438Y-114588095D01*
X111552438Y-114588095D02*
X111600057Y-114540476D01*
X111600057Y-114540476D02*
X111695295Y-114492857D01*
X111695295Y-114492857D02*
X111838152Y-114492857D01*
X111838152Y-114492857D02*
X111933390Y-114540476D01*
X111933390Y-114540476D02*
X111981009Y-114588095D01*
X111981009Y-114588095D02*
X112028628Y-114683333D01*
X112028628Y-114683333D02*
X112028628Y-115064285D01*
X112504819Y-113540476D02*
X112504819Y-114111904D01*
X112504819Y-113826190D02*
X111504819Y-113826190D01*
X111504819Y-113826190D02*
X111647676Y-113921428D01*
X111647676Y-113921428D02*
X111742914Y-114016666D01*
X111742914Y-114016666D02*
X111790533Y-114111904D01*
X112504819Y-113064285D02*
X112504819Y-112873809D01*
X112504819Y-112873809D02*
X112457200Y-112778571D01*
X112457200Y-112778571D02*
X112409580Y-112730952D01*
X112409580Y-112730952D02*
X112266723Y-112635714D01*
X112266723Y-112635714D02*
X112076247Y-112588095D01*
X112076247Y-112588095D02*
X111695295Y-112588095D01*
X111695295Y-112588095D02*
X111600057Y-112635714D01*
X111600057Y-112635714D02*
X111552438Y-112683333D01*
X111552438Y-112683333D02*
X111504819Y-112778571D01*
X111504819Y-112778571D02*
X111504819Y-112969047D01*
X111504819Y-112969047D02*
X111552438Y-113064285D01*
X111552438Y-113064285D02*
X111600057Y-113111904D01*
X111600057Y-113111904D02*
X111695295Y-113159523D01*
X111695295Y-113159523D02*
X111933390Y-113159523D01*
X111933390Y-113159523D02*
X112028628Y-113111904D01*
X112028628Y-113111904D02*
X112076247Y-113064285D01*
X112076247Y-113064285D02*
X112123866Y-112969047D01*
X112123866Y-112969047D02*
X112123866Y-112778571D01*
X112123866Y-112778571D02*
X112076247Y-112683333D01*
X112076247Y-112683333D02*
X112028628Y-112635714D01*
X112028628Y-112635714D02*
X111933390Y-112588095D01*
X105804819Y-98070833D02*
X106519104Y-98070833D01*
X106519104Y-98070833D02*
X106661961Y-98118452D01*
X106661961Y-98118452D02*
X106757200Y-98213690D01*
X106757200Y-98213690D02*
X106804819Y-98356547D01*
X106804819Y-98356547D02*
X106804819Y-98451785D01*
X105804819Y-97689880D02*
X105804819Y-97070833D01*
X105804819Y-97070833D02*
X106185771Y-97404166D01*
X106185771Y-97404166D02*
X106185771Y-97261309D01*
X106185771Y-97261309D02*
X106233390Y-97166071D01*
X106233390Y-97166071D02*
X106281009Y-97118452D01*
X106281009Y-97118452D02*
X106376247Y-97070833D01*
X106376247Y-97070833D02*
X106614342Y-97070833D01*
X106614342Y-97070833D02*
X106709580Y-97118452D01*
X106709580Y-97118452D02*
X106757200Y-97166071D01*
X106757200Y-97166071D02*
X106804819Y-97261309D01*
X106804819Y-97261309D02*
X106804819Y-97547023D01*
X106804819Y-97547023D02*
X106757200Y-97642261D01*
X106757200Y-97642261D02*
X106709580Y-97689880D01*
X149550595Y-93854819D02*
X149550595Y-94664342D01*
X149550595Y-94664342D02*
X149598214Y-94759580D01*
X149598214Y-94759580D02*
X149645833Y-94807200D01*
X149645833Y-94807200D02*
X149741071Y-94854819D01*
X149741071Y-94854819D02*
X149931547Y-94854819D01*
X149931547Y-94854819D02*
X150026785Y-94807200D01*
X150026785Y-94807200D02*
X150074404Y-94759580D01*
X150074404Y-94759580D02*
X150122023Y-94664342D01*
X150122023Y-94664342D02*
X150122023Y-93854819D01*
X150550595Y-93950057D02*
X150598214Y-93902438D01*
X150598214Y-93902438D02*
X150693452Y-93854819D01*
X150693452Y-93854819D02*
X150931547Y-93854819D01*
X150931547Y-93854819D02*
X151026785Y-93902438D01*
X151026785Y-93902438D02*
X151074404Y-93950057D01*
X151074404Y-93950057D02*
X151122023Y-94045295D01*
X151122023Y-94045295D02*
X151122023Y-94140533D01*
X151122023Y-94140533D02*
X151074404Y-94283390D01*
X151074404Y-94283390D02*
X150502976Y-94854819D01*
X150502976Y-94854819D02*
X151122023Y-94854819D01*
X108407142Y-127347080D02*
X108359523Y-127394700D01*
X108359523Y-127394700D02*
X108216666Y-127442319D01*
X108216666Y-127442319D02*
X108121428Y-127442319D01*
X108121428Y-127442319D02*
X107978571Y-127394700D01*
X107978571Y-127394700D02*
X107883333Y-127299461D01*
X107883333Y-127299461D02*
X107835714Y-127204223D01*
X107835714Y-127204223D02*
X107788095Y-127013747D01*
X107788095Y-127013747D02*
X107788095Y-126870890D01*
X107788095Y-126870890D02*
X107835714Y-126680414D01*
X107835714Y-126680414D02*
X107883333Y-126585176D01*
X107883333Y-126585176D02*
X107978571Y-126489938D01*
X107978571Y-126489938D02*
X108121428Y-126442319D01*
X108121428Y-126442319D02*
X108216666Y-126442319D01*
X108216666Y-126442319D02*
X108359523Y-126489938D01*
X108359523Y-126489938D02*
X108407142Y-126537557D01*
X108788095Y-126537557D02*
X108835714Y-126489938D01*
X108835714Y-126489938D02*
X108930952Y-126442319D01*
X108930952Y-126442319D02*
X109169047Y-126442319D01*
X109169047Y-126442319D02*
X109264285Y-126489938D01*
X109264285Y-126489938D02*
X109311904Y-126537557D01*
X109311904Y-126537557D02*
X109359523Y-126632795D01*
X109359523Y-126632795D02*
X109359523Y-126728033D01*
X109359523Y-126728033D02*
X109311904Y-126870890D01*
X109311904Y-126870890D02*
X108740476Y-127442319D01*
X108740476Y-127442319D02*
X109359523Y-127442319D01*
X110311904Y-127442319D02*
X109740476Y-127442319D01*
X110026190Y-127442319D02*
X110026190Y-126442319D01*
X110026190Y-126442319D02*
X109930952Y-126585176D01*
X109930952Y-126585176D02*
X109835714Y-126680414D01*
X109835714Y-126680414D02*
X109740476Y-126728033D01*
X144480952Y-121031009D02*
X144623809Y-121078628D01*
X144623809Y-121078628D02*
X144671428Y-121126247D01*
X144671428Y-121126247D02*
X144719047Y-121221485D01*
X144719047Y-121221485D02*
X144719047Y-121364342D01*
X144719047Y-121364342D02*
X144671428Y-121459580D01*
X144671428Y-121459580D02*
X144623809Y-121507200D01*
X144623809Y-121507200D02*
X144528571Y-121554819D01*
X144528571Y-121554819D02*
X144147619Y-121554819D01*
X144147619Y-121554819D02*
X144147619Y-120554819D01*
X144147619Y-120554819D02*
X144480952Y-120554819D01*
X144480952Y-120554819D02*
X144576190Y-120602438D01*
X144576190Y-120602438D02*
X144623809Y-120650057D01*
X144623809Y-120650057D02*
X144671428Y-120745295D01*
X144671428Y-120745295D02*
X144671428Y-120840533D01*
X144671428Y-120840533D02*
X144623809Y-120935771D01*
X144623809Y-120935771D02*
X144576190Y-120983390D01*
X144576190Y-120983390D02*
X144480952Y-121031009D01*
X144480952Y-121031009D02*
X144147619Y-121031009D01*
X145100000Y-121269104D02*
X145576190Y-121269104D01*
X145004762Y-121554819D02*
X145338095Y-120554819D01*
X145338095Y-120554819D02*
X145671428Y-121554819D01*
X145861905Y-120554819D02*
X146433333Y-120554819D01*
X146147619Y-121554819D02*
X146147619Y-120554819D01*
X146623810Y-120554819D02*
X147195238Y-120554819D01*
X146909524Y-121554819D02*
X146909524Y-120554819D01*
X147059580Y-91216666D02*
X147107200Y-91264285D01*
X147107200Y-91264285D02*
X147154819Y-91407142D01*
X147154819Y-91407142D02*
X147154819Y-91502380D01*
X147154819Y-91502380D02*
X147107200Y-91645237D01*
X147107200Y-91645237D02*
X147011961Y-91740475D01*
X147011961Y-91740475D02*
X146916723Y-91788094D01*
X146916723Y-91788094D02*
X146726247Y-91835713D01*
X146726247Y-91835713D02*
X146583390Y-91835713D01*
X146583390Y-91835713D02*
X146392914Y-91788094D01*
X146392914Y-91788094D02*
X146297676Y-91740475D01*
X146297676Y-91740475D02*
X146202438Y-91645237D01*
X146202438Y-91645237D02*
X146154819Y-91502380D01*
X146154819Y-91502380D02*
X146154819Y-91407142D01*
X146154819Y-91407142D02*
X146202438Y-91264285D01*
X146202438Y-91264285D02*
X146250057Y-91216666D01*
X146154819Y-90883332D02*
X146154819Y-90216666D01*
X146154819Y-90216666D02*
X147154819Y-90645237D01*
X140354819Y-105941666D02*
X139878628Y-106274999D01*
X140354819Y-106513094D02*
X139354819Y-106513094D01*
X139354819Y-106513094D02*
X139354819Y-106132142D01*
X139354819Y-106132142D02*
X139402438Y-106036904D01*
X139402438Y-106036904D02*
X139450057Y-105989285D01*
X139450057Y-105989285D02*
X139545295Y-105941666D01*
X139545295Y-105941666D02*
X139688152Y-105941666D01*
X139688152Y-105941666D02*
X139783390Y-105989285D01*
X139783390Y-105989285D02*
X139831009Y-106036904D01*
X139831009Y-106036904D02*
X139878628Y-106132142D01*
X139878628Y-106132142D02*
X139878628Y-106513094D01*
X140354819Y-104989285D02*
X140354819Y-105560713D01*
X140354819Y-105274999D02*
X139354819Y-105274999D01*
X139354819Y-105274999D02*
X139497676Y-105370237D01*
X139497676Y-105370237D02*
X139592914Y-105465475D01*
X139592914Y-105465475D02*
X139640533Y-105560713D01*
X117788095Y-103454819D02*
X117788095Y-104264342D01*
X117788095Y-104264342D02*
X117835714Y-104359580D01*
X117835714Y-104359580D02*
X117883333Y-104407200D01*
X117883333Y-104407200D02*
X117978571Y-104454819D01*
X117978571Y-104454819D02*
X118169047Y-104454819D01*
X118169047Y-104454819D02*
X118264285Y-104407200D01*
X118264285Y-104407200D02*
X118311904Y-104359580D01*
X118311904Y-104359580D02*
X118359523Y-104264342D01*
X118359523Y-104264342D02*
X118359523Y-103454819D01*
X118740476Y-103454819D02*
X119359523Y-103454819D01*
X119359523Y-103454819D02*
X119026190Y-103835771D01*
X119026190Y-103835771D02*
X119169047Y-103835771D01*
X119169047Y-103835771D02*
X119264285Y-103883390D01*
X119264285Y-103883390D02*
X119311904Y-103931009D01*
X119311904Y-103931009D02*
X119359523Y-104026247D01*
X119359523Y-104026247D02*
X119359523Y-104264342D01*
X119359523Y-104264342D02*
X119311904Y-104359580D01*
X119311904Y-104359580D02*
X119264285Y-104407200D01*
X119264285Y-104407200D02*
X119169047Y-104454819D01*
X119169047Y-104454819D02*
X118883333Y-104454819D01*
X118883333Y-104454819D02*
X118788095Y-104407200D01*
X118788095Y-104407200D02*
X118740476Y-104359580D01*
X111757142Y-93954819D02*
X111423809Y-93478628D01*
X111185714Y-93954819D02*
X111185714Y-92954819D01*
X111185714Y-92954819D02*
X111566666Y-92954819D01*
X111566666Y-92954819D02*
X111661904Y-93002438D01*
X111661904Y-93002438D02*
X111709523Y-93050057D01*
X111709523Y-93050057D02*
X111757142Y-93145295D01*
X111757142Y-93145295D02*
X111757142Y-93288152D01*
X111757142Y-93288152D02*
X111709523Y-93383390D01*
X111709523Y-93383390D02*
X111661904Y-93431009D01*
X111661904Y-93431009D02*
X111566666Y-93478628D01*
X111566666Y-93478628D02*
X111185714Y-93478628D01*
X112709523Y-93954819D02*
X112138095Y-93954819D01*
X112423809Y-93954819D02*
X112423809Y-92954819D01*
X112423809Y-92954819D02*
X112328571Y-93097676D01*
X112328571Y-93097676D02*
X112233333Y-93192914D01*
X112233333Y-93192914D02*
X112138095Y-93240533D01*
X113328571Y-92954819D02*
X113423809Y-92954819D01*
X113423809Y-92954819D02*
X113519047Y-93002438D01*
X113519047Y-93002438D02*
X113566666Y-93050057D01*
X113566666Y-93050057D02*
X113614285Y-93145295D01*
X113614285Y-93145295D02*
X113661904Y-93335771D01*
X113661904Y-93335771D02*
X113661904Y-93573866D01*
X113661904Y-93573866D02*
X113614285Y-93764342D01*
X113614285Y-93764342D02*
X113566666Y-93859580D01*
X113566666Y-93859580D02*
X113519047Y-93907200D01*
X113519047Y-93907200D02*
X113423809Y-93954819D01*
X113423809Y-93954819D02*
X113328571Y-93954819D01*
X113328571Y-93954819D02*
X113233333Y-93907200D01*
X113233333Y-93907200D02*
X113185714Y-93859580D01*
X113185714Y-93859580D02*
X113138095Y-93764342D01*
X113138095Y-93764342D02*
X113090476Y-93573866D01*
X113090476Y-93573866D02*
X113090476Y-93335771D01*
X113090476Y-93335771D02*
X113138095Y-93145295D01*
X113138095Y-93145295D02*
X113185714Y-93050057D01*
X113185714Y-93050057D02*
X113233333Y-93002438D01*
X113233333Y-93002438D02*
X113328571Y-92954819D01*
D12*
%TO.C,J4*%
X110221999Y-128022999D02*
X97267999Y-128022999D01*
X97267999Y-128022999D02*
X97267999Y-128767258D01*
X110221999Y-128767258D02*
X110221999Y-128022999D01*
X97267999Y-131432738D02*
X97267999Y-132767260D01*
X110221999Y-132767260D02*
X110221999Y-131432738D01*
X97267999Y-135432740D02*
X97267999Y-136176999D01*
X110221999Y-136176999D02*
X110221999Y-135432740D01*
X97267999Y-136176999D02*
X110221999Y-136176999D01*
D13*
X98775999Y-126899999D02*
G75*
G02*
X98013999Y-126899999I-381000J0D01*
G01*
X98013999Y-126899999D02*
G75*
G02*
X98775999Y-126899999I381000J0D01*
G01*
D14*
%TO.C,TP1*%
X114850000Y-130100000D02*
X116450000Y-130100000D01*
X114850000Y-131700000D02*
X114850000Y-130100000D01*
X116450000Y-130100000D02*
X116450000Y-131700000D01*
X116450000Y-131700000D02*
X114850000Y-131700000D01*
%TO.C,C14*%
X107888748Y-101452500D02*
X108411252Y-101452500D01*
X107888748Y-102922500D02*
X108411252Y-102922500D01*
%TO.C,R23*%
X141787742Y-122327500D02*
X142262258Y-122327500D01*
X141787742Y-123372500D02*
X142262258Y-123372500D01*
%TO.C,C10*%
X137109420Y-96590000D02*
X137390580Y-96590000D01*
X137109420Y-97610000D02*
X137390580Y-97610000D01*
%TO.C,SW5*%
X98210000Y-116077500D02*
X100310000Y-116077500D01*
X98210000Y-123797500D02*
X100310000Y-123797500D01*
X100080000Y-116597500D02*
X100310000Y-116597500D01*
X100080000Y-117137500D02*
X100080000Y-116597500D01*
X100080000Y-121637500D02*
X100080000Y-118237500D01*
X100080000Y-123277500D02*
X100080000Y-122737500D01*
X100080000Y-123277500D02*
X100310000Y-123277500D01*
X102910000Y-116077500D02*
X103420000Y-116077500D01*
X102910000Y-116597500D02*
X103420000Y-116597500D01*
X102910000Y-123277500D02*
X103420000Y-123277500D01*
X102910000Y-123797500D02*
X103420000Y-123797500D01*
X103420000Y-116597500D02*
X103420000Y-116077500D01*
X103420000Y-123797500D02*
X103420000Y-123277500D01*
%TO.C,R8*%
X150477500Y-107912258D02*
X150477500Y-107437742D01*
X151522500Y-107912258D02*
X151522500Y-107437742D01*
%TO.C,U1*%
X138190000Y-112760000D02*
X138190000Y-112585000D01*
X138865000Y-110040000D02*
X138490000Y-110040000D01*
X138865000Y-112760000D02*
X138190000Y-112760000D01*
X140735000Y-110040000D02*
X141410000Y-110040000D01*
X140735000Y-112760000D02*
X141410000Y-112760000D01*
X141410000Y-110040000D02*
X141410000Y-110215000D01*
X141410000Y-112760000D02*
X141410000Y-112585000D01*
X138190000Y-110040000D02*
X138050000Y-109850000D01*
X138330000Y-109850000D01*
X138190000Y-110040000D01*
G36*
X138190000Y-110040000D02*
G01*
X138050000Y-109850000D01*
X138330000Y-109850000D01*
X138190000Y-110040000D01*
G37*
%TO.C,Q1*%
X170975000Y-107690000D02*
X170325000Y-107690000D01*
X170975000Y-107690000D02*
X171625000Y-107690000D01*
X170975000Y-110810000D02*
X170325000Y-110810000D01*
X170975000Y-110810000D02*
X171625000Y-110810000D01*
X169812500Y-107740000D02*
X169572500Y-107410000D01*
X170052500Y-107410000D01*
X169812500Y-107740000D01*
G36*
X169812500Y-107740000D02*
G01*
X169572500Y-107410000D01*
X170052500Y-107410000D01*
X169812500Y-107740000D01*
G37*
%TO.C,SW2*%
X150100000Y-75975000D02*
X150100000Y-77975000D01*
X151100000Y-74675000D02*
X151550000Y-74225000D01*
X151100000Y-79275000D02*
X151550000Y-79725000D01*
X151550000Y-74225000D02*
X154150000Y-74225000D01*
X151550000Y-79725000D02*
X154150000Y-79725000D01*
X154600000Y-74675000D02*
X154150000Y-74225000D01*
X154600000Y-79275000D02*
X154150000Y-79725000D01*
X155600000Y-75975000D02*
X155600000Y-77975000D01*
%TO.C,R12*%
X157912742Y-78327500D02*
X158387258Y-78327500D01*
X157912742Y-79372500D02*
X158387258Y-79372500D01*
%TO.C,L1*%
X114840000Y-125338748D02*
X114840000Y-125861252D01*
X117060000Y-125338748D02*
X117060000Y-125861252D01*
%TO.C,R2*%
X137777500Y-107987742D02*
X137777500Y-108462258D01*
X138822500Y-107987742D02*
X138822500Y-108462258D01*
%TO.C,TP3*%
X127675000Y-122750000D02*
X129275000Y-122750000D01*
X127675000Y-124350000D02*
X127675000Y-122750000D01*
X129275000Y-122750000D02*
X129275000Y-124350000D01*
X129275000Y-124350000D02*
X127675000Y-124350000D01*
%TO.C,R22*%
X142262258Y-124527500D02*
X141787742Y-124527500D01*
X142262258Y-125572500D02*
X141787742Y-125572500D01*
%TO.C,Y1*%
X139200000Y-93650000D02*
X139200000Y-99650000D01*
X139200000Y-99650000D02*
X143000000Y-99650000D01*
X143000000Y-99650000D02*
X143000000Y-93650000D01*
%TO.C,C16*%
X117890000Y-127246920D02*
X117890000Y-127528080D01*
X118910000Y-127246920D02*
X118910000Y-127528080D01*
%TO.C,Q2*%
X137587500Y-121740000D02*
X136787500Y-121740000D01*
X137587500Y-121740000D02*
X138387500Y-121740000D01*
X137587500Y-124860000D02*
X136787500Y-124860000D01*
X137587500Y-124860000D02*
X138387500Y-124860000D01*
X136287500Y-121790000D02*
X136047500Y-121460000D01*
X136527500Y-121460000D01*
X136287500Y-121790000D01*
G36*
X136287500Y-121790000D02*
G01*
X136047500Y-121460000D01*
X136527500Y-121460000D01*
X136287500Y-121790000D01*
G37*
%TO.C,SW3*%
X150770000Y-128520000D02*
X157230000Y-128520000D01*
X150770000Y-128550000D02*
X150770000Y-128520000D01*
X150770000Y-130450000D02*
X150770000Y-133050000D01*
X150770000Y-134980000D02*
X150770000Y-134950000D01*
X150770000Y-134980000D02*
X157230000Y-134980000D01*
X157230000Y-128520000D02*
X157230000Y-128550000D01*
X157230000Y-130450000D02*
X157230000Y-133050000D01*
X157230000Y-134980000D02*
X157230000Y-134950000D01*
%TO.C,TP2*%
X107050000Y-104800000D02*
X108650000Y-104800000D01*
X107050000Y-106400000D02*
X107050000Y-104800000D01*
X108650000Y-104800000D02*
X108650000Y-106400000D01*
X108650000Y-106400000D02*
X107050000Y-106400000D01*
%TO.C,R15*%
X127112742Y-78377500D02*
X127587258Y-78377500D01*
X127112742Y-79422500D02*
X127587258Y-79422500D01*
%TO.C,C9*%
X137109420Y-95090000D02*
X137390580Y-95090000D01*
X137109420Y-96110000D02*
X137390580Y-96110000D01*
%TO.C,R21*%
X138362742Y-120227500D02*
X138837258Y-120227500D01*
X138362742Y-121272500D02*
X138837258Y-121272500D01*
%TO.C,R6*%
X143427500Y-96262742D02*
X143427500Y-96737258D01*
X144472500Y-96262742D02*
X144472500Y-96737258D01*
%TO.C,C13*%
X112465000Y-125611252D02*
X112465000Y-125088748D01*
X113935000Y-125611252D02*
X113935000Y-125088748D01*
%TO.C,C22*%
X115988748Y-119065000D02*
X116511252Y-119065000D01*
X115988748Y-120535000D02*
X116511252Y-120535000D01*
%TO.C,SW4*%
X165295000Y-128520000D02*
X165295000Y-128550000D01*
X165295000Y-133050000D02*
X165295000Y-130450000D01*
X165295000Y-134980000D02*
X165295000Y-134950000D01*
X171755000Y-128520000D02*
X165295000Y-128520000D01*
X171755000Y-128520000D02*
X171755000Y-128550000D01*
X171755000Y-133050000D02*
X171755000Y-130450000D01*
X171755000Y-134950000D02*
X171755000Y-134980000D01*
X171755000Y-134980000D02*
X165295000Y-134980000D01*
%TO.C,SW1*%
X136950000Y-75975000D02*
X136950000Y-77975000D01*
X137950000Y-74675000D02*
X138400000Y-74225000D01*
X137950000Y-79275000D02*
X138400000Y-79725000D01*
X138400000Y-74225000D02*
X141000000Y-74225000D01*
X138400000Y-79725000D02*
X141000000Y-79725000D01*
X141450000Y-74675000D02*
X141000000Y-74225000D01*
X141450000Y-79275000D02*
X141000000Y-79725000D01*
X142450000Y-75975000D02*
X142450000Y-77975000D01*
%TO.C,C3*%
X107284420Y-78040000D02*
X107565580Y-78040000D01*
X107284420Y-79060000D02*
X107565580Y-79060000D01*
%TO.C,U4*%
X125212500Y-124927500D02*
X124412500Y-124927500D01*
X125212500Y-124927500D02*
X126012500Y-124927500D01*
X125212500Y-128047500D02*
X124412500Y-128047500D01*
X125212500Y-128047500D02*
X126012500Y-128047500D01*
X123912500Y-124977500D02*
X123672500Y-124647500D01*
X124152500Y-124647500D01*
X123912500Y-124977500D01*
G36*
X123912500Y-124977500D02*
G01*
X123672500Y-124647500D01*
X124152500Y-124647500D01*
X123912500Y-124977500D01*
G37*
%TO.C,J1*%
X96525000Y-80700000D02*
X102525000Y-80700000D01*
X96525000Y-81460000D02*
X96525000Y-80700000D01*
X96525000Y-83240000D02*
X102525000Y-83240000D01*
X96525000Y-84000000D02*
X96525000Y-83240000D01*
X96525000Y-85780000D02*
X102525000Y-85780000D01*
X96525000Y-86540000D02*
X96525000Y-85780000D01*
X96525000Y-88320000D02*
X102525000Y-88320000D01*
X96525000Y-89080000D02*
X96525000Y-88320000D01*
X102525000Y-79750000D02*
X102525000Y-90030000D01*
X102525000Y-81460000D02*
X96525000Y-81460000D01*
X102525000Y-84000000D02*
X96525000Y-84000000D01*
X102525000Y-86540000D02*
X96525000Y-86540000D01*
X102525000Y-88420000D02*
X96525000Y-88420000D01*
X102525000Y-88540000D02*
X96525000Y-88540000D01*
X102525000Y-88660000D02*
X96525000Y-88660000D01*
X102525000Y-88780000D02*
X96525000Y-88780000D01*
X102525000Y-88900000D02*
X96525000Y-88900000D01*
X102525000Y-89020000D02*
X96525000Y-89020000D01*
X102525000Y-89080000D02*
X96525000Y-89080000D01*
X102525000Y-90030000D02*
X105185000Y-90030000D01*
X105185000Y-79750000D02*
X102525000Y-79750000D01*
X105185000Y-82350000D02*
X102525000Y-82350000D01*
X105185000Y-84890000D02*
X102525000Y-84890000D01*
X105185000Y-87430000D02*
X102525000Y-87430000D01*
X105185000Y-90030000D02*
X105185000Y-79750000D01*
X105515000Y-88320000D02*
X105185000Y-88320000D01*
X105515000Y-89080000D02*
X105185000Y-89080000D01*
X105582071Y-80700000D02*
X105185000Y-80700000D01*
X105582071Y-81460000D02*
X105185000Y-81460000D01*
X105582071Y-83240000D02*
X105185000Y-83240000D01*
X105582071Y-84000000D02*
X105185000Y-84000000D01*
X105582071Y-85780000D02*
X105185000Y-85780000D01*
X105582071Y-86540000D02*
X105185000Y-86540000D01*
X107895000Y-88700000D02*
X107895000Y-89970000D01*
X107895000Y-89970000D02*
X106625000Y-89970000D01*
%TO.C,C20*%
X128115000Y-126138748D02*
X128115000Y-126661252D01*
X129585000Y-126138748D02*
X129585000Y-126661252D01*
%TO.C,U5*%
X109640000Y-118840000D02*
X110115000Y-118840000D01*
X109640000Y-119315000D02*
X109640000Y-118840000D01*
X109640000Y-122585000D02*
X109640000Y-123060000D01*
X109640000Y-123060000D02*
X110115000Y-123060000D01*
X113385000Y-118840000D02*
X113620000Y-118840000D01*
X113860000Y-119315000D02*
X113860000Y-119140000D01*
X113860000Y-122585000D02*
X113860000Y-123060000D01*
X113860000Y-123060000D02*
X113385000Y-123060000D01*
X114190000Y-119080000D02*
X113860000Y-118840000D01*
X114190000Y-118600000D01*
X114190000Y-119080000D01*
G36*
X114190000Y-119080000D02*
G01*
X113860000Y-118840000D01*
X114190000Y-118600000D01*
X114190000Y-119080000D01*
G37*
%TO.C,R14*%
X127062742Y-79927500D02*
X127537258Y-79927500D01*
X127062742Y-80972500D02*
X127537258Y-80972500D01*
%TO.C,C5*%
X156959420Y-96440000D02*
X157240580Y-96440000D01*
X156959420Y-97460000D02*
X157240580Y-97460000D01*
%TO.C,R11*%
X112912742Y-95927500D02*
X113387258Y-95927500D01*
X112912742Y-96972500D02*
X113387258Y-96972500D01*
%TO.C,C12*%
X115909420Y-121840000D02*
X116190580Y-121840000D01*
X115909420Y-122860000D02*
X116190580Y-122860000D01*
%TO.C,R17*%
X100877500Y-109962742D02*
X100877500Y-110437258D01*
X101922500Y-109962742D02*
X101922500Y-110437258D01*
%TO.C,C15*%
X115609420Y-117040000D02*
X115890580Y-117040000D01*
X115609420Y-118060000D02*
X115890580Y-118060000D01*
%TO.C,C11*%
X118265580Y-91390000D02*
X117984420Y-91390000D01*
X118265580Y-92410000D02*
X117984420Y-92410000D01*
%TO.C,R9*%
X158387258Y-74577500D02*
X157912742Y-74577500D01*
X158387258Y-75622500D02*
X157912742Y-75622500D01*
%TO.C,R13*%
X127112742Y-76777500D02*
X127587258Y-76777500D01*
X127112742Y-77822500D02*
X127587258Y-77822500D01*
%TO.C,R20*%
X133777500Y-124387258D02*
X133777500Y-123912742D01*
X134822500Y-124387258D02*
X134822500Y-123912742D01*
%TO.C,C2*%
X136240000Y-114359420D02*
X136240000Y-114640580D01*
X137260000Y-114359420D02*
X137260000Y-114640580D01*
%TO.C,R3*%
X102127500Y-91812742D02*
X102127500Y-92287258D01*
X103172500Y-91812742D02*
X103172500Y-92287258D01*
%TO.C,R24*%
X133777500Y-121337258D02*
X133777500Y-120862742D01*
X134822500Y-121337258D02*
X134822500Y-120862742D01*
%TO.C,C18*%
X120890000Y-127246920D02*
X120890000Y-127528080D01*
X121910000Y-127246920D02*
X121910000Y-127528080D01*
%TO.C,R4*%
X103627500Y-91812742D02*
X103627500Y-92287258D01*
X104672500Y-91812742D02*
X104672500Y-92287258D01*
D15*
%TO.C,D1*%
X122850000Y-79200000D02*
X122850000Y-77100000D01*
X125050000Y-79200000D02*
X125050000Y-77100000D01*
X125350000Y-77350000D02*
X125200000Y-77250000D01*
X125350000Y-77150000D01*
X125350000Y-77350000D01*
G36*
X125350000Y-77350000D02*
G01*
X125200000Y-77250000D01*
X125350000Y-77150000D01*
X125350000Y-77350000D01*
G37*
D14*
%TO.C,J2*%
X175395000Y-92720000D02*
X175395000Y-110560000D01*
X175395000Y-92720000D02*
X178055000Y-92720000D01*
X175395000Y-110560000D02*
X178055000Y-110560000D01*
X176725000Y-90120000D02*
X178055000Y-90120000D01*
X178055000Y-90120000D02*
X178055000Y-91450000D01*
X178055000Y-92720000D02*
X178055000Y-110560000D01*
D16*
X122225000Y-82750000D02*
X178225000Y-82750000D01*
X178225000Y-117750000D01*
X122225000Y-117750000D01*
X122225000Y-82750000D01*
D15*
X127225000Y-82750000D02*
X173225000Y-82750000D01*
X173225000Y-117750000D01*
X127225000Y-117750000D01*
X127225000Y-82750000D01*
D14*
%TO.C,C19*%
X130490000Y-126009420D02*
X130490000Y-126290580D01*
X131510000Y-126009420D02*
X131510000Y-126290580D01*
%TO.C,C17*%
X119390000Y-127246920D02*
X119390000Y-127528080D01*
X120410000Y-127246920D02*
X120410000Y-127528080D01*
%TO.C,TP4*%
X119800000Y-135600000D02*
X121400000Y-135600000D01*
X119800000Y-137200000D02*
X119800000Y-135600000D01*
X121400000Y-135600000D02*
X121400000Y-137200000D01*
X121400000Y-137200000D02*
X119800000Y-137200000D01*
%TO.C,C1*%
X137765000Y-114438748D02*
X137765000Y-114961252D01*
X139235000Y-114438748D02*
X139235000Y-114961252D01*
%TO.C,C8*%
X141684420Y-101490000D02*
X141965580Y-101490000D01*
X141684420Y-102510000D02*
X141965580Y-102510000D01*
%TO.C,C6*%
X141965580Y-102990000D02*
X141684420Y-102990000D01*
X141965580Y-104010000D02*
X141684420Y-104010000D01*
%TO.C,R5*%
X141587742Y-99977500D02*
X142062258Y-99977500D01*
X141587742Y-101022500D02*
X142062258Y-101022500D01*
%TO.C,R18*%
X108927500Y-116987258D02*
X108927500Y-116512742D01*
X109972500Y-116987258D02*
X109972500Y-116512742D01*
%TO.C,R16*%
X99377500Y-109962742D02*
X99377500Y-110437258D01*
X100422500Y-109962742D02*
X100422500Y-110437258D01*
%TO.C,C23*%
X105565000Y-119361252D02*
X105565000Y-118838748D01*
X107035000Y-119361252D02*
X107035000Y-118838748D01*
%TO.C,C4*%
X153490000Y-106934420D02*
X153490000Y-107215580D01*
X154510000Y-106934420D02*
X154510000Y-107215580D01*
%TO.C,R7*%
X167490000Y-109062742D02*
X167490000Y-109537258D01*
X168535000Y-109062742D02*
X168535000Y-109537258D01*
%TO.C,R19*%
X111427500Y-116987258D02*
X111427500Y-116512742D01*
X112472500Y-116987258D02*
X112472500Y-116512742D01*
%TO.C,J3*%
X96250000Y-97637500D02*
X96250000Y-107037500D01*
X98150000Y-97637500D02*
X96250000Y-97637500D01*
X98150000Y-107037500D02*
X96250000Y-107037500D01*
X102050000Y-97637500D02*
X100050000Y-97637500D01*
X102050000Y-107037500D02*
X100050000Y-107037500D01*
%TO.C,U2*%
X146702500Y-96640000D02*
X146702500Y-97090000D01*
X146702500Y-103860000D02*
X146702500Y-103410000D01*
X147152500Y-96640000D02*
X146702500Y-96640000D01*
X147152500Y-103860000D02*
X146702500Y-103860000D01*
X153472500Y-96640000D02*
X153922500Y-96640000D01*
X153472500Y-103860000D02*
X153922500Y-103860000D01*
X153922500Y-96640000D02*
X153922500Y-97090000D01*
X153922500Y-103860000D02*
X153922500Y-103410000D01*
X146112500Y-97090000D02*
X145772500Y-96620000D01*
X146452500Y-96620000D01*
X146112500Y-97090000D01*
G36*
X146112500Y-97090000D02*
G01*
X145772500Y-96620000D01*
X146452500Y-96620000D01*
X146112500Y-97090000D01*
G37*
%TO.C,C21*%
X109861252Y-124465000D02*
X109338748Y-124465000D01*
X109861252Y-125935000D02*
X109338748Y-125935000D01*
%TO.C,TP5*%
X142050000Y-120300000D02*
X143650000Y-120300000D01*
X142050000Y-121900000D02*
X142050000Y-120300000D01*
X143650000Y-120300000D02*
X143650000Y-121900000D01*
X143650000Y-121900000D02*
X142050000Y-121900000D01*
%TO.C,C7*%
X146140000Y-93690580D02*
X146140000Y-93409420D01*
X147160000Y-93690580D02*
X147160000Y-93409420D01*
%TO.C,R1*%
X139277500Y-107987742D02*
X139277500Y-108462258D01*
X140322500Y-107987742D02*
X140322500Y-108462258D01*
%TO.C,U3*%
X118475000Y-92885000D02*
X116525000Y-92885000D01*
X118475000Y-92885000D02*
X120425000Y-92885000D01*
X118475000Y-103005000D02*
X116525000Y-103005000D01*
X118475000Y-103005000D02*
X120425000Y-103005000D01*
X115775000Y-92940000D02*
X115535000Y-92610000D01*
X116015000Y-92610000D01*
X115775000Y-92940000D01*
G36*
X115775000Y-92940000D02*
G01*
X115535000Y-92610000D01*
X116015000Y-92610000D01*
X115775000Y-92940000D01*
G37*
%TO.C,R10*%
X112912742Y-94427500D02*
X113387258Y-94427500D01*
X112912742Y-95472500D02*
X113387258Y-95472500D01*
%TD*%
%LPC*%
D17*
%TO.C,J4*%
X99900000Y-130099998D03*
D18*
X109150000Y-130099998D03*
D17*
X99900000Y-134100000D03*
D18*
X109150000Y-134100000D03*
%TD*%
D19*
%TO.C,TP1*%
X115650000Y-130900000D03*
%TD*%
D20*
%TO.C,C14*%
X107200000Y-102187500D03*
X109100000Y-102187500D03*
%TD*%
D21*
%TO.C,R23*%
X141200000Y-122850000D03*
X142850000Y-122850000D03*
%TD*%
D22*
%TO.C,C10*%
X136475000Y-97100000D03*
X138025000Y-97100000D03*
%TD*%
D23*
%TO.C,SW5*%
X101600000Y-123437500D03*
X101600000Y-116427500D03*
D24*
X99110000Y-122187500D03*
X99110000Y-117687500D03*
%TD*%
D25*
%TO.C,R8*%
X151000000Y-108500000D03*
X151000000Y-106850000D03*
%TD*%
D26*
%TO.C,U1*%
X138637500Y-110650000D03*
X138637500Y-111150000D03*
X138637500Y-111650000D03*
X138637500Y-112150000D03*
D27*
X139300000Y-112312500D03*
X139800000Y-112312500D03*
X140300000Y-112312500D03*
D26*
X140962500Y-112150000D03*
X140962500Y-111650000D03*
X140962500Y-111150000D03*
X140962500Y-110650000D03*
D27*
X140300000Y-110487500D03*
X139800000Y-110487500D03*
X139300000Y-110487500D03*
%TD*%
D28*
%TO.C,Q1*%
X170037500Y-108300000D03*
X170037500Y-110200000D03*
X171912500Y-109250000D03*
%TD*%
D29*
%TO.C,SW2*%
X149850000Y-75100000D03*
X155850000Y-75100000D03*
X149850000Y-78850000D03*
X155850000Y-78850000D03*
%TD*%
D21*
%TO.C,R12*%
X157325000Y-78850000D03*
X158975000Y-78850000D03*
%TD*%
D30*
%TO.C,L1*%
X115950000Y-124525000D03*
X115950000Y-126675000D03*
%TD*%
D31*
%TO.C,R2*%
X138300000Y-107400000D03*
X138300000Y-109050000D03*
%TD*%
D19*
%TO.C,TP3*%
X128475000Y-123550000D03*
%TD*%
D32*
%TO.C,R22*%
X142850000Y-125050000D03*
X141200000Y-125050000D03*
%TD*%
D33*
%TO.C,Y1*%
X141100000Y-98400000D03*
X141100000Y-94300000D03*
%TD*%
D34*
%TO.C,C16*%
X118400000Y-126612500D03*
X118400000Y-128162500D03*
%TD*%
D35*
%TO.C,Q2*%
X136450000Y-122350000D03*
X136450000Y-123300000D03*
X136450000Y-124250000D03*
X138725000Y-124250000D03*
X138725000Y-123300000D03*
X138725000Y-122350000D03*
%TD*%
D36*
%TO.C,SW3*%
X150025000Y-129500000D03*
X157975000Y-129500000D03*
X150025000Y-134000000D03*
X157975000Y-134000000D03*
%TD*%
D19*
%TO.C,TP2*%
X107850000Y-105600000D03*
%TD*%
D21*
%TO.C,R15*%
X126525000Y-78900000D03*
X128175000Y-78900000D03*
%TD*%
D22*
%TO.C,C9*%
X136475000Y-95600000D03*
X138025000Y-95600000D03*
%TD*%
D21*
%TO.C,R21*%
X137775000Y-120750000D03*
X139425000Y-120750000D03*
%TD*%
D31*
%TO.C,R6*%
X143950000Y-95675000D03*
X143950000Y-97325000D03*
%TD*%
D37*
%TO.C,C13*%
X113200000Y-126300000D03*
X113200000Y-124400000D03*
%TD*%
D20*
%TO.C,C22*%
X115300000Y-119800000D03*
X117200000Y-119800000D03*
%TD*%
D36*
%TO.C,SW4*%
X172500000Y-134000000D03*
X164550000Y-134000000D03*
X172500000Y-129500000D03*
X164550000Y-129500000D03*
%TD*%
D29*
%TO.C,SW1*%
X136700000Y-75100000D03*
X142700000Y-75100000D03*
X136700000Y-78850000D03*
X142700000Y-78850000D03*
%TD*%
D22*
%TO.C,C3*%
X106650000Y-78550000D03*
X108200000Y-78550000D03*
%TD*%
D35*
%TO.C,U4*%
X124075000Y-125537500D03*
X124075000Y-126487500D03*
X124075000Y-127437500D03*
X126350000Y-127437500D03*
X126350000Y-125537500D03*
%TD*%
D38*
%TO.C,J1*%
X106625000Y-88700000D03*
D39*
X106625000Y-86160000D03*
X106625000Y-83620000D03*
X106625000Y-81080000D03*
%TD*%
D40*
%TO.C,C20*%
X128850000Y-125450000D03*
X128850000Y-127350000D03*
%TD*%
D41*
%TO.C,U5*%
X113000000Y-118987500D03*
X112500000Y-118987500D03*
X112000000Y-118987500D03*
X111500000Y-118987500D03*
X111000000Y-118987500D03*
X110500000Y-118987500D03*
D42*
X109787500Y-119700000D03*
X109787500Y-120200000D03*
X109787500Y-120700000D03*
X109787500Y-121200000D03*
X109787500Y-121700000D03*
X109787500Y-122200000D03*
D41*
X110500000Y-122912500D03*
X111000000Y-122912500D03*
X111500000Y-122912500D03*
X112000000Y-122912500D03*
X112500000Y-122912500D03*
X113000000Y-122912500D03*
D42*
X113712500Y-122200000D03*
X113712500Y-121700000D03*
X113712500Y-121200000D03*
X113712500Y-120700000D03*
X113712500Y-120200000D03*
X113712500Y-119700000D03*
D43*
X111750000Y-120950000D03*
%TD*%
D21*
%TO.C,R14*%
X126475000Y-80450000D03*
X128125000Y-80450000D03*
%TD*%
D22*
%TO.C,C5*%
X156325000Y-96950000D03*
X157875000Y-96950000D03*
%TD*%
D21*
%TO.C,R11*%
X112325000Y-96450000D03*
X113975000Y-96450000D03*
%TD*%
D22*
%TO.C,C12*%
X115275000Y-122350000D03*
X116825000Y-122350000D03*
%TD*%
D31*
%TO.C,R17*%
X101400000Y-109375000D03*
X101400000Y-111025000D03*
%TD*%
D22*
%TO.C,C15*%
X114975000Y-117550000D03*
X116525000Y-117550000D03*
%TD*%
D44*
%TO.C,C11*%
X118900000Y-91900000D03*
X117350000Y-91900000D03*
%TD*%
D32*
%TO.C,R9*%
X158975000Y-75100000D03*
X157325000Y-75100000D03*
%TD*%
D21*
%TO.C,R13*%
X126525000Y-77300000D03*
X128175000Y-77300000D03*
%TD*%
D25*
%TO.C,R20*%
X134300000Y-124975000D03*
X134300000Y-123325000D03*
%TD*%
D34*
%TO.C,C2*%
X136750000Y-113725000D03*
X136750000Y-115275000D03*
%TD*%
D31*
%TO.C,R3*%
X102650000Y-91225000D03*
X102650000Y-92875000D03*
%TD*%
D25*
%TO.C,R24*%
X134300000Y-121925000D03*
X134300000Y-120275000D03*
%TD*%
D34*
%TO.C,C18*%
X121400000Y-126612500D03*
X121400000Y-128162500D03*
%TD*%
D31*
%TO.C,R4*%
X104150000Y-91225000D03*
X104150000Y-92875000D03*
%TD*%
D45*
%TO.C,D1*%
X124500000Y-77300000D03*
X124500000Y-79000000D03*
X123400000Y-77300000D03*
X123400000Y-79000000D03*
%TD*%
D46*
%TO.C,J2*%
X124725000Y-85250000D03*
X124725000Y-115250000D03*
X175725000Y-85250000D03*
X175725000Y-115250000D03*
D38*
X176725000Y-91450000D03*
D39*
X176725000Y-93990000D03*
X176725000Y-96530000D03*
X176725000Y-99070000D03*
X176725000Y-101610000D03*
X176725000Y-104150000D03*
X176725000Y-106690000D03*
X176725000Y-109230000D03*
%TD*%
D34*
%TO.C,C19*%
X131000000Y-125375000D03*
X131000000Y-126925000D03*
%TD*%
%TO.C,C17*%
X119900000Y-126612500D03*
X119900000Y-128162500D03*
%TD*%
D19*
%TO.C,TP4*%
X120600000Y-136400000D03*
%TD*%
D40*
%TO.C,C1*%
X138500000Y-113750000D03*
X138500000Y-115650000D03*
%TD*%
D22*
%TO.C,C8*%
X141050000Y-102000000D03*
X142600000Y-102000000D03*
%TD*%
D44*
%TO.C,C6*%
X142600000Y-103500000D03*
X141050000Y-103500000D03*
%TD*%
D21*
%TO.C,R5*%
X141000000Y-100500000D03*
X142650000Y-100500000D03*
%TD*%
D25*
%TO.C,R18*%
X109450000Y-117575000D03*
X109450000Y-115925000D03*
%TD*%
D31*
%TO.C,R16*%
X99900000Y-109375000D03*
X99900000Y-111025000D03*
%TD*%
D37*
%TO.C,C23*%
X106300000Y-120050000D03*
X106300000Y-118150000D03*
%TD*%
D34*
%TO.C,C4*%
X154000000Y-106300000D03*
X154000000Y-107850000D03*
%TD*%
D31*
%TO.C,R7*%
X168012500Y-108475000D03*
X168012500Y-110125000D03*
%TD*%
D25*
%TO.C,R19*%
X111950000Y-117575000D03*
X111950000Y-115925000D03*
%TD*%
D47*
%TO.C,J3*%
X102750000Y-99447500D03*
X102750000Y-105227500D03*
D48*
X104195000Y-99087500D03*
X104195000Y-99887500D03*
D49*
X104195000Y-101087500D03*
X104195000Y-102087500D03*
X104195000Y-102587500D03*
X104195000Y-103587500D03*
D48*
X104195000Y-104787500D03*
X104195000Y-105587500D03*
X104195000Y-105587500D03*
X104195000Y-104787500D03*
D49*
X104195000Y-104087500D03*
X104195000Y-103087500D03*
X104195000Y-101587500D03*
X104195000Y-100587500D03*
D48*
X104195000Y-99887500D03*
X104195000Y-99087500D03*
D50*
X103280000Y-98017500D03*
D51*
X99100000Y-98017500D03*
D50*
X103280000Y-106657500D03*
D51*
X99100000Y-106657500D03*
%TD*%
D52*
%TO.C,U2*%
X146150000Y-97500000D03*
X146150000Y-98000000D03*
X146150000Y-98500000D03*
X146150000Y-99000000D03*
X146150000Y-99500000D03*
X146150000Y-100000000D03*
X146150000Y-100500000D03*
X146150000Y-101000000D03*
X146150000Y-101500000D03*
X146150000Y-102000000D03*
X146150000Y-102500000D03*
X146150000Y-103000000D03*
D53*
X147562500Y-104412500D03*
X148062500Y-104412500D03*
X148562500Y-104412500D03*
X149062500Y-104412500D03*
X149562500Y-104412500D03*
X150062500Y-104412500D03*
X150562500Y-104412500D03*
X151062500Y-104412500D03*
X151562500Y-104412500D03*
X152062500Y-104412500D03*
X152562500Y-104412500D03*
X153062500Y-104412500D03*
D52*
X154475000Y-103000000D03*
X154475000Y-102500000D03*
X154475000Y-102000000D03*
X154475000Y-101500000D03*
X154475000Y-101000000D03*
X154475000Y-100500000D03*
X154475000Y-100000000D03*
X154475000Y-99500000D03*
X154475000Y-99000000D03*
X154475000Y-98500000D03*
X154475000Y-98000000D03*
X154475000Y-97500000D03*
D53*
X153062500Y-96087500D03*
X152562500Y-96087500D03*
X152062500Y-96087500D03*
X151562500Y-96087500D03*
X151062500Y-96087500D03*
X150562500Y-96087500D03*
X150062500Y-96087500D03*
X149562500Y-96087500D03*
X149062500Y-96087500D03*
X148562500Y-96087500D03*
X148062500Y-96087500D03*
X147562500Y-96087500D03*
%TD*%
D54*
%TO.C,C21*%
X110550000Y-125200000D03*
X108650000Y-125200000D03*
%TD*%
D19*
%TO.C,TP5*%
X142850000Y-121100000D03*
%TD*%
D55*
%TO.C,C7*%
X146650000Y-94325000D03*
X146650000Y-92775000D03*
%TD*%
D31*
%TO.C,R1*%
X139800000Y-107400000D03*
X139800000Y-109050000D03*
%TD*%
D56*
%TO.C,U3*%
X116000000Y-93500000D03*
X116000000Y-94770000D03*
X116000000Y-96040000D03*
X116000000Y-97310000D03*
X116000000Y-98580000D03*
X116000000Y-99850000D03*
X116000000Y-101120000D03*
X116000000Y-102390000D03*
X120950000Y-102390000D03*
X120950000Y-101120000D03*
X120950000Y-99850000D03*
X120950000Y-98580000D03*
X120950000Y-97310000D03*
X120950000Y-96040000D03*
X120950000Y-94770000D03*
X120950000Y-93500000D03*
%TD*%
D21*
%TO.C,R10*%
X112325000Y-94950000D03*
X113975000Y-94950000D03*
%TD*%
%LPD*%
M02*
