%TF.GenerationSoftware,KiCad,Pcbnew,8.0.7*%
%TF.CreationDate,2024-12-15T23:10:09+01:00*%
%TF.ProjectId,leany,6c65616e-792e-46b6-9963-61645f706362,rev?*%
%TF.SameCoordinates,Original*%
%TF.FileFunction,Paste,Bot*%
%TF.FilePolarity,Positive*%
%FSLAX46Y46*%
G04 Gerber Fmt 4.6, Leading zero omitted, Abs format (unit mm)*
G04 Created by KiCad (PCBNEW 8.0.7) date 2024-12-15 23:10:09*
%MOMM*%
%LPD*%
G01*
G04 APERTURE LIST*
G04 Aperture macros list*
%AMRoundRect*
0 Rectangle with rounded corners*
0 $1 Rounding radius*
0 $2 $3 $4 $5 $6 $7 $8 $9 X,Y pos of 4 corners*
0 Add a 4 corners polygon primitive as box body*
4,1,4,$2,$3,$4,$5,$6,$7,$8,$9,$2,$3,0*
0 Add four circle primitives for the rounded corners*
1,1,$1+$1,$2,$3*
1,1,$1+$1,$4,$5*
1,1,$1+$1,$6,$7*
1,1,$1+$1,$8,$9*
0 Add four rect primitives between the rounded corners*
20,1,$1+$1,$2,$3,$4,$5,0*
20,1,$1+$1,$4,$5,$6,$7,0*
20,1,$1+$1,$6,$7,$8,$9,0*
20,1,$1+$1,$8,$9,$2,$3,0*%
G04 Aperture macros list end*
%ADD10RoundRect,0.250000X0.850000X-0.375000X0.850000X0.375000X-0.850000X0.375000X-0.850000X-0.375000X0*%
%ADD11RoundRect,0.225000X-0.250000X0.225000X-0.250000X-0.225000X0.250000X-0.225000X0.250000X0.225000X0*%
%ADD12RoundRect,0.225000X0.250000X-0.225000X0.250000X0.225000X-0.250000X0.225000X-0.250000X-0.225000X0*%
%ADD13RoundRect,0.200000X-0.275000X0.200000X-0.275000X-0.200000X0.275000X-0.200000X0.275000X0.200000X0*%
%ADD14RoundRect,0.250000X0.250000X0.475000X-0.250000X0.475000X-0.250000X-0.475000X0.250000X-0.475000X0*%
%ADD15RoundRect,0.250000X0.475000X-0.250000X0.475000X0.250000X-0.475000X0.250000X-0.475000X-0.250000X0*%
%ADD16RoundRect,0.200000X-0.200000X-0.275000X0.200000X-0.275000X0.200000X0.275000X-0.200000X0.275000X0*%
%ADD17RoundRect,0.150000X0.150000X-0.512500X0.150000X0.512500X-0.150000X0.512500X-0.150000X-0.512500X0*%
%ADD18RoundRect,0.225000X-0.225000X-0.250000X0.225000X-0.250000X0.225000X0.250000X-0.225000X0.250000X0*%
%ADD19RoundRect,0.200000X0.200000X0.275000X-0.200000X0.275000X-0.200000X-0.275000X0.200000X-0.275000X0*%
%ADD20R,1.450000X0.600000*%
%ADD21R,1.450000X0.300000*%
%ADD22RoundRect,0.250000X0.335000X0.335000X-0.335000X0.335000X-0.335000X-0.335000X0.335000X-0.335000X0*%
%ADD23RoundRect,0.062500X0.350000X0.062500X-0.350000X0.062500X-0.350000X-0.062500X0.350000X-0.062500X0*%
%ADD24RoundRect,0.062500X0.062500X0.350000X-0.062500X0.350000X-0.062500X-0.350000X0.062500X-0.350000X0*%
%ADD25R,7.340000X6.350000*%
%ADD26RoundRect,0.250000X-0.250000X-0.475000X0.250000X-0.475000X0.250000X0.475000X-0.250000X0.475000X0*%
%ADD27RoundRect,0.150000X-0.512500X-0.150000X0.512500X-0.150000X0.512500X0.150000X-0.512500X0.150000X0*%
G04 APERTURE END LIST*
D10*
%TO.C,L1*%
X175845000Y-90600000D03*
X175845000Y-88450000D03*
%TD*%
D11*
%TO.C,C17*%
X167945000Y-83450000D03*
X167945000Y-85000000D03*
%TD*%
D12*
%TO.C,C14*%
X182245000Y-92450000D03*
X182245000Y-90900000D03*
%TD*%
D13*
%TO.C,R10*%
X191345000Y-102950000D03*
X191345000Y-104600000D03*
%TD*%
D14*
%TO.C,C12*%
X173600000Y-92200000D03*
X171700000Y-92200000D03*
%TD*%
D11*
%TO.C,C16*%
X166345000Y-83475000D03*
X166345000Y-85025000D03*
%TD*%
D15*
%TO.C,C13*%
X184000000Y-92400000D03*
X184000000Y-90500000D03*
%TD*%
D16*
%TO.C,R17*%
X182225000Y-115300000D03*
X183875000Y-115300000D03*
%TD*%
D17*
%TO.C,U4*%
X171707500Y-83062500D03*
X170757500Y-83062500D03*
X169807500Y-83062500D03*
X169807500Y-80787500D03*
X171707500Y-80787500D03*
%TD*%
D18*
%TO.C,C18*%
X173470000Y-82225000D03*
X175020000Y-82225000D03*
%TD*%
D19*
%TO.C,R15*%
X188082500Y-110875000D03*
X186432500Y-110875000D03*
%TD*%
D20*
%TO.C,J3*%
X189250000Y-93125000D03*
X189250000Y-93925000D03*
D21*
X189250000Y-95125000D03*
X189250000Y-96125000D03*
X189250000Y-96625000D03*
X189250000Y-97625000D03*
D20*
X189250000Y-98825000D03*
X189250000Y-99625000D03*
X189250000Y-99625000D03*
X189250000Y-98825000D03*
D21*
X189250000Y-98125000D03*
X189250000Y-97125000D03*
X189250000Y-95625000D03*
X189250000Y-94625000D03*
D20*
X189250000Y-93925000D03*
X189250000Y-93125000D03*
%TD*%
D22*
%TO.C,U5*%
X179520000Y-94850000D03*
X179520000Y-93500000D03*
X178170000Y-94850000D03*
X178170000Y-93500000D03*
D23*
X180807500Y-92925000D03*
X180807500Y-93425000D03*
X180807500Y-93925000D03*
X180807500Y-94425000D03*
X180807500Y-94925000D03*
X180807500Y-95425000D03*
D24*
X180095000Y-96137500D03*
X179595000Y-96137500D03*
X179095000Y-96137500D03*
X178595000Y-96137500D03*
X178095000Y-96137500D03*
X177595000Y-96137500D03*
D23*
X176882500Y-95425000D03*
X176882500Y-94925000D03*
X176882500Y-94425000D03*
X176882500Y-93925000D03*
X176882500Y-93425000D03*
X176882500Y-92925000D03*
D24*
X177595000Y-92212500D03*
X178095000Y-92212500D03*
X178595000Y-92212500D03*
X179095000Y-92212500D03*
X179595000Y-92212500D03*
X180095000Y-92212500D03*
%TD*%
D15*
%TO.C,C19*%
X172150000Y-77150000D03*
X172150000Y-75250000D03*
%TD*%
D11*
%TO.C,C15*%
X164745000Y-83475000D03*
X164745000Y-85025000D03*
%TD*%
D25*
%TO.C,BT1*%
X174295000Y-105775000D03*
X95635000Y-105775000D03*
%TD*%
D11*
%TO.C,C11*%
X178045000Y-89200000D03*
X178045000Y-90750000D03*
%TD*%
D16*
%TO.C,R14*%
X182657500Y-110075000D03*
X184307500Y-110075000D03*
%TD*%
D15*
%TO.C,C21*%
X179845000Y-90725000D03*
X179845000Y-88825000D03*
%TD*%
D26*
%TO.C,C20*%
X178600000Y-98750000D03*
X180500000Y-98750000D03*
%TD*%
D13*
%TO.C,R9*%
X192945000Y-102925000D03*
X192945000Y-104575000D03*
%TD*%
D16*
%TO.C,R16*%
X186420000Y-112375000D03*
X188070000Y-112375000D03*
%TD*%
D13*
%TO.C,R13*%
X180782500Y-110700000D03*
X180782500Y-112350000D03*
%TD*%
D27*
%TO.C,Q2*%
X182495000Y-113525000D03*
X182495000Y-112575000D03*
X182495000Y-111625000D03*
X184770000Y-111625000D03*
X184770000Y-112575000D03*
X184770000Y-113525000D03*
%TD*%
M02*
